<?xml version="1.0" standalone="no"?>
<!DOCTYPE svg PUBLIC "-//W3C//DTD SVG 1.1//EN" "http://www.w3.org/Graphics/SVG/1.1/DTD/svg11.dtd" >
<svg xmlns="http://www.w3.org/2000/svg" xmlns:xlink="http://www.w3.org/1999/xlink" version="1.1">
<metadata>
Created by FontForge 20201107 at Mon Mar  9 12:55:23 2026
 By www-data
Copyright  2020 by Connary Fagen. All rights reserved.
</metadata>
<defs>
<font id="FONTSPRINGDEMO-ArticulatCFMediumRegular" horiz-adv-x="1224" >
  <font-face 
    font-family="FSP DEMO - Articulat CF Medium"
    font-weight="500"
    font-stretch="normal"
    units-per-em="2048"
    panose-1="0 0 6 0 0 0 0 0 0 0"
    ascent="1638"
    descent="-410"
    x-height="1065"
    cap-height="1434"
    bbox="-80 -428 1962 1491"
    underline-thickness="102"
    underline-position="-204"
    unicode-range="U+0020-007E"
  />
<missing-glyph 
d="M207 403q-13 0 -19 -2v-200q4 -2 19 -2q37 0 50 25t13 77q0 54 -13 78t-50 24zM518 330v-49h-82v-78h96v-49h-155v297h155v-52h-96v-69h82zM203 150q-47 0 -74 4v292q61 9 76 9q67 0 96 -37.5t29 -116.5t-29.5 -115t-97.5 -36zM586 451h80l39 -164l38 164h82
q3 -45 13 -297h-60q0 108 -6 213l-41 -168h-55l-41 168h-2q-4 -140 -4 -213h-58q3 156 15 297zM987 150q-60 0 -84 35.5t-24 115.5q0 81 24 117.5t84 36.5t85.5 -37t25.5 -117q0 -79 -25.5 -115t-85.5 -36zM987 403q-29 0 -39 -23.5t-10 -78.5q0 -54 10 -78t39 -24
q30 0 40.5 24t10.5 78q0 55 -10 78.5t-41 23.5zM967 1016q49 0 79.5 -24.5t39 -51t8.5 -53.5q0 -43 -34.5 -72.5t-72.5 -34.5q-213 -23 -340 -147q3 8 9 22t25 53.5t39 75.5t50 80.5t59.5 76t66 53.5t71.5 22zM285 909q39 0 78 -21t69.5 -55t58.5 -74.5t48 -81.5t35 -75
t22 -55l8 -21q-117 148 -319 148q-49 0 -88 30t-39 76q0 53 33.5 91t93.5 38zM643 1214q38 -37 48.5 -102t-2.5 -131t-31.5 -126.5t-35.5 -98.5l-18 -39q20 191 -125 330q-35 35 -42 81.5t24 83.5q23 23 53 34t65 3.5t64 -35.5z" />
    <glyph glyph-name=".notdef" 
d="M207 403q-13 0 -19 -2v-200q4 -2 19 -2q37 0 50 25t13 77q0 54 -13 78t-50 24zM518 330v-49h-82v-78h96v-49h-155v297h155v-52h-96v-69h82zM203 150q-47 0 -74 4v292q61 9 76 9q67 0 96 -37.5t29 -116.5t-29.5 -115t-97.5 -36zM586 451h80l39 -164l38 164h82
q3 -45 13 -297h-60q0 108 -6 213l-41 -168h-55l-41 168h-2q-4 -140 -4 -213h-58q3 156 15 297zM987 150q-60 0 -84 35.5t-24 115.5q0 81 24 117.5t84 36.5t85.5 -37t25.5 -117q0 -79 -25.5 -115t-85.5 -36zM987 403q-29 0 -39 -23.5t-10 -78.5q0 -54 10 -78t39 -24
q30 0 40.5 24t10.5 78q0 55 -10 78.5t-41 23.5zM967 1016q49 0 79.5 -24.5t39 -51t8.5 -53.5q0 -43 -34.5 -72.5t-72.5 -34.5q-213 -23 -340 -147q3 8 9 22t25 53.5t39 75.5t50 80.5t59.5 76t66 53.5t71.5 22zM285 909q39 0 78 -21t69.5 -55t58.5 -74.5t48 -81.5t35 -75
t22 -55l8 -21q-117 148 -319 148q-49 0 -88 30t-39 76q0 53 33.5 91t93.5 38zM643 1214q38 -37 48.5 -102t-2.5 -131t-31.5 -126.5t-35.5 -98.5l-18 -39q20 191 -125 330q-35 35 -42 81.5t24 83.5q23 23 53 34t65 3.5t64 -35.5z" />
    <glyph glyph-name=".null" horiz-adv-x="0" 
 />
    <glyph glyph-name="nonmarkingreturn" horiz-adv-x="682" 
 />
    <glyph glyph-name="space" unicode=" " horiz-adv-x="471" 
 />
    <glyph glyph-name="exclam" unicode="!" 
d="M207 403q-13 0 -19 -2v-200q4 -2 19 -2q37 0 50 25t13 77q0 54 -13 78t-50 24zM518 330v-49h-82v-78h96v-49h-155v297h155v-52h-96v-69h82zM203 150q-47 0 -74 4v292q61 9 76 9q67 0 96 -37.5t29 -116.5t-29.5 -115t-97.5 -36zM586 451h80l39 -164l38 164h82
q3 -45 13 -297h-60q0 108 -6 213l-41 -168h-55l-41 168h-2q-4 -140 -4 -213h-58q3 156 15 297zM987 150q-60 0 -84 35.5t-24 115.5q0 81 24 117.5t84 36.5t85.5 -37t25.5 -117q0 -79 -25.5 -115t-85.5 -36zM987 403q-29 0 -39 -23.5t-10 -78.5q0 -54 10 -78t39 -24
q30 0 40.5 24t10.5 78q0 55 -10 78.5t-41 23.5zM967 1016q49 0 79.5 -24.5t39 -51t8.5 -53.5q0 -43 -34.5 -72.5t-72.5 -34.5q-213 -23 -340 -147q3 8 9 22t25 53.5t39 75.5t50 80.5t59.5 76t66 53.5t71.5 22zM285 909q39 0 78 -21t69.5 -55t58.5 -74.5t48 -81.5t35 -75
t22 -55l8 -21q-117 148 -319 148q-49 0 -88 30t-39 76q0 53 33.5 91t93.5 38zM643 1214q38 -37 48.5 -102t-2.5 -131t-31.5 -126.5t-35.5 -98.5l-18 -39q20 191 -125 330q-35 35 -42 81.5t24 83.5q23 23 53 34t65 3.5t64 -35.5z" />
    <glyph glyph-name="quotedbl" unicode="&#x22;" 
d="M207 403q-13 0 -19 -2v-200q4 -2 19 -2q37 0 50 25t13 77q0 54 -13 78t-50 24zM518 330v-49h-82v-78h96v-49h-155v297h155v-52h-96v-69h82zM203 150q-47 0 -74 4v292q61 9 76 9q67 0 96 -37.5t29 -116.5t-29.5 -115t-97.5 -36zM586 451h80l39 -164l38 164h82
q3 -45 13 -297h-60q0 108 -6 213l-41 -168h-55l-41 168h-2q-4 -140 -4 -213h-58q3 156 15 297zM987 150q-60 0 -84 35.5t-24 115.5q0 81 24 117.5t84 36.5t85.5 -37t25.5 -117q0 -79 -25.5 -115t-85.5 -36zM987 403q-29 0 -39 -23.5t-10 -78.5q0 -54 10 -78t39 -24
q30 0 40.5 24t10.5 78q0 55 -10 78.5t-41 23.5zM967 1016q49 0 79.5 -24.5t39 -51t8.5 -53.5q0 -43 -34.5 -72.5t-72.5 -34.5q-213 -23 -340 -147q3 8 9 22t25 53.5t39 75.5t50 80.5t59.5 76t66 53.5t71.5 22zM285 909q39 0 78 -21t69.5 -55t58.5 -74.5t48 -81.5t35 -75
t22 -55l8 -21q-117 148 -319 148q-49 0 -88 30t-39 76q0 53 33.5 91t93.5 38zM643 1214q38 -37 48.5 -102t-2.5 -131t-31.5 -126.5t-35.5 -98.5l-18 -39q20 191 -125 330q-35 35 -42 81.5t24 83.5q23 23 53 34t65 3.5t64 -35.5z" />
    <glyph glyph-name="numbersign" unicode="#" 
d="M207 403q-13 0 -19 -2v-200q4 -2 19 -2q37 0 50 25t13 77q0 54 -13 78t-50 24zM518 330v-49h-82v-78h96v-49h-155v297h155v-52h-96v-69h82zM203 150q-47 0 -74 4v292q61 9 76 9q67 0 96 -37.5t29 -116.5t-29.5 -115t-97.5 -36zM586 451h80l39 -164l38 164h82
q3 -45 13 -297h-60q0 108 -6 213l-41 -168h-55l-41 168h-2q-4 -140 -4 -213h-58q3 156 15 297zM987 150q-60 0 -84 35.5t-24 115.5q0 81 24 117.5t84 36.5t85.5 -37t25.5 -117q0 -79 -25.5 -115t-85.5 -36zM987 403q-29 0 -39 -23.5t-10 -78.5q0 -54 10 -78t39 -24
q30 0 40.5 24t10.5 78q0 55 -10 78.5t-41 23.5zM967 1016q49 0 79.5 -24.5t39 -51t8.5 -53.5q0 -43 -34.5 -72.5t-72.5 -34.5q-213 -23 -340 -147q3 8 9 22t25 53.5t39 75.5t50 80.5t59.5 76t66 53.5t71.5 22zM285 909q39 0 78 -21t69.5 -55t58.5 -74.5t48 -81.5t35 -75
t22 -55l8 -21q-117 148 -319 148q-49 0 -88 30t-39 76q0 53 33.5 91t93.5 38zM643 1214q38 -37 48.5 -102t-2.5 -131t-31.5 -126.5t-35.5 -98.5l-18 -39q20 191 -125 330q-35 35 -42 81.5t24 83.5q23 23 53 34t65 3.5t64 -35.5z" />
    <glyph glyph-name="dollar" unicode="$" 
d="M207 403q-13 0 -19 -2v-200q4 -2 19 -2q37 0 50 25t13 77q0 54 -13 78t-50 24zM518 330v-49h-82v-78h96v-49h-155v297h155v-52h-96v-69h82zM203 150q-47 0 -74 4v292q61 9 76 9q67 0 96 -37.5t29 -116.5t-29.5 -115t-97.5 -36zM586 451h80l39 -164l38 164h82
q3 -45 13 -297h-60q0 108 -6 213l-41 -168h-55l-41 168h-2q-4 -140 -4 -213h-58q3 156 15 297zM987 150q-60 0 -84 35.5t-24 115.5q0 81 24 117.5t84 36.5t85.5 -37t25.5 -117q0 -79 -25.5 -115t-85.5 -36zM987 403q-29 0 -39 -23.5t-10 -78.5q0 -54 10 -78t39 -24
q30 0 40.5 24t10.5 78q0 55 -10 78.5t-41 23.5zM967 1016q49 0 79.5 -24.5t39 -51t8.5 -53.5q0 -43 -34.5 -72.5t-72.5 -34.5q-213 -23 -340 -147q3 8 9 22t25 53.5t39 75.5t50 80.5t59.5 76t66 53.5t71.5 22zM285 909q39 0 78 -21t69.5 -55t58.5 -74.5t48 -81.5t35 -75
t22 -55l8 -21q-117 148 -319 148q-49 0 -88 30t-39 76q0 53 33.5 91t93.5 38zM643 1214q38 -37 48.5 -102t-2.5 -131t-31.5 -126.5t-35.5 -98.5l-18 -39q20 191 -125 330q-35 35 -42 81.5t24 83.5q23 23 53 34t65 3.5t64 -35.5z" />
    <glyph glyph-name="percent" unicode="%" 
d="M207 403q-13 0 -19 -2v-200q4 -2 19 -2q37 0 50 25t13 77q0 54 -13 78t-50 24zM518 330v-49h-82v-78h96v-49h-155v297h155v-52h-96v-69h82zM203 150q-47 0 -74 4v292q61 9 76 9q67 0 96 -37.5t29 -116.5t-29.5 -115t-97.5 -36zM586 451h80l39 -164l38 164h82
q3 -45 13 -297h-60q0 108 -6 213l-41 -168h-55l-41 168h-2q-4 -140 -4 -213h-58q3 156 15 297zM987 150q-60 0 -84 35.5t-24 115.5q0 81 24 117.5t84 36.5t85.5 -37t25.5 -117q0 -79 -25.5 -115t-85.5 -36zM987 403q-29 0 -39 -23.5t-10 -78.5q0 -54 10 -78t39 -24
q30 0 40.5 24t10.5 78q0 55 -10 78.5t-41 23.5zM967 1016q49 0 79.5 -24.5t39 -51t8.5 -53.5q0 -43 -34.5 -72.5t-72.5 -34.5q-213 -23 -340 -147q3 8 9 22t25 53.5t39 75.5t50 80.5t59.5 76t66 53.5t71.5 22zM285 909q39 0 78 -21t69.5 -55t58.5 -74.5t48 -81.5t35 -75
t22 -55l8 -21q-117 148 -319 148q-49 0 -88 30t-39 76q0 53 33.5 91t93.5 38zM643 1214q38 -37 48.5 -102t-2.5 -131t-31.5 -126.5t-35.5 -98.5l-18 -39q20 191 -125 330q-35 35 -42 81.5t24 83.5q23 23 53 34t65 3.5t64 -35.5z" />
    <glyph glyph-name="ampersand" unicode="&#x26;" 
d="M207 403q-13 0 -19 -2v-200q4 -2 19 -2q37 0 50 25t13 77q0 54 -13 78t-50 24zM518 330v-49h-82v-78h96v-49h-155v297h155v-52h-96v-69h82zM203 150q-47 0 -74 4v292q61 9 76 9q67 0 96 -37.5t29 -116.5t-29.5 -115t-97.5 -36zM586 451h80l39 -164l38 164h82
q3 -45 13 -297h-60q0 108 -6 213l-41 -168h-55l-41 168h-2q-4 -140 -4 -213h-58q3 156 15 297zM987 150q-60 0 -84 35.5t-24 115.5q0 81 24 117.5t84 36.5t85.5 -37t25.5 -117q0 -79 -25.5 -115t-85.5 -36zM987 403q-29 0 -39 -23.5t-10 -78.5q0 -54 10 -78t39 -24
q30 0 40.5 24t10.5 78q0 55 -10 78.5t-41 23.5zM967 1016q49 0 79.5 -24.5t39 -51t8.5 -53.5q0 -43 -34.5 -72.5t-72.5 -34.5q-213 -23 -340 -147q3 8 9 22t25 53.5t39 75.5t50 80.5t59.5 76t66 53.5t71.5 22zM285 909q39 0 78 -21t69.5 -55t58.5 -74.5t48 -81.5t35 -75
t22 -55l8 -21q-117 148 -319 148q-49 0 -88 30t-39 76q0 53 33.5 91t93.5 38zM643 1214q38 -37 48.5 -102t-2.5 -131t-31.5 -126.5t-35.5 -98.5l-18 -39q20 191 -125 330q-35 35 -42 81.5t24 83.5q23 23 53 34t65 3.5t64 -35.5z" />
    <glyph glyph-name="quotesingle" unicode="'" 
d="M207 403q-13 0 -19 -2v-200q4 -2 19 -2q37 0 50 25t13 77q0 54 -13 78t-50 24zM518 330v-49h-82v-78h96v-49h-155v297h155v-52h-96v-69h82zM203 150q-47 0 -74 4v292q61 9 76 9q67 0 96 -37.5t29 -116.5t-29.5 -115t-97.5 -36zM586 451h80l39 -164l38 164h82
q3 -45 13 -297h-60q0 108 -6 213l-41 -168h-55l-41 168h-2q-4 -140 -4 -213h-58q3 156 15 297zM987 150q-60 0 -84 35.5t-24 115.5q0 81 24 117.5t84 36.5t85.5 -37t25.5 -117q0 -79 -25.5 -115t-85.5 -36zM987 403q-29 0 -39 -23.5t-10 -78.5q0 -54 10 -78t39 -24
q30 0 40.5 24t10.5 78q0 55 -10 78.5t-41 23.5zM967 1016q49 0 79.5 -24.5t39 -51t8.5 -53.5q0 -43 -34.5 -72.5t-72.5 -34.5q-213 -23 -340 -147q3 8 9 22t25 53.5t39 75.5t50 80.5t59.5 76t66 53.5t71.5 22zM285 909q39 0 78 -21t69.5 -55t58.5 -74.5t48 -81.5t35 -75
t22 -55l8 -21q-117 148 -319 148q-49 0 -88 30t-39 76q0 53 33.5 91t93.5 38zM643 1214q38 -37 48.5 -102t-2.5 -131t-31.5 -126.5t-35.5 -98.5l-18 -39q20 191 -125 330q-35 35 -42 81.5t24 83.5q23 23 53 34t65 3.5t64 -35.5z" />
    <glyph glyph-name="parenleft" unicode="(" 
d="M207 403q-13 0 -19 -2v-200q4 -2 19 -2q37 0 50 25t13 77q0 54 -13 78t-50 24zM518 330v-49h-82v-78h96v-49h-155v297h155v-52h-96v-69h82zM203 150q-47 0 -74 4v292q61 9 76 9q67 0 96 -37.5t29 -116.5t-29.5 -115t-97.5 -36zM586 451h80l39 -164l38 164h82
q3 -45 13 -297h-60q0 108 -6 213l-41 -168h-55l-41 168h-2q-4 -140 -4 -213h-58q3 156 15 297zM987 150q-60 0 -84 35.5t-24 115.5q0 81 24 117.5t84 36.5t85.5 -37t25.5 -117q0 -79 -25.5 -115t-85.5 -36zM987 403q-29 0 -39 -23.5t-10 -78.5q0 -54 10 -78t39 -24
q30 0 40.5 24t10.5 78q0 55 -10 78.5t-41 23.5zM967 1016q49 0 79.5 -24.5t39 -51t8.5 -53.5q0 -43 -34.5 -72.5t-72.5 -34.5q-213 -23 -340 -147q3 8 9 22t25 53.5t39 75.5t50 80.5t59.5 76t66 53.5t71.5 22zM285 909q39 0 78 -21t69.5 -55t58.5 -74.5t48 -81.5t35 -75
t22 -55l8 -21q-117 148 -319 148q-49 0 -88 30t-39 76q0 53 33.5 91t93.5 38zM643 1214q38 -37 48.5 -102t-2.5 -131t-31.5 -126.5t-35.5 -98.5l-18 -39q20 191 -125 330q-35 35 -42 81.5t24 83.5q23 23 53 34t65 3.5t64 -35.5z" />
    <glyph glyph-name="parenright" unicode=")" 
d="M207 403q-13 0 -19 -2v-200q4 -2 19 -2q37 0 50 25t13 77q0 54 -13 78t-50 24zM518 330v-49h-82v-78h96v-49h-155v297h155v-52h-96v-69h82zM203 150q-47 0 -74 4v292q61 9 76 9q67 0 96 -37.5t29 -116.5t-29.5 -115t-97.5 -36zM586 451h80l39 -164l38 164h82
q3 -45 13 -297h-60q0 108 -6 213l-41 -168h-55l-41 168h-2q-4 -140 -4 -213h-58q3 156 15 297zM987 150q-60 0 -84 35.5t-24 115.5q0 81 24 117.5t84 36.5t85.5 -37t25.5 -117q0 -79 -25.5 -115t-85.5 -36zM987 403q-29 0 -39 -23.5t-10 -78.5q0 -54 10 -78t39 -24
q30 0 40.5 24t10.5 78q0 55 -10 78.5t-41 23.5zM967 1016q49 0 79.5 -24.5t39 -51t8.5 -53.5q0 -43 -34.5 -72.5t-72.5 -34.5q-213 -23 -340 -147q3 8 9 22t25 53.5t39 75.5t50 80.5t59.5 76t66 53.5t71.5 22zM285 909q39 0 78 -21t69.5 -55t58.5 -74.5t48 -81.5t35 -75
t22 -55l8 -21q-117 148 -319 148q-49 0 -88 30t-39 76q0 53 33.5 91t93.5 38zM643 1214q38 -37 48.5 -102t-2.5 -131t-31.5 -126.5t-35.5 -98.5l-18 -39q20 191 -125 330q-35 35 -42 81.5t24 83.5q23 23 53 34t65 3.5t64 -35.5z" />
    <glyph glyph-name="asterisk" unicode="*" 
d="M207 403q-13 0 -19 -2v-200q4 -2 19 -2q37 0 50 25t13 77q0 54 -13 78t-50 24zM518 330v-49h-82v-78h96v-49h-155v297h155v-52h-96v-69h82zM203 150q-47 0 -74 4v292q61 9 76 9q67 0 96 -37.5t29 -116.5t-29.5 -115t-97.5 -36zM586 451h80l39 -164l38 164h82
q3 -45 13 -297h-60q0 108 -6 213l-41 -168h-55l-41 168h-2q-4 -140 -4 -213h-58q3 156 15 297zM987 150q-60 0 -84 35.5t-24 115.5q0 81 24 117.5t84 36.5t85.5 -37t25.5 -117q0 -79 -25.5 -115t-85.5 -36zM987 403q-29 0 -39 -23.5t-10 -78.5q0 -54 10 -78t39 -24
q30 0 40.5 24t10.5 78q0 55 -10 78.5t-41 23.5zM967 1016q49 0 79.5 -24.5t39 -51t8.5 -53.5q0 -43 -34.5 -72.5t-72.5 -34.5q-213 -23 -340 -147q3 8 9 22t25 53.5t39 75.5t50 80.5t59.5 76t66 53.5t71.5 22zM285 909q39 0 78 -21t69.5 -55t58.5 -74.5t48 -81.5t35 -75
t22 -55l8 -21q-117 148 -319 148q-49 0 -88 30t-39 76q0 53 33.5 91t93.5 38zM643 1214q38 -37 48.5 -102t-2.5 -131t-31.5 -126.5t-35.5 -98.5l-18 -39q20 191 -125 330q-35 35 -42 81.5t24 83.5q23 23 53 34t65 3.5t64 -35.5z" />
    <glyph glyph-name="plus" unicode="+" 
d="M207 403q-13 0 -19 -2v-200q4 -2 19 -2q37 0 50 25t13 77q0 54 -13 78t-50 24zM518 330v-49h-82v-78h96v-49h-155v297h155v-52h-96v-69h82zM203 150q-47 0 -74 4v292q61 9 76 9q67 0 96 -37.5t29 -116.5t-29.5 -115t-97.5 -36zM586 451h80l39 -164l38 164h82
q3 -45 13 -297h-60q0 108 -6 213l-41 -168h-55l-41 168h-2q-4 -140 -4 -213h-58q3 156 15 297zM987 150q-60 0 -84 35.5t-24 115.5q0 81 24 117.5t84 36.5t85.5 -37t25.5 -117q0 -79 -25.5 -115t-85.5 -36zM987 403q-29 0 -39 -23.5t-10 -78.5q0 -54 10 -78t39 -24
q30 0 40.5 24t10.5 78q0 55 -10 78.5t-41 23.5zM967 1016q49 0 79.5 -24.5t39 -51t8.5 -53.5q0 -43 -34.5 -72.5t-72.5 -34.5q-213 -23 -340 -147q3 8 9 22t25 53.5t39 75.5t50 80.5t59.5 76t66 53.5t71.5 22zM285 909q39 0 78 -21t69.5 -55t58.5 -74.5t48 -81.5t35 -75
t22 -55l8 -21q-117 148 -319 148q-49 0 -88 30t-39 76q0 53 33.5 91t93.5 38zM643 1214q38 -37 48.5 -102t-2.5 -131t-31.5 -126.5t-35.5 -98.5l-18 -39q20 191 -125 330q-35 35 -42 81.5t24 83.5q23 23 53 34t65 3.5t64 -35.5z" />
    <glyph glyph-name="comma" unicode="," horiz-adv-x="456" 
d="M84 -248v105h14q88 0 117 27.5t29 99.5q-74 0 -117 38.5t-43 96.5q0 56 37.5 93.5t95.5 37.5q69 0 112.5 -52.5t43.5 -162.5q0 -140 -67 -211.5t-179 -71.5h-43z" />
    <glyph glyph-name="hyphen" unicode="-" 
d="M207 403q-13 0 -19 -2v-200q4 -2 19 -2q37 0 50 25t13 77q0 54 -13 78t-50 24zM518 330v-49h-82v-78h96v-49h-155v297h155v-52h-96v-69h82zM203 150q-47 0 -74 4v292q61 9 76 9q67 0 96 -37.5t29 -116.5t-29.5 -115t-97.5 -36zM586 451h80l39 -164l38 164h82
q3 -45 13 -297h-60q0 108 -6 213l-41 -168h-55l-41 168h-2q-4 -140 -4 -213h-58q3 156 15 297zM987 150q-60 0 -84 35.5t-24 115.5q0 81 24 117.5t84 36.5t85.5 -37t25.5 -117q0 -79 -25.5 -115t-85.5 -36zM987 403q-29 0 -39 -23.5t-10 -78.5q0 -54 10 -78t39 -24
q30 0 40.5 24t10.5 78q0 55 -10 78.5t-41 23.5zM967 1016q49 0 79.5 -24.5t39 -51t8.5 -53.5q0 -43 -34.5 -72.5t-72.5 -34.5q-213 -23 -340 -147q3 8 9 22t25 53.5t39 75.5t50 80.5t59.5 76t66 53.5t71.5 22zM285 909q39 0 78 -21t69.5 -55t58.5 -74.5t48 -81.5t35 -75
t22 -55l8 -21q-117 148 -319 148q-49 0 -88 30t-39 76q0 53 33.5 91t93.5 38zM643 1214q38 -37 48.5 -102t-2.5 -131t-31.5 -126.5t-35.5 -98.5l-18 -39q20 191 -125 330q-35 35 -42 81.5t24 83.5q23 23 53 34t65 3.5t64 -35.5z" />
    <glyph glyph-name="period" unicode="." horiz-adv-x="440" 
d="M219 -20q-56 0 -95.5 39t-39.5 96q0 55 40 95t95 40q57 0 97 -39.5t40 -95.5q0 -57 -40 -96t-97 -39z" />
    <glyph glyph-name="slash" unicode="/" 
d="M207 403q-13 0 -19 -2v-200q4 -2 19 -2q37 0 50 25t13 77q0 54 -13 78t-50 24zM518 330v-49h-82v-78h96v-49h-155v297h155v-52h-96v-69h82zM203 150q-47 0 -74 4v292q61 9 76 9q67 0 96 -37.5t29 -116.5t-29.5 -115t-97.5 -36zM586 451h80l39 -164l38 164h82
q3 -45 13 -297h-60q0 108 -6 213l-41 -168h-55l-41 168h-2q-4 -140 -4 -213h-58q3 156 15 297zM987 150q-60 0 -84 35.5t-24 115.5q0 81 24 117.5t84 36.5t85.5 -37t25.5 -117q0 -79 -25.5 -115t-85.5 -36zM987 403q-29 0 -39 -23.5t-10 -78.5q0 -54 10 -78t39 -24
q30 0 40.5 24t10.5 78q0 55 -10 78.5t-41 23.5zM967 1016q49 0 79.5 -24.5t39 -51t8.5 -53.5q0 -43 -34.5 -72.5t-72.5 -34.5q-213 -23 -340 -147q3 8 9 22t25 53.5t39 75.5t50 80.5t59.5 76t66 53.5t71.5 22zM285 909q39 0 78 -21t69.5 -55t58.5 -74.5t48 -81.5t35 -75
t22 -55l8 -21q-117 148 -319 148q-49 0 -88 30t-39 76q0 53 33.5 91t93.5 38zM643 1214q38 -37 48.5 -102t-2.5 -131t-31.5 -126.5t-35.5 -98.5l-18 -39q20 191 -125 330q-35 35 -42 81.5t24 83.5q23 23 53 34t65 3.5t64 -35.5z" />
    <glyph glyph-name="zero" unicode="0" horiz-adv-x="1288" 
d="M643 -20q-115 0 -214 44t-177 131.5t-123 231.5t-45 330q0 185 45 328.5t123 230.5t177 131.5t214 44.5q116 0 215.5 -44.5t177.5 -131.5t123 -230.5t45 -328.5q0 -186 -45 -330t-123 -231.5t-177.5 -131.5t-215.5 -44zM643 156q175 0 269 153t94 408q0 254 -94 406.5
t-269 152.5t-268.5 -152.5t-93.5 -406.5q0 -255 93.5 -408t268.5 -153z" />
    <glyph glyph-name="one" unicode="1" horiz-adv-x="722" 
d="M360 0v1167q-44 -51 -117 -81t-159 -31v172q105 9 178 64t98 143h207v-1434h-207z" />
    <glyph glyph-name="two" unicode="2" horiz-adv-x="1136" 
d="M82 0v59q0 195 87 330t308 266q164 100 199 125q116 83 145 170q13 39 13 84q1 117 -73 179.5t-190 62.5q-120 0 -195 -71t-75 -210v-28h-201v39q0 130 51.5 229.5t160 158t261.5 58.5q220 0 343.5 -112.5t123.5 -295.5q0 -54 -12.5 -102.5t-29.5 -86t-51 -76t-61 -63.5
t-75.5 -58t-78.5 -51t-85 -50q-173 -105 -251.5 -188.5t-78.5 -184.5v-10h727v-174h-962z" />
    <glyph glyph-name="three" unicode="3" horiz-adv-x="1191" 
d="M584 -20q-251 0 -380.5 131.5t-129.5 355.5h194q1 -150 89.5 -229.5t234.5 -79.5q135 0 226 70t91 196q0 119 -88 188.5t-252 69.5h-69v156h59q82 0 141.5 19.5t89.5 53t43 69.5t13 77q0 102 -70 159.5t-186 57.5q-121 0 -198 -69.5t-77 -219.5h-194q0 227 124 347
t349 120q211 0 332 -101t121 -264q0 -120 -66 -203t-172 -112q42 -6 83.5 -22.5t82.5 -46t72.5 -69.5t51 -97.5t19.5 -124.5q0 -192 -146 -312t-388 -120z" />
    <glyph glyph-name="four" unicode="4" 
d="M207 403q-13 0 -19 -2v-200q4 -2 19 -2q37 0 50 25t13 77q0 54 -13 78t-50 24zM518 330v-49h-82v-78h96v-49h-155v297h155v-52h-96v-69h82zM203 150q-47 0 -74 4v292q61 9 76 9q67 0 96 -37.5t29 -116.5t-29.5 -115t-97.5 -36zM586 451h80l39 -164l38 164h82
q3 -45 13 -297h-60q0 108 -6 213l-41 -168h-55l-41 168h-2q-4 -140 -4 -213h-58q3 156 15 297zM987 150q-60 0 -84 35.5t-24 115.5q0 81 24 117.5t84 36.5t85.5 -37t25.5 -117q0 -79 -25.5 -115t-85.5 -36zM987 403q-29 0 -39 -23.5t-10 -78.5q0 -54 10 -78t39 -24
q30 0 40.5 24t10.5 78q0 55 -10 78.5t-41 23.5zM967 1016q49 0 79.5 -24.5t39 -51t8.5 -53.5q0 -43 -34.5 -72.5t-72.5 -34.5q-213 -23 -340 -147q3 8 9 22t25 53.5t39 75.5t50 80.5t59.5 76t66 53.5t71.5 22zM285 909q39 0 78 -21t69.5 -55t58.5 -74.5t48 -81.5t35 -75
t22 -55l8 -21q-117 148 -319 148q-49 0 -88 30t-39 76q0 53 33.5 91t93.5 38zM643 1214q38 -37 48.5 -102t-2.5 -131t-31.5 -126.5t-35.5 -98.5l-18 -39q20 191 -125 330q-35 35 -42 81.5t24 83.5q23 23 53 34t65 3.5t64 -35.5z" />
    <glyph glyph-name="five" unicode="5" horiz-adv-x="1185" 
d="M602 -20q-238 0 -373 128t-135 332h189q4 -135 93.5 -212.5t221.5 -77.5q136 0 228 83.5t92 249.5q0 86 -26 152t-71.5 104.5t-100.5 58t-118 19.5q-91 0 -166 -38.5t-117 -110.5h-196l117 766h755v-166h-612l-68 -428q39 52 126.5 95.5t209.5 43.5q206 0 338.5 -134
t132.5 -362q0 -235 -141.5 -369t-378.5 -134z" />
    <glyph glyph-name="six" unicode="6" horiz-adv-x="1210" 
d="M659 954q93 0 176 -30t148.5 -87.5t104 -150.5t38.5 -211q0 -122 -42 -218.5t-114 -155.5t-161 -90t-188 -31q-117 0 -211.5 42.5t-166 128.5t-110.5 227.5t-39 328.5q0 123 16.5 229.5t56 203t100.5 164.5t154.5 108t213.5 40q111 0 199.5 -33.5t141 -89t80 -121.5
t27.5 -137h-182q-12 100 -84.5 157.5t-185.5 57.5q-81 0 -143.5 -33t-99 -83.5t-60 -122t-32 -137.5t-9.5 -142q58 86 153.5 136t218.5 50zM621 150q133 0 220 88t87 239q0 149 -85.5 233.5t-219.5 84.5t-222 -84.5t-88 -233.5q0 -151 88 -239t220 -88z" />
    <glyph glyph-name="seven" unicode="7" horiz-adv-x="1011" 
d="M250 0q55 589 493 1262h-682v172h879v-172q-213 -327 -340.5 -639t-153.5 -623h-196z" />
    <glyph glyph-name="eight" unicode="8" horiz-adv-x="1202" 
d="M602 -20q-151 0 -269.5 50.5t-188.5 151t-70 236.5q0 142 77 240t218 149q-91 44 -142 123.5t-51 175.5q0 151 114.5 248.5t311.5 97.5q196 0 310 -97.5t114 -248.5q0 -96 -50.5 -175.5t-141.5 -123.5q141 -51 217.5 -148.5t76.5 -240.5q0 -136 -70 -236.5t-188 -151
t-268 -50.5zM602 877q110 0 175 58.5t65 154.5q0 94 -64 152t-176 58q-113 0 -177.5 -58t-64.5 -152q0 -96 65.5 -154.5t176.5 -58.5zM602 154q151 0 236.5 77t85.5 201q0 129 -89.5 204t-232.5 75q-144 0 -233.5 -74.5t-89.5 -204.5q0 -124 85.5 -201t237.5 -77z" />
    <glyph glyph-name="nine" unicode="9" horiz-adv-x="1210" 
d="M590 1450q117 0 211.5 -42.5t166.5 -128.5t111 -227.5t39 -328.5q0 -123 -16.5 -229.5t-56.5 -203t-101 -165t-155 -108.5t-214 -40q-110 0 -198 33.5t-141 89t-80.5 121.5t-28.5 137h184q10 -99 83 -157t186 -58q82 0 144.5 32.5t99.5 83t60 121.5t31 137.5t9 141.5
q-60 -84 -155.5 -134t-217.5 -50q-93 0 -175 30t-147.5 87.5t-104 150.5t-38.5 211q0 122 42.5 218.5t114 156t160.5 90.5t187 31zM590 635q133 0 220 84t87 233q0 151 -87.5 239.5t-219.5 88.5q-133 0 -220 -88.5t-87 -239.5q0 -149 86.5 -233t220.5 -84z" />
    <glyph glyph-name="colon" unicode=":" horiz-adv-x="440" 
d="M219 795q-55 0 -95 39.5t-40 95.5q0 57 39.5 96t95.5 39q57 0 97 -39t40 -96q0 -56 -40 -95.5t-97 -39.5zM219 -20q-56 0 -95.5 39t-39.5 96q0 55 40 95t95 40q57 0 97 -39.5t40 -95.5q0 -57 -40 -96t-97 -39z" />
    <glyph glyph-name="semicolon" unicode=";" horiz-adv-x="456" 
d="M219 795q-55 0 -95 39.5t-40 95.5q0 57 39.5 96t95.5 39q57 0 97 -39t40 -96q0 -56 -40 -95.5t-97 -39.5zM84 -248v105h14q88 0 117 27.5t29 99.5q-74 0 -117 38.5t-43 96.5q0 56 37.5 93.5t95.5 37.5q69 0 112.5 -52.5t43.5 -162.5q0 -140 -67 -211.5t-179 -71.5h-43z
" />
    <glyph glyph-name="less" unicode="&#x3c;" 
d="M207 403q-13 0 -19 -2v-200q4 -2 19 -2q37 0 50 25t13 77q0 54 -13 78t-50 24zM518 330v-49h-82v-78h96v-49h-155v297h155v-52h-96v-69h82zM203 150q-47 0 -74 4v292q61 9 76 9q67 0 96 -37.5t29 -116.5t-29.5 -115t-97.5 -36zM586 451h80l39 -164l38 164h82
q3 -45 13 -297h-60q0 108 -6 213l-41 -168h-55l-41 168h-2q-4 -140 -4 -213h-58q3 156 15 297zM987 150q-60 0 -84 35.5t-24 115.5q0 81 24 117.5t84 36.5t85.5 -37t25.5 -117q0 -79 -25.5 -115t-85.5 -36zM987 403q-29 0 -39 -23.5t-10 -78.5q0 -54 10 -78t39 -24
q30 0 40.5 24t10.5 78q0 55 -10 78.5t-41 23.5zM967 1016q49 0 79.5 -24.5t39 -51t8.5 -53.5q0 -43 -34.5 -72.5t-72.5 -34.5q-213 -23 -340 -147q3 8 9 22t25 53.5t39 75.5t50 80.5t59.5 76t66 53.5t71.5 22zM285 909q39 0 78 -21t69.5 -55t58.5 -74.5t48 -81.5t35 -75
t22 -55l8 -21q-117 148 -319 148q-49 0 -88 30t-39 76q0 53 33.5 91t93.5 38zM643 1214q38 -37 48.5 -102t-2.5 -131t-31.5 -126.5t-35.5 -98.5l-18 -39q20 191 -125 330q-35 35 -42 81.5t24 83.5q23 23 53 34t65 3.5t64 -35.5z" />
    <glyph glyph-name="equal" unicode="=" 
d="M207 403q-13 0 -19 -2v-200q4 -2 19 -2q37 0 50 25t13 77q0 54 -13 78t-50 24zM518 330v-49h-82v-78h96v-49h-155v297h155v-52h-96v-69h82zM203 150q-47 0 -74 4v292q61 9 76 9q67 0 96 -37.5t29 -116.5t-29.5 -115t-97.5 -36zM586 451h80l39 -164l38 164h82
q3 -45 13 -297h-60q0 108 -6 213l-41 -168h-55l-41 168h-2q-4 -140 -4 -213h-58q3 156 15 297zM987 150q-60 0 -84 35.5t-24 115.5q0 81 24 117.5t84 36.5t85.5 -37t25.5 -117q0 -79 -25.5 -115t-85.5 -36zM987 403q-29 0 -39 -23.5t-10 -78.5q0 -54 10 -78t39 -24
q30 0 40.5 24t10.5 78q0 55 -10 78.5t-41 23.5zM967 1016q49 0 79.5 -24.5t39 -51t8.5 -53.5q0 -43 -34.5 -72.5t-72.5 -34.5q-213 -23 -340 -147q3 8 9 22t25 53.5t39 75.5t50 80.5t59.5 76t66 53.5t71.5 22zM285 909q39 0 78 -21t69.5 -55t58.5 -74.5t48 -81.5t35 -75
t22 -55l8 -21q-117 148 -319 148q-49 0 -88 30t-39 76q0 53 33.5 91t93.5 38zM643 1214q38 -37 48.5 -102t-2.5 -131t-31.5 -126.5t-35.5 -98.5l-18 -39q20 191 -125 330q-35 35 -42 81.5t24 83.5q23 23 53 34t65 3.5t64 -35.5z" />
    <glyph glyph-name="greater" unicode="&#x3e;" 
d="M207 403q-13 0 -19 -2v-200q4 -2 19 -2q37 0 50 25t13 77q0 54 -13 78t-50 24zM518 330v-49h-82v-78h96v-49h-155v297h155v-52h-96v-69h82zM203 150q-47 0 -74 4v292q61 9 76 9q67 0 96 -37.5t29 -116.5t-29.5 -115t-97.5 -36zM586 451h80l39 -164l38 164h82
q3 -45 13 -297h-60q0 108 -6 213l-41 -168h-55l-41 168h-2q-4 -140 -4 -213h-58q3 156 15 297zM987 150q-60 0 -84 35.5t-24 115.5q0 81 24 117.5t84 36.5t85.5 -37t25.5 -117q0 -79 -25.5 -115t-85.5 -36zM987 403q-29 0 -39 -23.5t-10 -78.5q0 -54 10 -78t39 -24
q30 0 40.5 24t10.5 78q0 55 -10 78.5t-41 23.5zM967 1016q49 0 79.5 -24.5t39 -51t8.5 -53.5q0 -43 -34.5 -72.5t-72.5 -34.5q-213 -23 -340 -147q3 8 9 22t25 53.5t39 75.5t50 80.5t59.5 76t66 53.5t71.5 22zM285 909q39 0 78 -21t69.5 -55t58.5 -74.5t48 -81.5t35 -75
t22 -55l8 -21q-117 148 -319 148q-49 0 -88 30t-39 76q0 53 33.5 91t93.5 38zM643 1214q38 -37 48.5 -102t-2.5 -131t-31.5 -126.5t-35.5 -98.5l-18 -39q20 191 -125 330q-35 35 -42 81.5t24 83.5q23 23 53 34t65 3.5t64 -35.5z" />
    <glyph glyph-name="question" unicode="?" horiz-adv-x="1099" 
d="M459 422v76q0 70 19 126.5t49 94t66.5 69.5t73 59t66.5 55t49 65.5t19 83.5q0 99 -63 159t-179 60q-125 0 -192.5 -77t-67.5 -216h-207q-1 119 34 210.5t99.5 147.5t148.5 84.5t185 28.5q199 0 324 -105t125 -292q0 -65 -18 -116.5t-47.5 -85t-64.5 -62.5t-70 -56.5
t-64.5 -57.5t-47.5 -74.5t-18 -100.5v-76h-219zM567 -20q-56 0 -95.5 39t-39.5 96q0 55 40 95t95 40q57 0 97.5 -39.5t40.5 -95.5q0 -57 -40.5 -96t-97.5 -39z" />
    <glyph glyph-name="at" unicode="@" 
d="M207 403q-13 0 -19 -2v-200q4 -2 19 -2q37 0 50 25t13 77q0 54 -13 78t-50 24zM518 330v-49h-82v-78h96v-49h-155v297h155v-52h-96v-69h82zM203 150q-47 0 -74 4v292q61 9 76 9q67 0 96 -37.5t29 -116.5t-29.5 -115t-97.5 -36zM586 451h80l39 -164l38 164h82
q3 -45 13 -297h-60q0 108 -6 213l-41 -168h-55l-41 168h-2q-4 -140 -4 -213h-58q3 156 15 297zM987 150q-60 0 -84 35.5t-24 115.5q0 81 24 117.5t84 36.5t85.5 -37t25.5 -117q0 -79 -25.5 -115t-85.5 -36zM987 403q-29 0 -39 -23.5t-10 -78.5q0 -54 10 -78t39 -24
q30 0 40.5 24t10.5 78q0 55 -10 78.5t-41 23.5zM967 1016q49 0 79.5 -24.5t39 -51t8.5 -53.5q0 -43 -34.5 -72.5t-72.5 -34.5q-213 -23 -340 -147q3 8 9 22t25 53.5t39 75.5t50 80.5t59.5 76t66 53.5t71.5 22zM285 909q39 0 78 -21t69.5 -55t58.5 -74.5t48 -81.5t35 -75
t22 -55l8 -21q-117 148 -319 148q-49 0 -88 30t-39 76q0 53 33.5 91t93.5 38zM643 1214q38 -37 48.5 -102t-2.5 -131t-31.5 -126.5t-35.5 -98.5l-18 -39q20 191 -125 330q-35 35 -42 81.5t24 83.5q23 23 53 34t65 3.5t64 -35.5z" />
    <glyph glyph-name="A" unicode="A" horiz-adv-x="1429" 
d="M1163 0l-121 330h-655l-121 -330h-223l539 1434h266l538 -1434h-223zM446 492h537l-262 718h-12z" />
    <glyph glyph-name="B" unicode="B" horiz-adv-x="1261" 
d="M115 0v1434h547q221 0 331.5 -94.5t110.5 -256.5q0 -226 -199 -297q142 -39 217.5 -132.5t75.5 -237.5q0 -187 -133 -301.5t-391 -114.5h-559zM328 854h319q115 0 176.5 52t61.5 151q0 96 -61.5 146t-176.5 50h-319v-399zM328 182h334q155 0 233 67.5t78 180.5
q0 112 -78 178t-233 66h-334v-492z" />
    <glyph glyph-name="C" unicode="C" horiz-adv-x="1372" 
d="M735 -20q-145 0 -265 48.5t-205.5 140.5t-133 232t-47.5 316q0 349 177.5 542t473.5 193q236 0 391 -117.5t185 -345.5h-209q-35 138 -130 208.5t-237 70.5q-205 0 -319.5 -145.5t-114.5 -405.5q0 -259 114 -406t320 -147q141 0 236.5 71t130.5 209h209
q-30 -229 -185 -346.5t-391 -117.5z" />
    <glyph glyph-name="D" unicode="D" horiz-adv-x="1363" 
d="M115 0v1434h489q335 0 506.5 -184.5t171.5 -532.5t-171.5 -532.5t-506.5 -184.5h-489zM328 186h256q252 0 366.5 129t114.5 402q0 274 -114 402t-367 128h-256v-1061z" />
    <glyph glyph-name="E" unicode="E" horiz-adv-x="1130" 
d="M115 0v1434h932v-187h-719v-430h657v-170h-657v-461h739v-186h-952z" />
    <glyph glyph-name="F" unicode="F" horiz-adv-x="1097" 
d="M115 0v1434h921v-187h-708v-446h583v-176h-583v-625h-213z" />
    <glyph glyph-name="G" unicode="G" horiz-adv-x="1437" 
d="M752 -20q-309 0 -488.5 192t-179.5 543q0 176 48.5 316t136 232t208 140.5t266.5 48.5q220 0 369 -105t191 -309h-211q-40 116 -130.5 173t-218.5 57q-209 0 -325.5 -146t-116.5 -403q0 -260 118 -407.5t329 -147.5q175 0 280.5 104t104.5 312h-332v172h542v-99
q0 -336 -150.5 -504.5t-440.5 -168.5z" />
    <glyph glyph-name="H" unicode="H" horiz-adv-x="1347" 
d="M1022 1434h211v-1434h-211v618h-694v-618h-213v1434h213v-639h694v639z" />
    <glyph glyph-name="I" unicode="I" horiz-adv-x="440" 
d="M115 0v1434h213v-1434h-213z" />
    <glyph glyph-name="J" unicode="J" horiz-adv-x="1355" 
d="M678 -20q-262 0 -412.5 145.5t-150.5 417.5h213q0 -180 92.5 -278.5t257.5 -98.5q166 0 259 100.5t93 290.5v877h213v-891q0 -271 -152 -417t-413 -146z" />
    <glyph glyph-name="K" unicode="K" horiz-adv-x="1343" 
d="M1053 0l-514 629l-211 -238v-391h-213v1434h213v-760l667 760h254l-577 -654l628 -780h-247z" />
    <glyph glyph-name="L" unicode="L" horiz-adv-x="1099" 
d="M115 0v1434h213v-1248h710v-186h-923z" />
    <glyph glyph-name="M" unicode="M" horiz-adv-x="1710" 
d="M115 0v1434h262l479 -1151l479 1151h262v-1434h-213v1053h-8l-436 -1053h-168l-438 1053h-6v-1053h-213z" />
    <glyph glyph-name="N" unicode="N" horiz-adv-x="1378" 
d="M115 0v1434h229l700 -1100h7v1100h213v-1434h-238l-694 1090h-4v-1090h-213z" />
    <glyph glyph-name="O" unicode="O" horiz-adv-x="1488" 
d="M745 -20q-145 0 -266.5 50.5t-209 144t-136.5 232.5t-49 310t49 310t136.5 232t209 143t266.5 50q294 0 477 -197t183 -538t-183 -539t-477 -198zM745 164q201 0 322 145.5t121 407.5t-121 406.5t-322 144.5q-202 0 -323 -144.5t-121 -406.5t121 -407.5t323 -145.5z" />
    <glyph glyph-name="P" unicode="P" horiz-adv-x="1236" 
d="M115 0v1434h540q256 0 387.5 -121t131.5 -334q0 -210 -131.5 -330.5t-387.5 -120.5h-327v-528h-213zM328 715h319q153 0 231 68.5t78 195.5q0 129 -78 198.5t-231 69.5h-319v-532z" />
    <glyph glyph-name="Q" unicode="Q" horiz-adv-x="1488" 
d="M1405 717q0 -295 -141 -488l139 -141l-129 -123l-135 137q-162 -122 -394 -122q-145 0 -266.5 50.5t-209 144t-136.5 232.5t-49 310t49 310t136.5 232t209 143t266.5 50q294 0 477 -197t183 -538zM745 164q148 0 254 80l-245 248l129 122l231 -233q74 135 74 336
q0 262 -121 406.5t-322 144.5q-202 0 -323 -144.5t-121 -406.5t121 -407.5t323 -145.5z" />
    <glyph glyph-name="R" unicode="R" horiz-adv-x="1249" 
d="M1186 0h-213l-309 528h-9h-327v-528h-213v1434h540q256 0 387.5 -121t131.5 -334q0 -163 -79 -273.5t-235 -152.5zM328 1247v-532h319q153 0 231 68.5t78 195.5q0 129 -78 198.5t-231 69.5h-319z" />
    <glyph glyph-name="S" unicode="S" horiz-adv-x="1280" 
d="M649 -20q-267 0 -416 122.5t-149 331.5h217q6 -124 92.5 -199t257.5 -75q157 0 239.5 64t82.5 177q0 100 -65.5 153.5t-190.5 78.5l-195 39q-397 77 -397 387q0 183 134.5 288t371.5 105q240 0 382 -106.5t142 -292.5h-217q-2 100 -82 159.5t-223 59.5
q-146 0 -216.5 -61.5t-70.5 -155.5q0 -172 229 -217l187 -37q220 -42 327 -136t107 -262q0 -205 -147.5 -314t-399.5 -109z" />
    <glyph glyph-name="T" unicode="T" horiz-adv-x="1200" 
d="M494 0v1247h-441v187h1094v-187h-440v-1247h-213z" />
    <glyph glyph-name="U" unicode="U" horiz-adv-x="1355" 
d="M678 -20q-262 0 -412.5 145.5t-150.5 417.5v891h213v-877q0 -189 92 -290t258 -101t258 101t92 290v877h215v-891q0 -271 -152 -417t-413 -146z" />
    <glyph glyph-name="V" unicode="V" horiz-adv-x="1449" 
d="M592 0l-539 1434h223l443 -1211h12l443 1211h223l-539 -1434h-266z" />
    <glyph glyph-name="W" unicode="W" horiz-adv-x="2015" 
d="M434 0l-381 1434h217l283 -1135h10l334 1135h223l332 -1135h10l283 1135h217l-379 -1434h-225l-350 1163l-351 -1163h-223z" />
    <glyph glyph-name="X" unicode="X" horiz-adv-x="1343" 
d="M1300 0h-239l-389 565l-389 -565h-240l510 739l-479 695h239l359 -521l358 521h238l-477 -695z" />
    <glyph glyph-name="Y" unicode="Y" horiz-adv-x="1370" 
d="M575 0v549l-522 885h240l391 -678l393 678h240l-522 -885v-549h-220z" />
    <glyph glyph-name="Z" unicode="Z" horiz-adv-x="1257" 
d="M82 0v186l848 1061h-819v187h1056l-2 -187l-848 -1061h859v-186h-1094z" />
    <glyph glyph-name="bracketleft" unicode="[" 
d="M207 403q-13 0 -19 -2v-200q4 -2 19 -2q37 0 50 25t13 77q0 54 -13 78t-50 24zM518 330v-49h-82v-78h96v-49h-155v297h155v-52h-96v-69h82zM203 150q-47 0 -74 4v292q61 9 76 9q67 0 96 -37.5t29 -116.5t-29.5 -115t-97.5 -36zM586 451h80l39 -164l38 164h82
q3 -45 13 -297h-60q0 108 -6 213l-41 -168h-55l-41 168h-2q-4 -140 -4 -213h-58q3 156 15 297zM987 150q-60 0 -84 35.5t-24 115.5q0 81 24 117.5t84 36.5t85.5 -37t25.5 -117q0 -79 -25.5 -115t-85.5 -36zM987 403q-29 0 -39 -23.5t-10 -78.5q0 -54 10 -78t39 -24
q30 0 40.5 24t10.5 78q0 55 -10 78.5t-41 23.5zM967 1016q49 0 79.5 -24.5t39 -51t8.5 -53.5q0 -43 -34.5 -72.5t-72.5 -34.5q-213 -23 -340 -147q3 8 9 22t25 53.5t39 75.5t50 80.5t59.5 76t66 53.5t71.5 22zM285 909q39 0 78 -21t69.5 -55t58.5 -74.5t48 -81.5t35 -75
t22 -55l8 -21q-117 148 -319 148q-49 0 -88 30t-39 76q0 53 33.5 91t93.5 38zM643 1214q38 -37 48.5 -102t-2.5 -131t-31.5 -126.5t-35.5 -98.5l-18 -39q20 191 -125 330q-35 35 -42 81.5t24 83.5q23 23 53 34t65 3.5t64 -35.5z" />
    <glyph glyph-name="backslash" unicode="\" 
d="M207 403q-13 0 -19 -2v-200q4 -2 19 -2q37 0 50 25t13 77q0 54 -13 78t-50 24zM518 330v-49h-82v-78h96v-49h-155v297h155v-52h-96v-69h82zM203 150q-47 0 -74 4v292q61 9 76 9q67 0 96 -37.5t29 -116.5t-29.5 -115t-97.5 -36zM586 451h80l39 -164l38 164h82
q3 -45 13 -297h-60q0 108 -6 213l-41 -168h-55l-41 168h-2q-4 -140 -4 -213h-58q3 156 15 297zM987 150q-60 0 -84 35.5t-24 115.5q0 81 24 117.5t84 36.5t85.5 -37t25.5 -117q0 -79 -25.5 -115t-85.5 -36zM987 403q-29 0 -39 -23.5t-10 -78.5q0 -54 10 -78t39 -24
q30 0 40.5 24t10.5 78q0 55 -10 78.5t-41 23.5zM967 1016q49 0 79.5 -24.5t39 -51t8.5 -53.5q0 -43 -34.5 -72.5t-72.5 -34.5q-213 -23 -340 -147q3 8 9 22t25 53.5t39 75.5t50 80.5t59.5 76t66 53.5t71.5 22zM285 909q39 0 78 -21t69.5 -55t58.5 -74.5t48 -81.5t35 -75
t22 -55l8 -21q-117 148 -319 148q-49 0 -88 30t-39 76q0 53 33.5 91t93.5 38zM643 1214q38 -37 48.5 -102t-2.5 -131t-31.5 -126.5t-35.5 -98.5l-18 -39q20 191 -125 330q-35 35 -42 81.5t24 83.5q23 23 53 34t65 3.5t64 -35.5z" />
    <glyph glyph-name="bracketright" unicode="]" 
d="M207 403q-13 0 -19 -2v-200q4 -2 19 -2q37 0 50 25t13 77q0 54 -13 78t-50 24zM518 330v-49h-82v-78h96v-49h-155v297h155v-52h-96v-69h82zM203 150q-47 0 -74 4v292q61 9 76 9q67 0 96 -37.5t29 -116.5t-29.5 -115t-97.5 -36zM586 451h80l39 -164l38 164h82
q3 -45 13 -297h-60q0 108 -6 213l-41 -168h-55l-41 168h-2q-4 -140 -4 -213h-58q3 156 15 297zM987 150q-60 0 -84 35.5t-24 115.5q0 81 24 117.5t84 36.5t85.5 -37t25.5 -117q0 -79 -25.5 -115t-85.5 -36zM987 403q-29 0 -39 -23.5t-10 -78.5q0 -54 10 -78t39 -24
q30 0 40.5 24t10.5 78q0 55 -10 78.5t-41 23.5zM967 1016q49 0 79.5 -24.5t39 -51t8.5 -53.5q0 -43 -34.5 -72.5t-72.5 -34.5q-213 -23 -340 -147q3 8 9 22t25 53.5t39 75.5t50 80.5t59.5 76t66 53.5t71.5 22zM285 909q39 0 78 -21t69.5 -55t58.5 -74.5t48 -81.5t35 -75
t22 -55l8 -21q-117 148 -319 148q-49 0 -88 30t-39 76q0 53 33.5 91t93.5 38zM643 1214q38 -37 48.5 -102t-2.5 -131t-31.5 -126.5t-35.5 -98.5l-18 -39q20 191 -125 330q-35 35 -42 81.5t24 83.5q23 23 53 34t65 3.5t64 -35.5z" />
    <glyph glyph-name="asciicircum" unicode="^" 
d="M207 403q-13 0 -19 -2v-200q4 -2 19 -2q37 0 50 25t13 77q0 54 -13 78t-50 24zM518 330v-49h-82v-78h96v-49h-155v297h155v-52h-96v-69h82zM203 150q-47 0 -74 4v292q61 9 76 9q67 0 96 -37.5t29 -116.5t-29.5 -115t-97.5 -36zM586 451h80l39 -164l38 164h82
q3 -45 13 -297h-60q0 108 -6 213l-41 -168h-55l-41 168h-2q-4 -140 -4 -213h-58q3 156 15 297zM987 150q-60 0 -84 35.5t-24 115.5q0 81 24 117.5t84 36.5t85.5 -37t25.5 -117q0 -79 -25.5 -115t-85.5 -36zM987 403q-29 0 -39 -23.5t-10 -78.5q0 -54 10 -78t39 -24
q30 0 40.5 24t10.5 78q0 55 -10 78.5t-41 23.5zM967 1016q49 0 79.5 -24.5t39 -51t8.5 -53.5q0 -43 -34.5 -72.5t-72.5 -34.5q-213 -23 -340 -147q3 8 9 22t25 53.5t39 75.5t50 80.5t59.5 76t66 53.5t71.5 22zM285 909q39 0 78 -21t69.5 -55t58.5 -74.5t48 -81.5t35 -75
t22 -55l8 -21q-117 148 -319 148q-49 0 -88 30t-39 76q0 53 33.5 91t93.5 38zM643 1214q38 -37 48.5 -102t-2.5 -131t-31.5 -126.5t-35.5 -98.5l-18 -39q20 191 -125 330q-35 35 -42 81.5t24 83.5q23 23 53 34t65 3.5t64 -35.5z" />
    <glyph glyph-name="underscore" unicode="_" 
d="M207 403q-13 0 -19 -2v-200q4 -2 19 -2q37 0 50 25t13 77q0 54 -13 78t-50 24zM518 330v-49h-82v-78h96v-49h-155v297h155v-52h-96v-69h82zM203 150q-47 0 -74 4v292q61 9 76 9q67 0 96 -37.5t29 -116.5t-29.5 -115t-97.5 -36zM586 451h80l39 -164l38 164h82
q3 -45 13 -297h-60q0 108 -6 213l-41 -168h-55l-41 168h-2q-4 -140 -4 -213h-58q3 156 15 297zM987 150q-60 0 -84 35.5t-24 115.5q0 81 24 117.5t84 36.5t85.5 -37t25.5 -117q0 -79 -25.5 -115t-85.5 -36zM987 403q-29 0 -39 -23.5t-10 -78.5q0 -54 10 -78t39 -24
q30 0 40.5 24t10.5 78q0 55 -10 78.5t-41 23.5zM967 1016q49 0 79.5 -24.5t39 -51t8.5 -53.5q0 -43 -34.5 -72.5t-72.5 -34.5q-213 -23 -340 -147q3 8 9 22t25 53.5t39 75.5t50 80.5t59.5 76t66 53.5t71.5 22zM285 909q39 0 78 -21t69.5 -55t58.5 -74.5t48 -81.5t35 -75
t22 -55l8 -21q-117 148 -319 148q-49 0 -88 30t-39 76q0 53 33.5 91t93.5 38zM643 1214q38 -37 48.5 -102t-2.5 -131t-31.5 -126.5t-35.5 -98.5l-18 -39q20 191 -125 330q-35 35 -42 81.5t24 83.5q23 23 53 34t65 3.5t64 -35.5z" />
    <glyph glyph-name="grave" unicode="`" 
d="M207 403q-13 0 -19 -2v-200q4 -2 19 -2q37 0 50 25t13 77q0 54 -13 78t-50 24zM518 330v-49h-82v-78h96v-49h-155v297h155v-52h-96v-69h82zM203 150q-47 0 -74 4v292q61 9 76 9q67 0 96 -37.5t29 -116.5t-29.5 -115t-97.5 -36zM586 451h80l39 -164l38 164h82
q3 -45 13 -297h-60q0 108 -6 213l-41 -168h-55l-41 168h-2q-4 -140 -4 -213h-58q3 156 15 297zM987 150q-60 0 -84 35.5t-24 115.5q0 81 24 117.5t84 36.5t85.5 -37t25.5 -117q0 -79 -25.5 -115t-85.5 -36zM987 403q-29 0 -39 -23.5t-10 -78.5q0 -54 10 -78t39 -24
q30 0 40.5 24t10.5 78q0 55 -10 78.5t-41 23.5zM967 1016q49 0 79.5 -24.5t39 -51t8.5 -53.5q0 -43 -34.5 -72.5t-72.5 -34.5q-213 -23 -340 -147q3 8 9 22t25 53.5t39 75.5t50 80.5t59.5 76t66 53.5t71.5 22zM285 909q39 0 78 -21t69.5 -55t58.5 -74.5t48 -81.5t35 -75
t22 -55l8 -21q-117 148 -319 148q-49 0 -88 30t-39 76q0 53 33.5 91t93.5 38zM643 1214q38 -37 48.5 -102t-2.5 -131t-31.5 -126.5t-35.5 -98.5l-18 -39q20 191 -125 330q-35 35 -42 81.5t24 83.5q23 23 53 34t65 3.5t64 -35.5z" />
    <glyph glyph-name="a" unicode="a" horiz-adv-x="1112" 
d="M563 1085q224 0 329 -88.5t105 -281.5v-715h-192v166h-8q-8 -17 -21.5 -35.5t-44.5 -47t-70 -50t-101.5 -37.5t-135.5 -16q-162 0 -261.5 73.5t-99.5 222.5q0 141 94.5 210.5t266.5 91.5l233 28q72 10 103 25t31 39v39q0 123 -60 172t-176 49q-113 0 -172 -42.5
t-59 -139.5v-23h-197v41q0 159 110.5 239t325.5 80zM791 395v111q-23 -32 -121 -43l-197 -27q-112 -13 -157.5 -48t-45.5 -99q0 -72 50 -110t141 -38q82 0 149 28.5t104.5 70t57 82.5t19.5 73z" />
    <glyph glyph-name="b" unicode="b" horiz-adv-x="1216" 
d="M678 1085q92 0 175 -33t151 -97.5t108.5 -173.5t40.5 -249q0 -139 -40.5 -248t-108.5 -173.5t-151 -97.5t-175 -33q-119 0 -214 50t-142 138v-168h-207v1434h207v-537q47 88 142 138t214 50zM635 154q64 0 120.5 23t102 68t72 119t26.5 168t-26.5 168.5t-72 119.5
t-102 68t-120.5 23q-63 0 -120 -23t-103 -68t-73.5 -119.5t-27.5 -168.5t27.5 -168t73.5 -119t103 -68t120 -23z" />
    <glyph glyph-name="c" unicode="c" horiz-adv-x="1110" 
d="M584 -20q-82 0 -157 20t-142 63.5t-116 107t-77.5 155.5t-28.5 204q0 141 43 250t117.5 174t165.5 98t195 33q61 0 118 -10.5t116.5 -39t105 -72t80 -115t45.5 -162.5h-185q-22 116 -98 170.5t-184 54.5q-148 0 -235 -100t-87 -281q0 -178 87 -277t235 -99
q109 0 184.5 55.5t97.5 173.5h185q-10 -93 -44 -165t-80 -116t-106 -72.5t-117 -39t-118 -10.5z" />
    <glyph glyph-name="d" unicode="d" horiz-adv-x="1216" 
d="M895 1434h207v-1434h-207v168q-47 -87 -143 -137.5t-213 -50.5q-93 0 -176 33t-151.5 98t-108.5 173.5t-40 247.5q0 113 26.5 206t72 156.5t106.5 107t129 63.5t142 20q117 0 213 -50.5t143 -137.5v537zM582 154q63 0 120 23t103 68t73 119t27 168t-27 168.5t-73 119.5
t-103 68t-120 23q-64 0 -121 -23t-103 -68t-73 -119.5t-27 -168.5t27 -168t73 -119t103 -68t121 -23z" />
    <glyph glyph-name="e" unicode="e" horiz-adv-x="1120" 
d="M1057 549q0 -44 -6 -78h-789q20 -334 326 -334q208 0 270 172h184q-45 -170 -167 -252t-293 -82q-111 0 -203.5 33t-164 98.5t-111.5 173.5t-40 248q0 142 40.5 251t111.5 174.5t160.5 98.5t195.5 33q105 0 192 -32t153.5 -95.5t103.5 -168t37 -240.5zM262 618h598
q-3 143 -79 224.5t-212 81.5q-132 0 -212 -77.5t-95 -228.5z" />
    <glyph glyph-name="f" unicode="f" horiz-adv-x="671" 
d="M543 1305q-79 0 -112.5 -35.5t-33.5 -114.5v-90h217v-162h-217v-903h-207v903h-147v162h147v119q0 282 302 282h129v-161h-78z" />
    <glyph glyph-name="g" unicode="g" horiz-adv-x="1204" 
d="M883 1065h207v-1042q0 -106 -33.5 -187.5t-85.5 -130t-124 -80t-139.5 -42.5t-140.5 -11q-68 0 -130.5 9.5t-126 34t-110 62.5t-76 99t-30.5 139h182q4 -87 86 -134.5t201 -47.5q142 0 231 71.5t89 217.5v178q-52 -83 -147 -129.5t-210 -46.5q-72 0 -138 18.5t-125.5 60
t-103.5 102t-70 150t-26 199.5q0 136 39.5 241t106 166.5t147 92t170.5 30.5q115 0 210 -46.5t147 -129.5v156zM575 197q63 0 119 22t101 65t71.5 113t26.5 158t-26.5 158t-71.5 112t-101 64t-119 22q-134 0 -225.5 -91.5t-91.5 -264.5t91.5 -265.5t225.5 -92.5z" />
    <glyph glyph-name="h" unicode="h" horiz-adv-x="1177" 
d="M686 1085q81 0 147.5 -24t119 -73t81.5 -131.5t29 -192.5v-664h-207v616q0 144 -62.5 219.5t-187.5 75.5q-129 0 -206.5 -77.5t-77.5 -217.5v-616h-207v1434h207v-582h6q8 34 31.5 71t64 75t109.5 62.5t153 24.5z" />
    <glyph glyph-name="i" unicode="i" horiz-adv-x="436" 
d="M217 1249q-50 0 -86.5 35.5t-36.5 85.5t36.5 85.5t86.5 35.5t86.5 -35.5t36.5 -85.5t-36.5 -85.5t-86.5 -35.5zM115 0v1065h207v-1065h-207z" />
    <glyph glyph-name="j" unicode="j" horiz-adv-x="466" 
d="M250 1249q-50 0 -86.5 35.5t-36.5 85.5t36.5 85.5t86.5 35.5t86.5 -35.5t36.5 -85.5t-36.5 -85.5t-86.5 -35.5zM53 -389q-86 0 -133 6v162h80q80 0 113.5 35.5t33.5 115.5v1135h207v-1169q0 -285 -301 -285z" />
    <glyph glyph-name="k" unicode="k" horiz-adv-x="1134" 
d="M881 0l-400 473l-159 -164v-309h-207v1434h207v-904l499 535h234l-445 -459l502 -606h-231z" />
    <glyph glyph-name="l" unicode="l" horiz-adv-x="436" 
d="M115 0v1434h207v-1434h-207z" />
    <glyph glyph-name="m" unicode="m" horiz-adv-x="1816" 
d="M1339 1085q165 0 264 -103t99 -318v-664h-207v616q0 295 -229 295q-115 0 -184.5 -77.5t-69.5 -217.5v-616h-207v616q0 144 -58 219.5t-172 75.5q-115 0 -184 -77.5t-69 -217.5v-616h-207v1065h207v-213h6q7 33 29.5 70.5t61 75.5t101.5 62.5t137 24.5q119 0 206 -59.5
t124 -181.5q11 36 35.5 74.5t65.5 77.5t106.5 64t144.5 25z" />
    <glyph glyph-name="n" unicode="n" horiz-adv-x="1177" 
d="M686 1085q81 0 147.5 -24t119 -73t81.5 -131.5t29 -192.5v-664h-207v616q0 144 -62.5 219.5t-187.5 75.5q-129 0 -206.5 -77.5t-77.5 -217.5v-616h-207v1065h207v-213h6q8 34 31.5 71t64 75t109.5 62.5t153 24.5z" />
    <glyph glyph-name="o" unicode="o" horiz-adv-x="1165" 
d="M582 -20q-102 0 -193 33.5t-165 99t-117.5 173.5t-43.5 246q0 111 28.5 203.5t78 156t116 108t141 65t155.5 20.5q102 0 193.5 -33.5t165.5 -99t117.5 -174t43.5 -246.5t-43.5 -246t-117.5 -173.5t-165.5 -99t-193.5 -33.5zM582 154q139 0 231 96t92 282t-92 282.5
t-231 96.5t-230.5 -96.5t-91.5 -282.5t91.5 -282t230.5 -96z" />
    <glyph glyph-name="p" unicode="p" horiz-adv-x="1216" 
d="M678 1085q92 0 175 -33t151 -97.5t108.5 -173.5t40.5 -249q0 -139 -40.5 -248t-108.5 -173.5t-151 -97.5t-175 -33q-119 0 -214 50t-142 138v-557h-207v1454h207v-168q47 88 142 138t214 50zM635 154q64 0 120.5 23t102 68t72 119t26.5 168t-26.5 168.5t-72 119.5
t-102 68t-120.5 23q-63 0 -120 -23t-103 -68t-73.5 -119.5t-27.5 -168.5t27.5 -168t73.5 -119t103 -68t120 -23z" />
    <glyph glyph-name="q" unicode="q" horiz-adv-x="1216" 
d="M895 1065h207v-1454h-207v557q-47 -87 -143 -137.5t-213 -50.5q-93 0 -176 33t-151.5 98t-108.5 173.5t-40 247.5q0 113 26.5 206t72 156.5t106.5 107t129 63.5t142 20q117 0 213 -50.5t143 -137.5v168zM582 154q63 0 120 23t103 68t73 119t27 168t-27 168.5t-73 119.5
t-103 68t-120 23q-64 0 -121 -23t-103 -68t-73 -119.5t-27 -168.5t27 -168t73 -119t103 -68t121 -23z" />
    <glyph glyph-name="r" unicode="r" horiz-adv-x="776" 
d="M653 1073q49 0 80 -10v-174q-40 6 -78 6q-153 0 -243 -94t-90 -269v-532h-207v1065h207v-246h4q28 107 110 180.5t217 73.5z" />
    <glyph glyph-name="s" unicode="s" horiz-adv-x="997" 
d="M498 -20q-200 0 -320.5 85.5t-124.5 251.5h187q8 -63 46 -104.5t91.5 -58.5t122.5 -17q104 0 168.5 41t64.5 123q0 61 -39 91.5t-121 51.5l-198 45q-289 68 -289 293q0 144 111 223.5t299 79.5q189 0 297.5 -85.5t115.5 -247.5h-174q-14 94 -74 135t-161 41
q-100 0 -157.5 -37.5t-57.5 -104.5q0 -54 38 -89t119 -54l201 -45q70 -17 120.5 -38t93.5 -55t65 -84t22 -116q0 -85 -36.5 -149.5t-100 -102t-141 -55.5t-168.5 -18z" />
    <glyph glyph-name="t" unicode="t" horiz-adv-x="702" 
d="M569 154h80v-162q-45 -6 -133 -6q-299 0 -299 284v633h-174v162h174v268h207v-268h211v-162h-211v-598q0 -79 33.5 -115t111.5 -36z" />
    <glyph glyph-name="u" unicode="u" horiz-adv-x="1177" 
d="M856 1065h207v-1065h-207v213h-6q-8 -34 -31.5 -71t-64 -75t-109.5 -62.5t-153 -24.5q-81 0 -147.5 24t-119 73t-81.5 131.5t-29 192.5v664h207v-616q0 -144 62 -219.5t187 -75.5q129 0 207 77.5t78 217.5v616z" />
    <glyph glyph-name="v" unicode="v" horiz-adv-x="1153" 
d="M446 0l-403 1065h211l319 -868h9l319 868h211l-405 -1065h-261z" />
    <glyph glyph-name="w" unicode="w" horiz-adv-x="1650" 
d="M340 0l-297 1065h199l223 -858h8l262 858h180l263 -858h8l223 858h199l-299 -1065h-234l-250 791l-252 -791h-233z" />
    <glyph glyph-name="x" unicode="x" horiz-adv-x="1112" 
d="M63 0l377 539l-362 526h227l250 -375l252 375h227l-362 -526l377 -539h-228l-266 387l-266 -387h-226z" />
    <glyph glyph-name="y" unicode="y" horiz-adv-x="1124" 
d="M152 -399v178q52 -9 93.5 -4t71.5 15.5t53.5 32t39 45.5t28.5 56q17 42 17.5 74t-13.5 68l-399 999h213l305 -813l307 813h213l-450 -1126q-83 -206 -192 -283t-287 -55z" />
    <glyph glyph-name="z" unicode="z" horiz-adv-x="1026" 
d="M82 0v176l616 713h-596v176h842v-176l-616 -713h616v-176h-862z" />
    <glyph glyph-name="braceleft" unicode="{" 
d="M207 403q-13 0 -19 -2v-200q4 -2 19 -2q37 0 50 25t13 77q0 54 -13 78t-50 24zM518 330v-49h-82v-78h96v-49h-155v297h155v-52h-96v-69h82zM203 150q-47 0 -74 4v292q61 9 76 9q67 0 96 -37.5t29 -116.5t-29.5 -115t-97.5 -36zM586 451h80l39 -164l38 164h82
q3 -45 13 -297h-60q0 108 -6 213l-41 -168h-55l-41 168h-2q-4 -140 -4 -213h-58q3 156 15 297zM987 150q-60 0 -84 35.5t-24 115.5q0 81 24 117.5t84 36.5t85.5 -37t25.5 -117q0 -79 -25.5 -115t-85.5 -36zM987 403q-29 0 -39 -23.5t-10 -78.5q0 -54 10 -78t39 -24
q30 0 40.5 24t10.5 78q0 55 -10 78.5t-41 23.5zM967 1016q49 0 79.5 -24.5t39 -51t8.5 -53.5q0 -43 -34.5 -72.5t-72.5 -34.5q-213 -23 -340 -147q3 8 9 22t25 53.5t39 75.5t50 80.5t59.5 76t66 53.5t71.5 22zM285 909q39 0 78 -21t69.5 -55t58.5 -74.5t48 -81.5t35 -75
t22 -55l8 -21q-117 148 -319 148q-49 0 -88 30t-39 76q0 53 33.5 91t93.5 38zM643 1214q38 -37 48.5 -102t-2.5 -131t-31.5 -126.5t-35.5 -98.5l-18 -39q20 191 -125 330q-35 35 -42 81.5t24 83.5q23 23 53 34t65 3.5t64 -35.5z" />
    <glyph glyph-name="bar" unicode="|" 
d="M207 403q-13 0 -19 -2v-200q4 -2 19 -2q37 0 50 25t13 77q0 54 -13 78t-50 24zM518 330v-49h-82v-78h96v-49h-155v297h155v-52h-96v-69h82zM203 150q-47 0 -74 4v292q61 9 76 9q67 0 96 -37.5t29 -116.5t-29.5 -115t-97.5 -36zM586 451h80l39 -164l38 164h82
q3 -45 13 -297h-60q0 108 -6 213l-41 -168h-55l-41 168h-2q-4 -140 -4 -213h-58q3 156 15 297zM987 150q-60 0 -84 35.5t-24 115.5q0 81 24 117.5t84 36.5t85.5 -37t25.5 -117q0 -79 -25.5 -115t-85.5 -36zM987 403q-29 0 -39 -23.5t-10 -78.5q0 -54 10 -78t39 -24
q30 0 40.5 24t10.5 78q0 55 -10 78.5t-41 23.5zM967 1016q49 0 79.5 -24.5t39 -51t8.5 -53.5q0 -43 -34.5 -72.5t-72.5 -34.5q-213 -23 -340 -147q3 8 9 22t25 53.5t39 75.5t50 80.5t59.5 76t66 53.5t71.5 22zM285 909q39 0 78 -21t69.5 -55t58.5 -74.5t48 -81.5t35 -75
t22 -55l8 -21q-117 148 -319 148q-49 0 -88 30t-39 76q0 53 33.5 91t93.5 38zM643 1214q38 -37 48.5 -102t-2.5 -131t-31.5 -126.5t-35.5 -98.5l-18 -39q20 191 -125 330q-35 35 -42 81.5t24 83.5q23 23 53 34t65 3.5t64 -35.5z" />
    <glyph glyph-name="braceright" unicode="}" 
d="M207 403q-13 0 -19 -2v-200q4 -2 19 -2q37 0 50 25t13 77q0 54 -13 78t-50 24zM518 330v-49h-82v-78h96v-49h-155v297h155v-52h-96v-69h82zM203 150q-47 0 -74 4v292q61 9 76 9q67 0 96 -37.5t29 -116.5t-29.5 -115t-97.5 -36zM586 451h80l39 -164l38 164h82
q3 -45 13 -297h-60q0 108 -6 213l-41 -168h-55l-41 168h-2q-4 -140 -4 -213h-58q3 156 15 297zM987 150q-60 0 -84 35.5t-24 115.5q0 81 24 117.5t84 36.5t85.5 -37t25.5 -117q0 -79 -25.5 -115t-85.5 -36zM987 403q-29 0 -39 -23.5t-10 -78.5q0 -54 10 -78t39 -24
q30 0 40.5 24t10.5 78q0 55 -10 78.5t-41 23.5zM967 1016q49 0 79.5 -24.5t39 -51t8.5 -53.5q0 -43 -34.5 -72.5t-72.5 -34.5q-213 -23 -340 -147q3 8 9 22t25 53.5t39 75.5t50 80.5t59.5 76t66 53.5t71.5 22zM285 909q39 0 78 -21t69.5 -55t58.5 -74.5t48 -81.5t35 -75
t22 -55l8 -21q-117 148 -319 148q-49 0 -88 30t-39 76q0 53 33.5 91t93.5 38zM643 1214q38 -37 48.5 -102t-2.5 -131t-31.5 -126.5t-35.5 -98.5l-18 -39q20 191 -125 330q-35 35 -42 81.5t24 83.5q23 23 53 34t65 3.5t64 -35.5z" />
    <glyph glyph-name="asciitilde" unicode="~" 
d="M207 403q-13 0 -19 -2v-200q4 -2 19 -2q37 0 50 25t13 77q0 54 -13 78t-50 24zM518 330v-49h-82v-78h96v-49h-155v297h155v-52h-96v-69h82zM203 150q-47 0 -74 4v292q61 9 76 9q67 0 96 -37.5t29 -116.5t-29.5 -115t-97.5 -36zM586 451h80l39 -164l38 164h82
q3 -45 13 -297h-60q0 108 -6 213l-41 -168h-55l-41 168h-2q-4 -140 -4 -213h-58q3 156 15 297zM987 150q-60 0 -84 35.5t-24 115.5q0 81 24 117.5t84 36.5t85.5 -37t25.5 -117q0 -79 -25.5 -115t-85.5 -36zM987 403q-29 0 -39 -23.5t-10 -78.5q0 -54 10 -78t39 -24
q30 0 40.5 24t10.5 78q0 55 -10 78.5t-41 23.5zM967 1016q49 0 79.5 -24.5t39 -51t8.5 -53.5q0 -43 -34.5 -72.5t-72.5 -34.5q-213 -23 -340 -147q3 8 9 22t25 53.5t39 75.5t50 80.5t59.5 76t66 53.5t71.5 22zM285 909q39 0 78 -21t69.5 -55t58.5 -74.5t48 -81.5t35 -75
t22 -55l8 -21q-117 148 -319 148q-49 0 -88 30t-39 76q0 53 33.5 91t93.5 38zM643 1214q38 -37 48.5 -102t-2.5 -131t-31.5 -126.5t-35.5 -98.5l-18 -39q20 191 -125 330q-35 35 -42 81.5t24 83.5q23 23 53 34t65 3.5t64 -35.5z" />
    </font>
</defs>
</svg>
