<?xml version="1.0" standalone="no"?>
<!DOCTYPE svg PUBLIC "-//W3C//DTD SVG 1.1//EN" "http://www.w3.org/Graphics/SVG/1.1/DTD/svg11.dtd" >
<svg xmlns="http://www.w3.org/2000/svg" xmlns:xlink="http://www.w3.org/1999/xlink" version="1.1">
<metadata>
Created by FontForge 20201107 at Mon Mar  9 12:55:23 2026
 By www-data
Copyright  2020 by Connary Fagen. All rights reserved.
</metadata>
<defs>
<font id="FONTSPRINGDEMO-ArticulatCFMediumItalic" horiz-adv-x="1224" >
  <font-face 
    font-family="FSP DEMO - Articulat CF Medium"
    font-weight="500"
    font-style="italic"
    font-stretch="normal"
    units-per-em="2048"
    panose-1="0 0 6 0 0 0 0 0 0 0"
    ascent="1638"
    descent="-410"
    x-height="1065"
    cap-height="1434"
    bbox="-223 -428 2105 1491"
    underline-thickness="102"
    underline-position="-204"
    slope="-9"
    unicode-range="U+0020-007E"
  />
<missing-glyph 
d="M207 403q-13 0 -19 -2v-200q4 -2 19 -2q37 0 50 25t13 77q0 54 -13 78t-50 24zM518 330v-49h-82v-78h96v-49h-155v297h155v-52h-96v-69h82zM203 150q-47 0 -74 4v292q61 9 76 9q67 0 96 -37.5t29 -116.5t-29.5 -115t-97.5 -36zM586 451h80l39 -164l38 164h82
q3 -45 13 -297h-60q0 108 -6 213l-41 -168h-55l-41 168h-2q-4 -140 -4 -213h-58q3 156 15 297zM987 150q-60 0 -84 35.5t-24 115.5q0 81 24 117.5t84 36.5t85.5 -37t25.5 -117q0 -79 -25.5 -115t-85.5 -36zM987 403q-29 0 -39 -23.5t-10 -78.5q0 -54 10 -78t39 -24
q30 0 40.5 24t10.5 78q0 55 -10 78.5t-41 23.5zM967 1016q49 0 79.5 -24.5t39 -51t8.5 -53.5q0 -43 -34.5 -72.5t-72.5 -34.5q-213 -23 -340 -147q3 8 9 22t25 53.5t39 75.5t50 80.5t59.5 76t66 53.5t71.5 22zM285 909q39 0 78 -21t69.5 -55t58.5 -74.5t48 -81.5t35 -75
t22 -55l8 -21q-117 148 -319 148q-49 0 -88 30t-39 76q0 53 33.5 91t93.5 38zM643 1214q38 -37 48.5 -102t-2.5 -131t-31.5 -126.5t-35.5 -98.5l-18 -39q20 191 -125 330q-35 35 -42 81.5t24 83.5q23 23 53 34t65 3.5t64 -35.5z" />
    <glyph glyph-name=".notdef" 
d="M207 403q-13 0 -19 -2v-200q4 -2 19 -2q37 0 50 25t13 77q0 54 -13 78t-50 24zM518 330v-49h-82v-78h96v-49h-155v297h155v-52h-96v-69h82zM203 150q-47 0 -74 4v292q61 9 76 9q67 0 96 -37.5t29 -116.5t-29.5 -115t-97.5 -36zM586 451h80l39 -164l38 164h82
q3 -45 13 -297h-60q0 108 -6 213l-41 -168h-55l-41 168h-2q-4 -140 -4 -213h-58q3 156 15 297zM987 150q-60 0 -84 35.5t-24 115.5q0 81 24 117.5t84 36.5t85.5 -37t25.5 -117q0 -79 -25.5 -115t-85.5 -36zM987 403q-29 0 -39 -23.5t-10 -78.5q0 -54 10 -78t39 -24
q30 0 40.5 24t10.5 78q0 55 -10 78.5t-41 23.5zM967 1016q49 0 79.5 -24.5t39 -51t8.5 -53.5q0 -43 -34.5 -72.5t-72.5 -34.5q-213 -23 -340 -147q3 8 9 22t25 53.5t39 75.5t50 80.5t59.5 76t66 53.5t71.5 22zM285 909q39 0 78 -21t69.5 -55t58.5 -74.5t48 -81.5t35 -75
t22 -55l8 -21q-117 148 -319 148q-49 0 -88 30t-39 76q0 53 33.5 91t93.5 38zM643 1214q38 -37 48.5 -102t-2.5 -131t-31.5 -126.5t-35.5 -98.5l-18 -39q20 191 -125 330q-35 35 -42 81.5t24 83.5q23 23 53 34t65 3.5t64 -35.5z" />
    <glyph glyph-name=".null" horiz-adv-x="0" 
 />
    <glyph glyph-name="nonmarkingreturn" horiz-adv-x="682" 
 />
    <glyph glyph-name="space" unicode=" " horiz-adv-x="471" 
 />
    <glyph glyph-name="exclam" unicode="!" 
d="M207 403q-13 0 -19 -2v-200q4 -2 19 -2q37 0 50 25t13 77q0 54 -13 78t-50 24zM518 330v-49h-82v-78h96v-49h-155v297h155v-52h-96v-69h82zM203 150q-47 0 -74 4v292q61 9 76 9q67 0 96 -37.5t29 -116.5t-29.5 -115t-97.5 -36zM586 451h80l39 -164l38 164h82
q3 -45 13 -297h-60q0 108 -6 213l-41 -168h-55l-41 168h-2q-4 -140 -4 -213h-58q3 156 15 297zM987 150q-60 0 -84 35.5t-24 115.5q0 81 24 117.5t84 36.5t85.5 -37t25.5 -117q0 -79 -25.5 -115t-85.5 -36zM987 403q-29 0 -39 -23.5t-10 -78.5q0 -54 10 -78t39 -24
q30 0 40.5 24t10.5 78q0 55 -10 78.5t-41 23.5zM967 1016q49 0 79.5 -24.5t39 -51t8.5 -53.5q0 -43 -34.5 -72.5t-72.5 -34.5q-213 -23 -340 -147q3 8 9 22t25 53.5t39 75.5t50 80.5t59.5 76t66 53.5t71.5 22zM285 909q39 0 78 -21t69.5 -55t58.5 -74.5t48 -81.5t35 -75
t22 -55l8 -21q-117 148 -319 148q-49 0 -88 30t-39 76q0 53 33.5 91t93.5 38zM643 1214q38 -37 48.5 -102t-2.5 -131t-31.5 -126.5t-35.5 -98.5l-18 -39q20 191 -125 330q-35 35 -42 81.5t24 83.5q23 23 53 34t65 3.5t64 -35.5z" />
    <glyph glyph-name="quotedbl" unicode="&#x22;" 
d="M207 403q-13 0 -19 -2v-200q4 -2 19 -2q37 0 50 25t13 77q0 54 -13 78t-50 24zM518 330v-49h-82v-78h96v-49h-155v297h155v-52h-96v-69h82zM203 150q-47 0 -74 4v292q61 9 76 9q67 0 96 -37.5t29 -116.5t-29.5 -115t-97.5 -36zM586 451h80l39 -164l38 164h82
q3 -45 13 -297h-60q0 108 -6 213l-41 -168h-55l-41 168h-2q-4 -140 -4 -213h-58q3 156 15 297zM987 150q-60 0 -84 35.5t-24 115.5q0 81 24 117.5t84 36.5t85.5 -37t25.5 -117q0 -79 -25.5 -115t-85.5 -36zM987 403q-29 0 -39 -23.5t-10 -78.5q0 -54 10 -78t39 -24
q30 0 40.5 24t10.5 78q0 55 -10 78.5t-41 23.5zM967 1016q49 0 79.5 -24.5t39 -51t8.5 -53.5q0 -43 -34.5 -72.5t-72.5 -34.5q-213 -23 -340 -147q3 8 9 22t25 53.5t39 75.5t50 80.5t59.5 76t66 53.5t71.5 22zM285 909q39 0 78 -21t69.5 -55t58.5 -74.5t48 -81.5t35 -75
t22 -55l8 -21q-117 148 -319 148q-49 0 -88 30t-39 76q0 53 33.5 91t93.5 38zM643 1214q38 -37 48.5 -102t-2.5 -131t-31.5 -126.5t-35.5 -98.5l-18 -39q20 191 -125 330q-35 35 -42 81.5t24 83.5q23 23 53 34t65 3.5t64 -35.5z" />
    <glyph glyph-name="numbersign" unicode="#" 
d="M207 403q-13 0 -19 -2v-200q4 -2 19 -2q37 0 50 25t13 77q0 54 -13 78t-50 24zM518 330v-49h-82v-78h96v-49h-155v297h155v-52h-96v-69h82zM203 150q-47 0 -74 4v292q61 9 76 9q67 0 96 -37.5t29 -116.5t-29.5 -115t-97.5 -36zM586 451h80l39 -164l38 164h82
q3 -45 13 -297h-60q0 108 -6 213l-41 -168h-55l-41 168h-2q-4 -140 -4 -213h-58q3 156 15 297zM987 150q-60 0 -84 35.5t-24 115.5q0 81 24 117.5t84 36.5t85.5 -37t25.5 -117q0 -79 -25.5 -115t-85.5 -36zM987 403q-29 0 -39 -23.5t-10 -78.5q0 -54 10 -78t39 -24
q30 0 40.5 24t10.5 78q0 55 -10 78.5t-41 23.5zM967 1016q49 0 79.5 -24.5t39 -51t8.5 -53.5q0 -43 -34.5 -72.5t-72.5 -34.5q-213 -23 -340 -147q3 8 9 22t25 53.5t39 75.5t50 80.5t59.5 76t66 53.5t71.5 22zM285 909q39 0 78 -21t69.5 -55t58.5 -74.5t48 -81.5t35 -75
t22 -55l8 -21q-117 148 -319 148q-49 0 -88 30t-39 76q0 53 33.5 91t93.5 38zM643 1214q38 -37 48.5 -102t-2.5 -131t-31.5 -126.5t-35.5 -98.5l-18 -39q20 191 -125 330q-35 35 -42 81.5t24 83.5q23 23 53 34t65 3.5t64 -35.5z" />
    <glyph glyph-name="dollar" unicode="$" 
d="M207 403q-13 0 -19 -2v-200q4 -2 19 -2q37 0 50 25t13 77q0 54 -13 78t-50 24zM518 330v-49h-82v-78h96v-49h-155v297h155v-52h-96v-69h82zM203 150q-47 0 -74 4v292q61 9 76 9q67 0 96 -37.5t29 -116.5t-29.5 -115t-97.5 -36zM586 451h80l39 -164l38 164h82
q3 -45 13 -297h-60q0 108 -6 213l-41 -168h-55l-41 168h-2q-4 -140 -4 -213h-58q3 156 15 297zM987 150q-60 0 -84 35.5t-24 115.5q0 81 24 117.5t84 36.5t85.5 -37t25.5 -117q0 -79 -25.5 -115t-85.5 -36zM987 403q-29 0 -39 -23.5t-10 -78.5q0 -54 10 -78t39 -24
q30 0 40.5 24t10.5 78q0 55 -10 78.5t-41 23.5zM967 1016q49 0 79.5 -24.5t39 -51t8.5 -53.5q0 -43 -34.5 -72.5t-72.5 -34.5q-213 -23 -340 -147q3 8 9 22t25 53.5t39 75.5t50 80.5t59.5 76t66 53.5t71.5 22zM285 909q39 0 78 -21t69.5 -55t58.5 -74.5t48 -81.5t35 -75
t22 -55l8 -21q-117 148 -319 148q-49 0 -88 30t-39 76q0 53 33.5 91t93.5 38zM643 1214q38 -37 48.5 -102t-2.5 -131t-31.5 -126.5t-35.5 -98.5l-18 -39q20 191 -125 330q-35 35 -42 81.5t24 83.5q23 23 53 34t65 3.5t64 -35.5z" />
    <glyph glyph-name="percent" unicode="%" 
d="M207 403q-13 0 -19 -2v-200q4 -2 19 -2q37 0 50 25t13 77q0 54 -13 78t-50 24zM518 330v-49h-82v-78h96v-49h-155v297h155v-52h-96v-69h82zM203 150q-47 0 -74 4v292q61 9 76 9q67 0 96 -37.5t29 -116.5t-29.5 -115t-97.5 -36zM586 451h80l39 -164l38 164h82
q3 -45 13 -297h-60q0 108 -6 213l-41 -168h-55l-41 168h-2q-4 -140 -4 -213h-58q3 156 15 297zM987 150q-60 0 -84 35.5t-24 115.5q0 81 24 117.5t84 36.5t85.5 -37t25.5 -117q0 -79 -25.5 -115t-85.5 -36zM987 403q-29 0 -39 -23.5t-10 -78.5q0 -54 10 -78t39 -24
q30 0 40.5 24t10.5 78q0 55 -10 78.5t-41 23.5zM967 1016q49 0 79.5 -24.5t39 -51t8.5 -53.5q0 -43 -34.5 -72.5t-72.5 -34.5q-213 -23 -340 -147q3 8 9 22t25 53.5t39 75.5t50 80.5t59.5 76t66 53.5t71.5 22zM285 909q39 0 78 -21t69.5 -55t58.5 -74.5t48 -81.5t35 -75
t22 -55l8 -21q-117 148 -319 148q-49 0 -88 30t-39 76q0 53 33.5 91t93.5 38zM643 1214q38 -37 48.5 -102t-2.5 -131t-31.5 -126.5t-35.5 -98.5l-18 -39q20 191 -125 330q-35 35 -42 81.5t24 83.5q23 23 53 34t65 3.5t64 -35.5z" />
    <glyph glyph-name="ampersand" unicode="&#x26;" 
d="M207 403q-13 0 -19 -2v-200q4 -2 19 -2q37 0 50 25t13 77q0 54 -13 78t-50 24zM518 330v-49h-82v-78h96v-49h-155v297h155v-52h-96v-69h82zM203 150q-47 0 -74 4v292q61 9 76 9q67 0 96 -37.5t29 -116.5t-29.5 -115t-97.5 -36zM586 451h80l39 -164l38 164h82
q3 -45 13 -297h-60q0 108 -6 213l-41 -168h-55l-41 168h-2q-4 -140 -4 -213h-58q3 156 15 297zM987 150q-60 0 -84 35.5t-24 115.5q0 81 24 117.5t84 36.5t85.5 -37t25.5 -117q0 -79 -25.5 -115t-85.5 -36zM987 403q-29 0 -39 -23.5t-10 -78.5q0 -54 10 -78t39 -24
q30 0 40.5 24t10.5 78q0 55 -10 78.5t-41 23.5zM967 1016q49 0 79.5 -24.5t39 -51t8.5 -53.5q0 -43 -34.5 -72.5t-72.5 -34.5q-213 -23 -340 -147q3 8 9 22t25 53.5t39 75.5t50 80.5t59.5 76t66 53.5t71.5 22zM285 909q39 0 78 -21t69.5 -55t58.5 -74.5t48 -81.5t35 -75
t22 -55l8 -21q-117 148 -319 148q-49 0 -88 30t-39 76q0 53 33.5 91t93.5 38zM643 1214q38 -37 48.5 -102t-2.5 -131t-31.5 -126.5t-35.5 -98.5l-18 -39q20 191 -125 330q-35 35 -42 81.5t24 83.5q23 23 53 34t65 3.5t64 -35.5z" />
    <glyph glyph-name="quotesingle" unicode="'" 
d="M207 403q-13 0 -19 -2v-200q4 -2 19 -2q37 0 50 25t13 77q0 54 -13 78t-50 24zM518 330v-49h-82v-78h96v-49h-155v297h155v-52h-96v-69h82zM203 150q-47 0 -74 4v292q61 9 76 9q67 0 96 -37.5t29 -116.5t-29.5 -115t-97.5 -36zM586 451h80l39 -164l38 164h82
q3 -45 13 -297h-60q0 108 -6 213l-41 -168h-55l-41 168h-2q-4 -140 -4 -213h-58q3 156 15 297zM987 150q-60 0 -84 35.5t-24 115.5q0 81 24 117.5t84 36.5t85.5 -37t25.5 -117q0 -79 -25.5 -115t-85.5 -36zM987 403q-29 0 -39 -23.5t-10 -78.5q0 -54 10 -78t39 -24
q30 0 40.5 24t10.5 78q0 55 -10 78.5t-41 23.5zM967 1016q49 0 79.5 -24.5t39 -51t8.5 -53.5q0 -43 -34.5 -72.5t-72.5 -34.5q-213 -23 -340 -147q3 8 9 22t25 53.5t39 75.5t50 80.5t59.5 76t66 53.5t71.5 22zM285 909q39 0 78 -21t69.5 -55t58.5 -74.5t48 -81.5t35 -75
t22 -55l8 -21q-117 148 -319 148q-49 0 -88 30t-39 76q0 53 33.5 91t93.5 38zM643 1214q38 -37 48.5 -102t-2.5 -131t-31.5 -126.5t-35.5 -98.5l-18 -39q20 191 -125 330q-35 35 -42 81.5t24 83.5q23 23 53 34t65 3.5t64 -35.5z" />
    <glyph glyph-name="parenleft" unicode="(" 
d="M207 403q-13 0 -19 -2v-200q4 -2 19 -2q37 0 50 25t13 77q0 54 -13 78t-50 24zM518 330v-49h-82v-78h96v-49h-155v297h155v-52h-96v-69h82zM203 150q-47 0 -74 4v292q61 9 76 9q67 0 96 -37.5t29 -116.5t-29.5 -115t-97.5 -36zM586 451h80l39 -164l38 164h82
q3 -45 13 -297h-60q0 108 -6 213l-41 -168h-55l-41 168h-2q-4 -140 -4 -213h-58q3 156 15 297zM987 150q-60 0 -84 35.5t-24 115.5q0 81 24 117.5t84 36.5t85.5 -37t25.5 -117q0 -79 -25.5 -115t-85.5 -36zM987 403q-29 0 -39 -23.5t-10 -78.5q0 -54 10 -78t39 -24
q30 0 40.5 24t10.5 78q0 55 -10 78.5t-41 23.5zM967 1016q49 0 79.5 -24.5t39 -51t8.5 -53.5q0 -43 -34.5 -72.5t-72.5 -34.5q-213 -23 -340 -147q3 8 9 22t25 53.5t39 75.5t50 80.5t59.5 76t66 53.5t71.5 22zM285 909q39 0 78 -21t69.5 -55t58.5 -74.5t48 -81.5t35 -75
t22 -55l8 -21q-117 148 -319 148q-49 0 -88 30t-39 76q0 53 33.5 91t93.5 38zM643 1214q38 -37 48.5 -102t-2.5 -131t-31.5 -126.5t-35.5 -98.5l-18 -39q20 191 -125 330q-35 35 -42 81.5t24 83.5q23 23 53 34t65 3.5t64 -35.5z" />
    <glyph glyph-name="parenright" unicode=")" 
d="M207 403q-13 0 -19 -2v-200q4 -2 19 -2q37 0 50 25t13 77q0 54 -13 78t-50 24zM518 330v-49h-82v-78h96v-49h-155v297h155v-52h-96v-69h82zM203 150q-47 0 -74 4v292q61 9 76 9q67 0 96 -37.5t29 -116.5t-29.5 -115t-97.5 -36zM586 451h80l39 -164l38 164h82
q3 -45 13 -297h-60q0 108 -6 213l-41 -168h-55l-41 168h-2q-4 -140 -4 -213h-58q3 156 15 297zM987 150q-60 0 -84 35.5t-24 115.5q0 81 24 117.5t84 36.5t85.5 -37t25.5 -117q0 -79 -25.5 -115t-85.5 -36zM987 403q-29 0 -39 -23.5t-10 -78.5q0 -54 10 -78t39 -24
q30 0 40.5 24t10.5 78q0 55 -10 78.5t-41 23.5zM967 1016q49 0 79.5 -24.5t39 -51t8.5 -53.5q0 -43 -34.5 -72.5t-72.5 -34.5q-213 -23 -340 -147q3 8 9 22t25 53.5t39 75.5t50 80.5t59.5 76t66 53.5t71.5 22zM285 909q39 0 78 -21t69.5 -55t58.5 -74.5t48 -81.5t35 -75
t22 -55l8 -21q-117 148 -319 148q-49 0 -88 30t-39 76q0 53 33.5 91t93.5 38zM643 1214q38 -37 48.5 -102t-2.5 -131t-31.5 -126.5t-35.5 -98.5l-18 -39q20 191 -125 330q-35 35 -42 81.5t24 83.5q23 23 53 34t65 3.5t64 -35.5z" />
    <glyph glyph-name="asterisk" unicode="*" 
d="M207 403q-13 0 -19 -2v-200q4 -2 19 -2q37 0 50 25t13 77q0 54 -13 78t-50 24zM518 330v-49h-82v-78h96v-49h-155v297h155v-52h-96v-69h82zM203 150q-47 0 -74 4v292q61 9 76 9q67 0 96 -37.5t29 -116.5t-29.5 -115t-97.5 -36zM586 451h80l39 -164l38 164h82
q3 -45 13 -297h-60q0 108 -6 213l-41 -168h-55l-41 168h-2q-4 -140 -4 -213h-58q3 156 15 297zM987 150q-60 0 -84 35.5t-24 115.5q0 81 24 117.5t84 36.5t85.5 -37t25.5 -117q0 -79 -25.5 -115t-85.5 -36zM987 403q-29 0 -39 -23.5t-10 -78.5q0 -54 10 -78t39 -24
q30 0 40.5 24t10.5 78q0 55 -10 78.5t-41 23.5zM967 1016q49 0 79.5 -24.5t39 -51t8.5 -53.5q0 -43 -34.5 -72.5t-72.5 -34.5q-213 -23 -340 -147q3 8 9 22t25 53.5t39 75.5t50 80.5t59.5 76t66 53.5t71.5 22zM285 909q39 0 78 -21t69.5 -55t58.5 -74.5t48 -81.5t35 -75
t22 -55l8 -21q-117 148 -319 148q-49 0 -88 30t-39 76q0 53 33.5 91t93.5 38zM643 1214q38 -37 48.5 -102t-2.5 -131t-31.5 -126.5t-35.5 -98.5l-18 -39q20 191 -125 330q-35 35 -42 81.5t24 83.5q23 23 53 34t65 3.5t64 -35.5z" />
    <glyph glyph-name="plus" unicode="+" 
d="M207 403q-13 0 -19 -2v-200q4 -2 19 -2q37 0 50 25t13 77q0 54 -13 78t-50 24zM518 330v-49h-82v-78h96v-49h-155v297h155v-52h-96v-69h82zM203 150q-47 0 -74 4v292q61 9 76 9q67 0 96 -37.5t29 -116.5t-29.5 -115t-97.5 -36zM586 451h80l39 -164l38 164h82
q3 -45 13 -297h-60q0 108 -6 213l-41 -168h-55l-41 168h-2q-4 -140 -4 -213h-58q3 156 15 297zM987 150q-60 0 -84 35.5t-24 115.5q0 81 24 117.5t84 36.5t85.5 -37t25.5 -117q0 -79 -25.5 -115t-85.5 -36zM987 403q-29 0 -39 -23.5t-10 -78.5q0 -54 10 -78t39 -24
q30 0 40.5 24t10.5 78q0 55 -10 78.5t-41 23.5zM967 1016q49 0 79.5 -24.5t39 -51t8.5 -53.5q0 -43 -34.5 -72.5t-72.5 -34.5q-213 -23 -340 -147q3 8 9 22t25 53.5t39 75.5t50 80.5t59.5 76t66 53.5t71.5 22zM285 909q39 0 78 -21t69.5 -55t58.5 -74.5t48 -81.5t35 -75
t22 -55l8 -21q-117 148 -319 148q-49 0 -88 30t-39 76q0 53 33.5 91t93.5 38zM643 1214q38 -37 48.5 -102t-2.5 -131t-31.5 -126.5t-35.5 -98.5l-18 -39q20 191 -125 330q-35 35 -42 81.5t24 83.5q23 23 53 34t65 3.5t64 -35.5z" />
    <glyph glyph-name="comma" unicode="," horiz-adv-x="460" 
d="M-39 -248l19 103h10q79 0 121 30t49 99q-67 0 -104.5 33t-37.5 87q0 61 41.5 103.5t106.5 42.5q61 0 98 -42.5t37 -127.5t-33.5 -158.5t-103 -121.5t-160.5 -48h-43z" />
    <glyph glyph-name="hyphen" unicode="-" 
d="M207 403q-13 0 -19 -2v-200q4 -2 19 -2q37 0 50 25t13 77q0 54 -13 78t-50 24zM518 330v-49h-82v-78h96v-49h-155v297h155v-52h-96v-69h82zM203 150q-47 0 -74 4v292q61 9 76 9q67 0 96 -37.5t29 -116.5t-29.5 -115t-97.5 -36zM586 451h80l39 -164l38 164h82
q3 -45 13 -297h-60q0 108 -6 213l-41 -168h-55l-41 168h-2q-4 -140 -4 -213h-58q3 156 15 297zM987 150q-60 0 -84 35.5t-24 115.5q0 81 24 117.5t84 36.5t85.5 -37t25.5 -117q0 -79 -25.5 -115t-85.5 -36zM987 403q-29 0 -39 -23.5t-10 -78.5q0 -54 10 -78t39 -24
q30 0 40.5 24t10.5 78q0 55 -10 78.5t-41 23.5zM967 1016q49 0 79.5 -24.5t39 -51t8.5 -53.5q0 -43 -34.5 -72.5t-72.5 -34.5q-213 -23 -340 -147q3 8 9 22t25 53.5t39 75.5t50 80.5t59.5 76t66 53.5t71.5 22zM285 909q39 0 78 -21t69.5 -55t58.5 -74.5t48 -81.5t35 -75
t22 -55l8 -21q-117 148 -319 148q-49 0 -88 30t-39 76q0 53 33.5 91t93.5 38zM643 1214q38 -37 48.5 -102t-2.5 -131t-31.5 -126.5t-35.5 -98.5l-18 -39q20 191 -125 330q-35 35 -42 81.5t24 83.5q23 23 53 34t65 3.5t64 -35.5z" />
    <glyph glyph-name="period" unicode="." horiz-adv-x="444" 
d="M156 -20q-57 0 -97.5 39t-40.5 96q0 56 40.5 95.5t97.5 39.5q56 0 95.5 -40t39.5 -95q0 -57 -39.5 -96t-95.5 -39z" />
    <glyph glyph-name="slash" unicode="/" 
d="M207 403q-13 0 -19 -2v-200q4 -2 19 -2q37 0 50 25t13 77q0 54 -13 78t-50 24zM518 330v-49h-82v-78h96v-49h-155v297h155v-52h-96v-69h82zM203 150q-47 0 -74 4v292q61 9 76 9q67 0 96 -37.5t29 -116.5t-29.5 -115t-97.5 -36zM586 451h80l39 -164l38 164h82
q3 -45 13 -297h-60q0 108 -6 213l-41 -168h-55l-41 168h-2q-4 -140 -4 -213h-58q3 156 15 297zM987 150q-60 0 -84 35.5t-24 115.5q0 81 24 117.5t84 36.5t85.5 -37t25.5 -117q0 -79 -25.5 -115t-85.5 -36zM987 403q-29 0 -39 -23.5t-10 -78.5q0 -54 10 -78t39 -24
q30 0 40.5 24t10.5 78q0 55 -10 78.5t-41 23.5zM967 1016q49 0 79.5 -24.5t39 -51t8.5 -53.5q0 -43 -34.5 -72.5t-72.5 -34.5q-213 -23 -340 -147q3 8 9 22t25 53.5t39 75.5t50 80.5t59.5 76t66 53.5t71.5 22zM285 909q39 0 78 -21t69.5 -55t58.5 -74.5t48 -81.5t35 -75
t22 -55l8 -21q-117 148 -319 148q-49 0 -88 30t-39 76q0 53 33.5 91t93.5 38zM643 1214q38 -37 48.5 -102t-2.5 -131t-31.5 -126.5t-35.5 -98.5l-18 -39q20 191 -125 330q-35 35 -42 81.5t24 83.5q23 23 53 34t65 3.5t64 -35.5z" />
    <glyph glyph-name="zero" unicode="0" horiz-adv-x="1288" 
d="M563 -20q-101 0 -184 33t-146 99.5t-98 176.5t-35 254q0 136 28.5 267t86 247t137.5 204t191 139.5t239 51.5q102 0 185 -33.5t146 -100t97.5 -176t34.5 -253.5q0 -112 -20 -222t-58.5 -211.5t-98 -188t-133 -150.5t-169.5 -100.5t-203 -36.5zM586 156q110 0 200.5 66
t146 171.5t85 230t29.5 250.5q0 194 -73 298t-214 104q-89 0 -165.5 -43.5t-130 -115t-91.5 -165t-56 -193.5t-18 -200q0 -194 74 -298.5t213 -104.5z" />
    <glyph glyph-name="one" unicode="1" horiz-adv-x="722" 
d="M276 0l187 1167q-54 -51 -132 -81t-165 -31l27 172q107 9 189 64t122 143h207l-228 -1434h-207z" />
    <glyph glyph-name="two" unicode="2" horiz-adv-x="1136" 
d="M-2 0l10 61q31 195 139 329t349 267q188 103 244 142q128 88 163 189q8 22 12 46q19 116 -48 179t-181 63q-78 0 -142 -29t-110 -94t-59 -158l-4 -28h-203l6 39q32 200 171.5 323t367.5 123q220 0 328.5 -113.5t80.5 -294.5q-12 -74 -45 -138t-75 -110.5t-103.5 -91
t-117 -76t-127.5 -70.5q-2 -1 -3 -1q-191 -105 -282 -187.5t-107 -183.5l-2 -12h727l-26 -174h-963z" />
    <glyph glyph-name="three" unicode="3" horiz-adv-x="1191" 
d="M504 -20q-247 0 -361.5 132.5t-81.5 354.5h193q-22 -149 55 -229t221 -80q155 0 259 86t104 217q0 105 -76.5 163t-224.5 58h-68l25 156h59q146 0 233 67t87 180q0 93 -59.5 141t-163.5 48q-57 0 -107.5 -15.5t-94 -48.5t-74 -90.5t-42.5 -134.5h-194q32 226 174 346.5
t366 120.5q191 0 296.5 -86.5t105.5 -228.5q0 -127 -81 -228.5t-212 -136.5q48 -7 91.5 -28t82.5 -56.5t62.5 -93.5t23.5 -131q0 -140 -80 -251.5t-216.5 -171.5t-301.5 -60z" />
    <glyph glyph-name="four" unicode="4" 
d="M207 403q-13 0 -19 -2v-200q4 -2 19 -2q37 0 50 25t13 77q0 54 -13 78t-50 24zM518 330v-49h-82v-78h96v-49h-155v297h155v-52h-96v-69h82zM203 150q-47 0 -74 4v292q61 9 76 9q67 0 96 -37.5t29 -116.5t-29.5 -115t-97.5 -36zM586 451h80l39 -164l38 164h82
q3 -45 13 -297h-60q0 108 -6 213l-41 -168h-55l-41 168h-2q-4 -140 -4 -213h-58q3 156 15 297zM987 150q-60 0 -84 35.5t-24 115.5q0 81 24 117.5t84 36.5t85.5 -37t25.5 -117q0 -79 -25.5 -115t-85.5 -36zM987 403q-29 0 -39 -23.5t-10 -78.5q0 -54 10 -78t39 -24
q30 0 40.5 24t10.5 78q0 55 -10 78.5t-41 23.5zM967 1016q49 0 79.5 -24.5t39 -51t8.5 -53.5q0 -43 -34.5 -72.5t-72.5 -34.5q-213 -23 -340 -147q3 8 9 22t25 53.5t39 75.5t50 80.5t59.5 76t66 53.5t71.5 22zM285 909q39 0 78 -21t69.5 -55t58.5 -74.5t48 -81.5t35 -75
t22 -55l8 -21q-117 148 -319 148q-49 0 -88 30t-39 76q0 53 33.5 91t93.5 38zM643 1214q38 -37 48.5 -102t-2.5 -131t-31.5 -126.5t-35.5 -98.5l-18 -39q20 191 -125 330q-35 35 -42 81.5t24 83.5q23 23 53 34t65 3.5t64 -35.5z" />
    <glyph glyph-name="five" unicode="5" horiz-adv-x="1185" 
d="M516 -20q-235 0 -352 129t-86 331h188q-17 -135 63 -212.5t214 -77.5q168 0 269 115t101 278q0 140 -75.5 207t-192.5 67q-91 0 -170.5 -38.5t-134.5 -110.5h-197l240 766h756l-27 -166h-610l-135 -428q44 52 137.5 95.5t216.5 43.5q181 0 290 -107.5t109 -304.5
q0 -254 -169 -420.5t-435 -166.5z" />
    <glyph glyph-name="six" unicode="6" horiz-adv-x="1214" 
d="M1169 1071h-184q4 100 -58 157.5t-175 57.5q-334 0 -428 -518q72 85 176 134.5t227 49.5q83 0 154 -24t126.5 -71t87 -124.5t31.5 -177.5q0 -161 -76.5 -293t-209.5 -207t-295 -75q-205 0 -324 125t-119 380q0 92 19 222q20 123 53 229.5t88 203t126.5 164.5t172 108
t219.5 40q101 0 178.5 -27t123.5 -73.5t69 -103t23 -120.5q0 -12 -5 -57zM662 795q-161 0 -262 -110t-101 -263q0 -129 73.5 -200.5t190.5 -71.5q156 0 259.5 112t103.5 270q0 127 -72.5 195t-191.5 68z" />
    <glyph glyph-name="seven" unicode="7" horiz-adv-x="1011" 
d="M166 0q155 626 692 1262h-682l29 172h878l-26 -172q-550 -671 -690 -1262h-201z" />
    <glyph glyph-name="eight" unicode="8" horiz-adv-x="1202" 
d="M516 -20q-208 0 -336.5 99t-128.5 277q0 159 98.5 277t270.5 174q-164 78 -164 252q0 165 135.5 279t353.5 114q181 0 281 -82.5t100 -216.5q0 -109 -67 -201t-191 -145q246 -89 246 -330q0 -145 -80 -259.5t-216 -176t-302 -61.5zM655 868q126 0 207.5 72t81.5 178
q0 87 -58 137t-163 50q-129 0 -209 -71.5t-80 -178.5q0 -87 58.5 -137t162.5 -50zM543 150q165 0 266.5 95t101.5 234q0 115 -75.5 177.5t-204.5 62.5q-159 0 -265 -93t-106 -237q0 -113 75 -176t208 -63z" />
    <glyph glyph-name="nine" unicode="9" horiz-adv-x="1212" 
d="M727 1450q203 0 321.5 -125.5t118.5 -380.5q0 -98 -18 -221q-19 -123 -52.5 -229.5t-88 -203t-126 -165t-171.5 -108.5t-219 -40q-101 0 -179 27.5t-123.5 74t-68.5 103t-23 119.5q0 21 4 57h183q-3 -100 60 -157.5t175 -57.5q59 0 111 17t91.5 46t72.5 70.5t56.5 86
t42.5 98t31 101t21 100.5q-72 -85 -176 -135t-227 -50q-111 0 -199 41t-143.5 132.5t-55.5 223.5q0 161 76.5 293.5t210 207.5t295.5 75zM610 635q159 0 260 110t101 263q0 129 -72.5 200.5t-191.5 71.5q-154 0 -257.5 -112.5t-103.5 -270.5q0 -127 72.5 -194.5t191.5 -67.5
z" />
    <glyph glyph-name="colon" unicode=":" horiz-adv-x="444" 
d="M285 795q-57 0 -97.5 39.5t-40.5 95.5q0 57 40.5 96t97.5 39t97 -39t40 -96q0 -56 -40 -95.5t-97 -39.5zM156 -20q-57 0 -97.5 39t-40.5 96q0 56 40.5 95.5t97.5 39.5q56 0 95.5 -40t39.5 -95q0 -57 -39.5 -96t-95.5 -39z" />
    <glyph glyph-name="semicolon" unicode=";" horiz-adv-x="460" 
d="M285 795q-57 0 -97.5 39.5t-40.5 95.5q0 57 40.5 96t97.5 39t97 -39t40 -96q0 -56 -40 -95.5t-97 -39.5zM-39 -248l19 103h10q79 0 121 30t49 99q-67 0 -104.5 33t-37.5 87q0 61 41.5 103.5t106.5 42.5q61 0 98 -42.5t37 -127.5t-33.5 -158.5t-103 -121.5t-160.5 -48h-43
z" />
    <glyph glyph-name="less" unicode="&#x3c;" 
d="M207 403q-13 0 -19 -2v-200q4 -2 19 -2q37 0 50 25t13 77q0 54 -13 78t-50 24zM518 330v-49h-82v-78h96v-49h-155v297h155v-52h-96v-69h82zM203 150q-47 0 -74 4v292q61 9 76 9q67 0 96 -37.5t29 -116.5t-29.5 -115t-97.5 -36zM586 451h80l39 -164l38 164h82
q3 -45 13 -297h-60q0 108 -6 213l-41 -168h-55l-41 168h-2q-4 -140 -4 -213h-58q3 156 15 297zM987 150q-60 0 -84 35.5t-24 115.5q0 81 24 117.5t84 36.5t85.5 -37t25.5 -117q0 -79 -25.5 -115t-85.5 -36zM987 403q-29 0 -39 -23.5t-10 -78.5q0 -54 10 -78t39 -24
q30 0 40.5 24t10.5 78q0 55 -10 78.5t-41 23.5zM967 1016q49 0 79.5 -24.5t39 -51t8.5 -53.5q0 -43 -34.5 -72.5t-72.5 -34.5q-213 -23 -340 -147q3 8 9 22t25 53.5t39 75.5t50 80.5t59.5 76t66 53.5t71.5 22zM285 909q39 0 78 -21t69.5 -55t58.5 -74.5t48 -81.5t35 -75
t22 -55l8 -21q-117 148 -319 148q-49 0 -88 30t-39 76q0 53 33.5 91t93.5 38zM643 1214q38 -37 48.5 -102t-2.5 -131t-31.5 -126.5t-35.5 -98.5l-18 -39q20 191 -125 330q-35 35 -42 81.5t24 83.5q23 23 53 34t65 3.5t64 -35.5z" />
    <glyph glyph-name="equal" unicode="=" 
d="M207 403q-13 0 -19 -2v-200q4 -2 19 -2q37 0 50 25t13 77q0 54 -13 78t-50 24zM518 330v-49h-82v-78h96v-49h-155v297h155v-52h-96v-69h82zM203 150q-47 0 -74 4v292q61 9 76 9q67 0 96 -37.5t29 -116.5t-29.5 -115t-97.5 -36zM586 451h80l39 -164l38 164h82
q3 -45 13 -297h-60q0 108 -6 213l-41 -168h-55l-41 168h-2q-4 -140 -4 -213h-58q3 156 15 297zM987 150q-60 0 -84 35.5t-24 115.5q0 81 24 117.5t84 36.5t85.5 -37t25.5 -117q0 -79 -25.5 -115t-85.5 -36zM987 403q-29 0 -39 -23.5t-10 -78.5q0 -54 10 -78t39 -24
q30 0 40.5 24t10.5 78q0 55 -10 78.5t-41 23.5zM967 1016q49 0 79.5 -24.5t39 -51t8.5 -53.5q0 -43 -34.5 -72.5t-72.5 -34.5q-213 -23 -340 -147q3 8 9 22t25 53.5t39 75.5t50 80.5t59.5 76t66 53.5t71.5 22zM285 909q39 0 78 -21t69.5 -55t58.5 -74.5t48 -81.5t35 -75
t22 -55l8 -21q-117 148 -319 148q-49 0 -88 30t-39 76q0 53 33.5 91t93.5 38zM643 1214q38 -37 48.5 -102t-2.5 -131t-31.5 -126.5t-35.5 -98.5l-18 -39q20 191 -125 330q-35 35 -42 81.5t24 83.5q23 23 53 34t65 3.5t64 -35.5z" />
    <glyph glyph-name="greater" unicode="&#x3e;" 
d="M207 403q-13 0 -19 -2v-200q4 -2 19 -2q37 0 50 25t13 77q0 54 -13 78t-50 24zM518 330v-49h-82v-78h96v-49h-155v297h155v-52h-96v-69h82zM203 150q-47 0 -74 4v292q61 9 76 9q67 0 96 -37.5t29 -116.5t-29.5 -115t-97.5 -36zM586 451h80l39 -164l38 164h82
q3 -45 13 -297h-60q0 108 -6 213l-41 -168h-55l-41 168h-2q-4 -140 -4 -213h-58q3 156 15 297zM987 150q-60 0 -84 35.5t-24 115.5q0 81 24 117.5t84 36.5t85.5 -37t25.5 -117q0 -79 -25.5 -115t-85.5 -36zM987 403q-29 0 -39 -23.5t-10 -78.5q0 -54 10 -78t39 -24
q30 0 40.5 24t10.5 78q0 55 -10 78.5t-41 23.5zM967 1016q49 0 79.5 -24.5t39 -51t8.5 -53.5q0 -43 -34.5 -72.5t-72.5 -34.5q-213 -23 -340 -147q3 8 9 22t25 53.5t39 75.5t50 80.5t59.5 76t66 53.5t71.5 22zM285 909q39 0 78 -21t69.5 -55t58.5 -74.5t48 -81.5t35 -75
t22 -55l8 -21q-117 148 -319 148q-49 0 -88 30t-39 76q0 53 33.5 91t93.5 38zM643 1214q38 -37 48.5 -102t-2.5 -131t-31.5 -126.5t-35.5 -98.5l-18 -39q20 191 -125 330q-35 35 -42 81.5t24 83.5q23 23 53 34t65 3.5t64 -35.5z" />
    <glyph glyph-name="question" unicode="?" horiz-adv-x="1099" 
d="M440 422l13 76q12 72 41 130t65 95.5t77.5 68.5t82 58t75 54.5t59.5 67t32 87.5q15 93 -40 152t-169 59q-127 0 -207 -77t-100 -216h-207q16 119 64 210.5t119.5 147.5t159 84.5t189.5 28.5q132 0 228 -45t142.5 -134.5t27.5 -211.5q-11 -66 -37.5 -118t-61 -85
t-74 -61.5t-79 -55t-73.5 -57t-59.5 -76.5t-35.5 -104l-15 -78h-217zM504 -20q-57 0 -97 39t-40 96q0 56 40 95.5t97 39.5q56 0 95.5 -40t39.5 -95q0 -57 -39.5 -96t-95.5 -39z" />
    <glyph glyph-name="at" unicode="@" 
d="M207 403q-13 0 -19 -2v-200q4 -2 19 -2q37 0 50 25t13 77q0 54 -13 78t-50 24zM518 330v-49h-82v-78h96v-49h-155v297h155v-52h-96v-69h82zM203 150q-47 0 -74 4v292q61 9 76 9q67 0 96 -37.5t29 -116.5t-29.5 -115t-97.5 -36zM586 451h80l39 -164l38 164h82
q3 -45 13 -297h-60q0 108 -6 213l-41 -168h-55l-41 168h-2q-4 -140 -4 -213h-58q3 156 15 297zM987 150q-60 0 -84 35.5t-24 115.5q0 81 24 117.5t84 36.5t85.5 -37t25.5 -117q0 -79 -25.5 -115t-85.5 -36zM987 403q-29 0 -39 -23.5t-10 -78.5q0 -54 10 -78t39 -24
q30 0 40.5 24t10.5 78q0 55 -10 78.5t-41 23.5zM967 1016q49 0 79.5 -24.5t39 -51t8.5 -53.5q0 -43 -34.5 -72.5t-72.5 -34.5q-213 -23 -340 -147q3 8 9 22t25 53.5t39 75.5t50 80.5t59.5 76t66 53.5t71.5 22zM285 909q39 0 78 -21t69.5 -55t58.5 -74.5t48 -81.5t35 -75
t22 -55l8 -21q-117 148 -319 148q-49 0 -88 30t-39 76q0 53 33.5 91t93.5 38zM643 1214q38 -37 48.5 -102t-2.5 -131t-31.5 -126.5t-35.5 -98.5l-18 -39q20 191 -125 330q-35 35 -42 81.5t24 83.5q23 23 53 34t65 3.5t64 -35.5z" />
    <glyph glyph-name="A" unicode="A" horiz-adv-x="1429" 
d="M1083 0l-67 330h-658l-172 -330h-227l766 1434h266l312 -1434h-220zM442 492h539l-147 718h-15z" />
    <glyph glyph-name="B" unicode="B" horiz-adv-x="1261" 
d="M31 0l227 1434h541q196 0 294.5 -81.5t98.5 -226.5q0 -121 -64.5 -211.5t-183.5 -132.5q238 -70 238 -319q0 -143 -76.5 -249t-208.5 -160t-301 -54h-565zM379 854h311q127 0 204 65.5t77 170.5q0 163 -207 163h-322zM270 182h330q160 0 260.5 79.5t100.5 205.5
q0 99 -66.5 153t-204.5 54h-342z" />
    <glyph glyph-name="C" unicode="C" horiz-adv-x="1372" 
d="M670 -20q-264 0 -414 153.5t-150 448.5q0 176 52 333t147.5 277t241.5 190t323 70q153 0 267.5 -51t180.5 -156.5t64 -255.5h-202q-13 140 -101 209.5t-227 69.5q-102 0 -189.5 -38t-149.5 -102.5t-105.5 -150t-64.5 -180t-21 -193.5q0 -214 97.5 -327t274.5 -113
q138 0 239.5 71t158.5 209h206q-34 -118 -95.5 -208t-144 -145.5t-180 -83t-208.5 -27.5z" />
    <glyph glyph-name="D" unicode="D" horiz-adv-x="1363" 
d="M31 0l227 1434h483q576 0 576 -588q0 -181 -52.5 -334.5t-150.5 -268t-250 -179t-340 -64.5h-493zM272 186h252q117 0 213.5 34t163.5 93t112.5 142t67 179.5t21.5 205.5q0 219 -94.5 313t-305.5 94h-262z" />
    <glyph glyph-name="E" unicode="E" horiz-adv-x="1130" 
d="M31 0l227 1434h932l-31 -187h-719l-69 -430h659l-26 -170h-660l-72 -461h742l-31 -186h-952z" />
    <glyph glyph-name="F" unicode="F" horiz-adv-x="1097" 
d="M31 0l227 1434h922l-29 -187h-711l-71 -446h583l-26 -176h-586l-96 -625h-213z" />
    <glyph glyph-name="G" unicode="G" horiz-adv-x="1439" 
d="M680 -20q-274 0 -424 153t-150 449q0 140 33.5 269.5t100 238.5t158.5 190t215.5 126.5t265.5 45.5q222 0 357.5 -107t145.5 -307h-208q-22 119 -103.5 174.5t-204.5 55.5q-129 0 -235 -58t-172 -154t-101.5 -214.5t-35.5 -245.5q0 -212 96.5 -322t277.5 -110
q176 0 295.5 106t153.5 314l-336 -4l29 172h542l-16 -103q-106 -669 -684 -669z" />
    <glyph glyph-name="H" unicode="H" horiz-adv-x="1349" 
d="M1165 1434h213l-227 -1434h-213l98 618h-694l-98 -618h-213l227 1434h213l-100 -639h694z" />
    <glyph glyph-name="I" unicode="I" horiz-adv-x="440" 
d="M31 0l227 1434h213l-227 -1434h-213z" />
    <glyph glyph-name="J" unicode="J" horiz-adv-x="1355" 
d="M602 -20q-263 0 -395.5 146t-89.5 417h213q-27 -179 54.5 -278t248.5 -99q165 0 267.5 100t133.5 291l140 877h212l-141 -891q-44 -273 -214 -418t-429 -145z" />
    <glyph glyph-name="K" unicode="K" horiz-adv-x="1343" 
d="M1393 1434l-682 -656l506 -778h-246l-416 631l-250 -240l-61 -391h-213l227 1434h213l-121 -758l789 758h254z" />
    <glyph glyph-name="L" unicode="L" horiz-adv-x="1099" 
d="M31 0l227 1434h213l-199 -1248h711l-29 -186h-923z" />
    <glyph glyph-name="M" unicode="M" horiz-adv-x="1697" 
d="M31 0l227 1434h262l289 -1151l647 1151h270l-227 -1434h-213l166 1053h-8l-588 -1053h-176l-262 1053h-8l-166 -1053h-213z" />
    <glyph glyph-name="N" unicode="N" horiz-adv-x="1374" 
d="M31 0l227 1434h229l523 -1098h6l174 1098h213l-227 -1434h-238l-518 1087h-6l-170 -1087h-213z" />
    <glyph glyph-name="O" unicode="O" horiz-adv-x="1482" 
d="M668 -20q-260 0 -412 157t-152 447q0 172 54.5 329t151.5 277t242.5 191t317.5 71q263 0 414.5 -156t151.5 -446q0 -172 -54.5 -329.5t-152 -277.5t-243.5 -191.5t-318 -71.5zM684 164q102 0 190 39t150.5 105t107.5 153t67 184.5t22 198.5q0 211 -96.5 317.5
t-266.5 106.5q-102 0 -190 -38.5t-151 -104t-108.5 -152.5t-67.5 -184.5t-22 -198.5q0 -211 97 -318.5t268 -107.5z" />
    <glyph glyph-name="P" unicode="P" horiz-adv-x="1236" 
d="M31 0l227 1434h537q227 0 339.5 -99t112.5 -286q0 -238 -162 -379.5t-434 -141.5h-325l-82 -528h-213zM356 715h318q164 0 259 83t95 222q0 227 -270 227h-318z" />
    <glyph glyph-name="Q" unicode="Q" horiz-adv-x="1484" 
d="M1436 850q0 -178 -57 -339.5t-162 -283.5l114 -139l-147 -123l-113 135q-178 -120 -403 -120q-260 0 -412 157t-152 447q0 172 54.5 329t151.5 277t242.5 191t317.5 71q263 0 414.5 -156t151.5 -446zM684 164q147 0 266 82l-202 246l147 122l190 -231q66 95 101 215.5
t35 245.5q0 211 -96.5 317.5t-266.5 106.5q-102 0 -190 -38.5t-151 -104t-108.5 -152.5t-67.5 -184.5t-22 -198.5q0 -211 97 -318.5t268 -107.5z" />
    <glyph glyph-name="R" unicode="R" horiz-adv-x="1249" 
d="M1247 1049q0 -187 -102.5 -316.5t-284.5 -179.5l242 -553h-213l-225 528h-13h-325l-82 -528h-213l227 1434h537q227 0 339.5 -99t112.5 -286zM674 715q164 0 259 83t95 222q0 227 -270 227h-318l-84 -532h318z" />
    <glyph glyph-name="S" unicode="S" horiz-adv-x="1280" 
d="M563 -20q-265 0 -396.5 122.5t-98.5 331.5h217q-11 -123 66.5 -198.5t246.5 -75.5q162 0 257 71.5t95 194.5q0 92 -56 138.5t-179 72.5l-170 35q-166 34 -255 115.5t-89 224.5q0 134 75 235t204 153t292 52q239 0 364.5 -106.5t96.5 -292.5h-215q12 99 -61.5 159
t-213.5 60q-147 0 -232 -64.5t-85 -175.5q0 -76 49.5 -125t165.5 -73l162 -33q191 -38 283 -118t92 -228q0 -219 -172.5 -347t-442.5 -128z" />
    <glyph glyph-name="T" unicode="T" horiz-adv-x="1200" 
d="M410 0l196 1247h-440l31 187h1093l-28 -187h-443l-196 -1247h-213z" />
    <glyph glyph-name="U" unicode="U" horiz-adv-x="1353" 
d="M596 -20q-262 0 -392 146t-87 417l141 891h213l-139 -877q-29 -188 51.5 -289.5t247.5 -101.5q164 0 266 100t133 291l139 877h215l-141 -891q-44 -272 -215.5 -417.5t-431.5 -145.5z" />
    <glyph glyph-name="V" unicode="V" horiz-adv-x="1449" 
d="M508 0l-311 1434h219l250 -1211h14l633 1211h227l-766 -1434h-266z" />
    <glyph glyph-name="W" unicode="W" horiz-adv-x="2015" 
d="M350 0l-153 1434h217l102 -1135h10l512 1135h224l153 -1135h10l461 1135h219l-604 -1434h-227l-166 1163l-533 -1163h-225z" />
    <glyph glyph-name="X" unicode="X" horiz-adv-x="1343" 
d="M1411 1434l-586 -695l392 -739h-240l-299 565l-479 -565h-240l627 739l-369 695h240l274 -521l440 521h240z" />
    <glyph glyph-name="Y" unicode="Y" horiz-adv-x="1370" 
d="M492 0l88 549l-383 885h239l283 -678l498 678h243l-663 -885l-86 -549h-219z" />
    <glyph glyph-name="Z" unicode="Z" horiz-adv-x="1257" 
d="M-2 0l31 186l1011 1061h-817l31 187h1057l-31 -187l-1014 -1061h854l-28 -186h-1094z" />
    <glyph glyph-name="bracketleft" unicode="[" 
d="M207 403q-13 0 -19 -2v-200q4 -2 19 -2q37 0 50 25t13 77q0 54 -13 78t-50 24zM518 330v-49h-82v-78h96v-49h-155v297h155v-52h-96v-69h82zM203 150q-47 0 -74 4v292q61 9 76 9q67 0 96 -37.5t29 -116.5t-29.5 -115t-97.5 -36zM586 451h80l39 -164l38 164h82
q3 -45 13 -297h-60q0 108 -6 213l-41 -168h-55l-41 168h-2q-4 -140 -4 -213h-58q3 156 15 297zM987 150q-60 0 -84 35.5t-24 115.5q0 81 24 117.5t84 36.5t85.5 -37t25.5 -117q0 -79 -25.5 -115t-85.5 -36zM987 403q-29 0 -39 -23.5t-10 -78.5q0 -54 10 -78t39 -24
q30 0 40.5 24t10.5 78q0 55 -10 78.5t-41 23.5zM967 1016q49 0 79.5 -24.5t39 -51t8.5 -53.5q0 -43 -34.5 -72.5t-72.5 -34.5q-213 -23 -340 -147q3 8 9 22t25 53.5t39 75.5t50 80.5t59.5 76t66 53.5t71.5 22zM285 909q39 0 78 -21t69.5 -55t58.5 -74.5t48 -81.5t35 -75
t22 -55l8 -21q-117 148 -319 148q-49 0 -88 30t-39 76q0 53 33.5 91t93.5 38zM643 1214q38 -37 48.5 -102t-2.5 -131t-31.5 -126.5t-35.5 -98.5l-18 -39q20 191 -125 330q-35 35 -42 81.5t24 83.5q23 23 53 34t65 3.5t64 -35.5z" />
    <glyph glyph-name="backslash" unicode="\" 
d="M207 403q-13 0 -19 -2v-200q4 -2 19 -2q37 0 50 25t13 77q0 54 -13 78t-50 24zM518 330v-49h-82v-78h96v-49h-155v297h155v-52h-96v-69h82zM203 150q-47 0 -74 4v292q61 9 76 9q67 0 96 -37.5t29 -116.5t-29.5 -115t-97.5 -36zM586 451h80l39 -164l38 164h82
q3 -45 13 -297h-60q0 108 -6 213l-41 -168h-55l-41 168h-2q-4 -140 -4 -213h-58q3 156 15 297zM987 150q-60 0 -84 35.5t-24 115.5q0 81 24 117.5t84 36.5t85.5 -37t25.5 -117q0 -79 -25.5 -115t-85.5 -36zM987 403q-29 0 -39 -23.5t-10 -78.5q0 -54 10 -78t39 -24
q30 0 40.5 24t10.5 78q0 55 -10 78.5t-41 23.5zM967 1016q49 0 79.5 -24.5t39 -51t8.5 -53.5q0 -43 -34.5 -72.5t-72.5 -34.5q-213 -23 -340 -147q3 8 9 22t25 53.5t39 75.5t50 80.5t59.5 76t66 53.5t71.5 22zM285 909q39 0 78 -21t69.5 -55t58.5 -74.5t48 -81.5t35 -75
t22 -55l8 -21q-117 148 -319 148q-49 0 -88 30t-39 76q0 53 33.5 91t93.5 38zM643 1214q38 -37 48.5 -102t-2.5 -131t-31.5 -126.5t-35.5 -98.5l-18 -39q20 191 -125 330q-35 35 -42 81.5t24 83.5q23 23 53 34t65 3.5t64 -35.5z" />
    <glyph glyph-name="bracketright" unicode="]" 
d="M207 403q-13 0 -19 -2v-200q4 -2 19 -2q37 0 50 25t13 77q0 54 -13 78t-50 24zM518 330v-49h-82v-78h96v-49h-155v297h155v-52h-96v-69h82zM203 150q-47 0 -74 4v292q61 9 76 9q67 0 96 -37.5t29 -116.5t-29.5 -115t-97.5 -36zM586 451h80l39 -164l38 164h82
q3 -45 13 -297h-60q0 108 -6 213l-41 -168h-55l-41 168h-2q-4 -140 -4 -213h-58q3 156 15 297zM987 150q-60 0 -84 35.5t-24 115.5q0 81 24 117.5t84 36.5t85.5 -37t25.5 -117q0 -79 -25.5 -115t-85.5 -36zM987 403q-29 0 -39 -23.5t-10 -78.5q0 -54 10 -78t39 -24
q30 0 40.5 24t10.5 78q0 55 -10 78.5t-41 23.5zM967 1016q49 0 79.5 -24.5t39 -51t8.5 -53.5q0 -43 -34.5 -72.5t-72.5 -34.5q-213 -23 -340 -147q3 8 9 22t25 53.5t39 75.5t50 80.5t59.5 76t66 53.5t71.5 22zM285 909q39 0 78 -21t69.5 -55t58.5 -74.5t48 -81.5t35 -75
t22 -55l8 -21q-117 148 -319 148q-49 0 -88 30t-39 76q0 53 33.5 91t93.5 38zM643 1214q38 -37 48.5 -102t-2.5 -131t-31.5 -126.5t-35.5 -98.5l-18 -39q20 191 -125 330q-35 35 -42 81.5t24 83.5q23 23 53 34t65 3.5t64 -35.5z" />
    <glyph glyph-name="asciicircum" unicode="^" 
d="M207 403q-13 0 -19 -2v-200q4 -2 19 -2q37 0 50 25t13 77q0 54 -13 78t-50 24zM518 330v-49h-82v-78h96v-49h-155v297h155v-52h-96v-69h82zM203 150q-47 0 -74 4v292q61 9 76 9q67 0 96 -37.5t29 -116.5t-29.5 -115t-97.5 -36zM586 451h80l39 -164l38 164h82
q3 -45 13 -297h-60q0 108 -6 213l-41 -168h-55l-41 168h-2q-4 -140 -4 -213h-58q3 156 15 297zM987 150q-60 0 -84 35.5t-24 115.5q0 81 24 117.5t84 36.5t85.5 -37t25.5 -117q0 -79 -25.5 -115t-85.5 -36zM987 403q-29 0 -39 -23.5t-10 -78.5q0 -54 10 -78t39 -24
q30 0 40.5 24t10.5 78q0 55 -10 78.5t-41 23.5zM967 1016q49 0 79.5 -24.5t39 -51t8.5 -53.5q0 -43 -34.5 -72.5t-72.5 -34.5q-213 -23 -340 -147q3 8 9 22t25 53.5t39 75.5t50 80.5t59.5 76t66 53.5t71.5 22zM285 909q39 0 78 -21t69.5 -55t58.5 -74.5t48 -81.5t35 -75
t22 -55l8 -21q-117 148 -319 148q-49 0 -88 30t-39 76q0 53 33.5 91t93.5 38zM643 1214q38 -37 48.5 -102t-2.5 -131t-31.5 -126.5t-35.5 -98.5l-18 -39q20 191 -125 330q-35 35 -42 81.5t24 83.5q23 23 53 34t65 3.5t64 -35.5z" />
    <glyph glyph-name="underscore" unicode="_" 
d="M207 403q-13 0 -19 -2v-200q4 -2 19 -2q37 0 50 25t13 77q0 54 -13 78t-50 24zM518 330v-49h-82v-78h96v-49h-155v297h155v-52h-96v-69h82zM203 150q-47 0 -74 4v292q61 9 76 9q67 0 96 -37.5t29 -116.5t-29.5 -115t-97.5 -36zM586 451h80l39 -164l38 164h82
q3 -45 13 -297h-60q0 108 -6 213l-41 -168h-55l-41 168h-2q-4 -140 -4 -213h-58q3 156 15 297zM987 150q-60 0 -84 35.5t-24 115.5q0 81 24 117.5t84 36.5t85.5 -37t25.5 -117q0 -79 -25.5 -115t-85.5 -36zM987 403q-29 0 -39 -23.5t-10 -78.5q0 -54 10 -78t39 -24
q30 0 40.5 24t10.5 78q0 55 -10 78.5t-41 23.5zM967 1016q49 0 79.5 -24.5t39 -51t8.5 -53.5q0 -43 -34.5 -72.5t-72.5 -34.5q-213 -23 -340 -147q3 8 9 22t25 53.5t39 75.5t50 80.5t59.5 76t66 53.5t71.5 22zM285 909q39 0 78 -21t69.5 -55t58.5 -74.5t48 -81.5t35 -75
t22 -55l8 -21q-117 148 -319 148q-49 0 -88 30t-39 76q0 53 33.5 91t93.5 38zM643 1214q38 -37 48.5 -102t-2.5 -131t-31.5 -126.5t-35.5 -98.5l-18 -39q20 191 -125 330q-35 35 -42 81.5t24 83.5q23 23 53 34t65 3.5t64 -35.5z" />
    <glyph glyph-name="grave" unicode="`" 
d="M207 403q-13 0 -19 -2v-200q4 -2 19 -2q37 0 50 25t13 77q0 54 -13 78t-50 24zM518 330v-49h-82v-78h96v-49h-155v297h155v-52h-96v-69h82zM203 150q-47 0 -74 4v292q61 9 76 9q67 0 96 -37.5t29 -116.5t-29.5 -115t-97.5 -36zM586 451h80l39 -164l38 164h82
q3 -45 13 -297h-60q0 108 -6 213l-41 -168h-55l-41 168h-2q-4 -140 -4 -213h-58q3 156 15 297zM987 150q-60 0 -84 35.5t-24 115.5q0 81 24 117.5t84 36.5t85.5 -37t25.5 -117q0 -79 -25.5 -115t-85.5 -36zM987 403q-29 0 -39 -23.5t-10 -78.5q0 -54 10 -78t39 -24
q30 0 40.5 24t10.5 78q0 55 -10 78.5t-41 23.5zM967 1016q49 0 79.5 -24.5t39 -51t8.5 -53.5q0 -43 -34.5 -72.5t-72.5 -34.5q-213 -23 -340 -147q3 8 9 22t25 53.5t39 75.5t50 80.5t59.5 76t66 53.5t71.5 22zM285 909q39 0 78 -21t69.5 -55t58.5 -74.5t48 -81.5t35 -75
t22 -55l8 -21q-117 148 -319 148q-49 0 -88 30t-39 76q0 53 33.5 91t93.5 38zM643 1214q38 -37 48.5 -102t-2.5 -131t-31.5 -126.5t-35.5 -98.5l-18 -39q20 191 -125 330q-35 35 -42 81.5t24 83.5q23 23 53 34t65 3.5t64 -35.5z" />
    <glyph glyph-name="a" unicode="a" horiz-adv-x="1112" 
d="M336 -20q-145 0 -230.5 62.5t-85.5 195.5q0 289 412 340l238 28q72 9 105 23t36 39l12 63q19 106 -38 152.5t-173 46.5q-110 0 -173.5 -40.5t-80.5 -129.5l-4 -23h-194l6 41q57 307 481 307q220 0 315.5 -86t67.5 -262l-115 -737h-194l35 162h-8q-13 -17 -28 -33
t-53 -45.5t-80.5 -50.5t-109.5 -37t-141 -16zM401 141q81 0 152 28.5t115 70t70.5 82.5t31.5 73l16 111q-32 -32 -127 -43l-202 -25q-110 -13 -168 -51t-58 -115q0 -131 170 -131z" />
    <glyph glyph-name="b" unicode="b" horiz-adv-x="1216" 
d="M766 1085q81 0 150.5 -25.5t125 -76t87.5 -135.5t32 -195q0 -134 -41.5 -256.5t-114 -215t-180 -147t-231.5 -54.5q-120 0 -208.5 50t-123.5 138l-24 -168h-207l227 1434h207l-86 -537q61 88 164.5 138t222.5 50zM580 154q84 0 157 38t121.5 101.5t76.5 146.5t28 172
q0 148 -76 223.5t-197 75.5q-113 0 -202 -65t-136 -169.5t-47 -225.5q0 -146 77.5 -221.5t197.5 -75.5z" />
    <glyph glyph-name="c" unicode="c" horiz-adv-x="1110" 
d="M500 -20q-92 0 -170 26t-140 78.5t-97.5 140.5t-35.5 203q0 106 28 204.5t81.5 180.5t127 143t170.5 95t206 34q61 0 116 -10.5t110.5 -39t94.5 -72t62 -115.5t20 -164h-184q-4 117 -72.5 172t-175.5 55q-91 0 -165.5 -38.5t-122 -103t-73.5 -145.5t-26 -169
q0 -147 71 -224t199 -77q108 0 192.5 55.5t123.5 173.5h184q-24 -93 -69 -165.5t-97.5 -116t-116.5 -72t-122 -39t-119 -10.5z" />
    <glyph glyph-name="d" unicode="d" horiz-adv-x="1214" 
d="M1036 1434h207l-227 -1434h-207l27 168q-61 -88 -164.5 -138t-222.5 -50q-81 0 -150.5 25.5t-124.5 76.5t-87 135.5t-32 194.5q0 134 41 256t113 214.5t179 147.5t230 55q121 0 209.5 -50t122.5 -138zM524 154q84 0 157 38t122.5 101.5t77.5 146.5t28 172
q0 148 -77.5 223.5t-198.5 75.5q-112 0 -200 -65t-133.5 -168.5t-45.5 -222.5q0 -150 74.5 -225.5t195.5 -75.5z" />
    <glyph glyph-name="e" unicode="e" horiz-adv-x="1120" 
d="M1042 471h-788v-29q0 -162 68 -233.5t202 -71.5q210 0 297 172h187q-72 -170 -207 -252t-307 -82q-97 0 -175 25.5t-137.5 78.5t-92 141t-32.5 206q0 134 41 253.5t116 209.5t188.5 143t250.5 53q192 0 305 -101t113 -304q0 -117 -29 -209zM631 924q-140 0 -230 -84.5
t-125 -221.5h596q22 142 -41 224t-200 82z" />
    <glyph glyph-name="f" unicode="f" horiz-adv-x="671" 
d="M666 1305q-78 0 -117 -35.5t-53 -114.5l-15 -90h217l-24 -162h-217l-144 -903h-207l144 903h-148l25 162h149l19 119q47 282 344 282h129l-25 -161h-77z" />
    <glyph glyph-name="g" unicode="g" horiz-adv-x="1204" 
d="M967 1065h207l-150 -942l-14 -100q-16 -107 -62 -189t-105.5 -130.5t-136 -79t-145 -41.5t-141.5 -11q-68 0 -130 9.5t-122.5 34t-101.5 62.5t-61.5 99t-8.5 139h182q-9 -87 65 -134.5t195 -47.5q91 0 165.5 28t129.5 95t70 166l14 100l14 76q-66 -81 -169 -127.5
t-216 -46.5q-79 0 -147.5 23.5t-123.5 71t-86.5 128.5t-31.5 186q0 176 67.5 324t195.5 237.5t290 89.5q115 0 205 -46.5t129 -129.5zM522 197q110 0 198.5 60.5t135.5 158t47 211.5q0 141 -76 212.5t-196 71.5q-110 0 -197 -60t-132.5 -158t-45.5 -214q0 -139 74.5 -210.5
t191.5 -71.5z" />
    <glyph glyph-name="h" unicode="h" horiz-adv-x="1177" 
d="M772 1085q170 0 257 -103.5t54 -317.5l-104 -664h-207l96 616q25 143 -27 219t-179 76q-122 0 -208.5 -69.5t-113.5 -196.5l-102 -645h-207l168 1065l59 369h207l-59 -369l-33 -213h6q13 34 42 71t75.5 75t119 62.5t156.5 24.5z" />
    <glyph glyph-name="i" unicode="i" horiz-adv-x="436" 
d="M350 1249q-50 0 -86.5 35.5t-36.5 85.5t36.5 85.5t86.5 35.5t86.5 -35.5t36.5 -85.5t-36.5 -85.5t-86.5 -35.5zM31 0l168 1065h207l-168 -1065h-207z" />
    <glyph glyph-name="j" unicode="j" horiz-adv-x="466" 
d="M381 1249q-48 0 -84.5 35.5t-36.5 85.5t36.5 85.5t84.5 35.5q50 0 86.5 -35.5t36.5 -85.5t-36.5 -85.5t-86.5 -35.5zM-90 -389q-88 0 -133 6l24 162h80q80 0 118 35.5t52 115.5l180 1135h207l-186 -1169q-45 -285 -342 -285z" />
    <glyph glyph-name="k" unicode="k" horiz-adv-x="1134" 
d="M1139 1065l-518 -459l407 -606h-223l-328 479l-190 -170l-49 -309h-207l227 1434h207l-143 -899l587 530h230z" />
    <glyph glyph-name="l" unicode="l" horiz-adv-x="436" 
d="M31 0l227 1434h207l-227 -1434h-207z" />
    <glyph glyph-name="m" unicode="m" horiz-adv-x="1816" 
d="M1427 1085q164 0 247 -103t48 -318l-104 -664h-207l98 616q23 143 -24 219t-162 76q-109 0 -187.5 -69.5t-105.5 -196.5l-102 -645h-207l96 616q25 143 -22.5 219t-163.5 76q-109 0 -186.5 -69t-104.5 -195l-102 -647h-207l168 1065h207l-33 -213h6q12 34 39.5 71t71 75
t110 62.5t143.5 24.5q120 0 197.5 -59.5t95.5 -183.5q17 37 47 75t77 78t117 65t150 25z" />
    <glyph glyph-name="n" unicode="n" horiz-adv-x="1177" 
d="M772 1085q170 0 257 -103.5t54 -317.5l-104 -664h-207l96 616q25 143 -27 219t-179 76q-122 0 -208.5 -69.5t-113.5 -196.5l-102 -645h-207l168 1065h207l-33 -213h6q13 34 42 71t75.5 75t119 62.5t156.5 24.5z" />
    <glyph glyph-name="o" unicode="o" horiz-adv-x="1165" 
d="M500 -20q-92 0 -170.5 27t-140.5 80.5t-97 141.5t-35 203q0 173 75 321.5t215.5 240t316.5 91.5q93 0 172 -27t140.5 -80.5t96.5 -141.5t35 -203q0 -129 -44.5 -248t-122.5 -208.5t-193 -143t-248 -53.5zM524 154q88 0 161.5 39.5t121 104t74 147t26.5 169.5
q0 150 -74 223.5t-194 73.5q-88 0 -161.5 -39t-121 -104t-74 -146.5t-26.5 -168.5q0 -152 74 -225.5t194 -73.5z" />
    <glyph glyph-name="p" unicode="p" horiz-adv-x="1216" 
d="M762 1085q81 0 151.5 -25.5t126.5 -76t88.5 -135.5t32.5 -195q0 -180 -70.5 -333t-203 -246.5t-299.5 -93.5q-117 0 -204 50t-122 138l-86 -557h-207l230 1454h207l-27 -168q61 88 163.5 138t219.5 50zM573 154q114 0 204 65t137 169.5t47 225.5q0 146 -75.5 221.5
t-193.5 75.5q-87 0 -160.5 -38t-122.5 -101.5t-76.5 -146.5t-27.5 -172q0 -147 75.5 -223t192.5 -76z" />
    <glyph glyph-name="q" unicode="q" horiz-adv-x="1216" 
d="M979 1065h207l-230 -1454h-206l86 557q-61 -88 -164.5 -138t-222.5 -50q-81 0 -150.5 25.5t-124.5 76.5t-87 135.5t-32 194.5q0 134 41 256t113 214.5t179 147.5t230 55q121 0 209.5 -50t122.5 -138zM524 154q84 0 157 38t122.5 101.5t77.5 146.5t28 172
q0 148 -77.5 223.5t-198.5 75.5q-112 0 -200 -65t-133.5 -168.5t-45.5 -222.5q0 -150 74.5 -225.5t195.5 -75.5z" />
    <glyph glyph-name="r" unicode="r" horiz-adv-x="776" 
d="M737 1073q49 0 80 -10l-29 -174q-40 6 -77 6q-153 0 -256.5 -92.5t-132.5 -267.5l-84 -535h-207l168 1065h207l-39 -246h6q29 68 74 122t121.5 93t168.5 39z" />
    <glyph glyph-name="s" unicode="s" horiz-adv-x="997" 
d="M416 -20q-198 0 -308.5 86t-89.5 251h187q-3 -92 62 -136t171 -44q113 0 184.5 47t71.5 131q0 56 -36 83.5t-119 47.5l-172 43q-246 59 -246 259q0 105 61 182.5t164 116t232 38.5q188 0 286 -86t78 -247h-172q0 176 -215 176q-104 0 -168.5 -41t-64.5 -115
q0 -50 35.5 -80.5t119.5 -52.5l170 -41q62 -16 105 -34.5t81 -48t57 -74t19 -103.5q0 -114 -68 -196.5t-178 -122t-247 -39.5z" />
    <glyph glyph-name="t" unicode="t" horiz-adv-x="702" 
d="M483 903l-96 -598q-12 -79 16.5 -115t106.5 -36h80l-27 -162q-45 -6 -133 -6q-67 0 -118 15.5t-86.5 48t-48.5 88.5t-1 132l100 633h-174l25 162h174l43 268h207l-43 -268h211l-25 -162h-211z" />
    <glyph glyph-name="u" unicode="u" horiz-adv-x="1177" 
d="M940 1065h207l-168 -1065h-207l33 213h-6q-13 -34 -42 -71t-75.5 -75t-119 -62.5t-156.5 -24.5q-170 0 -257.5 103.5t-54.5 317.5l105 664h207l-97 -616q-25 -143 27.5 -219t179.5 -76q122 0 208.5 69.5t113.5 196.5z" />
    <glyph glyph-name="v" unicode="v" horiz-adv-x="1153" 
d="M362 0l-235 1065h209l184 -868h6l455 868h215l-569 -1065h-265z" />
    <glyph glyph-name="w" unicode="w" horiz-adv-x="1650" 
d="M256 0l-129 1065h197l88 -858h8l395 858h182l129 -858h9l358 858h199l-461 -1065h-240l-125 791l-368 -791h-242z" />
    <glyph glyph-name="x" unicode="x" horiz-adv-x="1112" 
d="M-20 0l460 539l-278 526h223l193 -377l309 377h231l-446 -526l293 -539h-224l-206 389l-326 -389h-229z" />
    <glyph glyph-name="y" unicode="y" horiz-adv-x="1124" 
d="M6 -399l27 178q118 -16 189 22.5t116 118.5q47 81 31 146l-242 999h211l176 -815l436 815h215l-626 -1126q-116 -206 -237 -283t-296 -55z" />
    <glyph glyph-name="z" unicode="z" horiz-adv-x="1026" 
d="M-2 0l29 176l729 713h-598l28 176h842l-27 -176l-731 -713h619l-29 -176h-862z" />
    <glyph glyph-name="braceleft" unicode="{" 
d="M207 403q-13 0 -19 -2v-200q4 -2 19 -2q37 0 50 25t13 77q0 54 -13 78t-50 24zM518 330v-49h-82v-78h96v-49h-155v297h155v-52h-96v-69h82zM203 150q-47 0 -74 4v292q61 9 76 9q67 0 96 -37.5t29 -116.5t-29.5 -115t-97.5 -36zM586 451h80l39 -164l38 164h82
q3 -45 13 -297h-60q0 108 -6 213l-41 -168h-55l-41 168h-2q-4 -140 -4 -213h-58q3 156 15 297zM987 150q-60 0 -84 35.5t-24 115.5q0 81 24 117.5t84 36.5t85.5 -37t25.5 -117q0 -79 -25.5 -115t-85.5 -36zM987 403q-29 0 -39 -23.5t-10 -78.5q0 -54 10 -78t39 -24
q30 0 40.5 24t10.5 78q0 55 -10 78.5t-41 23.5zM967 1016q49 0 79.5 -24.5t39 -51t8.5 -53.5q0 -43 -34.5 -72.5t-72.5 -34.5q-213 -23 -340 -147q3 8 9 22t25 53.5t39 75.5t50 80.5t59.5 76t66 53.5t71.5 22zM285 909q39 0 78 -21t69.5 -55t58.5 -74.5t48 -81.5t35 -75
t22 -55l8 -21q-117 148 -319 148q-49 0 -88 30t-39 76q0 53 33.5 91t93.5 38zM643 1214q38 -37 48.5 -102t-2.5 -131t-31.5 -126.5t-35.5 -98.5l-18 -39q20 191 -125 330q-35 35 -42 81.5t24 83.5q23 23 53 34t65 3.5t64 -35.5z" />
    <glyph glyph-name="bar" unicode="|" 
d="M207 403q-13 0 -19 -2v-200q4 -2 19 -2q37 0 50 25t13 77q0 54 -13 78t-50 24zM518 330v-49h-82v-78h96v-49h-155v297h155v-52h-96v-69h82zM203 150q-47 0 -74 4v292q61 9 76 9q67 0 96 -37.5t29 -116.5t-29.5 -115t-97.5 -36zM586 451h80l39 -164l38 164h82
q3 -45 13 -297h-60q0 108 -6 213l-41 -168h-55l-41 168h-2q-4 -140 -4 -213h-58q3 156 15 297zM987 150q-60 0 -84 35.5t-24 115.5q0 81 24 117.5t84 36.5t85.5 -37t25.5 -117q0 -79 -25.5 -115t-85.5 -36zM987 403q-29 0 -39 -23.5t-10 -78.5q0 -54 10 -78t39 -24
q30 0 40.5 24t10.5 78q0 55 -10 78.5t-41 23.5zM967 1016q49 0 79.5 -24.5t39 -51t8.5 -53.5q0 -43 -34.5 -72.5t-72.5 -34.5q-213 -23 -340 -147q3 8 9 22t25 53.5t39 75.5t50 80.5t59.5 76t66 53.5t71.5 22zM285 909q39 0 78 -21t69.5 -55t58.5 -74.5t48 -81.5t35 -75
t22 -55l8 -21q-117 148 -319 148q-49 0 -88 30t-39 76q0 53 33.5 91t93.5 38zM643 1214q38 -37 48.5 -102t-2.5 -131t-31.5 -126.5t-35.5 -98.5l-18 -39q20 191 -125 330q-35 35 -42 81.5t24 83.5q23 23 53 34t65 3.5t64 -35.5z" />
    <glyph glyph-name="braceright" unicode="}" 
d="M207 403q-13 0 -19 -2v-200q4 -2 19 -2q37 0 50 25t13 77q0 54 -13 78t-50 24zM518 330v-49h-82v-78h96v-49h-155v297h155v-52h-96v-69h82zM203 150q-47 0 -74 4v292q61 9 76 9q67 0 96 -37.5t29 -116.5t-29.5 -115t-97.5 -36zM586 451h80l39 -164l38 164h82
q3 -45 13 -297h-60q0 108 -6 213l-41 -168h-55l-41 168h-2q-4 -140 -4 -213h-58q3 156 15 297zM987 150q-60 0 -84 35.5t-24 115.5q0 81 24 117.5t84 36.5t85.5 -37t25.5 -117q0 -79 -25.5 -115t-85.5 -36zM987 403q-29 0 -39 -23.5t-10 -78.5q0 -54 10 -78t39 -24
q30 0 40.5 24t10.5 78q0 55 -10 78.5t-41 23.5zM967 1016q49 0 79.5 -24.5t39 -51t8.5 -53.5q0 -43 -34.5 -72.5t-72.5 -34.5q-213 -23 -340 -147q3 8 9 22t25 53.5t39 75.5t50 80.5t59.5 76t66 53.5t71.5 22zM285 909q39 0 78 -21t69.5 -55t58.5 -74.5t48 -81.5t35 -75
t22 -55l8 -21q-117 148 -319 148q-49 0 -88 30t-39 76q0 53 33.5 91t93.5 38zM643 1214q38 -37 48.5 -102t-2.5 -131t-31.5 -126.5t-35.5 -98.5l-18 -39q20 191 -125 330q-35 35 -42 81.5t24 83.5q23 23 53 34t65 3.5t64 -35.5z" />
    <glyph glyph-name="asciitilde" unicode="~" 
d="M207 403q-13 0 -19 -2v-200q4 -2 19 -2q37 0 50 25t13 77q0 54 -13 78t-50 24zM518 330v-49h-82v-78h96v-49h-155v297h155v-52h-96v-69h82zM203 150q-47 0 -74 4v292q61 9 76 9q67 0 96 -37.5t29 -116.5t-29.5 -115t-97.5 -36zM586 451h80l39 -164l38 164h82
q3 -45 13 -297h-60q0 108 -6 213l-41 -168h-55l-41 168h-2q-4 -140 -4 -213h-58q3 156 15 297zM987 150q-60 0 -84 35.5t-24 115.5q0 81 24 117.5t84 36.5t85.5 -37t25.5 -117q0 -79 -25.5 -115t-85.5 -36zM987 403q-29 0 -39 -23.5t-10 -78.5q0 -54 10 -78t39 -24
q30 0 40.5 24t10.5 78q0 55 -10 78.5t-41 23.5zM967 1016q49 0 79.5 -24.5t39 -51t8.5 -53.5q0 -43 -34.5 -72.5t-72.5 -34.5q-213 -23 -340 -147q3 8 9 22t25 53.5t39 75.5t50 80.5t59.5 76t66 53.5t71.5 22zM285 909q39 0 78 -21t69.5 -55t58.5 -74.5t48 -81.5t35 -75
t22 -55l8 -21q-117 148 -319 148q-49 0 -88 30t-39 76q0 53 33.5 91t93.5 38zM643 1214q38 -37 48.5 -102t-2.5 -131t-31.5 -126.5t-35.5 -98.5l-18 -39q20 191 -125 330q-35 35 -42 81.5t24 83.5q23 23 53 34t65 3.5t64 -35.5z" />
    </font>
</defs>
</svg>
