<?xml version="1.0" standalone="no"?>
<!DOCTYPE svg PUBLIC "-//W3C//DTD SVG 1.1//EN" "http://www.w3.org/Graphics/SVG/1.1/DTD/svg11.dtd" >
<svg xmlns="http://www.w3.org/2000/svg" xmlns:xlink="http://www.w3.org/1999/xlink" version="1.1">
<metadata>
Created by FontForge 20201107 at Mon Mar  9 12:55:24 2026
 By www-data
Copyright  2020 by Connary Fagen. All rights reserved.
</metadata>
<defs>
<font id="FONTSPRINGDEMO-ArticulatCFThinRegular" horiz-adv-x="1224" >
  <font-face 
    font-family="FSP DEMO - Articulat CF Thin"
    font-weight="100"
    font-stretch="normal"
    units-per-em="2048"
    panose-1="0 0 2 0 0 0 0 0 0 0"
    ascent="1638"
    descent="-410"
    x-height="1065"
    cap-height="1434"
    bbox="-53 -428 1847 1466"
    underline-thickness="102"
    underline-position="-204"
    unicode-range="U+0020-007E"
  />
<missing-glyph 
d="M207 403q-13 0 -19 -2v-200q4 -2 19 -2q37 0 50 25t13 77q0 54 -13 78t-50 24zM518 330v-49h-82v-78h96v-49h-155v297h155v-52h-96v-69h82zM203 150q-47 0 -74 4v292q61 9 76 9q67 0 96 -37.5t29 -116.5t-29.5 -115t-97.5 -36zM586 451h80l39 -164l38 164h82
q3 -45 13 -297h-60q0 108 -6 213l-41 -168h-55l-41 168h-2q-4 -140 -4 -213h-58q3 156 15 297zM987 150q-60 0 -84 35.5t-24 115.5q0 81 24 117.5t84 36.5t85.5 -37t25.5 -117q0 -79 -25.5 -115t-85.5 -36zM987 403q-29 0 -39 -23.5t-10 -78.5q0 -54 10 -78t39 -24
q30 0 40.5 24t10.5 78q0 55 -10 78.5t-41 23.5zM967 1016q49 0 79.5 -24.5t39 -51t8.5 -53.5q0 -43 -34.5 -72.5t-72.5 -34.5q-213 -23 -340 -147q3 8 9 22t25 53.5t39 75.5t50 80.5t59.5 76t66 53.5t71.5 22zM285 909q39 0 78 -21t69.5 -55t58.5 -74.5t48 -81.5t35 -75
t22 -55l8 -21q-117 148 -319 148q-49 0 -88 30t-39 76q0 53 33.5 91t93.5 38zM643 1214q38 -37 48.5 -102t-2.5 -131t-31.5 -126.5t-35.5 -98.5l-18 -39q20 191 -125 330q-35 35 -42 81.5t24 83.5q23 23 53 34t65 3.5t64 -35.5z" />
    <glyph glyph-name=".notdef" 
d="M207 403q-13 0 -19 -2v-200q4 -2 19 -2q37 0 50 25t13 77q0 54 -13 78t-50 24zM518 330v-49h-82v-78h96v-49h-155v297h155v-52h-96v-69h82zM203 150q-47 0 -74 4v292q61 9 76 9q67 0 96 -37.5t29 -116.5t-29.5 -115t-97.5 -36zM586 451h80l39 -164l38 164h82
q3 -45 13 -297h-60q0 108 -6 213l-41 -168h-55l-41 168h-2q-4 -140 -4 -213h-58q3 156 15 297zM987 150q-60 0 -84 35.5t-24 115.5q0 81 24 117.5t84 36.5t85.5 -37t25.5 -117q0 -79 -25.5 -115t-85.5 -36zM987 403q-29 0 -39 -23.5t-10 -78.5q0 -54 10 -78t39 -24
q30 0 40.5 24t10.5 78q0 55 -10 78.5t-41 23.5zM967 1016q49 0 79.5 -24.5t39 -51t8.5 -53.5q0 -43 -34.5 -72.5t-72.5 -34.5q-213 -23 -340 -147q3 8 9 22t25 53.5t39 75.5t50 80.5t59.5 76t66 53.5t71.5 22zM285 909q39 0 78 -21t69.5 -55t58.5 -74.5t48 -81.5t35 -75
t22 -55l8 -21q-117 148 -319 148q-49 0 -88 30t-39 76q0 53 33.5 91t93.5 38zM643 1214q38 -37 48.5 -102t-2.5 -131t-31.5 -126.5t-35.5 -98.5l-18 -39q20 191 -125 330q-35 35 -42 81.5t24 83.5q23 23 53 34t65 3.5t64 -35.5z" />
    <glyph glyph-name=".null" horiz-adv-x="0" 
 />
    <glyph glyph-name="nonmarkingreturn" horiz-adv-x="682" 
 />
    <glyph glyph-name="space" unicode=" " horiz-adv-x="471" 
 />
    <glyph glyph-name="exclam" unicode="!" 
d="M207 403q-13 0 -19 -2v-200q4 -2 19 -2q37 0 50 25t13 77q0 54 -13 78t-50 24zM518 330v-49h-82v-78h96v-49h-155v297h155v-52h-96v-69h82zM203 150q-47 0 -74 4v292q61 9 76 9q67 0 96 -37.5t29 -116.5t-29.5 -115t-97.5 -36zM586 451h80l39 -164l38 164h82
q3 -45 13 -297h-60q0 108 -6 213l-41 -168h-55l-41 168h-2q-4 -140 -4 -213h-58q3 156 15 297zM987 150q-60 0 -84 35.5t-24 115.5q0 81 24 117.5t84 36.5t85.5 -37t25.5 -117q0 -79 -25.5 -115t-85.5 -36zM987 403q-29 0 -39 -23.5t-10 -78.5q0 -54 10 -78t39 -24
q30 0 40.5 24t10.5 78q0 55 -10 78.5t-41 23.5zM967 1016q49 0 79.5 -24.5t39 -51t8.5 -53.5q0 -43 -34.5 -72.5t-72.5 -34.5q-213 -23 -340 -147q3 8 9 22t25 53.5t39 75.5t50 80.5t59.5 76t66 53.5t71.5 22zM285 909q39 0 78 -21t69.5 -55t58.5 -74.5t48 -81.5t35 -75
t22 -55l8 -21q-117 148 -319 148q-49 0 -88 30t-39 76q0 53 33.5 91t93.5 38zM643 1214q38 -37 48.5 -102t-2.5 -131t-31.5 -126.5t-35.5 -98.5l-18 -39q20 191 -125 330q-35 35 -42 81.5t24 83.5q23 23 53 34t65 3.5t64 -35.5z" />
    <glyph glyph-name="quotedbl" unicode="&#x22;" 
d="M207 403q-13 0 -19 -2v-200q4 -2 19 -2q37 0 50 25t13 77q0 54 -13 78t-50 24zM518 330v-49h-82v-78h96v-49h-155v297h155v-52h-96v-69h82zM203 150q-47 0 -74 4v292q61 9 76 9q67 0 96 -37.5t29 -116.5t-29.5 -115t-97.5 -36zM586 451h80l39 -164l38 164h82
q3 -45 13 -297h-60q0 108 -6 213l-41 -168h-55l-41 168h-2q-4 -140 -4 -213h-58q3 156 15 297zM987 150q-60 0 -84 35.5t-24 115.5q0 81 24 117.5t84 36.5t85.5 -37t25.5 -117q0 -79 -25.5 -115t-85.5 -36zM987 403q-29 0 -39 -23.5t-10 -78.5q0 -54 10 -78t39 -24
q30 0 40.5 24t10.5 78q0 55 -10 78.5t-41 23.5zM967 1016q49 0 79.5 -24.5t39 -51t8.5 -53.5q0 -43 -34.5 -72.5t-72.5 -34.5q-213 -23 -340 -147q3 8 9 22t25 53.5t39 75.5t50 80.5t59.5 76t66 53.5t71.5 22zM285 909q39 0 78 -21t69.5 -55t58.5 -74.5t48 -81.5t35 -75
t22 -55l8 -21q-117 148 -319 148q-49 0 -88 30t-39 76q0 53 33.5 91t93.5 38zM643 1214q38 -37 48.5 -102t-2.5 -131t-31.5 -126.5t-35.5 -98.5l-18 -39q20 191 -125 330q-35 35 -42 81.5t24 83.5q23 23 53 34t65 3.5t64 -35.5z" />
    <glyph glyph-name="numbersign" unicode="#" 
d="M207 403q-13 0 -19 -2v-200q4 -2 19 -2q37 0 50 25t13 77q0 54 -13 78t-50 24zM518 330v-49h-82v-78h96v-49h-155v297h155v-52h-96v-69h82zM203 150q-47 0 -74 4v292q61 9 76 9q67 0 96 -37.5t29 -116.5t-29.5 -115t-97.5 -36zM586 451h80l39 -164l38 164h82
q3 -45 13 -297h-60q0 108 -6 213l-41 -168h-55l-41 168h-2q-4 -140 -4 -213h-58q3 156 15 297zM987 150q-60 0 -84 35.5t-24 115.5q0 81 24 117.5t84 36.5t85.5 -37t25.5 -117q0 -79 -25.5 -115t-85.5 -36zM987 403q-29 0 -39 -23.5t-10 -78.5q0 -54 10 -78t39 -24
q30 0 40.5 24t10.5 78q0 55 -10 78.5t-41 23.5zM967 1016q49 0 79.5 -24.5t39 -51t8.5 -53.5q0 -43 -34.5 -72.5t-72.5 -34.5q-213 -23 -340 -147q3 8 9 22t25 53.5t39 75.5t50 80.5t59.5 76t66 53.5t71.5 22zM285 909q39 0 78 -21t69.5 -55t58.5 -74.5t48 -81.5t35 -75
t22 -55l8 -21q-117 148 -319 148q-49 0 -88 30t-39 76q0 53 33.5 91t93.5 38zM643 1214q38 -37 48.5 -102t-2.5 -131t-31.5 -126.5t-35.5 -98.5l-18 -39q20 191 -125 330q-35 35 -42 81.5t24 83.5q23 23 53 34t65 3.5t64 -35.5z" />
    <glyph glyph-name="dollar" unicode="$" 
d="M207 403q-13 0 -19 -2v-200q4 -2 19 -2q37 0 50 25t13 77q0 54 -13 78t-50 24zM518 330v-49h-82v-78h96v-49h-155v297h155v-52h-96v-69h82zM203 150q-47 0 -74 4v292q61 9 76 9q67 0 96 -37.5t29 -116.5t-29.5 -115t-97.5 -36zM586 451h80l39 -164l38 164h82
q3 -45 13 -297h-60q0 108 -6 213l-41 -168h-55l-41 168h-2q-4 -140 -4 -213h-58q3 156 15 297zM987 150q-60 0 -84 35.5t-24 115.5q0 81 24 117.5t84 36.5t85.5 -37t25.5 -117q0 -79 -25.5 -115t-85.5 -36zM987 403q-29 0 -39 -23.5t-10 -78.5q0 -54 10 -78t39 -24
q30 0 40.5 24t10.5 78q0 55 -10 78.5t-41 23.5zM967 1016q49 0 79.5 -24.5t39 -51t8.5 -53.5q0 -43 -34.5 -72.5t-72.5 -34.5q-213 -23 -340 -147q3 8 9 22t25 53.5t39 75.5t50 80.5t59.5 76t66 53.5t71.5 22zM285 909q39 0 78 -21t69.5 -55t58.5 -74.5t48 -81.5t35 -75
t22 -55l8 -21q-117 148 -319 148q-49 0 -88 30t-39 76q0 53 33.5 91t93.5 38zM643 1214q38 -37 48.5 -102t-2.5 -131t-31.5 -126.5t-35.5 -98.5l-18 -39q20 191 -125 330q-35 35 -42 81.5t24 83.5q23 23 53 34t65 3.5t64 -35.5z" />
    <glyph glyph-name="percent" unicode="%" 
d="M207 403q-13 0 -19 -2v-200q4 -2 19 -2q37 0 50 25t13 77q0 54 -13 78t-50 24zM518 330v-49h-82v-78h96v-49h-155v297h155v-52h-96v-69h82zM203 150q-47 0 -74 4v292q61 9 76 9q67 0 96 -37.5t29 -116.5t-29.5 -115t-97.5 -36zM586 451h80l39 -164l38 164h82
q3 -45 13 -297h-60q0 108 -6 213l-41 -168h-55l-41 168h-2q-4 -140 -4 -213h-58q3 156 15 297zM987 150q-60 0 -84 35.5t-24 115.5q0 81 24 117.5t84 36.5t85.5 -37t25.5 -117q0 -79 -25.5 -115t-85.5 -36zM987 403q-29 0 -39 -23.5t-10 -78.5q0 -54 10 -78t39 -24
q30 0 40.5 24t10.5 78q0 55 -10 78.5t-41 23.5zM967 1016q49 0 79.5 -24.5t39 -51t8.5 -53.5q0 -43 -34.5 -72.5t-72.5 -34.5q-213 -23 -340 -147q3 8 9 22t25 53.5t39 75.5t50 80.5t59.5 76t66 53.5t71.5 22zM285 909q39 0 78 -21t69.5 -55t58.5 -74.5t48 -81.5t35 -75
t22 -55l8 -21q-117 148 -319 148q-49 0 -88 30t-39 76q0 53 33.5 91t93.5 38zM643 1214q38 -37 48.5 -102t-2.5 -131t-31.5 -126.5t-35.5 -98.5l-18 -39q20 191 -125 330q-35 35 -42 81.5t24 83.5q23 23 53 34t65 3.5t64 -35.5z" />
    <glyph glyph-name="ampersand" unicode="&#x26;" 
d="M207 403q-13 0 -19 -2v-200q4 -2 19 -2q37 0 50 25t13 77q0 54 -13 78t-50 24zM518 330v-49h-82v-78h96v-49h-155v297h155v-52h-96v-69h82zM203 150q-47 0 -74 4v292q61 9 76 9q67 0 96 -37.5t29 -116.5t-29.5 -115t-97.5 -36zM586 451h80l39 -164l38 164h82
q3 -45 13 -297h-60q0 108 -6 213l-41 -168h-55l-41 168h-2q-4 -140 -4 -213h-58q3 156 15 297zM987 150q-60 0 -84 35.5t-24 115.5q0 81 24 117.5t84 36.5t85.5 -37t25.5 -117q0 -79 -25.5 -115t-85.5 -36zM987 403q-29 0 -39 -23.5t-10 -78.5q0 -54 10 -78t39 -24
q30 0 40.5 24t10.5 78q0 55 -10 78.5t-41 23.5zM967 1016q49 0 79.5 -24.5t39 -51t8.5 -53.5q0 -43 -34.5 -72.5t-72.5 -34.5q-213 -23 -340 -147q3 8 9 22t25 53.5t39 75.5t50 80.5t59.5 76t66 53.5t71.5 22zM285 909q39 0 78 -21t69.5 -55t58.5 -74.5t48 -81.5t35 -75
t22 -55l8 -21q-117 148 -319 148q-49 0 -88 30t-39 76q0 53 33.5 91t93.5 38zM643 1214q38 -37 48.5 -102t-2.5 -131t-31.5 -126.5t-35.5 -98.5l-18 -39q20 191 -125 330q-35 35 -42 81.5t24 83.5q23 23 53 34t65 3.5t64 -35.5z" />
    <glyph glyph-name="quotesingle" unicode="'" 
d="M207 403q-13 0 -19 -2v-200q4 -2 19 -2q37 0 50 25t13 77q0 54 -13 78t-50 24zM518 330v-49h-82v-78h96v-49h-155v297h155v-52h-96v-69h82zM203 150q-47 0 -74 4v292q61 9 76 9q67 0 96 -37.5t29 -116.5t-29.5 -115t-97.5 -36zM586 451h80l39 -164l38 164h82
q3 -45 13 -297h-60q0 108 -6 213l-41 -168h-55l-41 168h-2q-4 -140 -4 -213h-58q3 156 15 297zM987 150q-60 0 -84 35.5t-24 115.5q0 81 24 117.5t84 36.5t85.5 -37t25.5 -117q0 -79 -25.5 -115t-85.5 -36zM987 403q-29 0 -39 -23.5t-10 -78.5q0 -54 10 -78t39 -24
q30 0 40.5 24t10.5 78q0 55 -10 78.5t-41 23.5zM967 1016q49 0 79.5 -24.5t39 -51t8.5 -53.5q0 -43 -34.5 -72.5t-72.5 -34.5q-213 -23 -340 -147q3 8 9 22t25 53.5t39 75.5t50 80.5t59.5 76t66 53.5t71.5 22zM285 909q39 0 78 -21t69.5 -55t58.5 -74.5t48 -81.5t35 -75
t22 -55l8 -21q-117 148 -319 148q-49 0 -88 30t-39 76q0 53 33.5 91t93.5 38zM643 1214q38 -37 48.5 -102t-2.5 -131t-31.5 -126.5t-35.5 -98.5l-18 -39q20 191 -125 330q-35 35 -42 81.5t24 83.5q23 23 53 34t65 3.5t64 -35.5z" />
    <glyph glyph-name="parenleft" unicode="(" 
d="M207 403q-13 0 -19 -2v-200q4 -2 19 -2q37 0 50 25t13 77q0 54 -13 78t-50 24zM518 330v-49h-82v-78h96v-49h-155v297h155v-52h-96v-69h82zM203 150q-47 0 -74 4v292q61 9 76 9q67 0 96 -37.5t29 -116.5t-29.5 -115t-97.5 -36zM586 451h80l39 -164l38 164h82
q3 -45 13 -297h-60q0 108 -6 213l-41 -168h-55l-41 168h-2q-4 -140 -4 -213h-58q3 156 15 297zM987 150q-60 0 -84 35.5t-24 115.5q0 81 24 117.5t84 36.5t85.5 -37t25.5 -117q0 -79 -25.5 -115t-85.5 -36zM987 403q-29 0 -39 -23.5t-10 -78.5q0 -54 10 -78t39 -24
q30 0 40.5 24t10.5 78q0 55 -10 78.5t-41 23.5zM967 1016q49 0 79.5 -24.5t39 -51t8.5 -53.5q0 -43 -34.5 -72.5t-72.5 -34.5q-213 -23 -340 -147q3 8 9 22t25 53.5t39 75.5t50 80.5t59.5 76t66 53.5t71.5 22zM285 909q39 0 78 -21t69.5 -55t58.5 -74.5t48 -81.5t35 -75
t22 -55l8 -21q-117 148 -319 148q-49 0 -88 30t-39 76q0 53 33.5 91t93.5 38zM643 1214q38 -37 48.5 -102t-2.5 -131t-31.5 -126.5t-35.5 -98.5l-18 -39q20 191 -125 330q-35 35 -42 81.5t24 83.5q23 23 53 34t65 3.5t64 -35.5z" />
    <glyph glyph-name="parenright" unicode=")" 
d="M207 403q-13 0 -19 -2v-200q4 -2 19 -2q37 0 50 25t13 77q0 54 -13 78t-50 24zM518 330v-49h-82v-78h96v-49h-155v297h155v-52h-96v-69h82zM203 150q-47 0 -74 4v292q61 9 76 9q67 0 96 -37.5t29 -116.5t-29.5 -115t-97.5 -36zM586 451h80l39 -164l38 164h82
q3 -45 13 -297h-60q0 108 -6 213l-41 -168h-55l-41 168h-2q-4 -140 -4 -213h-58q3 156 15 297zM987 150q-60 0 -84 35.5t-24 115.5q0 81 24 117.5t84 36.5t85.5 -37t25.5 -117q0 -79 -25.5 -115t-85.5 -36zM987 403q-29 0 -39 -23.5t-10 -78.5q0 -54 10 -78t39 -24
q30 0 40.5 24t10.5 78q0 55 -10 78.5t-41 23.5zM967 1016q49 0 79.5 -24.5t39 -51t8.5 -53.5q0 -43 -34.5 -72.5t-72.5 -34.5q-213 -23 -340 -147q3 8 9 22t25 53.5t39 75.5t50 80.5t59.5 76t66 53.5t71.5 22zM285 909q39 0 78 -21t69.5 -55t58.5 -74.5t48 -81.5t35 -75
t22 -55l8 -21q-117 148 -319 148q-49 0 -88 30t-39 76q0 53 33.5 91t93.5 38zM643 1214q38 -37 48.5 -102t-2.5 -131t-31.5 -126.5t-35.5 -98.5l-18 -39q20 191 -125 330q-35 35 -42 81.5t24 83.5q23 23 53 34t65 3.5t64 -35.5z" />
    <glyph glyph-name="asterisk" unicode="*" 
d="M207 403q-13 0 -19 -2v-200q4 -2 19 -2q37 0 50 25t13 77q0 54 -13 78t-50 24zM518 330v-49h-82v-78h96v-49h-155v297h155v-52h-96v-69h82zM203 150q-47 0 -74 4v292q61 9 76 9q67 0 96 -37.5t29 -116.5t-29.5 -115t-97.5 -36zM586 451h80l39 -164l38 164h82
q3 -45 13 -297h-60q0 108 -6 213l-41 -168h-55l-41 168h-2q-4 -140 -4 -213h-58q3 156 15 297zM987 150q-60 0 -84 35.5t-24 115.5q0 81 24 117.5t84 36.5t85.5 -37t25.5 -117q0 -79 -25.5 -115t-85.5 -36zM987 403q-29 0 -39 -23.5t-10 -78.5q0 -54 10 -78t39 -24
q30 0 40.5 24t10.5 78q0 55 -10 78.5t-41 23.5zM967 1016q49 0 79.5 -24.5t39 -51t8.5 -53.5q0 -43 -34.5 -72.5t-72.5 -34.5q-213 -23 -340 -147q3 8 9 22t25 53.5t39 75.5t50 80.5t59.5 76t66 53.5t71.5 22zM285 909q39 0 78 -21t69.5 -55t58.5 -74.5t48 -81.5t35 -75
t22 -55l8 -21q-117 148 -319 148q-49 0 -88 30t-39 76q0 53 33.5 91t93.5 38zM643 1214q38 -37 48.5 -102t-2.5 -131t-31.5 -126.5t-35.5 -98.5l-18 -39q20 191 -125 330q-35 35 -42 81.5t24 83.5q23 23 53 34t65 3.5t64 -35.5z" />
    <glyph glyph-name="plus" unicode="+" 
d="M207 403q-13 0 -19 -2v-200q4 -2 19 -2q37 0 50 25t13 77q0 54 -13 78t-50 24zM518 330v-49h-82v-78h96v-49h-155v297h155v-52h-96v-69h82zM203 150q-47 0 -74 4v292q61 9 76 9q67 0 96 -37.5t29 -116.5t-29.5 -115t-97.5 -36zM586 451h80l39 -164l38 164h82
q3 -45 13 -297h-60q0 108 -6 213l-41 -168h-55l-41 168h-2q-4 -140 -4 -213h-58q3 156 15 297zM987 150q-60 0 -84 35.5t-24 115.5q0 81 24 117.5t84 36.5t85.5 -37t25.5 -117q0 -79 -25.5 -115t-85.5 -36zM987 403q-29 0 -39 -23.5t-10 -78.5q0 -54 10 -78t39 -24
q30 0 40.5 24t10.5 78q0 55 -10 78.5t-41 23.5zM967 1016q49 0 79.5 -24.5t39 -51t8.5 -53.5q0 -43 -34.5 -72.5t-72.5 -34.5q-213 -23 -340 -147q3 8 9 22t25 53.5t39 75.5t50 80.5t59.5 76t66 53.5t71.5 22zM285 909q39 0 78 -21t69.5 -55t58.5 -74.5t48 -81.5t35 -75
t22 -55l8 -21q-117 148 -319 148q-49 0 -88 30t-39 76q0 53 33.5 91t93.5 38zM643 1214q38 -37 48.5 -102t-2.5 -131t-31.5 -126.5t-35.5 -98.5l-18 -39q20 191 -125 330q-35 35 -42 81.5t24 83.5q23 23 53 34t65 3.5t64 -35.5z" />
    <glyph glyph-name="comma" unicode="," horiz-adv-x="327" 
d="M96 -172v47h15q33 0 49.5 28.5t13.5 73.5q-35 -2 -56.5 14.5t-21.5 49.5q0 27 17 46t47 19q71 0 71 -110q0 -81 -33.5 -124.5t-80.5 -43.5h-21z" />
    <glyph glyph-name="hyphen" unicode="-" 
d="M207 403q-13 0 -19 -2v-200q4 -2 19 -2q37 0 50 25t13 77q0 54 -13 78t-50 24zM518 330v-49h-82v-78h96v-49h-155v297h155v-52h-96v-69h82zM203 150q-47 0 -74 4v292q61 9 76 9q67 0 96 -37.5t29 -116.5t-29.5 -115t-97.5 -36zM586 451h80l39 -164l38 164h82
q3 -45 13 -297h-60q0 108 -6 213l-41 -168h-55l-41 168h-2q-4 -140 -4 -213h-58q3 156 15 297zM987 150q-60 0 -84 35.5t-24 115.5q0 81 24 117.5t84 36.5t85.5 -37t25.5 -117q0 -79 -25.5 -115t-85.5 -36zM987 403q-29 0 -39 -23.5t-10 -78.5q0 -54 10 -78t39 -24
q30 0 40.5 24t10.5 78q0 55 -10 78.5t-41 23.5zM967 1016q49 0 79.5 -24.5t39 -51t8.5 -53.5q0 -43 -34.5 -72.5t-72.5 -34.5q-213 -23 -340 -147q3 8 9 22t25 53.5t39 75.5t50 80.5t59.5 76t66 53.5t71.5 22zM285 909q39 0 78 -21t69.5 -55t58.5 -74.5t48 -81.5t35 -75
t22 -55l8 -21q-117 148 -319 148q-49 0 -88 30t-39 76q0 53 33.5 91t93.5 38zM643 1214q38 -37 48.5 -102t-2.5 -131t-31.5 -126.5t-35.5 -98.5l-18 -39q20 191 -125 330q-35 35 -42 81.5t24 83.5q23 23 53 34t65 3.5t64 -35.5z" />
    <glyph glyph-name="period" unicode="." horiz-adv-x="317" 
d="M158 -20q-25 0 -43.5 18.5t-18.5 44.5q0 25 18.5 44t43.5 19q26 0 44.5 -19t18.5 -44q0 -26 -18.5 -44.5t-44.5 -18.5z" />
    <glyph glyph-name="slash" unicode="/" 
d="M207 403q-13 0 -19 -2v-200q4 -2 19 -2q37 0 50 25t13 77q0 54 -13 78t-50 24zM518 330v-49h-82v-78h96v-49h-155v297h155v-52h-96v-69h82zM203 150q-47 0 -74 4v292q61 9 76 9q67 0 96 -37.5t29 -116.5t-29.5 -115t-97.5 -36zM586 451h80l39 -164l38 164h82
q3 -45 13 -297h-60q0 108 -6 213l-41 -168h-55l-41 168h-2q-4 -140 -4 -213h-58q3 156 15 297zM987 150q-60 0 -84 35.5t-24 115.5q0 81 24 117.5t84 36.5t85.5 -37t25.5 -117q0 -79 -25.5 -115t-85.5 -36zM987 403q-29 0 -39 -23.5t-10 -78.5q0 -54 10 -78t39 -24
q30 0 40.5 24t10.5 78q0 55 -10 78.5t-41 23.5zM967 1016q49 0 79.5 -24.5t39 -51t8.5 -53.5q0 -43 -34.5 -72.5t-72.5 -34.5q-213 -23 -340 -147q3 8 9 22t25 53.5t39 75.5t50 80.5t59.5 76t66 53.5t71.5 22zM285 909q39 0 78 -21t69.5 -55t58.5 -74.5t48 -81.5t35 -75
t22 -55l8 -21q-117 148 -319 148q-49 0 -88 30t-39 76q0 53 33.5 91t93.5 38zM643 1214q38 -37 48.5 -102t-2.5 -131t-31.5 -126.5t-35.5 -98.5l-18 -39q20 191 -125 330q-35 35 -42 81.5t24 83.5q23 23 53 34t65 3.5t64 -35.5z" />
    <glyph glyph-name="zero" unicode="0" horiz-adv-x="1261" 
d="M631 -20q-248 0 -391.5 198t-143.5 539q0 338 143.5 536.5t391.5 198.5t391 -198.5t143 -536.5q0 -341 -143 -539t-391 -198zM631 29q105 0 192.5 43.5t152.5 127.5t101.5 216.5t36.5 300.5q0 330 -134 508t-349 178t-349.5 -178t-134.5 -508q0 -168 36.5 -300.5
t102 -216.5t153 -127.5t192.5 -43.5z" />
    <glyph glyph-name="one" unicode="1" horiz-adv-x="538" 
d="M317 0v1331q-30 -43 -86 -81.5t-135 -41.5v49q79 4 144.5 61t76.5 116h54v-1434h-54z" />
    <glyph glyph-name="two" unicode="2" horiz-adv-x="1058" 
d="M82 0v47q0 74 17 137t48 115.5t85 105.5t117 100t155 105q61 38 95 60t82 56t74 58.5t57 59.5t46 67t25 72t10 84q0 147 -97.5 241.5t-267.5 94.5t-272 -100t-102 -277v-29h-56v33q0 192 119.5 307t310.5 115q188 0 303 -109t115 -278q0 -64 -19 -120.5t-49 -100.5
t-84.5 -91t-107 -83.5t-135.5 -87.5q-99 -61 -166.5 -112t-128 -114t-90 -134t-29.5 -152v-19h830v-51h-885z" />
    <glyph glyph-name="three" unicode="3" horiz-adv-x="1140" 
d="M563 -20q-220 0 -347.5 125.5t-129.5 328.5h53q2 -179 113 -291t313 -112q193 0 314.5 102.5t121.5 272.5q0 167 -124.5 259.5t-333.5 92.5h-43v55h39q98 0 171.5 24.5t115.5 67t62.5 94t20.5 111.5q0 133 -91.5 212t-258.5 79q-173 0 -273 -94t-100 -291h-53
q0 220 117 328t311 108q193 0 297.5 -97t104.5 -247q0 -105 -58 -191t-188 -126q151 -31 244.5 -131.5t93.5 -256.5q0 -190 -137.5 -306.5t-354.5 -116.5z" />
    <glyph glyph-name="four" unicode="4" 
d="M207 403q-13 0 -19 -2v-200q4 -2 19 -2q37 0 50 25t13 77q0 54 -13 78t-50 24zM518 330v-49h-82v-78h96v-49h-155v297h155v-52h-96v-69h82zM203 150q-47 0 -74 4v292q61 9 76 9q67 0 96 -37.5t29 -116.5t-29.5 -115t-97.5 -36zM586 451h80l39 -164l38 164h82
q3 -45 13 -297h-60q0 108 -6 213l-41 -168h-55l-41 168h-2q-4 -140 -4 -213h-58q3 156 15 297zM987 150q-60 0 -84 35.5t-24 115.5q0 81 24 117.5t84 36.5t85.5 -37t25.5 -117q0 -79 -25.5 -115t-85.5 -36zM987 403q-29 0 -39 -23.5t-10 -78.5q0 -54 10 -78t39 -24
q30 0 40.5 24t10.5 78q0 55 -10 78.5t-41 23.5zM967 1016q49 0 79.5 -24.5t39 -51t8.5 -53.5q0 -43 -34.5 -72.5t-72.5 -34.5q-213 -23 -340 -147q3 8 9 22t25 53.5t39 75.5t50 80.5t59.5 76t66 53.5t71.5 22zM285 909q39 0 78 -21t69.5 -55t58.5 -74.5t48 -81.5t35 -75
t22 -55l8 -21q-117 148 -319 148q-49 0 -88 30t-39 76q0 53 33.5 91t93.5 38zM643 1214q38 -37 48.5 -102t-2.5 -131t-31.5 -126.5t-35.5 -98.5l-18 -39q20 191 -125 330q-35 35 -42 81.5t24 83.5q23 23 53 34t65 3.5t64 -35.5z" />
    <glyph glyph-name="five" unicode="5" horiz-adv-x="1132" 
d="M575 -20q-216 0 -339.5 122t-129.5 312h50q5 -166 116.5 -275.5t307.5 -109.5q199 0 312.5 119.5t113.5 320.5q0 200 -112 320t-310 120q-236 0 -369 -182h-68l117 707h678v-45h-637l-104 -613q69 93 170.5 137.5t216.5 44.5q132 0 237.5 -56t168.5 -168.5t63 -264.5
q0 -223 -130.5 -356t-351.5 -133z" />
    <glyph glyph-name="six" unicode="6" horiz-adv-x="1150" 
d="M598 961q216 0 336.5 -136t120.5 -344q0 -101 -29 -190t-85 -159t-146.5 -111t-204.5 -41q-242 0 -363 178.5t-121 523.5q0 770 496 770q181 0 286 -94.5t111 -229.5h-49q-3 49 -25 96t-62 88t-107 66t-152 25q-102 0 -179.5 -36t-129 -101.5t-83.5 -163.5t-45 -215
t-11 -264q21 95 68.5 163.5t110.5 105t128 53t135 16.5zM594 29q100 0 179.5 36t129 98.5t75.5 143t26 172.5q0 190 -105 310t-303 120q-199 0 -307.5 -120.5t-108.5 -309.5q0 -90 26.5 -170t76.5 -143t130.5 -100t180.5 -37z" />
    <glyph glyph-name="seven" unicode="7" horiz-adv-x="950" 
d="M283 0q72 652 542 1384h-764v50h818v-50q-474 -744 -537 -1384h-59z" />
    <glyph glyph-name="eight" unicode="8" horiz-adv-x="1150" 
d="M575 -20q-216 0 -352.5 113.5t-136.5 305.5q0 154 89 256.5t231 143.5q-95 33 -159.5 116.5t-64.5 198.5q0 146 104 242t289 96t289.5 -96t104.5 -242q0 -115 -64.5 -198.5t-159.5 -116.5q142 -41 231 -143.5t89 -256.5q0 -192 -137 -305.5t-353 -113.5zM575 819
q154 0 248.5 81t94.5 214q0 129 -90.5 208t-252.5 79t-252 -79t-90 -208q0 -133 94 -214t248 -81zM575 33q123 0 220.5 40.5t157 125t59.5 200.5q0 166 -117.5 268.5t-319.5 102.5q-201 0 -318.5 -102t-117.5 -269q0 -116 59 -200.5t156.5 -125t220.5 -40.5z" />
    <glyph glyph-name="nine" unicode="9" horiz-adv-x="1148" 
d="M559 1450q242 0 362.5 -178.5t120.5 -523.5q0 -771 -493 -771q-182 0 -286.5 94.5t-110.5 229.5h49q3 -49 24.5 -96t61.5 -87.5t107.5 -65.5t152.5 -25q126 0 214.5 54t139.5 159t72.5 244t19.5 323q-21 -95 -68 -163.5t-110 -105t-128 -53t-136 -16.5q-145 0 -249.5 65
t-155 172t-50.5 242q0 101 28.5 190t84 159.5t146 111.5t204.5 41zM553 520q134 0 229.5 57.5t141 153.5t45.5 219q0 90 -26.5 170.5t-76.5 143.5t-130 100t-179 37q-100 0 -179.5 -36t-129 -99t-75.5 -143.5t-26 -172.5t25.5 -169.5t74.5 -136t127.5 -91.5t178.5 -33z" />
    <glyph glyph-name="colon" unicode=":" horiz-adv-x="317" 
d="M158 938q-25 0 -43.5 19t-18.5 44q0 26 18.5 45t43.5 19q26 0 44.5 -19t18.5 -45q0 -25 -18.5 -44t-44.5 -19zM158 -20q-25 0 -43.5 18.5t-18.5 44.5q0 25 18.5 44t43.5 19q26 0 44.5 -19t18.5 -44q0 -26 -18.5 -44.5t-44.5 -18.5z" />
    <glyph glyph-name="semicolon" unicode=";" horiz-adv-x="327" 
d="M158 938q-25 0 -43.5 19t-18.5 44q0 26 18.5 45t43.5 19q26 0 44.5 -19t18.5 -45q0 -25 -18.5 -44t-44.5 -19zM96 -172v47h15q33 0 49.5 28.5t13.5 73.5q-35 -2 -56.5 14.5t-21.5 49.5q0 27 17 46t47 19q71 0 71 -110q0 -81 -33.5 -124.5t-80.5 -43.5h-21z" />
    <glyph glyph-name="less" unicode="&#x3c;" 
d="M207 403q-13 0 -19 -2v-200q4 -2 19 -2q37 0 50 25t13 77q0 54 -13 78t-50 24zM518 330v-49h-82v-78h96v-49h-155v297h155v-52h-96v-69h82zM203 150q-47 0 -74 4v292q61 9 76 9q67 0 96 -37.5t29 -116.5t-29.5 -115t-97.5 -36zM586 451h80l39 -164l38 164h82
q3 -45 13 -297h-60q0 108 -6 213l-41 -168h-55l-41 168h-2q-4 -140 -4 -213h-58q3 156 15 297zM987 150q-60 0 -84 35.5t-24 115.5q0 81 24 117.5t84 36.5t85.5 -37t25.5 -117q0 -79 -25.5 -115t-85.5 -36zM987 403q-29 0 -39 -23.5t-10 -78.5q0 -54 10 -78t39 -24
q30 0 40.5 24t10.5 78q0 55 -10 78.5t-41 23.5zM967 1016q49 0 79.5 -24.5t39 -51t8.5 -53.5q0 -43 -34.5 -72.5t-72.5 -34.5q-213 -23 -340 -147q3 8 9 22t25 53.5t39 75.5t50 80.5t59.5 76t66 53.5t71.5 22zM285 909q39 0 78 -21t69.5 -55t58.5 -74.5t48 -81.5t35 -75
t22 -55l8 -21q-117 148 -319 148q-49 0 -88 30t-39 76q0 53 33.5 91t93.5 38zM643 1214q38 -37 48.5 -102t-2.5 -131t-31.5 -126.5t-35.5 -98.5l-18 -39q20 191 -125 330q-35 35 -42 81.5t24 83.5q23 23 53 34t65 3.5t64 -35.5z" />
    <glyph glyph-name="equal" unicode="=" 
d="M207 403q-13 0 -19 -2v-200q4 -2 19 -2q37 0 50 25t13 77q0 54 -13 78t-50 24zM518 330v-49h-82v-78h96v-49h-155v297h155v-52h-96v-69h82zM203 150q-47 0 -74 4v292q61 9 76 9q67 0 96 -37.5t29 -116.5t-29.5 -115t-97.5 -36zM586 451h80l39 -164l38 164h82
q3 -45 13 -297h-60q0 108 -6 213l-41 -168h-55l-41 168h-2q-4 -140 -4 -213h-58q3 156 15 297zM987 150q-60 0 -84 35.5t-24 115.5q0 81 24 117.5t84 36.5t85.5 -37t25.5 -117q0 -79 -25.5 -115t-85.5 -36zM987 403q-29 0 -39 -23.5t-10 -78.5q0 -54 10 -78t39 -24
q30 0 40.5 24t10.5 78q0 55 -10 78.5t-41 23.5zM967 1016q49 0 79.5 -24.5t39 -51t8.5 -53.5q0 -43 -34.5 -72.5t-72.5 -34.5q-213 -23 -340 -147q3 8 9 22t25 53.5t39 75.5t50 80.5t59.5 76t66 53.5t71.5 22zM285 909q39 0 78 -21t69.5 -55t58.5 -74.5t48 -81.5t35 -75
t22 -55l8 -21q-117 148 -319 148q-49 0 -88 30t-39 76q0 53 33.5 91t93.5 38zM643 1214q38 -37 48.5 -102t-2.5 -131t-31.5 -126.5t-35.5 -98.5l-18 -39q20 191 -125 330q-35 35 -42 81.5t24 83.5q23 23 53 34t65 3.5t64 -35.5z" />
    <glyph glyph-name="greater" unicode="&#x3e;" 
d="M207 403q-13 0 -19 -2v-200q4 -2 19 -2q37 0 50 25t13 77q0 54 -13 78t-50 24zM518 330v-49h-82v-78h96v-49h-155v297h155v-52h-96v-69h82zM203 150q-47 0 -74 4v292q61 9 76 9q67 0 96 -37.5t29 -116.5t-29.5 -115t-97.5 -36zM586 451h80l39 -164l38 164h82
q3 -45 13 -297h-60q0 108 -6 213l-41 -168h-55l-41 168h-2q-4 -140 -4 -213h-58q3 156 15 297zM987 150q-60 0 -84 35.5t-24 115.5q0 81 24 117.5t84 36.5t85.5 -37t25.5 -117q0 -79 -25.5 -115t-85.5 -36zM987 403q-29 0 -39 -23.5t-10 -78.5q0 -54 10 -78t39 -24
q30 0 40.5 24t10.5 78q0 55 -10 78.5t-41 23.5zM967 1016q49 0 79.5 -24.5t39 -51t8.5 -53.5q0 -43 -34.5 -72.5t-72.5 -34.5q-213 -23 -340 -147q3 8 9 22t25 53.5t39 75.5t50 80.5t59.5 76t66 53.5t71.5 22zM285 909q39 0 78 -21t69.5 -55t58.5 -74.5t48 -81.5t35 -75
t22 -55l8 -21q-117 148 -319 148q-49 0 -88 30t-39 76q0 53 33.5 91t93.5 38zM643 1214q38 -37 48.5 -102t-2.5 -131t-31.5 -126.5t-35.5 -98.5l-18 -39q20 191 -125 330q-35 35 -42 81.5t24 83.5q23 23 53 34t65 3.5t64 -35.5z" />
    <glyph glyph-name="question" unicode="?" horiz-adv-x="1003" 
d="M469 344v115q0 70 21.5 125.5t56 93t76 69.5t82.5 63t75.5 65.5t56 85.5t21.5 114q0 83 -28 146t-77.5 100.5t-113 56.5t-139.5 19q-72 0 -134 -21.5t-112.5 -65.5t-79.5 -119t-29 -173h-53q-2 196 108 313t300 117q182 0 296.5 -99t114.5 -274q0 -69 -21.5 -124.5
t-56 -93t-76 -69.5t-82.5 -63.5t-75.5 -66t-56 -85.5t-21.5 -114v-115h-53zM506 -20q-25 0 -43.5 18.5t-18.5 44.5q0 25 18.5 44t43.5 19q26 0 44.5 -19t18.5 -44q0 -26 -18.5 -44.5t-44.5 -18.5z" />
    <glyph glyph-name="at" unicode="@" 
d="M207 403q-13 0 -19 -2v-200q4 -2 19 -2q37 0 50 25t13 77q0 54 -13 78t-50 24zM518 330v-49h-82v-78h96v-49h-155v297h155v-52h-96v-69h82zM203 150q-47 0 -74 4v292q61 9 76 9q67 0 96 -37.5t29 -116.5t-29.5 -115t-97.5 -36zM586 451h80l39 -164l38 164h82
q3 -45 13 -297h-60q0 108 -6 213l-41 -168h-55l-41 168h-2q-4 -140 -4 -213h-58q3 156 15 297zM987 150q-60 0 -84 35.5t-24 115.5q0 81 24 117.5t84 36.5t85.5 -37t25.5 -117q0 -79 -25.5 -115t-85.5 -36zM987 403q-29 0 -39 -23.5t-10 -78.5q0 -54 10 -78t39 -24
q30 0 40.5 24t10.5 78q0 55 -10 78.5t-41 23.5zM967 1016q49 0 79.5 -24.5t39 -51t8.5 -53.5q0 -43 -34.5 -72.5t-72.5 -34.5q-213 -23 -340 -147q3 8 9 22t25 53.5t39 75.5t50 80.5t59.5 76t66 53.5t71.5 22zM285 909q39 0 78 -21t69.5 -55t58.5 -74.5t48 -81.5t35 -75
t22 -55l8 -21q-117 148 -319 148q-49 0 -88 30t-39 76q0 53 33.5 91t93.5 38zM643 1214q38 -37 48.5 -102t-2.5 -131t-31.5 -126.5t-35.5 -98.5l-18 -39q20 191 -125 330q-35 35 -42 81.5t24 83.5q23 23 53 34t65 3.5t64 -35.5z" />
    <glyph glyph-name="A" unicode="A" horiz-adv-x="1308" 
d="M1194 0l-170 432h-739l-170 -432h-60l572 1434h55l571 -1434h-59zM305 483h699l-347 875h-6z" />
    <glyph glyph-name="B" unicode="B" horiz-adv-x="1183" 
d="M127 0v1434h508q198 0 292.5 -91t94.5 -241q0 -115 -57.5 -199.5t-176.5 -118.5q151 -32 235.5 -127t84.5 -254q0 -188 -122.5 -295.5t-360.5 -107.5h-498zM184 809h439q180 0 262 78.5t82 214.5q0 135 -81 206.5t-263 71.5h-439v-571zM184 53h434q212 0 322.5 91.5
t110.5 258.5t-111 260t-322 93h-434v-703z" />
    <glyph glyph-name="C" unicode="C" horiz-adv-x="1310" 
d="M723 -20q-136 0 -248.5 45.5t-198 134t-133 231t-47.5 326.5q0 183 47.5 325t133 230.5t198 134t248.5 45.5q203 0 341.5 -97.5t184.5 -275.5h-57q-42 151 -165 236.5t-304 85.5q-122 0 -224.5 -41t-181 -122.5t-123 -214.5t-44.5 -306q0 -172 44.5 -305.5t123.5 -215.5
t181.5 -123.5t223.5 -41.5q183 0 305 85.5t164 237.5h57q-45 -179 -183.5 -276.5t-342.5 -97.5z" />
    <glyph glyph-name="D" unicode="D" horiz-adv-x="1300" 
d="M127 0v1434h399q339 0 508.5 -184.5t169.5 -532.5t-169.5 -532.5t-508.5 -184.5h-399zM184 53h340q625 0 625 664q0 663 -625 663h-340v-1327z" />
    <glyph glyph-name="E" unicode="E" horiz-adv-x="1079" 
d="M127 0v1434h856v-54h-799v-608h738v-55h-738v-664h820v-53h-877z" />
    <glyph glyph-name="F" unicode="F" horiz-adv-x="1071" 
d="M127 0v1434h883v-54h-826v-630h674v-56h-674v-694h-57z" />
    <glyph glyph-name="G" unicode="G" horiz-adv-x="1400" 
d="M739 -20q-138 0 -253.5 45.5t-203.5 134t-137 231.5t-49 326q0 182 47.5 323.5t133.5 230.5t200.5 135t253.5 46q192 0 319 -83.5t177 -233.5h-53q-107 266 -441 266q-127 0 -232 -41.5t-184 -123.5t-123 -214.5t-44 -304.5q0 -174 44.5 -307.5t124.5 -215t185.5 -122.5
t234.5 -41q250 0 378.5 155.5t125.5 454.5h-428v49h479v-63q0 -316 -143 -481.5t-412 -165.5z" />
    <glyph glyph-name="H" unicode="H" horiz-adv-x="1282" 
d="M1098 1434h57v-1434h-57v668h-914v-668h-57v1434h57v-717h914v717z" />
    <glyph glyph-name="I" unicode="I" horiz-adv-x="311" 
d="M127 0v1434h57v-1434h-57z" />
    <glyph glyph-name="J" unicode="J" horiz-adv-x="1292" 
d="M645 -20q-243 0 -380.5 149.5t-137.5 411.5h55q0 -241 122.5 -374.5t340.5 -133.5q219 0 341 132.5t122 373.5v895h57v-893q0 -261 -137.5 -411t-382.5 -150z" />
    <glyph glyph-name="K" unicode="K" horiz-adv-x="1189" 
d="M1061 0l-643 717l-234 -250v-467h-57v1434h57v-895l830 895h73l-632 -678l680 -756h-74z" />
    <glyph glyph-name="L" unicode="L" horiz-adv-x="1054" 
d="M127 0v1434h57v-1381h795v-53h-852z" />
    <glyph glyph-name="M" unicode="M" horiz-adv-x="1665" 
d="M127 0v1434h55l649 -1377l652 1377h55v-1434h-57v1300h-2l-615 -1300h-65l-613 1300h-2v-1300h-57z" />
    <glyph glyph-name="N" unicode="N" horiz-adv-x="1300" 
d="M127 0v1434h82l905 -1364h2v1364h58v-1434h-82l-906 1370h-2v-1370h-57z" />
    <glyph glyph-name="O" unicode="O" horiz-adv-x="1437" 
d="M719 -20q-130 0 -241 45t-197.5 133.5t-135.5 231.5t-49 327q0 147 32 269t89 207t136 144t171 87t195 28q130 0 241 -45t197 -133t135 -231t49 -326q0 -184 -49 -327t-135 -231.5t-197 -133.5t-241 -45zM719 31q120 0 221.5 41.5t180 123.5t123 215.5t44.5 305.5
t-44.5 305t-123 214.5t-180 123t-221.5 41.5t-221.5 -41.5t-180 -123t-123 -214.5t-44.5 -305t44.5 -305.5t123 -215.5t180 -123.5t221.5 -41.5z" />
    <glyph glyph-name="P" unicode="P" horiz-adv-x="1148" 
d="M127 0v1434h477q225 0 347 -107t122 -307q0 -196 -122 -302t-347 -106h-420v-612h-57zM184 666h418q203 0 310.5 90t107.5 264q0 179 -107 269.5t-311 90.5h-418v-714z" />
    <glyph glyph-name="Q" unicode="Q" horiz-adv-x="1437" 
d="M1343 23l-32 -37l-162 164q-167 -170 -430 -170q-130 0 -241 45t-197.5 133.5t-135.5 231.5t-49 327q0 147 32 269t89 207t136 144t171 87t195 28q130 0 241 -45t197 -133t135 -231t49 -326q0 -335 -159 -531zM719 31q241 0 393 155l-321 326l32 37l322 -326
q143 184 143 494q0 172 -44.5 305t-123 214.5t-180 123t-221.5 41.5t-221.5 -41.5t-180 -123t-123 -214.5t-44.5 -305t44.5 -305.5t123 -215.5t180 -123.5t221.5 -41.5z" />
    <glyph glyph-name="R" unicode="R" horiz-adv-x="1159" 
d="M1083 0h-61l-369 614q-16 -2 -49 -2h-420v-612h-57v1434h477q225 0 347 -107t122 -307q0 -171 -93 -274t-267 -128zM602 666q203 0 310.5 90t107.5 264q0 179 -107 269.5t-311 90.5h-418v-714h418z" />
    <glyph glyph-name="S" unicode="S" horiz-adv-x="1189" 
d="M606 -20q-127 0 -226.5 32t-160.5 87.5t-92 125.5t-31 150h51q8 -152 123.5 -247t337.5 -95q212 0 321 92.5t109 245.5q0 77 -27 135t-78 95.5t-110 60.5t-139 40l-174 35q-194 41 -282.5 134t-88.5 225q0 155 113 255.5t336 100.5q216 0 337.5 -95.5t121.5 -238.5h-50
q-5 55 -30.5 103.5t-73.5 89.5t-127.5 64.5t-181.5 23.5q-195 0 -292 -84t-97 -215q0 -246 340 -314l176 -36q65 -14 116 -31.5t103 -47.5t86.5 -68.5t56 -96.5t21.5 -129q0 -180 -124.5 -288.5t-363.5 -108.5z" />
    <glyph glyph-name="T" unicode="T" horiz-adv-x="1150" 
d="M547 0v1380h-481v54h1019v-54h-481v-1380h-57z" />
    <glyph glyph-name="U" unicode="U" horiz-adv-x="1292" 
d="M645 -20q-244 0 -381 150t-137 411v893h55v-895q0 -242 122 -374t341 -132t342 132t123 374v895h55v-893q0 -261 -137.5 -411t-382.5 -150z" />
    <glyph glyph-name="V" unicode="V" horiz-adv-x="1329" 
d="M637 0l-571 1434h59l537 -1358h6l536 1358h60l-572 -1434h-55z" />
    <glyph glyph-name="W" unicode="W" horiz-adv-x="1912" 
d="M459 0l-393 1434h57l369 -1358h6l424 1358h69l424 -1358h6l369 1358h57l-393 -1434h-70l-428 1358l-428 -1358h-69z" />
    <glyph glyph-name="X" unicode="X" horiz-adv-x="1265" 
d="M1210 0h-65l-512 696l-512 -696h-66l545 741l-508 693h66l475 -648l475 648h66l-508 -693z" />
    <glyph glyph-name="Y" unicode="Y" horiz-adv-x="1247" 
d="M596 0v588l-530 846h61l496 -791l497 791h62l-531 -846v-588h-55z" />
    <glyph glyph-name="Z" unicode="Z" horiz-adv-x="1230" 
d="M82 0v53l993 1327h-944v54h1010l-2 -54l-989 -1327h999v-53h-1067z" />
    <glyph glyph-name="bracketleft" unicode="[" 
d="M207 403q-13 0 -19 -2v-200q4 -2 19 -2q37 0 50 25t13 77q0 54 -13 78t-50 24zM518 330v-49h-82v-78h96v-49h-155v297h155v-52h-96v-69h82zM203 150q-47 0 -74 4v292q61 9 76 9q67 0 96 -37.5t29 -116.5t-29.5 -115t-97.5 -36zM586 451h80l39 -164l38 164h82
q3 -45 13 -297h-60q0 108 -6 213l-41 -168h-55l-41 168h-2q-4 -140 -4 -213h-58q3 156 15 297zM987 150q-60 0 -84 35.5t-24 115.5q0 81 24 117.5t84 36.5t85.5 -37t25.5 -117q0 -79 -25.5 -115t-85.5 -36zM987 403q-29 0 -39 -23.5t-10 -78.5q0 -54 10 -78t39 -24
q30 0 40.5 24t10.5 78q0 55 -10 78.5t-41 23.5zM967 1016q49 0 79.5 -24.5t39 -51t8.5 -53.5q0 -43 -34.5 -72.5t-72.5 -34.5q-213 -23 -340 -147q3 8 9 22t25 53.5t39 75.5t50 80.5t59.5 76t66 53.5t71.5 22zM285 909q39 0 78 -21t69.5 -55t58.5 -74.5t48 -81.5t35 -75
t22 -55l8 -21q-117 148 -319 148q-49 0 -88 30t-39 76q0 53 33.5 91t93.5 38zM643 1214q38 -37 48.5 -102t-2.5 -131t-31.5 -126.5t-35.5 -98.5l-18 -39q20 191 -125 330q-35 35 -42 81.5t24 83.5q23 23 53 34t65 3.5t64 -35.5z" />
    <glyph glyph-name="backslash" unicode="\" 
d="M207 403q-13 0 -19 -2v-200q4 -2 19 -2q37 0 50 25t13 77q0 54 -13 78t-50 24zM518 330v-49h-82v-78h96v-49h-155v297h155v-52h-96v-69h82zM203 150q-47 0 -74 4v292q61 9 76 9q67 0 96 -37.5t29 -116.5t-29.5 -115t-97.5 -36zM586 451h80l39 -164l38 164h82
q3 -45 13 -297h-60q0 108 -6 213l-41 -168h-55l-41 168h-2q-4 -140 -4 -213h-58q3 156 15 297zM987 150q-60 0 -84 35.5t-24 115.5q0 81 24 117.5t84 36.5t85.5 -37t25.5 -117q0 -79 -25.5 -115t-85.5 -36zM987 403q-29 0 -39 -23.5t-10 -78.5q0 -54 10 -78t39 -24
q30 0 40.5 24t10.5 78q0 55 -10 78.5t-41 23.5zM967 1016q49 0 79.5 -24.5t39 -51t8.5 -53.5q0 -43 -34.5 -72.5t-72.5 -34.5q-213 -23 -340 -147q3 8 9 22t25 53.5t39 75.5t50 80.5t59.5 76t66 53.5t71.5 22zM285 909q39 0 78 -21t69.5 -55t58.5 -74.5t48 -81.5t35 -75
t22 -55l8 -21q-117 148 -319 148q-49 0 -88 30t-39 76q0 53 33.5 91t93.5 38zM643 1214q38 -37 48.5 -102t-2.5 -131t-31.5 -126.5t-35.5 -98.5l-18 -39q20 191 -125 330q-35 35 -42 81.5t24 83.5q23 23 53 34t65 3.5t64 -35.5z" />
    <glyph glyph-name="bracketright" unicode="]" 
d="M207 403q-13 0 -19 -2v-200q4 -2 19 -2q37 0 50 25t13 77q0 54 -13 78t-50 24zM518 330v-49h-82v-78h96v-49h-155v297h155v-52h-96v-69h82zM203 150q-47 0 -74 4v292q61 9 76 9q67 0 96 -37.5t29 -116.5t-29.5 -115t-97.5 -36zM586 451h80l39 -164l38 164h82
q3 -45 13 -297h-60q0 108 -6 213l-41 -168h-55l-41 168h-2q-4 -140 -4 -213h-58q3 156 15 297zM987 150q-60 0 -84 35.5t-24 115.5q0 81 24 117.5t84 36.5t85.5 -37t25.5 -117q0 -79 -25.5 -115t-85.5 -36zM987 403q-29 0 -39 -23.5t-10 -78.5q0 -54 10 -78t39 -24
q30 0 40.5 24t10.5 78q0 55 -10 78.5t-41 23.5zM967 1016q49 0 79.5 -24.5t39 -51t8.5 -53.5q0 -43 -34.5 -72.5t-72.5 -34.5q-213 -23 -340 -147q3 8 9 22t25 53.5t39 75.5t50 80.5t59.5 76t66 53.5t71.5 22zM285 909q39 0 78 -21t69.5 -55t58.5 -74.5t48 -81.5t35 -75
t22 -55l8 -21q-117 148 -319 148q-49 0 -88 30t-39 76q0 53 33.5 91t93.5 38zM643 1214q38 -37 48.5 -102t-2.5 -131t-31.5 -126.5t-35.5 -98.5l-18 -39q20 191 -125 330q-35 35 -42 81.5t24 83.5q23 23 53 34t65 3.5t64 -35.5z" />
    <glyph glyph-name="asciicircum" unicode="^" 
d="M207 403q-13 0 -19 -2v-200q4 -2 19 -2q37 0 50 25t13 77q0 54 -13 78t-50 24zM518 330v-49h-82v-78h96v-49h-155v297h155v-52h-96v-69h82zM203 150q-47 0 -74 4v292q61 9 76 9q67 0 96 -37.5t29 -116.5t-29.5 -115t-97.5 -36zM586 451h80l39 -164l38 164h82
q3 -45 13 -297h-60q0 108 -6 213l-41 -168h-55l-41 168h-2q-4 -140 -4 -213h-58q3 156 15 297zM987 150q-60 0 -84 35.5t-24 115.5q0 81 24 117.5t84 36.5t85.5 -37t25.5 -117q0 -79 -25.5 -115t-85.5 -36zM987 403q-29 0 -39 -23.5t-10 -78.5q0 -54 10 -78t39 -24
q30 0 40.5 24t10.5 78q0 55 -10 78.5t-41 23.5zM967 1016q49 0 79.5 -24.5t39 -51t8.5 -53.5q0 -43 -34.5 -72.5t-72.5 -34.5q-213 -23 -340 -147q3 8 9 22t25 53.5t39 75.5t50 80.5t59.5 76t66 53.5t71.5 22zM285 909q39 0 78 -21t69.5 -55t58.5 -74.5t48 -81.5t35 -75
t22 -55l8 -21q-117 148 -319 148q-49 0 -88 30t-39 76q0 53 33.5 91t93.5 38zM643 1214q38 -37 48.5 -102t-2.5 -131t-31.5 -126.5t-35.5 -98.5l-18 -39q20 191 -125 330q-35 35 -42 81.5t24 83.5q23 23 53 34t65 3.5t64 -35.5z" />
    <glyph glyph-name="underscore" unicode="_" 
d="M207 403q-13 0 -19 -2v-200q4 -2 19 -2q37 0 50 25t13 77q0 54 -13 78t-50 24zM518 330v-49h-82v-78h96v-49h-155v297h155v-52h-96v-69h82zM203 150q-47 0 -74 4v292q61 9 76 9q67 0 96 -37.5t29 -116.5t-29.5 -115t-97.5 -36zM586 451h80l39 -164l38 164h82
q3 -45 13 -297h-60q0 108 -6 213l-41 -168h-55l-41 168h-2q-4 -140 -4 -213h-58q3 156 15 297zM987 150q-60 0 -84 35.5t-24 115.5q0 81 24 117.5t84 36.5t85.5 -37t25.5 -117q0 -79 -25.5 -115t-85.5 -36zM987 403q-29 0 -39 -23.5t-10 -78.5q0 -54 10 -78t39 -24
q30 0 40.5 24t10.5 78q0 55 -10 78.5t-41 23.5zM967 1016q49 0 79.5 -24.5t39 -51t8.5 -53.5q0 -43 -34.5 -72.5t-72.5 -34.5q-213 -23 -340 -147q3 8 9 22t25 53.5t39 75.5t50 80.5t59.5 76t66 53.5t71.5 22zM285 909q39 0 78 -21t69.5 -55t58.5 -74.5t48 -81.5t35 -75
t22 -55l8 -21q-117 148 -319 148q-49 0 -88 30t-39 76q0 53 33.5 91t93.5 38zM643 1214q38 -37 48.5 -102t-2.5 -131t-31.5 -126.5t-35.5 -98.5l-18 -39q20 191 -125 330q-35 35 -42 81.5t24 83.5q23 23 53 34t65 3.5t64 -35.5z" />
    <glyph glyph-name="grave" unicode="`" 
d="M207 403q-13 0 -19 -2v-200q4 -2 19 -2q37 0 50 25t13 77q0 54 -13 78t-50 24zM518 330v-49h-82v-78h96v-49h-155v297h155v-52h-96v-69h82zM203 150q-47 0 -74 4v292q61 9 76 9q67 0 96 -37.5t29 -116.5t-29.5 -115t-97.5 -36zM586 451h80l39 -164l38 164h82
q3 -45 13 -297h-60q0 108 -6 213l-41 -168h-55l-41 168h-2q-4 -140 -4 -213h-58q3 156 15 297zM987 150q-60 0 -84 35.5t-24 115.5q0 81 24 117.5t84 36.5t85.5 -37t25.5 -117q0 -79 -25.5 -115t-85.5 -36zM987 403q-29 0 -39 -23.5t-10 -78.5q0 -54 10 -78t39 -24
q30 0 40.5 24t10.5 78q0 55 -10 78.5t-41 23.5zM967 1016q49 0 79.5 -24.5t39 -51t8.5 -53.5q0 -43 -34.5 -72.5t-72.5 -34.5q-213 -23 -340 -147q3 8 9 22t25 53.5t39 75.5t50 80.5t59.5 76t66 53.5t71.5 22zM285 909q39 0 78 -21t69.5 -55t58.5 -74.5t48 -81.5t35 -75
t22 -55l8 -21q-117 148 -319 148q-49 0 -88 30t-39 76q0 53 33.5 91t93.5 38zM643 1214q38 -37 48.5 -102t-2.5 -131t-31.5 -126.5t-35.5 -98.5l-18 -39q20 191 -125 330q-35 35 -42 81.5t24 83.5q23 23 53 34t65 3.5t64 -35.5z" />
    <glyph glyph-name="a" unicode="a" horiz-adv-x="1046" 
d="M532 1085q194 0 291 -83t97 -267v-735h-54v215h-4q-14 -34 -49.5 -72t-90.5 -76t-138.5 -62.5t-177.5 -24.5q-157 0 -243.5 70t-86.5 200q0 118 79.5 192.5t270.5 102.5l233 35q100 15 153.5 36.5t53.5 45.5v83q0 151 -82.5 222t-255.5 71q-333 0 -333 -245v-23h-54v23
q0 151 104.5 221.5t286.5 70.5zM412 29q87 0 164.5 24t128.5 60t89 79t55 81t17 65v270q-5 -48 -190 -76l-242 -36q-90 -13 -152 -36.5t-94 -57t-45.5 -69t-13.5 -81.5q0 -62 24 -107t65.5 -69.5t89.5 -35.5t104 -11z" />
    <glyph glyph-name="b" unicode="b" horiz-adv-x="1173" 
d="M612 -20q-139 0 -255 70t-177 216v-266h-53v1434h53v-635q61 146 177 216t255 70q100 0 186.5 -34.5t154 -101t106.5 -174t39 -243.5t-39 -243t-106 -173.5t-154 -101t-187 -34.5zM616 27q86 0 161.5 31t136 91.5t95.5 159t35 223.5t-35 223.5t-95.5 159t-136.5 92
t-161 31.5q-86 0 -163.5 -31.5t-140 -92t-99.5 -159.5t-37 -223t37 -223t99.5 -159t140 -91.5t163.5 -31.5z" />
    <glyph glyph-name="c" unicode="c" horiz-adv-x="1058" 
d="M573 -20q-107 0 -197.5 36t-157 104t-104.5 173.5t-38 236.5q0 263 138.5 409t358.5 146q75 0 142.5 -19t126.5 -58.5t100 -107t55 -157.5h-51q-13 79 -51 138t-91.5 92t-111.5 49t-121 16q-91 0 -169 -30.5t-139.5 -91t-96.5 -159.5t-35 -227q0 -126 35 -224.5
t96.5 -158t139.5 -90t169 -30.5q63 0 121 15.5t111.5 49.5t91.5 95t51 143h51q-12 -76 -42 -136t-70.5 -99.5t-92.5 -66t-106 -37.5t-113 -11z" />
    <glyph glyph-name="d" unicode="d" horiz-adv-x="1173" 
d="M559 -20q-99 0 -185.5 34.5t-153.5 101t-105.5 173.5t-38.5 243t38.5 243.5t105.5 174t153.5 101t185.5 34.5q140 0 256.5 -70t177.5 -216v635h54v-1434h-54v266q-61 -146 -177.5 -216t-256.5 -70zM557 27q85 0 162.5 31.5t140 91.5t100 159t37.5 223t-37.5 223
t-100 159.5t-140 92t-162.5 31.5t-161 -31.5t-136.5 -92t-95.5 -159t-35 -223.5t35 -223.5t95.5 -159t136 -91.5t161.5 -31z" />
    <glyph glyph-name="e" unicode="e" horiz-adv-x="1069" 
d="M993 586q0 -49 -6 -70h-856q1 -235 112 -359t318 -124q281 0 363 231h55q-100 -282 -422 -282q-231 0 -356 141.5t-125 404.5q0 272 131 414.5t338 142.5q204 0 326 -134t122 -365zM131 565h811q-1 231 -109.5 350t-287.5 119q-86 0 -159 -28.5t-130 -84t-90 -147
t-35 -209.5z" />
    <glyph glyph-name="f" unicode="f" horiz-adv-x="542" 
d="M432 1415q-100 0 -140 -35.5t-40 -136.5v-178h233v-49h-233v-1016h-53v1016h-144v49h144v197q0 114 58 159t157 45h78v-51h-60z" />
    <glyph glyph-name="g" unicode="g" horiz-adv-x="1167" 
d="M987 1065h53v-1067q0 -93 -27.5 -167.5t-72.5 -122t-108 -79t-130.5 -44.5t-142.5 -13q-126 0 -224.5 35t-156.5 105t-59 165h47q5 -115 112 -186.5t285 -71.5q91 0 166 21.5t134 65.5t91.5 118.5t32.5 173.5v289h-2q-64 -137 -177 -202t-249 -65q-99 0 -185.5 33.5
t-153.5 98t-105.5 168t-38.5 233.5q0 131 38.5 234.5t105 167.5t153 97t186.5 33q136 0 249 -64.5t177 -201.5h2v246zM555 68q85 0 162 30t139.5 88t99.5 153t37 214t-37 214t-99.5 153t-139.5 88t-162 30t-160 -30t-135.5 -88t-95.5 -152.5t-35 -214.5t35 -214.5
t95.5 -152.5t135.5 -88t160 -30z" />
    <glyph glyph-name="h" unicode="h" horiz-adv-x="1087" 
d="M569 1085q84 0 151 -21.5t123 -70.5t87 -137.5t31 -212.5v-643h-54v641q0 393 -340 393q-179 0 -283 -107.5t-104 -285.5v-641h-53v1434h53v-568h8q5 19 18.5 43t44 56t71 58t106 44t141.5 18z" />
    <glyph glyph-name="i" unicode="i" horiz-adv-x="307" 
d="M154 1346q-22 0 -38 16.5t-16 38.5t16 37.5t38 15.5t37.5 -15.5t15.5 -37.5t-15.5 -38.5t-37.5 -16.5zM127 0v1065h53v-1065h-53z" />
    <glyph glyph-name="j" unicode="j" horiz-adv-x="352" 
d="M199 1346q-22 0 -38 16.5t-16 38.5t16 37.5t38 15.5t37.5 -15.5t15.5 -37.5t-15.5 -38.5t-37.5 -16.5zM10 -375q-10 0 -31 2.5t-32 3.5v45h39q104 0 145 37t41 140v1212h53v-1233q0 -207 -215 -207z" />
    <glyph glyph-name="k" unicode="k" horiz-adv-x="1032" 
d="M926 0l-502 559l-244 -244v-315h-53v1434h53v-1051l682 682h72l-473 -471l536 -594h-71z" />
    <glyph glyph-name="l" unicode="l" horiz-adv-x="307" 
d="M127 0v1434h53v-1434h-53z" />
    <glyph glyph-name="m" unicode="m" horiz-adv-x="1736" 
d="M1241 1085q79 0 142.5 -21.5t116 -70.5t81.5 -137.5t29 -212.5v-643h-54v641q0 393 -317 393q-165 0 -254.5 -106t-89.5 -287v-641h-53v641q0 393 -314 393q-167 0 -257.5 -106t-90.5 -287v-641h-53v1065h53v-199h8q5 20 16 43t38 56t63 58t95.5 43.5t131.5 18.5
q270 0 340 -247h5q10 24 14 34t21.5 41t33.5 49t46 44.5t63 41t81.5 26t104.5 11.5z" />
    <glyph glyph-name="n" unicode="n" horiz-adv-x="1087" 
d="M569 1085q84 0 151 -21.5t123 -70.5t87 -137.5t31 -212.5v-643h-54v641q0 393 -340 393q-179 0 -283 -107.5t-104 -285.5v-641h-53v1065h53v-199h8q5 19 18.5 43t44 56t71 58t106 44t141.5 18z" />
    <glyph glyph-name="o" unicode="o" horiz-adv-x="1138" 
d="M569 -20q-99 0 -187 35t-157 101.5t-109 173.5t-40 242q0 108 26.5 199.5t72.5 156t108.5 109.5t134.5 66.5t151 21.5q99 0 187 -35t157 -101.5t109.5 -174t40.5 -242.5t-40.5 -242t-109.5 -173.5t-157 -101.5t-187 -35zM569 27q85 0 162 30.5t140 90t100 159t37 225.5
t-37 225.5t-100 159.5t-140 90.5t-162 30.5t-162 -30.5t-139.5 -90.5t-99.5 -159.5t-37 -225.5t37 -225.5t99.5 -159t139.5 -90t162 -30.5z" />
    <glyph glyph-name="p" unicode="p" horiz-adv-x="1173" 
d="M127 -389v1454h53v-266q61 146 177 216t255 70q100 0 186.5 -34.5t154 -101t106.5 -174t39 -243.5t-39 -243t-106 -173.5t-154 -101t-187 -34.5q-139 0 -255 70t-177 216v-655h-53zM616 27q86 0 161.5 31t136 91.5t95.5 159t35 223.5t-35 223.5t-95.5 159t-136.5 92
t-161 31.5q-86 0 -163.5 -31.5t-140 -92t-99.5 -159.5t-37 -223t37 -223t99.5 -159t140 -91.5t163.5 -31.5z" />
    <glyph glyph-name="q" unicode="q" horiz-adv-x="1173" 
d="M1047 -389h-54v655q-61 -146 -177.5 -216t-256.5 -70q-99 0 -185.5 34.5t-153.5 101t-105.5 173.5t-38.5 243t38.5 243.5t105.5 174t153.5 101t185.5 34.5q140 0 256.5 -70t177.5 -216v266h54v-1454zM557 27q85 0 162.5 31.5t140 91.5t100 159t37.5 223t-37.5 223
t-100 159.5t-140 92t-162.5 31.5t-161 -31.5t-136.5 -92t-95.5 -159t-35 -223.5t35 -223.5t95.5 -159t136 -91.5t161.5 -31z" />
    <glyph glyph-name="r" unicode="r" horiz-adv-x="673" 
d="M541 1073q55 0 77 -10v-47q-30 6 -71 6q-93 0 -165.5 -32t-115.5 -86.5t-64.5 -122.5t-21.5 -146v-635h-53v1065h53v-221q9 25 24.5 52.5t46 60t68.5 57.5t96.5 42t125.5 17z" />
    <glyph glyph-name="s" unicode="s" horiz-adv-x="946" 
d="M485 -20q-107 0 -195.5 27.5t-151.5 93.5t-72 163h51q10 -64 46.5 -112t91 -73.5t112 -37.5t120.5 -12q93 0 167.5 24t124.5 82.5t50 145.5q0 53 -17.5 91t-55 63t-78 40t-105.5 31l-204 49q-129 34 -197 96t-68 164q0 128 100.5 199t264.5 71q75 0 139 -15t117.5 -46.5
t88 -85.5t42.5 -127h-49q-52 225 -338 225q-146 0 -228.5 -56t-82.5 -161q0 -80 53.5 -132t179.5 -83l195 -47q59 -15 100.5 -29.5t80.5 -37t62.5 -50.5t37.5 -68t14 -91q0 -66 -23 -119t-60.5 -86.5t-90 -55.5t-107 -31t-115.5 -9z" />
    <glyph glyph-name="t" unicode="t" horiz-adv-x="573" 
d="M455 37h53v-45q-25 -6 -74 -6q-215 0 -215 207v823h-164v49h164v258h53v-258h215v-49h-215v-805q0 -101 41 -137.5t142 -36.5z" />
    <glyph glyph-name="u" unicode="u" horiz-adv-x="1087" 
d="M907 1065h54v-1065h-54v199h-8q-5 -19 -18.5 -43t-44 -56t-71 -58t-106 -44t-141.5 -18q-84 0 -151 21.5t-123 70.5t-86.5 137.5t-30.5 212.5v643h53v-641q0 -393 340 -393q179 0 283 107.5t104 285.5v641z" />
    <glyph glyph-name="v" unicode="v" horiz-adv-x="1040" 
d="M487 0l-432 1065h56l409 -1016h2l410 1016h53l-432 -1065h-66z" />
    <glyph glyph-name="w" unicode="w" horiz-adv-x="1572" 
d="M377 0l-322 1065h58l293 -997h8l346 997h53l346 -997h8l293 997h58l-322 -1065h-63l-347 995l-348 -995h-61z" />
    <glyph glyph-name="x" unicode="x" horiz-adv-x="983" 
d="M76 0l389 539l-387 526h67l347 -479l346 479h67l-387 -526l389 -539h-67l-348 496l-349 -496h-67z" />
    <glyph glyph-name="y" unicode="y" horiz-adv-x="1021" 
d="M166 -381v51q195 -29 287 211q32 86 14 133l-412 1051h58l399 -1024l397 1024h58l-478 -1217q-52 -132 -137 -188.5t-186 -40.5z" />
    <glyph glyph-name="z" unicode="z" horiz-adv-x="999" 
d="M82 0v49l772 967h-752v49h816v-49l-775 -967h775v-49h-836z" />
    <glyph glyph-name="braceleft" unicode="{" 
d="M207 403q-13 0 -19 -2v-200q4 -2 19 -2q37 0 50 25t13 77q0 54 -13 78t-50 24zM518 330v-49h-82v-78h96v-49h-155v297h155v-52h-96v-69h82zM203 150q-47 0 -74 4v292q61 9 76 9q67 0 96 -37.5t29 -116.5t-29.5 -115t-97.5 -36zM586 451h80l39 -164l38 164h82
q3 -45 13 -297h-60q0 108 -6 213l-41 -168h-55l-41 168h-2q-4 -140 -4 -213h-58q3 156 15 297zM987 150q-60 0 -84 35.5t-24 115.5q0 81 24 117.5t84 36.5t85.5 -37t25.5 -117q0 -79 -25.5 -115t-85.5 -36zM987 403q-29 0 -39 -23.5t-10 -78.5q0 -54 10 -78t39 -24
q30 0 40.5 24t10.5 78q0 55 -10 78.5t-41 23.5zM967 1016q49 0 79.5 -24.5t39 -51t8.5 -53.5q0 -43 -34.5 -72.5t-72.5 -34.5q-213 -23 -340 -147q3 8 9 22t25 53.5t39 75.5t50 80.5t59.5 76t66 53.5t71.5 22zM285 909q39 0 78 -21t69.5 -55t58.5 -74.5t48 -81.5t35 -75
t22 -55l8 -21q-117 148 -319 148q-49 0 -88 30t-39 76q0 53 33.5 91t93.5 38zM643 1214q38 -37 48.5 -102t-2.5 -131t-31.5 -126.5t-35.5 -98.5l-18 -39q20 191 -125 330q-35 35 -42 81.5t24 83.5q23 23 53 34t65 3.5t64 -35.5z" />
    <glyph glyph-name="bar" unicode="|" 
d="M207 403q-13 0 -19 -2v-200q4 -2 19 -2q37 0 50 25t13 77q0 54 -13 78t-50 24zM518 330v-49h-82v-78h96v-49h-155v297h155v-52h-96v-69h82zM203 150q-47 0 -74 4v292q61 9 76 9q67 0 96 -37.5t29 -116.5t-29.5 -115t-97.5 -36zM586 451h80l39 -164l38 164h82
q3 -45 13 -297h-60q0 108 -6 213l-41 -168h-55l-41 168h-2q-4 -140 -4 -213h-58q3 156 15 297zM987 150q-60 0 -84 35.5t-24 115.5q0 81 24 117.5t84 36.5t85.5 -37t25.5 -117q0 -79 -25.5 -115t-85.5 -36zM987 403q-29 0 -39 -23.5t-10 -78.5q0 -54 10 -78t39 -24
q30 0 40.5 24t10.5 78q0 55 -10 78.5t-41 23.5zM967 1016q49 0 79.5 -24.5t39 -51t8.5 -53.5q0 -43 -34.5 -72.5t-72.5 -34.5q-213 -23 -340 -147q3 8 9 22t25 53.5t39 75.5t50 80.5t59.5 76t66 53.5t71.5 22zM285 909q39 0 78 -21t69.5 -55t58.5 -74.5t48 -81.5t35 -75
t22 -55l8 -21q-117 148 -319 148q-49 0 -88 30t-39 76q0 53 33.5 91t93.5 38zM643 1214q38 -37 48.5 -102t-2.5 -131t-31.5 -126.5t-35.5 -98.5l-18 -39q20 191 -125 330q-35 35 -42 81.5t24 83.5q23 23 53 34t65 3.5t64 -35.5z" />
    <glyph glyph-name="braceright" unicode="}" 
d="M207 403q-13 0 -19 -2v-200q4 -2 19 -2q37 0 50 25t13 77q0 54 -13 78t-50 24zM518 330v-49h-82v-78h96v-49h-155v297h155v-52h-96v-69h82zM203 150q-47 0 -74 4v292q61 9 76 9q67 0 96 -37.5t29 -116.5t-29.5 -115t-97.5 -36zM586 451h80l39 -164l38 164h82
q3 -45 13 -297h-60q0 108 -6 213l-41 -168h-55l-41 168h-2q-4 -140 -4 -213h-58q3 156 15 297zM987 150q-60 0 -84 35.5t-24 115.5q0 81 24 117.5t84 36.5t85.5 -37t25.5 -117q0 -79 -25.5 -115t-85.5 -36zM987 403q-29 0 -39 -23.5t-10 -78.5q0 -54 10 -78t39 -24
q30 0 40.5 24t10.5 78q0 55 -10 78.5t-41 23.5zM967 1016q49 0 79.5 -24.5t39 -51t8.5 -53.5q0 -43 -34.5 -72.5t-72.5 -34.5q-213 -23 -340 -147q3 8 9 22t25 53.5t39 75.5t50 80.5t59.5 76t66 53.5t71.5 22zM285 909q39 0 78 -21t69.5 -55t58.5 -74.5t48 -81.5t35 -75
t22 -55l8 -21q-117 148 -319 148q-49 0 -88 30t-39 76q0 53 33.5 91t93.5 38zM643 1214q38 -37 48.5 -102t-2.5 -131t-31.5 -126.5t-35.5 -98.5l-18 -39q20 191 -125 330q-35 35 -42 81.5t24 83.5q23 23 53 34t65 3.5t64 -35.5z" />
    <glyph glyph-name="asciitilde" unicode="~" 
d="M207 403q-13 0 -19 -2v-200q4 -2 19 -2q37 0 50 25t13 77q0 54 -13 78t-50 24zM518 330v-49h-82v-78h96v-49h-155v297h155v-52h-96v-69h82zM203 150q-47 0 -74 4v292q61 9 76 9q67 0 96 -37.5t29 -116.5t-29.5 -115t-97.5 -36zM586 451h80l39 -164l38 164h82
q3 -45 13 -297h-60q0 108 -6 213l-41 -168h-55l-41 168h-2q-4 -140 -4 -213h-58q3 156 15 297zM987 150q-60 0 -84 35.5t-24 115.5q0 81 24 117.5t84 36.5t85.5 -37t25.5 -117q0 -79 -25.5 -115t-85.5 -36zM987 403q-29 0 -39 -23.5t-10 -78.5q0 -54 10 -78t39 -24
q30 0 40.5 24t10.5 78q0 55 -10 78.5t-41 23.5zM967 1016q49 0 79.5 -24.5t39 -51t8.5 -53.5q0 -43 -34.5 -72.5t-72.5 -34.5q-213 -23 -340 -147q3 8 9 22t25 53.5t39 75.5t50 80.5t59.5 76t66 53.5t71.5 22zM285 909q39 0 78 -21t69.5 -55t58.5 -74.5t48 -81.5t35 -75
t22 -55l8 -21q-117 148 -319 148q-49 0 -88 30t-39 76q0 53 33.5 91t93.5 38zM643 1214q38 -37 48.5 -102t-2.5 -131t-31.5 -126.5t-35.5 -98.5l-18 -39q20 191 -125 330q-35 35 -42 81.5t24 83.5q23 23 53 34t65 3.5t64 -35.5z" />
    </font>
</defs>
</svg>
