<?xml version="1.0" standalone="no"?>
<!DOCTYPE svg PUBLIC "-//W3C//DTD SVG 1.1//EN" "http://www.w3.org/Graphics/SVG/1.1/DTD/svg11.dtd" >
<svg xmlns="http://www.w3.org/2000/svg" xmlns:xlink="http://www.w3.org/1999/xlink" version="1.1">
<metadata>
Created by FontForge 20201107 at Mon Mar  9 12:55:22 2026
 By www-data
Copyright  2020 by Connary Fagen. All rights reserved.
</metadata>
<defs>
<font id="FONTSPRINGDEMO-ArticulatCFBold" horiz-adv-x="1224" >
  <font-face 
    font-family="FSP DEMO - Articulat CF"
    font-weight="700"
    font-stretch="normal"
    units-per-em="2048"
    panose-1="0 0 8 0 0 0 0 0 0 0"
    ascent="1638"
    descent="-410"
    x-height="1065"
    cap-height="1434"
    bbox="-94 -428 2032 1511"
    underline-thickness="102"
    underline-position="-204"
    unicode-range="U+0020-007E"
  />
<missing-glyph 
d="M207 403q-13 0 -19 -2v-200q4 -2 19 -2q37 0 50 25t13 77q0 54 -13 78t-50 24zM518 330v-49h-82v-78h96v-49h-155v297h155v-52h-96v-69h82zM203 150q-47 0 -74 4v292q61 9 76 9q67 0 96 -37.5t29 -116.5t-29.5 -115t-97.5 -36zM586 451h80l39 -164l38 164h82
q3 -45 13 -297h-60q0 108 -6 213l-41 -168h-55l-41 168h-2q-4 -140 -4 -213h-58q3 156 15 297zM987 150q-60 0 -84 35.5t-24 115.5q0 81 24 117.5t84 36.5t85.5 -37t25.5 -117q0 -79 -25.5 -115t-85.5 -36zM987 403q-29 0 -39 -23.5t-10 -78.5q0 -54 10 -78t39 -24
q30 0 40.5 24t10.5 78q0 55 -10 78.5t-41 23.5zM967 1016q49 0 79.5 -24.5t39 -51t8.5 -53.5q0 -43 -34.5 -72.5t-72.5 -34.5q-213 -23 -340 -147q3 8 9 22t25 53.5t39 75.5t50 80.5t59.5 76t66 53.5t71.5 22zM285 909q39 0 78 -21t69.5 -55t58.5 -74.5t48 -81.5t35 -75
t22 -55l8 -21q-117 148 -319 148q-49 0 -88 30t-39 76q0 53 33.5 91t93.5 38zM643 1214q38 -37 48.5 -102t-2.5 -131t-31.5 -126.5t-35.5 -98.5l-18 -39q20 191 -125 330q-35 35 -42 81.5t24 83.5q23 23 53 34t65 3.5t64 -35.5z" />
    <glyph glyph-name=".notdef" 
d="M207 403q-13 0 -19 -2v-200q4 -2 19 -2q37 0 50 25t13 77q0 54 -13 78t-50 24zM518 330v-49h-82v-78h96v-49h-155v297h155v-52h-96v-69h82zM203 150q-47 0 -74 4v292q61 9 76 9q67 0 96 -37.5t29 -116.5t-29.5 -115t-97.5 -36zM586 451h80l39 -164l38 164h82
q3 -45 13 -297h-60q0 108 -6 213l-41 -168h-55l-41 168h-2q-4 -140 -4 -213h-58q3 156 15 297zM987 150q-60 0 -84 35.5t-24 115.5q0 81 24 117.5t84 36.5t85.5 -37t25.5 -117q0 -79 -25.5 -115t-85.5 -36zM987 403q-29 0 -39 -23.5t-10 -78.5q0 -54 10 -78t39 -24
q30 0 40.5 24t10.5 78q0 55 -10 78.5t-41 23.5zM967 1016q49 0 79.5 -24.5t39 -51t8.5 -53.5q0 -43 -34.5 -72.5t-72.5 -34.5q-213 -23 -340 -147q3 8 9 22t25 53.5t39 75.5t50 80.5t59.5 76t66 53.5t71.5 22zM285 909q39 0 78 -21t69.5 -55t58.5 -74.5t48 -81.5t35 -75
t22 -55l8 -21q-117 148 -319 148q-49 0 -88 30t-39 76q0 53 33.5 91t93.5 38zM643 1214q38 -37 48.5 -102t-2.5 -131t-31.5 -126.5t-35.5 -98.5l-18 -39q20 191 -125 330q-35 35 -42 81.5t24 83.5q23 23 53 34t65 3.5t64 -35.5z" />
    <glyph glyph-name=".null" horiz-adv-x="0" 
 />
    <glyph glyph-name="nonmarkingreturn" horiz-adv-x="682" 
 />
    <glyph glyph-name="space" unicode=" " horiz-adv-x="471" 
 />
    <glyph glyph-name="exclam" unicode="!" 
d="M207 403q-13 0 -19 -2v-200q4 -2 19 -2q37 0 50 25t13 77q0 54 -13 78t-50 24zM518 330v-49h-82v-78h96v-49h-155v297h155v-52h-96v-69h82zM203 150q-47 0 -74 4v292q61 9 76 9q67 0 96 -37.5t29 -116.5t-29.5 -115t-97.5 -36zM586 451h80l39 -164l38 164h82
q3 -45 13 -297h-60q0 108 -6 213l-41 -168h-55l-41 168h-2q-4 -140 -4 -213h-58q3 156 15 297zM987 150q-60 0 -84 35.5t-24 115.5q0 81 24 117.5t84 36.5t85.5 -37t25.5 -117q0 -79 -25.5 -115t-85.5 -36zM987 403q-29 0 -39 -23.5t-10 -78.5q0 -54 10 -78t39 -24
q30 0 40.5 24t10.5 78q0 55 -10 78.5t-41 23.5zM967 1016q49 0 79.5 -24.5t39 -51t8.5 -53.5q0 -43 -34.5 -72.5t-72.5 -34.5q-213 -23 -340 -147q3 8 9 22t25 53.5t39 75.5t50 80.5t59.5 76t66 53.5t71.5 22zM285 909q39 0 78 -21t69.5 -55t58.5 -74.5t48 -81.5t35 -75
t22 -55l8 -21q-117 148 -319 148q-49 0 -88 30t-39 76q0 53 33.5 91t93.5 38zM643 1214q38 -37 48.5 -102t-2.5 -131t-31.5 -126.5t-35.5 -98.5l-18 -39q20 191 -125 330q-35 35 -42 81.5t24 83.5q23 23 53 34t65 3.5t64 -35.5z" />
    <glyph glyph-name="quotedbl" unicode="&#x22;" 
d="M207 403q-13 0 -19 -2v-200q4 -2 19 -2q37 0 50 25t13 77q0 54 -13 78t-50 24zM518 330v-49h-82v-78h96v-49h-155v297h155v-52h-96v-69h82zM203 150q-47 0 -74 4v292q61 9 76 9q67 0 96 -37.5t29 -116.5t-29.5 -115t-97.5 -36zM586 451h80l39 -164l38 164h82
q3 -45 13 -297h-60q0 108 -6 213l-41 -168h-55l-41 168h-2q-4 -140 -4 -213h-58q3 156 15 297zM987 150q-60 0 -84 35.5t-24 115.5q0 81 24 117.5t84 36.5t85.5 -37t25.5 -117q0 -79 -25.5 -115t-85.5 -36zM987 403q-29 0 -39 -23.5t-10 -78.5q0 -54 10 -78t39 -24
q30 0 40.5 24t10.5 78q0 55 -10 78.5t-41 23.5zM967 1016q49 0 79.5 -24.5t39 -51t8.5 -53.5q0 -43 -34.5 -72.5t-72.5 -34.5q-213 -23 -340 -147q3 8 9 22t25 53.5t39 75.5t50 80.5t59.5 76t66 53.5t71.5 22zM285 909q39 0 78 -21t69.5 -55t58.5 -74.5t48 -81.5t35 -75
t22 -55l8 -21q-117 148 -319 148q-49 0 -88 30t-39 76q0 53 33.5 91t93.5 38zM643 1214q38 -37 48.5 -102t-2.5 -131t-31.5 -126.5t-35.5 -98.5l-18 -39q20 191 -125 330q-35 35 -42 81.5t24 83.5q23 23 53 34t65 3.5t64 -35.5z" />
    <glyph glyph-name="numbersign" unicode="#" 
d="M207 403q-13 0 -19 -2v-200q4 -2 19 -2q37 0 50 25t13 77q0 54 -13 78t-50 24zM518 330v-49h-82v-78h96v-49h-155v297h155v-52h-96v-69h82zM203 150q-47 0 -74 4v292q61 9 76 9q67 0 96 -37.5t29 -116.5t-29.5 -115t-97.5 -36zM586 451h80l39 -164l38 164h82
q3 -45 13 -297h-60q0 108 -6 213l-41 -168h-55l-41 168h-2q-4 -140 -4 -213h-58q3 156 15 297zM987 150q-60 0 -84 35.5t-24 115.5q0 81 24 117.5t84 36.5t85.5 -37t25.5 -117q0 -79 -25.5 -115t-85.5 -36zM987 403q-29 0 -39 -23.5t-10 -78.5q0 -54 10 -78t39 -24
q30 0 40.5 24t10.5 78q0 55 -10 78.5t-41 23.5zM967 1016q49 0 79.5 -24.5t39 -51t8.5 -53.5q0 -43 -34.5 -72.5t-72.5 -34.5q-213 -23 -340 -147q3 8 9 22t25 53.5t39 75.5t50 80.5t59.5 76t66 53.5t71.5 22zM285 909q39 0 78 -21t69.5 -55t58.5 -74.5t48 -81.5t35 -75
t22 -55l8 -21q-117 148 -319 148q-49 0 -88 30t-39 76q0 53 33.5 91t93.5 38zM643 1214q38 -37 48.5 -102t-2.5 -131t-31.5 -126.5t-35.5 -98.5l-18 -39q20 191 -125 330q-35 35 -42 81.5t24 83.5q23 23 53 34t65 3.5t64 -35.5z" />
    <glyph glyph-name="dollar" unicode="$" 
d="M207 403q-13 0 -19 -2v-200q4 -2 19 -2q37 0 50 25t13 77q0 54 -13 78t-50 24zM518 330v-49h-82v-78h96v-49h-155v297h155v-52h-96v-69h82zM203 150q-47 0 -74 4v292q61 9 76 9q67 0 96 -37.5t29 -116.5t-29.5 -115t-97.5 -36zM586 451h80l39 -164l38 164h82
q3 -45 13 -297h-60q0 108 -6 213l-41 -168h-55l-41 168h-2q-4 -140 -4 -213h-58q3 156 15 297zM987 150q-60 0 -84 35.5t-24 115.5q0 81 24 117.5t84 36.5t85.5 -37t25.5 -117q0 -79 -25.5 -115t-85.5 -36zM987 403q-29 0 -39 -23.5t-10 -78.5q0 -54 10 -78t39 -24
q30 0 40.5 24t10.5 78q0 55 -10 78.5t-41 23.5zM967 1016q49 0 79.5 -24.5t39 -51t8.5 -53.5q0 -43 -34.5 -72.5t-72.5 -34.5q-213 -23 -340 -147q3 8 9 22t25 53.5t39 75.5t50 80.5t59.5 76t66 53.5t71.5 22zM285 909q39 0 78 -21t69.5 -55t58.5 -74.5t48 -81.5t35 -75
t22 -55l8 -21q-117 148 -319 148q-49 0 -88 30t-39 76q0 53 33.5 91t93.5 38zM643 1214q38 -37 48.5 -102t-2.5 -131t-31.5 -126.5t-35.5 -98.5l-18 -39q20 191 -125 330q-35 35 -42 81.5t24 83.5q23 23 53 34t65 3.5t64 -35.5z" />
    <glyph glyph-name="percent" unicode="%" 
d="M207 403q-13 0 -19 -2v-200q4 -2 19 -2q37 0 50 25t13 77q0 54 -13 78t-50 24zM518 330v-49h-82v-78h96v-49h-155v297h155v-52h-96v-69h82zM203 150q-47 0 -74 4v292q61 9 76 9q67 0 96 -37.5t29 -116.5t-29.5 -115t-97.5 -36zM586 451h80l39 -164l38 164h82
q3 -45 13 -297h-60q0 108 -6 213l-41 -168h-55l-41 168h-2q-4 -140 -4 -213h-58q3 156 15 297zM987 150q-60 0 -84 35.5t-24 115.5q0 81 24 117.5t84 36.5t85.5 -37t25.5 -117q0 -79 -25.5 -115t-85.5 -36zM987 403q-29 0 -39 -23.5t-10 -78.5q0 -54 10 -78t39 -24
q30 0 40.5 24t10.5 78q0 55 -10 78.5t-41 23.5zM967 1016q49 0 79.5 -24.5t39 -51t8.5 -53.5q0 -43 -34.5 -72.5t-72.5 -34.5q-213 -23 -340 -147q3 8 9 22t25 53.5t39 75.5t50 80.5t59.5 76t66 53.5t71.5 22zM285 909q39 0 78 -21t69.5 -55t58.5 -74.5t48 -81.5t35 -75
t22 -55l8 -21q-117 148 -319 148q-49 0 -88 30t-39 76q0 53 33.5 91t93.5 38zM643 1214q38 -37 48.5 -102t-2.5 -131t-31.5 -126.5t-35.5 -98.5l-18 -39q20 191 -125 330q-35 35 -42 81.5t24 83.5q23 23 53 34t65 3.5t64 -35.5z" />
    <glyph glyph-name="ampersand" unicode="&#x26;" 
d="M207 403q-13 0 -19 -2v-200q4 -2 19 -2q37 0 50 25t13 77q0 54 -13 78t-50 24zM518 330v-49h-82v-78h96v-49h-155v297h155v-52h-96v-69h82zM203 150q-47 0 -74 4v292q61 9 76 9q67 0 96 -37.5t29 -116.5t-29.5 -115t-97.5 -36zM586 451h80l39 -164l38 164h82
q3 -45 13 -297h-60q0 108 -6 213l-41 -168h-55l-41 168h-2q-4 -140 -4 -213h-58q3 156 15 297zM987 150q-60 0 -84 35.5t-24 115.5q0 81 24 117.5t84 36.5t85.5 -37t25.5 -117q0 -79 -25.5 -115t-85.5 -36zM987 403q-29 0 -39 -23.5t-10 -78.5q0 -54 10 -78t39 -24
q30 0 40.5 24t10.5 78q0 55 -10 78.5t-41 23.5zM967 1016q49 0 79.5 -24.5t39 -51t8.5 -53.5q0 -43 -34.5 -72.5t-72.5 -34.5q-213 -23 -340 -147q3 8 9 22t25 53.5t39 75.5t50 80.5t59.5 76t66 53.5t71.5 22zM285 909q39 0 78 -21t69.5 -55t58.5 -74.5t48 -81.5t35 -75
t22 -55l8 -21q-117 148 -319 148q-49 0 -88 30t-39 76q0 53 33.5 91t93.5 38zM643 1214q38 -37 48.5 -102t-2.5 -131t-31.5 -126.5t-35.5 -98.5l-18 -39q20 191 -125 330q-35 35 -42 81.5t24 83.5q23 23 53 34t65 3.5t64 -35.5z" />
    <glyph glyph-name="quotesingle" unicode="'" 
d="M207 403q-13 0 -19 -2v-200q4 -2 19 -2q37 0 50 25t13 77q0 54 -13 78t-50 24zM518 330v-49h-82v-78h96v-49h-155v297h155v-52h-96v-69h82zM203 150q-47 0 -74 4v292q61 9 76 9q67 0 96 -37.5t29 -116.5t-29.5 -115t-97.5 -36zM586 451h80l39 -164l38 164h82
q3 -45 13 -297h-60q0 108 -6 213l-41 -168h-55l-41 168h-2q-4 -140 -4 -213h-58q3 156 15 297zM987 150q-60 0 -84 35.5t-24 115.5q0 81 24 117.5t84 36.5t85.5 -37t25.5 -117q0 -79 -25.5 -115t-85.5 -36zM987 403q-29 0 -39 -23.5t-10 -78.5q0 -54 10 -78t39 -24
q30 0 40.5 24t10.5 78q0 55 -10 78.5t-41 23.5zM967 1016q49 0 79.5 -24.5t39 -51t8.5 -53.5q0 -43 -34.5 -72.5t-72.5 -34.5q-213 -23 -340 -147q3 8 9 22t25 53.5t39 75.5t50 80.5t59.5 76t66 53.5t71.5 22zM285 909q39 0 78 -21t69.5 -55t58.5 -74.5t48 -81.5t35 -75
t22 -55l8 -21q-117 148 -319 148q-49 0 -88 30t-39 76q0 53 33.5 91t93.5 38zM643 1214q38 -37 48.5 -102t-2.5 -131t-31.5 -126.5t-35.5 -98.5l-18 -39q20 191 -125 330q-35 35 -42 81.5t24 83.5q23 23 53 34t65 3.5t64 -35.5z" />
    <glyph glyph-name="parenleft" unicode="(" 
d="M207 403q-13 0 -19 -2v-200q4 -2 19 -2q37 0 50 25t13 77q0 54 -13 78t-50 24zM518 330v-49h-82v-78h96v-49h-155v297h155v-52h-96v-69h82zM203 150q-47 0 -74 4v292q61 9 76 9q67 0 96 -37.5t29 -116.5t-29.5 -115t-97.5 -36zM586 451h80l39 -164l38 164h82
q3 -45 13 -297h-60q0 108 -6 213l-41 -168h-55l-41 168h-2q-4 -140 -4 -213h-58q3 156 15 297zM987 150q-60 0 -84 35.5t-24 115.5q0 81 24 117.5t84 36.5t85.5 -37t25.5 -117q0 -79 -25.5 -115t-85.5 -36zM987 403q-29 0 -39 -23.5t-10 -78.5q0 -54 10 -78t39 -24
q30 0 40.5 24t10.5 78q0 55 -10 78.5t-41 23.5zM967 1016q49 0 79.5 -24.5t39 -51t8.5 -53.5q0 -43 -34.5 -72.5t-72.5 -34.5q-213 -23 -340 -147q3 8 9 22t25 53.5t39 75.5t50 80.5t59.5 76t66 53.5t71.5 22zM285 909q39 0 78 -21t69.5 -55t58.5 -74.5t48 -81.5t35 -75
t22 -55l8 -21q-117 148 -319 148q-49 0 -88 30t-39 76q0 53 33.5 91t93.5 38zM643 1214q38 -37 48.5 -102t-2.5 -131t-31.5 -126.5t-35.5 -98.5l-18 -39q20 191 -125 330q-35 35 -42 81.5t24 83.5q23 23 53 34t65 3.5t64 -35.5z" />
    <glyph glyph-name="parenright" unicode=")" 
d="M207 403q-13 0 -19 -2v-200q4 -2 19 -2q37 0 50 25t13 77q0 54 -13 78t-50 24zM518 330v-49h-82v-78h96v-49h-155v297h155v-52h-96v-69h82zM203 150q-47 0 -74 4v292q61 9 76 9q67 0 96 -37.5t29 -116.5t-29.5 -115t-97.5 -36zM586 451h80l39 -164l38 164h82
q3 -45 13 -297h-60q0 108 -6 213l-41 -168h-55l-41 168h-2q-4 -140 -4 -213h-58q3 156 15 297zM987 150q-60 0 -84 35.5t-24 115.5q0 81 24 117.5t84 36.5t85.5 -37t25.5 -117q0 -79 -25.5 -115t-85.5 -36zM987 403q-29 0 -39 -23.5t-10 -78.5q0 -54 10 -78t39 -24
q30 0 40.5 24t10.5 78q0 55 -10 78.5t-41 23.5zM967 1016q49 0 79.5 -24.5t39 -51t8.5 -53.5q0 -43 -34.5 -72.5t-72.5 -34.5q-213 -23 -340 -147q3 8 9 22t25 53.5t39 75.5t50 80.5t59.5 76t66 53.5t71.5 22zM285 909q39 0 78 -21t69.5 -55t58.5 -74.5t48 -81.5t35 -75
t22 -55l8 -21q-117 148 -319 148q-49 0 -88 30t-39 76q0 53 33.5 91t93.5 38zM643 1214q38 -37 48.5 -102t-2.5 -131t-31.5 -126.5t-35.5 -98.5l-18 -39q20 191 -125 330q-35 35 -42 81.5t24 83.5q23 23 53 34t65 3.5t64 -35.5z" />
    <glyph glyph-name="asterisk" unicode="*" 
d="M207 403q-13 0 -19 -2v-200q4 -2 19 -2q37 0 50 25t13 77q0 54 -13 78t-50 24zM518 330v-49h-82v-78h96v-49h-155v297h155v-52h-96v-69h82zM203 150q-47 0 -74 4v292q61 9 76 9q67 0 96 -37.5t29 -116.5t-29.5 -115t-97.5 -36zM586 451h80l39 -164l38 164h82
q3 -45 13 -297h-60q0 108 -6 213l-41 -168h-55l-41 168h-2q-4 -140 -4 -213h-58q3 156 15 297zM987 150q-60 0 -84 35.5t-24 115.5q0 81 24 117.5t84 36.5t85.5 -37t25.5 -117q0 -79 -25.5 -115t-85.5 -36zM987 403q-29 0 -39 -23.5t-10 -78.5q0 -54 10 -78t39 -24
q30 0 40.5 24t10.5 78q0 55 -10 78.5t-41 23.5zM967 1016q49 0 79.5 -24.5t39 -51t8.5 -53.5q0 -43 -34.5 -72.5t-72.5 -34.5q-213 -23 -340 -147q3 8 9 22t25 53.5t39 75.5t50 80.5t59.5 76t66 53.5t71.5 22zM285 909q39 0 78 -21t69.5 -55t58.5 -74.5t48 -81.5t35 -75
t22 -55l8 -21q-117 148 -319 148q-49 0 -88 30t-39 76q0 53 33.5 91t93.5 38zM643 1214q38 -37 48.5 -102t-2.5 -131t-31.5 -126.5t-35.5 -98.5l-18 -39q20 191 -125 330q-35 35 -42 81.5t24 83.5q23 23 53 34t65 3.5t64 -35.5z" />
    <glyph glyph-name="plus" unicode="+" 
d="M207 403q-13 0 -19 -2v-200q4 -2 19 -2q37 0 50 25t13 77q0 54 -13 78t-50 24zM518 330v-49h-82v-78h96v-49h-155v297h155v-52h-96v-69h82zM203 150q-47 0 -74 4v292q61 9 76 9q67 0 96 -37.5t29 -116.5t-29.5 -115t-97.5 -36zM586 451h80l39 -164l38 164h82
q3 -45 13 -297h-60q0 108 -6 213l-41 -168h-55l-41 168h-2q-4 -140 -4 -213h-58q3 156 15 297zM987 150q-60 0 -84 35.5t-24 115.5q0 81 24 117.5t84 36.5t85.5 -37t25.5 -117q0 -79 -25.5 -115t-85.5 -36zM987 403q-29 0 -39 -23.5t-10 -78.5q0 -54 10 -78t39 -24
q30 0 40.5 24t10.5 78q0 55 -10 78.5t-41 23.5zM967 1016q49 0 79.5 -24.5t39 -51t8.5 -53.5q0 -43 -34.5 -72.5t-72.5 -34.5q-213 -23 -340 -147q3 8 9 22t25 53.5t39 75.5t50 80.5t59.5 76t66 53.5t71.5 22zM285 909q39 0 78 -21t69.5 -55t58.5 -74.5t48 -81.5t35 -75
t22 -55l8 -21q-117 148 -319 148q-49 0 -88 30t-39 76q0 53 33.5 91t93.5 38zM643 1214q38 -37 48.5 -102t-2.5 -131t-31.5 -126.5t-35.5 -98.5l-18 -39q20 191 -125 330q-35 35 -42 81.5t24 83.5q23 23 53 34t65 3.5t64 -35.5z" />
    <glyph glyph-name="comma" unicode="," horiz-adv-x="532" 
d="M76 -291v137h14q85 0 126 13t55 41t14 86q-97 1 -153 54.5t-56 127.5q0 72 50 120t124 48q92 0 149.5 -68.5t57.5 -210.5q0 -174 -86 -261t-238 -87h-57z" />
    <glyph glyph-name="hyphen" unicode="-" 
d="M207 403q-13 0 -19 -2v-200q4 -2 19 -2q37 0 50 25t13 77q0 54 -13 78t-50 24zM518 330v-49h-82v-78h96v-49h-155v297h155v-52h-96v-69h82zM203 150q-47 0 -74 4v292q61 9 76 9q67 0 96 -37.5t29 -116.5t-29.5 -115t-97.5 -36zM586 451h80l39 -164l38 164h82
q3 -45 13 -297h-60q0 108 -6 213l-41 -168h-55l-41 168h-2q-4 -140 -4 -213h-58q3 156 15 297zM987 150q-60 0 -84 35.5t-24 115.5q0 81 24 117.5t84 36.5t85.5 -37t25.5 -117q0 -79 -25.5 -115t-85.5 -36zM987 403q-29 0 -39 -23.5t-10 -78.5q0 -54 10 -78t39 -24
q30 0 40.5 24t10.5 78q0 55 -10 78.5t-41 23.5zM967 1016q49 0 79.5 -24.5t39 -51t8.5 -53.5q0 -43 -34.5 -72.5t-72.5 -34.5q-213 -23 -340 -147q3 8 9 22t25 53.5t39 75.5t50 80.5t59.5 76t66 53.5t71.5 22zM285 909q39 0 78 -21t69.5 -55t58.5 -74.5t48 -81.5t35 -75
t22 -55l8 -21q-117 148 -319 148q-49 0 -88 30t-39 76q0 53 33.5 91t93.5 38zM643 1214q38 -37 48.5 -102t-2.5 -131t-31.5 -126.5t-35.5 -98.5l-18 -39q20 191 -125 330q-35 35 -42 81.5t24 83.5q23 23 53 34t65 3.5t64 -35.5z" />
    <glyph glyph-name="period" unicode="." horiz-adv-x="514" 
d="M256 -20q-74 0 -127 52t-53 126q0 73 53 125.5t127 52.5q75 0 128.5 -52.5t53.5 -125.5q0 -75 -53.5 -126.5t-128.5 -51.5z" />
    <glyph glyph-name="slash" unicode="/" 
d="M207 403q-13 0 -19 -2v-200q4 -2 19 -2q37 0 50 25t13 77q0 54 -13 78t-50 24zM518 330v-49h-82v-78h96v-49h-155v297h155v-52h-96v-69h82zM203 150q-47 0 -74 4v292q61 9 76 9q67 0 96 -37.5t29 -116.5t-29.5 -115t-97.5 -36zM586 451h80l39 -164l38 164h82
q3 -45 13 -297h-60q0 108 -6 213l-41 -168h-55l-41 168h-2q-4 -140 -4 -213h-58q3 156 15 297zM987 150q-60 0 -84 35.5t-24 115.5q0 81 24 117.5t84 36.5t85.5 -37t25.5 -117q0 -79 -25.5 -115t-85.5 -36zM987 403q-29 0 -39 -23.5t-10 -78.5q0 -54 10 -78t39 -24
q30 0 40.5 24t10.5 78q0 55 -10 78.5t-41 23.5zM967 1016q49 0 79.5 -24.5t39 -51t8.5 -53.5q0 -43 -34.5 -72.5t-72.5 -34.5q-213 -23 -340 -147q3 8 9 22t25 53.5t39 75.5t50 80.5t59.5 76t66 53.5t71.5 22zM285 909q39 0 78 -21t69.5 -55t58.5 -74.5t48 -81.5t35 -75
t22 -55l8 -21q-117 148 -319 148q-49 0 -88 30t-39 76q0 53 33.5 91t93.5 38zM643 1214q38 -37 48.5 -102t-2.5 -131t-31.5 -126.5t-35.5 -98.5l-18 -39q20 191 -125 330q-35 35 -42 81.5t24 83.5q23 23 53 34t65 3.5t64 -35.5z" />
    <glyph glyph-name="zero" unicode="0" horiz-adv-x="1302" 
d="M651 -20q-87 0 -167 23.5t-155.5 79t-130.5 138t-88.5 210t-33.5 286.5q0 157 33.5 284t88.5 210t130.5 138.5t155.5 79t167 23.5q88 0 168.5 -23.5t156 -79t130.5 -138.5t88 -209.5t33 -284.5q0 -159 -33 -286.5t-88 -210t-130.5 -138t-156 -79t-168.5 -23.5zM651 229
q64 0 114.5 26.5t83 71.5t54 108.5t30.5 133t9 148.5q0 99 -15 182t-47.5 153t-91 110t-137.5 40t-137.5 -40t-91 -110t-47.5 -153t-15 -182q0 -79 9 -148.5t30.5 -133t54 -108.5t83 -71.5t114.5 -26.5z" />
    <glyph glyph-name="one" unicode="1" horiz-adv-x="833" 
d="M387 0v1069q-101 -106 -311 -106v245q124 14 200.5 67t110.5 159h299v-1434h-299z" />
    <glyph glyph-name="two" unicode="2" horiz-adv-x="1185" 
d="M82 0v68q0 103 16.5 182t58 155.5t116 144.5t186.5 134q24 14 69.5 39t66 37t55.5 34.5t51.5 36.5t39 37t32.5 43t18 47t8 56q1 52 -16 89.5t-48 57t-65 28.5t-72 9q-90 0 -148.5 -53.5t-58.5 -167.5v-29h-289v41q0 98 29 180t87.5 146.5t156.5 100.5t227 36
q237 0 366.5 -114.5t129.5 -305.5q0 -79 -25.5 -147.5t-55.5 -112t-92 -92.5t-96.5 -69.5t-107.5 -61.5q-9 -5 -14 -8q-155 -90 -219 -154.5t-64 -132.5v-6h670v-248h-1012z" />
    <glyph glyph-name="three" unicode="3" horiz-adv-x="1222" 
d="M596 -20q-268 0 -400 135.5t-130 371.5h282q1 -70 22.5 -121t58.5 -79.5t81 -42t96 -13.5q102 0 175 51.5t73 151.5q0 91 -65 146t-205 55h-84v215h71q236 0 236 174q0 85 -57 128.5t-142 43.5q-90 0 -152 -54t-65 -175h-278q0 230 128.5 357.5t372.5 127.5
q222 0 353 -103t131 -274q0 -68 -21.5 -125t-57 -94t-74.5 -60.5t-81 -33.5q32 -3 68 -15.5t77 -39.5t73 -64.5t53.5 -96.5t21.5 -130q0 -192 -152 -314t-409 -122z" />
    <glyph glyph-name="four" unicode="4" 
d="M207 403q-13 0 -19 -2v-200q4 -2 19 -2q37 0 50 25t13 77q0 54 -13 78t-50 24zM518 330v-49h-82v-78h96v-49h-155v297h155v-52h-96v-69h82zM203 150q-47 0 -74 4v292q61 9 76 9q67 0 96 -37.5t29 -116.5t-29.5 -115t-97.5 -36zM586 451h80l39 -164l38 164h82
q3 -45 13 -297h-60q0 108 -6 213l-41 -168h-55l-41 168h-2q-4 -140 -4 -213h-58q3 156 15 297zM987 150q-60 0 -84 35.5t-24 115.5q0 81 24 117.5t84 36.5t85.5 -37t25.5 -117q0 -79 -25.5 -115t-85.5 -36zM987 403q-29 0 -39 -23.5t-10 -78.5q0 -54 10 -78t39 -24
q30 0 40.5 24t10.5 78q0 55 -10 78.5t-41 23.5zM967 1016q49 0 79.5 -24.5t39 -51t8.5 -53.5q0 -43 -34.5 -72.5t-72.5 -34.5q-213 -23 -340 -147q3 8 9 22t25 53.5t39 75.5t50 80.5t59.5 76t66 53.5t71.5 22zM285 909q39 0 78 -21t69.5 -55t58.5 -74.5t48 -81.5t35 -75
t22 -55l8 -21q-117 148 -319 148q-49 0 -88 30t-39 76q0 53 33.5 91t93.5 38zM643 1214q38 -37 48.5 -102t-2.5 -131t-31.5 -126.5t-35.5 -98.5l-18 -39q20 191 -125 330q-35 35 -42 81.5t24 83.5q23 23 53 34t65 3.5t64 -35.5z" />
    <glyph glyph-name="five" unicode="5" horiz-adv-x="1218" 
d="M616 -20q-252 0 -392.5 132t-137.5 347h270q2 -62 26 -110t61.5 -75t79.5 -40t85 -13t84.5 13t82.5 41.5t66 85t25 133.5q0 78 -25 134t-65.5 83.5t-80.5 39t-83 11.5q-75 0 -138.5 -34.5t-90.5 -94.5h-277l121 801h801v-238h-596l-47 -317q3 5 14 15.5t37 28t59 32
t85 25.5t110 11q207 0 340 -135t133 -362q0 -244 -148.5 -379t-398.5 -135z" />
    <glyph glyph-name="six" unicode="6" horiz-adv-x="1245" 
d="M696 952q66 0 130 -15t127 -51.5t110 -90t76.5 -136.5t29.5 -186q0 -110 -34.5 -198t-88 -141.5t-125.5 -89.5t-141.5 -50t-140.5 -14q-91 0 -170.5 24t-150.5 79.5t-122 139.5t-80.5 210.5t-29.5 285.5q0 163 33 294t100 230.5t178 154t258 54.5q122 0 218 -38t152 -99
t84 -132.5t26 -144.5h-263q-14 94 -76.5 135t-146.5 41q-71 0 -124.5 -29.5t-83 -72t-47.5 -101t-23.5 -105.5t-5.5 -97q143 143 331 143zM639 221q44 0 85.5 14.5t78.5 43t59.5 79.5t22.5 117q0 53 -15 96.5t-40 71.5t-58 47t-66.5 27t-68.5 8q-42 0 -83 -13.5t-78 -41.5
t-60 -78.5t-23 -116.5t22.5 -117.5t60 -80t79 -42.5t84.5 -14z" />
    <glyph glyph-name="seven" unicode="7" horiz-adv-x="1048" 
d="M229 0q44 555 465 1188h-633v246h916v-246q-206 -308 -325.5 -598.5t-141.5 -589.5h-281z" />
    <glyph glyph-name="eight" unicode="8" horiz-adv-x="1232" 
d="M616 -20q-155 0 -278.5 51.5t-197.5 154.5t-74 242q0 274 284 383q-182 96 -182 295q0 151 119.5 248.5t328.5 97.5t329 -97.5t120 -248.5q0 -199 -182 -295q284 -109 284 -383q0 -139 -74 -242t-198 -154.5t-279 -51.5zM616 891q93 0 144 49.5t51 128.5q0 83 -52 133.5
t-143 50.5t-142.5 -50.5t-51.5 -133.5q0 -79 51 -128.5t143 -49.5zM616 213q126 0 192 68t66 172q0 111 -71.5 177t-186.5 66t-186.5 -66t-71.5 -177q0 -104 66 -172t192 -68z" />
    <glyph glyph-name="nine" unicode="9" horiz-adv-x="1247" 
d="M608 1450q91 0 170.5 -24t150.5 -79.5t122 -139.5t80.5 -210.5t29.5 -285.5q0 -129 -20 -239t-64 -202t-110 -156.5t-160.5 -100.5t-212.5 -36q-99 0 -181 25t-137 66.5t-92.5 95.5t-53.5 111.5t-15 115.5h262q9 -65 45.5 -106t80 -55.5t97.5 -14.5q59 0 106 20t77 54.5
t50.5 75t31 89t14.5 88t4 79.5q-140 -144 -332 -144q-66 0 -129.5 15t-126.5 51.5t-110 90t-76 136.5t-29 186q0 110 34 198t88 142t125.5 90t140.5 50t140 14zM610 705q43 0 84.5 13.5t78 41.5t59 78t22.5 116t-23 117.5t-60 80t-78 42.5t-83 14q-44 0 -85.5 -14.5t-78 -43
t-59 -79.5t-22.5 -117t22 -116t59 -78t78.5 -41.5t85.5 -13.5z" />
    <glyph glyph-name="colon" unicode=":" horiz-adv-x="514" 
d="M256 709q-74 0 -127 52.5t-53 125.5q0 74 53 126t127 52q75 0 128.5 -51.5t53.5 -126.5q0 -73 -53.5 -125.5t-128.5 -52.5zM256 -20q-74 0 -127 52t-53 126q0 73 53 125.5t127 52.5q75 0 128.5 -52.5t53.5 -125.5q0 -75 -53.5 -126.5t-128.5 -51.5z" />
    <glyph glyph-name="semicolon" unicode=";" horiz-adv-x="532" 
d="M256 709q-74 0 -127 52.5t-53 125.5q0 74 53 126t127 52q75 0 128.5 -51.5t53.5 -126.5q0 -73 -53.5 -125.5t-128.5 -52.5zM76 -291v137h14q85 0 126 13t55 41t14 86q-97 1 -153 54.5t-56 127.5q0 72 50 120t124 48q92 0 149.5 -68.5t57.5 -210.5q0 -174 -86 -261
t-238 -87h-57z" />
    <glyph glyph-name="less" unicode="&#x3c;" 
d="M207 403q-13 0 -19 -2v-200q4 -2 19 -2q37 0 50 25t13 77q0 54 -13 78t-50 24zM518 330v-49h-82v-78h96v-49h-155v297h155v-52h-96v-69h82zM203 150q-47 0 -74 4v292q61 9 76 9q67 0 96 -37.5t29 -116.5t-29.5 -115t-97.5 -36zM586 451h80l39 -164l38 164h82
q3 -45 13 -297h-60q0 108 -6 213l-41 -168h-55l-41 168h-2q-4 -140 -4 -213h-58q3 156 15 297zM987 150q-60 0 -84 35.5t-24 115.5q0 81 24 117.5t84 36.5t85.5 -37t25.5 -117q0 -79 -25.5 -115t-85.5 -36zM987 403q-29 0 -39 -23.5t-10 -78.5q0 -54 10 -78t39 -24
q30 0 40.5 24t10.5 78q0 55 -10 78.5t-41 23.5zM967 1016q49 0 79.5 -24.5t39 -51t8.5 -53.5q0 -43 -34.5 -72.5t-72.5 -34.5q-213 -23 -340 -147q3 8 9 22t25 53.5t39 75.5t50 80.5t59.5 76t66 53.5t71.5 22zM285 909q39 0 78 -21t69.5 -55t58.5 -74.5t48 -81.5t35 -75
t22 -55l8 -21q-117 148 -319 148q-49 0 -88 30t-39 76q0 53 33.5 91t93.5 38zM643 1214q38 -37 48.5 -102t-2.5 -131t-31.5 -126.5t-35.5 -98.5l-18 -39q20 191 -125 330q-35 35 -42 81.5t24 83.5q23 23 53 34t65 3.5t64 -35.5z" />
    <glyph glyph-name="equal" unicode="=" 
d="M207 403q-13 0 -19 -2v-200q4 -2 19 -2q37 0 50 25t13 77q0 54 -13 78t-50 24zM518 330v-49h-82v-78h96v-49h-155v297h155v-52h-96v-69h82zM203 150q-47 0 -74 4v292q61 9 76 9q67 0 96 -37.5t29 -116.5t-29.5 -115t-97.5 -36zM586 451h80l39 -164l38 164h82
q3 -45 13 -297h-60q0 108 -6 213l-41 -168h-55l-41 168h-2q-4 -140 -4 -213h-58q3 156 15 297zM987 150q-60 0 -84 35.5t-24 115.5q0 81 24 117.5t84 36.5t85.5 -37t25.5 -117q0 -79 -25.5 -115t-85.5 -36zM987 403q-29 0 -39 -23.5t-10 -78.5q0 -54 10 -78t39 -24
q30 0 40.5 24t10.5 78q0 55 -10 78.5t-41 23.5zM967 1016q49 0 79.5 -24.5t39 -51t8.5 -53.5q0 -43 -34.5 -72.5t-72.5 -34.5q-213 -23 -340 -147q3 8 9 22t25 53.5t39 75.5t50 80.5t59.5 76t66 53.5t71.5 22zM285 909q39 0 78 -21t69.5 -55t58.5 -74.5t48 -81.5t35 -75
t22 -55l8 -21q-117 148 -319 148q-49 0 -88 30t-39 76q0 53 33.5 91t93.5 38zM643 1214q38 -37 48.5 -102t-2.5 -131t-31.5 -126.5t-35.5 -98.5l-18 -39q20 191 -125 330q-35 35 -42 81.5t24 83.5q23 23 53 34t65 3.5t64 -35.5z" />
    <glyph glyph-name="greater" unicode="&#x3e;" 
d="M207 403q-13 0 -19 -2v-200q4 -2 19 -2q37 0 50 25t13 77q0 54 -13 78t-50 24zM518 330v-49h-82v-78h96v-49h-155v297h155v-52h-96v-69h82zM203 150q-47 0 -74 4v292q61 9 76 9q67 0 96 -37.5t29 -116.5t-29.5 -115t-97.5 -36zM586 451h80l39 -164l38 164h82
q3 -45 13 -297h-60q0 108 -6 213l-41 -168h-55l-41 168h-2q-4 -140 -4 -213h-58q3 156 15 297zM987 150q-60 0 -84 35.5t-24 115.5q0 81 24 117.5t84 36.5t85.5 -37t25.5 -117q0 -79 -25.5 -115t-85.5 -36zM987 403q-29 0 -39 -23.5t-10 -78.5q0 -54 10 -78t39 -24
q30 0 40.5 24t10.5 78q0 55 -10 78.5t-41 23.5zM967 1016q49 0 79.5 -24.5t39 -51t8.5 -53.5q0 -43 -34.5 -72.5t-72.5 -34.5q-213 -23 -340 -147q3 8 9 22t25 53.5t39 75.5t50 80.5t59.5 76t66 53.5t71.5 22zM285 909q39 0 78 -21t69.5 -55t58.5 -74.5t48 -81.5t35 -75
t22 -55l8 -21q-117 148 -319 148q-49 0 -88 30t-39 76q0 53 33.5 91t93.5 38zM643 1214q38 -37 48.5 -102t-2.5 -131t-31.5 -126.5t-35.5 -98.5l-18 -39q20 191 -125 330q-35 35 -42 81.5t24 83.5q23 23 53 34t65 3.5t64 -35.5z" />
    <glyph glyph-name="question" unicode="?" horiz-adv-x="1159" 
d="M453 467v53q0 70 17.5 127.5t45 95t61 69t67.5 56t61.5 48t45 53.5t17.5 65q0 64 -41 111t-133 47q-203 0 -203 -240h-299q-2 131 37.5 229.5t111 155t160 84t193.5 27.5q210 0 341.5 -109t131.5 -305q0 -62 -16.5 -110.5t-42.5 -80.5t-57 -58.5t-62.5 -51.5t-57.5 -52.5
t-42.5 -68t-16.5 -92.5v-53h-319zM604 -20q-74 0 -127 52t-53 126q0 73 53 125.5t127 52.5q75 0 128.5 -52.5t53.5 -125.5q0 -75 -53.5 -126.5t-128.5 -51.5z" />
    <glyph glyph-name="at" unicode="@" 
d="M207 403q-13 0 -19 -2v-200q4 -2 19 -2q37 0 50 25t13 77q0 54 -13 78t-50 24zM518 330v-49h-82v-78h96v-49h-155v297h155v-52h-96v-69h82zM203 150q-47 0 -74 4v292q61 9 76 9q67 0 96 -37.5t29 -116.5t-29.5 -115t-97.5 -36zM586 451h80l39 -164l38 164h82
q3 -45 13 -297h-60q0 108 -6 213l-41 -168h-55l-41 168h-2q-4 -140 -4 -213h-58q3 156 15 297zM987 150q-60 0 -84 35.5t-24 115.5q0 81 24 117.5t84 36.5t85.5 -37t25.5 -117q0 -79 -25.5 -115t-85.5 -36zM987 403q-29 0 -39 -23.5t-10 -78.5q0 -54 10 -78t39 -24
q30 0 40.5 24t10.5 78q0 55 -10 78.5t-41 23.5zM967 1016q49 0 79.5 -24.5t39 -51t8.5 -53.5q0 -43 -34.5 -72.5t-72.5 -34.5q-213 -23 -340 -147q3 8 9 22t25 53.5t39 75.5t50 80.5t59.5 76t66 53.5t71.5 22zM285 909q39 0 78 -21t69.5 -55t58.5 -74.5t48 -81.5t35 -75
t22 -55l8 -21q-117 148 -319 148q-49 0 -88 30t-39 76q0 53 33.5 91t93.5 38zM643 1214q38 -37 48.5 -102t-2.5 -131t-31.5 -126.5t-35.5 -98.5l-18 -39q20 191 -125 330q-35 35 -42 81.5t24 83.5q23 23 53 34t65 3.5t64 -35.5z" />
    <glyph glyph-name="A" unicode="A" horiz-adv-x="1501" 
d="M1145 0l-92 268h-604l-93 -268h-321l518 1434h395l518 -1434h-321zM526 496h449l-215 624h-19z" />
    <glyph glyph-name="B" unicode="B" horiz-adv-x="1306" 
d="M106 0v1434h582q232 0 348.5 -95.5t116.5 -263.5q0 -115 -52 -184.5t-155 -102.5q305 -82 305 -368q0 -89 -31.5 -163.5t-94.5 -132.5t-168.5 -91t-243.5 -33h-607zM414 852h262q74 0 122 41.5t48 124.5q0 82 -47 120t-123 38h-262v-324zM414 258h288q121 0 176.5 55.5
t55.5 141.5q0 90 -55.5 146t-176.5 56h-288v-399z" />
    <glyph glyph-name="C" unicode="C" horiz-adv-x="1409" 
d="M743 -20q-307 0 -487 195.5t-180 541.5q0 344 180 539.5t487 195.5q166 0 294.5 -53.5t212.5 -171.5t98 -291h-299q-61 252 -306 252q-91 0 -160 -35.5t-110.5 -100t-61.5 -148.5t-20 -187q0 -82 12 -152t39.5 -130t68 -102t99.5 -65.5t133 -23.5q115 0 195 62t111 192
h299q-11 -131 -61 -231.5t-131.5 -162.5t-185 -93t-227.5 -31z" />
    <glyph glyph-name="D" unicode="D" horiz-adv-x="1402" 
d="M106 0v1434h543q333 0 505.5 -184.5t172.5 -532.5t-172.5 -532.5t-505.5 -184.5h-543zM414 266h204q217 0 306.5 105.5t89.5 345.5t-89.5 345t-306.5 105h-204v-901z" />
    <glyph glyph-name="E" unicode="E" horiz-adv-x="1161" 
d="M106 0v1434h979v-267h-671v-321h610v-240h-610v-340h692v-266h-1000z" />
    <glyph glyph-name="F" unicode="F" horiz-adv-x="1116" 
d="M106 0v1434h949v-267h-641v-336h530v-247h-530v-584h-308z" />
    <glyph glyph-name="G" unicode="G" horiz-adv-x="1458" 
d="M760 -20q-324 0 -504 193.5t-180 539.5q0 172 49.5 312t138.5 233.5t213.5 143.5t274.5 50q114 0 212 -28.5t177.5 -84.5t133 -148t71.5 -212h-304q-18 60 -50 103t-73.5 65t-82.5 31.5t-86 9.5q-176 0 -267.5 -129t-91.5 -338q0 -138 37 -243t120 -169.5t204 -64.5
q61 0 114.5 16t100 49.5t73.5 93.5t27 140h-276v245h581v-116q0 -349 -156 -520.5t-456 -171.5z" />
    <glyph glyph-name="H" unicode="H" horiz-adv-x="1388" 
d="M975 1434h307v-1434h-307v590h-561v-590h-308v1434h308v-590h561v590z" />
    <glyph glyph-name="I" unicode="I" horiz-adv-x="520" 
d="M106 0v1434h308v-1434h-308z" />
    <glyph glyph-name="J" unicode="J" horiz-adv-x="1394" 
d="M698 -20q-133 0 -241 35t-186.5 104t-121.5 177.5t-43 248.5h310q0 -145 73.5 -222t208.5 -77t209 81.5t74 239.5v867h307v-889q0 -278 -159.5 -421.5t-430.5 -143.5z" />
    <glyph glyph-name="K" unicode="K" horiz-adv-x="1435" 
d="M1049 0l-441 575l-194 -227v-348h-308v1434h308v-674l571 674h361l-549 -639l604 -795h-352z" />
    <glyph glyph-name="L" unicode="L" horiz-adv-x="1128" 
d="M106 0v1434h308v-1168h659v-266h-967z" />
    <glyph glyph-name="M" unicode="M" horiz-adv-x="1738" 
d="M106 0v1434h388l374 -1016l377 1016h387v-1434h-307v903h-10l-332 -903h-229l-330 903h-10v-903h-308z" />
    <glyph glyph-name="N" unicode="N" horiz-adv-x="1423" 
d="M106 0v1434h320l578 -942h6v942h307v-1434h-332l-565 924h-6v-924h-308z" />
    <glyph glyph-name="O" unicode="O" horiz-adv-x="1519" 
d="M760 -20q-204 0 -360 92.5t-240 260t-84 384.5q0 218 84 385t239.5 258.5t360.5 91.5t360.5 -91.5t239.5 -258.5t84 -385q0 -217 -84 -384.5t-240 -260t-360 -92.5zM760 244q174 0 271 128t97 345q0 218 -96.5 344.5t-271.5 126.5t-272 -126.5t-97 -344.5q0 -217 97 -345
t272 -128z" />
    <glyph glyph-name="P" unicode="P" horiz-adv-x="1288" 
d="M106 0v1434h580q275 0 411 -129.5t136 -350.5q0 -219 -136 -348t-411 -129h-272v-477h-308zM414 743h262q122 0 182 56t60 155q0 100 -60 156.5t-182 56.5h-262v-424z" />
    <glyph glyph-name="Q" unicode="Q" horiz-adv-x="1519" 
d="M1444 717q0 -271 -131 -463l125 -125l-185 -176l-125 125q-159 -98 -368 -98q-204 0 -360 92.5t-240 260t-84 384.5q0 218 84 385t239.5 258.5t360.5 91.5t360.5 -91.5t239.5 -258.5t84 -385zM760 244q92 0 168 39l-195 196l185 176l172 -174q38 96 38 236
q0 218 -96.5 344.5t-271.5 126.5t-272 -126.5t-97 -344.5q0 -217 97 -345t272 -128z" />
    <glyph glyph-name="R" unicode="R" horiz-adv-x="1302" 
d="M1247 0h-303l-272 477h-258v-477h-308v1434h580q275 0 411 -129.5t136 -350.5q0 -159 -71 -271t-216 -165zM414 1167v-424h262q122 0 182 56t60 155q0 100 -60 156.5t-182 56.5h-262z" />
    <glyph glyph-name="S" unicode="S" horiz-adv-x="1333" 
d="M676 -20q-279 0 -439.5 128t-160.5 361h317q5 -105 75 -170.5t210 -65.5q123 0 188.5 49t65.5 138q0 72 -48 112.5t-147 59.5l-207 39q-91 18 -161 46.5t-130 75.5t-92 119t-32 166q0 201 147 307.5t395 106.5q255 0 408.5 -113.5t153.5 -326.5h-316q3 93 -64 139.5
t-177 46.5q-115 0 -170.5 -49.5t-55.5 -122.5q0 -129 164 -158l193 -37q248 -46 356 -144.5t108 -264.5q0 -113 -44.5 -199t-124 -138.5t-183.5 -78.5t-229 -26z" />
    <glyph glyph-name="T" unicode="T" horiz-adv-x="1228" 
d="M461 0v1167h-416v267h1139v-267h-416v-1167h-307z" />
    <glyph glyph-name="U" unicode="U" horiz-adv-x="1394" 
d="M698 -20q-273 0 -432.5 143t-159.5 422v889h310v-867q0 -157 74 -239t208 -82t207.5 81.5t73.5 239.5v867h309v-889q0 -278 -159.5 -421.5t-430.5 -143.5z" />
    <glyph glyph-name="V" unicode="V" horiz-adv-x="1521" 
d="M563 0l-518 1434h322l385 -1121h18l385 1121h322l-519 -1434h-395z" />
    <glyph glyph-name="W" unicode="W" horiz-adv-x="2076" 
d="M418 0l-373 1434h315l230 -1002h14l277 1002h315l277 -1002h14l229 1002h316l-373 -1434h-320l-301 1047l-301 -1047h-319z" />
    <glyph glyph-name="X" unicode="X" horiz-adv-x="1388" 
d="M1354 0h-344l-316 477l-315 -477h-344l487 739l-459 695h345l286 -435l287 435h344l-459 -695z" />
    <glyph glyph-name="Y" unicode="Y" horiz-adv-x="1443" 
d="M563 0v526l-518 908h348l328 -611l330 611h348l-518 -908v-526h-318z" />
    <glyph glyph-name="Z" unicode="Z" horiz-adv-x="1271" 
d="M82 0v266l760 901h-744v267h1084l2 -267l-764 -901h770v-266h-1108z" />
    <glyph glyph-name="bracketleft" unicode="[" 
d="M207 403q-13 0 -19 -2v-200q4 -2 19 -2q37 0 50 25t13 77q0 54 -13 78t-50 24zM518 330v-49h-82v-78h96v-49h-155v297h155v-52h-96v-69h82zM203 150q-47 0 -74 4v292q61 9 76 9q67 0 96 -37.5t29 -116.5t-29.5 -115t-97.5 -36zM586 451h80l39 -164l38 164h82
q3 -45 13 -297h-60q0 108 -6 213l-41 -168h-55l-41 168h-2q-4 -140 -4 -213h-58q3 156 15 297zM987 150q-60 0 -84 35.5t-24 115.5q0 81 24 117.5t84 36.5t85.5 -37t25.5 -117q0 -79 -25.5 -115t-85.5 -36zM987 403q-29 0 -39 -23.5t-10 -78.5q0 -54 10 -78t39 -24
q30 0 40.5 24t10.5 78q0 55 -10 78.5t-41 23.5zM967 1016q49 0 79.5 -24.5t39 -51t8.5 -53.5q0 -43 -34.5 -72.5t-72.5 -34.5q-213 -23 -340 -147q3 8 9 22t25 53.5t39 75.5t50 80.5t59.5 76t66 53.5t71.5 22zM285 909q39 0 78 -21t69.5 -55t58.5 -74.5t48 -81.5t35 -75
t22 -55l8 -21q-117 148 -319 148q-49 0 -88 30t-39 76q0 53 33.5 91t93.5 38zM643 1214q38 -37 48.5 -102t-2.5 -131t-31.5 -126.5t-35.5 -98.5l-18 -39q20 191 -125 330q-35 35 -42 81.5t24 83.5q23 23 53 34t65 3.5t64 -35.5z" />
    <glyph glyph-name="backslash" unicode="\" 
d="M207 403q-13 0 -19 -2v-200q4 -2 19 -2q37 0 50 25t13 77q0 54 -13 78t-50 24zM518 330v-49h-82v-78h96v-49h-155v297h155v-52h-96v-69h82zM203 150q-47 0 -74 4v292q61 9 76 9q67 0 96 -37.5t29 -116.5t-29.5 -115t-97.5 -36zM586 451h80l39 -164l38 164h82
q3 -45 13 -297h-60q0 108 -6 213l-41 -168h-55l-41 168h-2q-4 -140 -4 -213h-58q3 156 15 297zM987 150q-60 0 -84 35.5t-24 115.5q0 81 24 117.5t84 36.5t85.5 -37t25.5 -117q0 -79 -25.5 -115t-85.5 -36zM987 403q-29 0 -39 -23.5t-10 -78.5q0 -54 10 -78t39 -24
q30 0 40.5 24t10.5 78q0 55 -10 78.5t-41 23.5zM967 1016q49 0 79.5 -24.5t39 -51t8.5 -53.5q0 -43 -34.5 -72.5t-72.5 -34.5q-213 -23 -340 -147q3 8 9 22t25 53.5t39 75.5t50 80.5t59.5 76t66 53.5t71.5 22zM285 909q39 0 78 -21t69.5 -55t58.5 -74.5t48 -81.5t35 -75
t22 -55l8 -21q-117 148 -319 148q-49 0 -88 30t-39 76q0 53 33.5 91t93.5 38zM643 1214q38 -37 48.5 -102t-2.5 -131t-31.5 -126.5t-35.5 -98.5l-18 -39q20 191 -125 330q-35 35 -42 81.5t24 83.5q23 23 53 34t65 3.5t64 -35.5z" />
    <glyph glyph-name="bracketright" unicode="]" 
d="M207 403q-13 0 -19 -2v-200q4 -2 19 -2q37 0 50 25t13 77q0 54 -13 78t-50 24zM518 330v-49h-82v-78h96v-49h-155v297h155v-52h-96v-69h82zM203 150q-47 0 -74 4v292q61 9 76 9q67 0 96 -37.5t29 -116.5t-29.5 -115t-97.5 -36zM586 451h80l39 -164l38 164h82
q3 -45 13 -297h-60q0 108 -6 213l-41 -168h-55l-41 168h-2q-4 -140 -4 -213h-58q3 156 15 297zM987 150q-60 0 -84 35.5t-24 115.5q0 81 24 117.5t84 36.5t85.5 -37t25.5 -117q0 -79 -25.5 -115t-85.5 -36zM987 403q-29 0 -39 -23.5t-10 -78.5q0 -54 10 -78t39 -24
q30 0 40.5 24t10.5 78q0 55 -10 78.5t-41 23.5zM967 1016q49 0 79.5 -24.5t39 -51t8.5 -53.5q0 -43 -34.5 -72.5t-72.5 -34.5q-213 -23 -340 -147q3 8 9 22t25 53.5t39 75.5t50 80.5t59.5 76t66 53.5t71.5 22zM285 909q39 0 78 -21t69.5 -55t58.5 -74.5t48 -81.5t35 -75
t22 -55l8 -21q-117 148 -319 148q-49 0 -88 30t-39 76q0 53 33.5 91t93.5 38zM643 1214q38 -37 48.5 -102t-2.5 -131t-31.5 -126.5t-35.5 -98.5l-18 -39q20 191 -125 330q-35 35 -42 81.5t24 83.5q23 23 53 34t65 3.5t64 -35.5z" />
    <glyph glyph-name="asciicircum" unicode="^" 
d="M207 403q-13 0 -19 -2v-200q4 -2 19 -2q37 0 50 25t13 77q0 54 -13 78t-50 24zM518 330v-49h-82v-78h96v-49h-155v297h155v-52h-96v-69h82zM203 150q-47 0 -74 4v292q61 9 76 9q67 0 96 -37.5t29 -116.5t-29.5 -115t-97.5 -36zM586 451h80l39 -164l38 164h82
q3 -45 13 -297h-60q0 108 -6 213l-41 -168h-55l-41 168h-2q-4 -140 -4 -213h-58q3 156 15 297zM987 150q-60 0 -84 35.5t-24 115.5q0 81 24 117.5t84 36.5t85.5 -37t25.5 -117q0 -79 -25.5 -115t-85.5 -36zM987 403q-29 0 -39 -23.5t-10 -78.5q0 -54 10 -78t39 -24
q30 0 40.5 24t10.5 78q0 55 -10 78.5t-41 23.5zM967 1016q49 0 79.5 -24.5t39 -51t8.5 -53.5q0 -43 -34.5 -72.5t-72.5 -34.5q-213 -23 -340 -147q3 8 9 22t25 53.5t39 75.5t50 80.5t59.5 76t66 53.5t71.5 22zM285 909q39 0 78 -21t69.5 -55t58.5 -74.5t48 -81.5t35 -75
t22 -55l8 -21q-117 148 -319 148q-49 0 -88 30t-39 76q0 53 33.5 91t93.5 38zM643 1214q38 -37 48.5 -102t-2.5 -131t-31.5 -126.5t-35.5 -98.5l-18 -39q20 191 -125 330q-35 35 -42 81.5t24 83.5q23 23 53 34t65 3.5t64 -35.5z" />
    <glyph glyph-name="underscore" unicode="_" 
d="M207 403q-13 0 -19 -2v-200q4 -2 19 -2q37 0 50 25t13 77q0 54 -13 78t-50 24zM518 330v-49h-82v-78h96v-49h-155v297h155v-52h-96v-69h82zM203 150q-47 0 -74 4v292q61 9 76 9q67 0 96 -37.5t29 -116.5t-29.5 -115t-97.5 -36zM586 451h80l39 -164l38 164h82
q3 -45 13 -297h-60q0 108 -6 213l-41 -168h-55l-41 168h-2q-4 -140 -4 -213h-58q3 156 15 297zM987 150q-60 0 -84 35.5t-24 115.5q0 81 24 117.5t84 36.5t85.5 -37t25.5 -117q0 -79 -25.5 -115t-85.5 -36zM987 403q-29 0 -39 -23.5t-10 -78.5q0 -54 10 -78t39 -24
q30 0 40.5 24t10.5 78q0 55 -10 78.5t-41 23.5zM967 1016q49 0 79.5 -24.5t39 -51t8.5 -53.5q0 -43 -34.5 -72.5t-72.5 -34.5q-213 -23 -340 -147q3 8 9 22t25 53.5t39 75.5t50 80.5t59.5 76t66 53.5t71.5 22zM285 909q39 0 78 -21t69.5 -55t58.5 -74.5t48 -81.5t35 -75
t22 -55l8 -21q-117 148 -319 148q-49 0 -88 30t-39 76q0 53 33.5 91t93.5 38zM643 1214q38 -37 48.5 -102t-2.5 -131t-31.5 -126.5t-35.5 -98.5l-18 -39q20 191 -125 330q-35 35 -42 81.5t24 83.5q23 23 53 34t65 3.5t64 -35.5z" />
    <glyph glyph-name="grave" unicode="`" 
d="M207 403q-13 0 -19 -2v-200q4 -2 19 -2q37 0 50 25t13 77q0 54 -13 78t-50 24zM518 330v-49h-82v-78h96v-49h-155v297h155v-52h-96v-69h82zM203 150q-47 0 -74 4v292q61 9 76 9q67 0 96 -37.5t29 -116.5t-29.5 -115t-97.5 -36zM586 451h80l39 -164l38 164h82
q3 -45 13 -297h-60q0 108 -6 213l-41 -168h-55l-41 168h-2q-4 -140 -4 -213h-58q3 156 15 297zM987 150q-60 0 -84 35.5t-24 115.5q0 81 24 117.5t84 36.5t85.5 -37t25.5 -117q0 -79 -25.5 -115t-85.5 -36zM987 403q-29 0 -39 -23.5t-10 -78.5q0 -54 10 -78t39 -24
q30 0 40.5 24t10.5 78q0 55 -10 78.5t-41 23.5zM967 1016q49 0 79.5 -24.5t39 -51t8.5 -53.5q0 -43 -34.5 -72.5t-72.5 -34.5q-213 -23 -340 -147q3 8 9 22t25 53.5t39 75.5t50 80.5t59.5 76t66 53.5t71.5 22zM285 909q39 0 78 -21t69.5 -55t58.5 -74.5t48 -81.5t35 -75
t22 -55l8 -21q-117 148 -319 148q-49 0 -88 30t-39 76q0 53 33.5 91t93.5 38zM643 1214q38 -37 48.5 -102t-2.5 -131t-31.5 -126.5t-35.5 -98.5l-18 -39q20 191 -125 330q-35 35 -42 81.5t24 83.5q23 23 53 34t65 3.5t64 -35.5z" />
    <glyph glyph-name="a" unicode="a" horiz-adv-x="1138" 
d="M582 1085q238 0 344 -85t106 -265v-735h-284v186h-11q-4 -19 -17 -43t-40.5 -53.5t-64 -53t-93.5 -40t-123 -16.5q-67 0 -126.5 16.5t-109.5 50t-79 92t-29 135.5q0 66 22.5 117.5t56.5 83t85 53.5t98 32.5t105 17.5l205 26q67 9 86.5 29.5t19.5 75.5v12q0 83 -42 114
t-118 31q-174 0 -174 -137v-10l-282 -2v41q0 327 465 327zM733 369v112q-11 -14 -34 -20.5t-68 -11.5l-135 -21q-71 -12 -108.5 -37.5t-37.5 -77.5q0 -49 37 -82.5t123 -33.5q107 0 165 55t58 117z" />
    <glyph glyph-name="b" unicode="b" horiz-adv-x="1241" 
d="M719 1085q87 0 167.5 -32.5t149 -96.5t109.5 -173.5t41 -250.5q0 -113 -27.5 -207t-73 -157t-106 -106t-126 -62.5t-134.5 -19.5q-113 0 -197.5 50.5t-115.5 123.5v-154h-300v1434h300v-523q31 73 115.5 123.5t197.5 50.5zM647 227q108 0 182 78.5t74 226.5t-74 227
t-182 79q-106 0 -180 -79t-74 -227t74 -226.5t180 -78.5z" />
    <glyph glyph-name="c" unicode="c" horiz-adv-x="1140" 
d="M590 -20q-81 0 -156.5 18.5t-145 60.5t-121 104.5t-82 156.5t-30.5 210q0 117 30.5 212t82 158t121 105.5t145 61t156.5 18.5q62 0 119.5 -10t122 -39.5t113.5 -75.5t86 -125t48 -182h-264q-36 185 -227 185q-123 0 -187.5 -84t-64.5 -224q0 -137 64.5 -220t187.5 -83
q92 0 150 47.5t77 141.5h264q-9 -103 -45.5 -182.5t-85.5 -126t-113.5 -76.5t-123 -40.5t-121.5 -10.5z" />
    <glyph glyph-name="d" unicode="d" horiz-adv-x="1241" 
d="M836 1434h299v-1434h-299v154q-31 -73 -116 -123.5t-200 -50.5q-69 0 -134 19.5t-125.5 62.5t-106 106t-72.5 157t-27 207t27 207t72.5 157t106 106.5t125.5 63t134 19.5q115 0 200 -50.5t116 -123.5v523zM594 227q106 0 180 78.5t74 226.5t-74 227t-180 79
q-108 0 -182 -79t-74 -227t74 -226.5t182 -78.5z" />
    <glyph glyph-name="e" unicode="e" horiz-adv-x="1150" 
d="M1096 524q0 -32 -6 -67h-752q13 -136 80.5 -198t189.5 -62q91 0 138 36t71 107h264q-39 -179 -168 -273t-321 -94q-84 0 -160.5 18.5t-146 60.5t-120 105t-80.5 158t-30 213q0 116 28.5 210.5t78 158t118 106.5t146 62.5t164.5 19.5q107 0 195.5 -31t159.5 -95t111 -175
t40 -260zM338 618h475q-3 108 -59 174t-172 66q-108 0 -170 -61t-74 -179z" />
    <glyph glyph-name="f" unicode="f" horiz-adv-x="747" 
d="M608 1239q-123 0 -123 -135v-39h205v-229h-205v-836h-299v836h-151v229h151v70q0 331 351 331h159v-227h-88z" />
    <glyph glyph-name="g" unicode="g" 
d="M819 1065h299v-1026q0 -113 -37 -199.5t-93 -136t-132.5 -80.5t-144 -41t-140.5 -10q-63 0 -123 7.5t-129.5 32t-120.5 63t-85 106.5t-35 158h264q3 -48 39 -80t82.5 -44t99.5 -12q113 0 184.5 59t71.5 177v131q-46 -63 -128 -103t-185 -40q-67 0 -129.5 17.5t-122 57.5
t-103 100t-70 151t-26.5 204q0 111 26.5 202t70.5 150.5t103.5 100t122 58t128.5 17.5q103 0 185 -40t128 -103v123zM588 276q105 0 175.5 72t70.5 209q0 136 -70.5 208.5t-175.5 72.5q-108 0 -179 -72.5t-71 -208.5q0 -138 71 -209.5t179 -71.5z" />
    <glyph glyph-name="h" unicode="h" horiz-adv-x="1230" 
d="M758 1085q163 0 264.5 -105t101.5 -304v-676h-299v604q0 234 -196 234q-99 0 -161 -59t-62 -175v-604h-300v1434h300v-592h12q7 40 30.5 80.5t63.5 78t104 61t142 23.5z" />
    <glyph glyph-name="i" unicode="i" horiz-adv-x="512" 
d="M256 1190q-65 0 -114.5 47.5t-49.5 114.5q0 66 49 112.5t115 46.5t115 -46.5t49 -112.5q0 -67 -49.5 -114.5t-114.5 -47.5zM106 0v1065h300v-1065h-300z" />
    <glyph glyph-name="j" unicode="j" horiz-adv-x="536" 
d="M281 1190q-65 0 -114.5 47.5t-49.5 114.5q0 66 49 112.5t115 46.5t114.5 -46.5t48.5 -112.5q0 -67 -49 -114.5t-114 -47.5zM80 -399q-115 0 -174 6v233h104q121 0 121 140v1085h299v-1131q0 -172 -92 -252.5t-258 -80.5z" />
    <glyph glyph-name="k" unicode="k" horiz-adv-x="1196" 
d="M852 0l-340 420l-106 -113v-307h-300v1434h300v-807l391 438h329l-430 -453l486 -612h-330z" />
    <glyph glyph-name="l" unicode="l" horiz-adv-x="512" 
d="M106 0v1434h300v-1434h-300z" />
    <glyph glyph-name="m" unicode="m" horiz-adv-x="1847" 
d="M1389 1085q159 0 255.5 -104.5t96.5 -304.5v-676h-299v604q0 118 -46 176t-130 58q-85 0 -139 -59t-54 -175v-604h-299v604q0 118 -46 176t-130 58q-85 0 -138.5 -59t-53.5 -175v-604h-300v1065h300v-223h12q6 39 29.5 80.5t61.5 78.5t96 60.5t124 23.5q114 0 200 -62
t122 -181q18 87 109.5 165t228.5 78z" />
    <glyph glyph-name="n" unicode="n" horiz-adv-x="1230" 
d="M758 1085q163 0 264.5 -105t101.5 -304v-676h-299v604q0 234 -196 234q-99 0 -161 -59t-62 -175v-604h-300v1065h300v-223h12q7 40 30.5 80.5t63.5 78t104 61t142 23.5z" />
    <glyph glyph-name="o" unicode="o" horiz-adv-x="1179" 
d="M590 -20q-82 0 -158.5 20t-145.5 63.5t-120 106.5t-81 156t-30 206t30 206t81 156.5t120 107t145.5 63.5t158.5 20t158.5 -20t145 -63.5t119.5 -107t81 -156.5t30 -206t-30 -206t-81 -156t-119.5 -106.5t-145 -63.5t-158.5 -20zM590 227q114 0 184 77t70 228
q0 152 -70.5 229t-183.5 77t-183.5 -77t-70.5 -229q0 -151 70 -228t184 -77z" />
    <glyph glyph-name="p" unicode="p" horiz-adv-x="1241" 
d="M719 1085q87 0 167.5 -32.5t149 -96.5t109.5 -173.5t41 -250.5q0 -113 -27.5 -207t-73 -157t-106 -106t-126 -62.5t-134.5 -19.5q-113 0 -197.5 50.5t-115.5 123.5v-543h-300v1454h300v-154q31 73 115.5 123.5t197.5 50.5zM647 227q108 0 182 78.5t74 226.5t-74 227
t-182 79q-106 0 -180 -79t-74 -227t74 -226.5t180 -78.5z" />
    <glyph glyph-name="q" unicode="q" horiz-adv-x="1241" 
d="M836 1065h299v-1454h-299v543q-31 -73 -116 -123.5t-200 -50.5q-69 0 -134 19.5t-125.5 62.5t-106 106t-72.5 157t-27 207t27 207t72.5 157t106 106.5t125.5 63t134 19.5q115 0 200 -50.5t116 -123.5v154zM594 227q106 0 180 78.5t74 226.5t-74 227t-180 79
q-108 0 -182 -79t-74 -227t74 -226.5t182 -78.5z" />
    <glyph glyph-name="r" unicode="r" horiz-adv-x="837" 
d="M721 1073q43 0 82 -10v-252q-49 6 -84 6q-63 0 -117 -18.5t-99 -57.5t-71 -108t-26 -162v-471h-300v1065h300v-258h8q29 123 106.5 194.5t200.5 71.5z" />
    <glyph glyph-name="s" unicode="s" horiz-adv-x="1028" 
d="M506 -20q-220 0 -340 93.5t-121 276.5h268q15 -149 195 -149q79 0 122.5 28t43.5 84q0 72 -101 95l-196 41q-301 69 -301 313q0 153 117.5 238t316.5 85q209 0 319.5 -97t112.5 -271h-250q-14 147 -174 147q-73 0 -116.5 -27t-43.5 -71q0 -76 115 -100l203 -43
q67 -15 119.5 -37.5t96.5 -57.5t67.5 -88.5t23.5 -122.5q0 -86 -38 -152.5t-104.5 -106t-150.5 -59t-184 -19.5z" />
    <glyph glyph-name="t" unicode="t" horiz-adv-x="778" 
d="M639 225h94v-233q-57 -6 -168 -6q-166 0 -258 80.5t-92 252.5v517h-180v229h180v274h299v-274h211v-229h-211v-474q0 -137 125 -137z" />
    <glyph glyph-name="u" unicode="u" horiz-adv-x="1230" 
d="M825 1065h299v-1065h-299v223h-12q-7 -40 -30.5 -80.5t-63.5 -78t-104 -61t-142 -23.5q-163 0 -265 105t-102 304v676h300v-604q0 -234 196 -234q99 0 161 59t62 175v604z" />
    <glyph glyph-name="v" unicode="v" horiz-adv-x="1220" 
d="M422 0l-387 1065h305l266 -778h10l267 778h303l-387 -1065h-377z" />
    <glyph glyph-name="w" unicode="w" horiz-adv-x="1695" 
d="M319 0l-284 1065h282l183 -776h8l211 776h258l211 -776h8l182 776h283l-285 -1065h-334l-194 668l-193 -668h-336z" />
    <glyph glyph-name="x" unicode="x" horiz-adv-x="1187" 
d="M55 0l369 539l-346 526h321l195 -311l194 311h322l-346 -526l369 -539h-322l-217 324l-217 -324h-322z" />
    <glyph glyph-name="y" unicode="y" horiz-adv-x="1185" 
d="M141 -410v252q44 -8 81 -5.5t64 5.5t49 13.5t36 20t26 24.5t18.5 26t12.5 25q17 40 17 70.5t-19 74.5l-391 969h307l248 -688l254 688h307l-436 -1073q-68 -169 -141.5 -259.5t-176 -125t-256.5 -17.5z" />
    <glyph glyph-name="z" unicode="z" horiz-adv-x="1044" 
d="M82 0v250l522 565h-502v250h861v-250l-525 -565h525v-250h-881z" />
    <glyph glyph-name="braceleft" unicode="{" 
d="M207 403q-13 0 -19 -2v-200q4 -2 19 -2q37 0 50 25t13 77q0 54 -13 78t-50 24zM518 330v-49h-82v-78h96v-49h-155v297h155v-52h-96v-69h82zM203 150q-47 0 -74 4v292q61 9 76 9q67 0 96 -37.5t29 -116.5t-29.5 -115t-97.5 -36zM586 451h80l39 -164l38 164h82
q3 -45 13 -297h-60q0 108 -6 213l-41 -168h-55l-41 168h-2q-4 -140 -4 -213h-58q3 156 15 297zM987 150q-60 0 -84 35.5t-24 115.5q0 81 24 117.5t84 36.5t85.5 -37t25.5 -117q0 -79 -25.5 -115t-85.5 -36zM987 403q-29 0 -39 -23.5t-10 -78.5q0 -54 10 -78t39 -24
q30 0 40.5 24t10.5 78q0 55 -10 78.5t-41 23.5zM967 1016q49 0 79.5 -24.5t39 -51t8.5 -53.5q0 -43 -34.5 -72.5t-72.5 -34.5q-213 -23 -340 -147q3 8 9 22t25 53.5t39 75.5t50 80.5t59.5 76t66 53.5t71.5 22zM285 909q39 0 78 -21t69.5 -55t58.5 -74.5t48 -81.5t35 -75
t22 -55l8 -21q-117 148 -319 148q-49 0 -88 30t-39 76q0 53 33.5 91t93.5 38zM643 1214q38 -37 48.5 -102t-2.5 -131t-31.5 -126.5t-35.5 -98.5l-18 -39q20 191 -125 330q-35 35 -42 81.5t24 83.5q23 23 53 34t65 3.5t64 -35.5z" />
    <glyph glyph-name="bar" unicode="|" 
d="M207 403q-13 0 -19 -2v-200q4 -2 19 -2q37 0 50 25t13 77q0 54 -13 78t-50 24zM518 330v-49h-82v-78h96v-49h-155v297h155v-52h-96v-69h82zM203 150q-47 0 -74 4v292q61 9 76 9q67 0 96 -37.5t29 -116.5t-29.5 -115t-97.5 -36zM586 451h80l39 -164l38 164h82
q3 -45 13 -297h-60q0 108 -6 213l-41 -168h-55l-41 168h-2q-4 -140 -4 -213h-58q3 156 15 297zM987 150q-60 0 -84 35.5t-24 115.5q0 81 24 117.5t84 36.5t85.5 -37t25.5 -117q0 -79 -25.5 -115t-85.5 -36zM987 403q-29 0 -39 -23.5t-10 -78.5q0 -54 10 -78t39 -24
q30 0 40.5 24t10.5 78q0 55 -10 78.5t-41 23.5zM967 1016q49 0 79.5 -24.5t39 -51t8.5 -53.5q0 -43 -34.5 -72.5t-72.5 -34.5q-213 -23 -340 -147q3 8 9 22t25 53.5t39 75.5t50 80.5t59.5 76t66 53.5t71.5 22zM285 909q39 0 78 -21t69.5 -55t58.5 -74.5t48 -81.5t35 -75
t22 -55l8 -21q-117 148 -319 148q-49 0 -88 30t-39 76q0 53 33.5 91t93.5 38zM643 1214q38 -37 48.5 -102t-2.5 -131t-31.5 -126.5t-35.5 -98.5l-18 -39q20 191 -125 330q-35 35 -42 81.5t24 83.5q23 23 53 34t65 3.5t64 -35.5z" />
    <glyph glyph-name="braceright" unicode="}" 
d="M207 403q-13 0 -19 -2v-200q4 -2 19 -2q37 0 50 25t13 77q0 54 -13 78t-50 24zM518 330v-49h-82v-78h96v-49h-155v297h155v-52h-96v-69h82zM203 150q-47 0 -74 4v292q61 9 76 9q67 0 96 -37.5t29 -116.5t-29.5 -115t-97.5 -36zM586 451h80l39 -164l38 164h82
q3 -45 13 -297h-60q0 108 -6 213l-41 -168h-55l-41 168h-2q-4 -140 -4 -213h-58q3 156 15 297zM987 150q-60 0 -84 35.5t-24 115.5q0 81 24 117.5t84 36.5t85.5 -37t25.5 -117q0 -79 -25.5 -115t-85.5 -36zM987 403q-29 0 -39 -23.5t-10 -78.5q0 -54 10 -78t39 -24
q30 0 40.5 24t10.5 78q0 55 -10 78.5t-41 23.5zM967 1016q49 0 79.5 -24.5t39 -51t8.5 -53.5q0 -43 -34.5 -72.5t-72.5 -34.5q-213 -23 -340 -147q3 8 9 22t25 53.5t39 75.5t50 80.5t59.5 76t66 53.5t71.5 22zM285 909q39 0 78 -21t69.5 -55t58.5 -74.5t48 -81.5t35 -75
t22 -55l8 -21q-117 148 -319 148q-49 0 -88 30t-39 76q0 53 33.5 91t93.5 38zM643 1214q38 -37 48.5 -102t-2.5 -131t-31.5 -126.5t-35.5 -98.5l-18 -39q20 191 -125 330q-35 35 -42 81.5t24 83.5q23 23 53 34t65 3.5t64 -35.5z" />
    <glyph glyph-name="asciitilde" unicode="~" 
d="M207 403q-13 0 -19 -2v-200q4 -2 19 -2q37 0 50 25t13 77q0 54 -13 78t-50 24zM518 330v-49h-82v-78h96v-49h-155v297h155v-52h-96v-69h82zM203 150q-47 0 -74 4v292q61 9 76 9q67 0 96 -37.5t29 -116.5t-29.5 -115t-97.5 -36zM586 451h80l39 -164l38 164h82
q3 -45 13 -297h-60q0 108 -6 213l-41 -168h-55l-41 168h-2q-4 -140 -4 -213h-58q3 156 15 297zM987 150q-60 0 -84 35.5t-24 115.5q0 81 24 117.5t84 36.5t85.5 -37t25.5 -117q0 -79 -25.5 -115t-85.5 -36zM987 403q-29 0 -39 -23.5t-10 -78.5q0 -54 10 -78t39 -24
q30 0 40.5 24t10.5 78q0 55 -10 78.5t-41 23.5zM967 1016q49 0 79.5 -24.5t39 -51t8.5 -53.5q0 -43 -34.5 -72.5t-72.5 -34.5q-213 -23 -340 -147q3 8 9 22t25 53.5t39 75.5t50 80.5t59.5 76t66 53.5t71.5 22zM285 909q39 0 78 -21t69.5 -55t58.5 -74.5t48 -81.5t35 -75
t22 -55l8 -21q-117 148 -319 148q-49 0 -88 30t-39 76q0 53 33.5 91t93.5 38zM643 1214q38 -37 48.5 -102t-2.5 -131t-31.5 -126.5t-35.5 -98.5l-18 -39q20 191 -125 330q-35 35 -42 81.5t24 83.5q23 23 53 34t65 3.5t64 -35.5z" />
    </font>
</defs>
</svg>
