<?xml version="1.0" standalone="no"?>
<!DOCTYPE svg PUBLIC "-//W3C//DTD SVG 1.1//EN" "http://www.w3.org/Graphics/SVG/1.1/DTD/svg11.dtd" >
<svg xmlns="http://www.w3.org/2000/svg" xmlns:xlink="http://www.w3.org/1999/xlink" version="1.1">
<metadata>
Created by FontForge 20201107 at Mon Mar  9 12:55:24 2026
 By www-data
Copyright  2020 by Connary Fagen. All rights reserved.
</metadata>
<defs>
<font id="FONTSPRINGDEMO-ArticulatCFThinItalic" horiz-adv-x="1224" >
  <font-face 
    font-family="FSP DEMO - Articulat CF Thin"
    font-weight="100"
    font-style="italic"
    font-stretch="normal"
    units-per-em="2048"
    panose-1="0 0 2 0 0 0 0 0 0 0"
    ascent="1638"
    descent="-410"
    x-height="1065"
    cap-height="1434"
    bbox="-197 -428 1991 1466"
    underline-thickness="102"
    underline-position="-204"
    slope="-9"
    unicode-range="U+0020-007E"
  />
<missing-glyph 
d="M207 403q-13 0 -19 -2v-200q4 -2 19 -2q37 0 50 25t13 77q0 54 -13 78t-50 24zM518 330v-49h-82v-78h96v-49h-155v297h155v-52h-96v-69h82zM203 150q-47 0 -74 4v292q61 9 76 9q67 0 96 -37.5t29 -116.5t-29.5 -115t-97.5 -36zM586 451h80l39 -164l38 164h82
q3 -45 13 -297h-60q0 108 -6 213l-41 -168h-55l-41 168h-2q-4 -140 -4 -213h-58q3 156 15 297zM987 150q-60 0 -84 35.5t-24 115.5q0 81 24 117.5t84 36.5t85.5 -37t25.5 -117q0 -79 -25.5 -115t-85.5 -36zM987 403q-29 0 -39 -23.5t-10 -78.5q0 -54 10 -78t39 -24
q30 0 40.5 24t10.5 78q0 55 -10 78.5t-41 23.5zM967 1016q49 0 79.5 -24.5t39 -51t8.5 -53.5q0 -43 -34.5 -72.5t-72.5 -34.5q-213 -23 -340 -147q3 8 9 22t25 53.5t39 75.5t50 80.5t59.5 76t66 53.5t71.5 22zM285 909q39 0 78 -21t69.5 -55t58.5 -74.5t48 -81.5t35 -75
t22 -55l8 -21q-117 148 -319 148q-49 0 -88 30t-39 76q0 53 33.5 91t93.5 38zM643 1214q38 -37 48.5 -102t-2.5 -131t-31.5 -126.5t-35.5 -98.5l-18 -39q20 191 -125 330q-35 35 -42 81.5t24 83.5q23 23 53 34t65 3.5t64 -35.5z" />
    <glyph glyph-name=".notdef" 
d="M207 403q-13 0 -19 -2v-200q4 -2 19 -2q37 0 50 25t13 77q0 54 -13 78t-50 24zM518 330v-49h-82v-78h96v-49h-155v297h155v-52h-96v-69h82zM203 150q-47 0 -74 4v292q61 9 76 9q67 0 96 -37.5t29 -116.5t-29.5 -115t-97.5 -36zM586 451h80l39 -164l38 164h82
q3 -45 13 -297h-60q0 108 -6 213l-41 -168h-55l-41 168h-2q-4 -140 -4 -213h-58q3 156 15 297zM987 150q-60 0 -84 35.5t-24 115.5q0 81 24 117.5t84 36.5t85.5 -37t25.5 -117q0 -79 -25.5 -115t-85.5 -36zM987 403q-29 0 -39 -23.5t-10 -78.5q0 -54 10 -78t39 -24
q30 0 40.5 24t10.5 78q0 55 -10 78.5t-41 23.5zM967 1016q49 0 79.5 -24.5t39 -51t8.5 -53.5q0 -43 -34.5 -72.5t-72.5 -34.5q-213 -23 -340 -147q3 8 9 22t25 53.5t39 75.5t50 80.5t59.5 76t66 53.5t71.5 22zM285 909q39 0 78 -21t69.5 -55t58.5 -74.5t48 -81.5t35 -75
t22 -55l8 -21q-117 148 -319 148q-49 0 -88 30t-39 76q0 53 33.5 91t93.5 38zM643 1214q38 -37 48.5 -102t-2.5 -131t-31.5 -126.5t-35.5 -98.5l-18 -39q20 191 -125 330q-35 35 -42 81.5t24 83.5q23 23 53 34t65 3.5t64 -35.5z" />
    <glyph glyph-name=".null" horiz-adv-x="0" 
 />
    <glyph glyph-name="nonmarkingreturn" horiz-adv-x="682" 
 />
    <glyph glyph-name="space" unicode=" " horiz-adv-x="471" 
 />
    <glyph glyph-name="exclam" unicode="!" 
d="M207 403q-13 0 -19 -2v-200q4 -2 19 -2q37 0 50 25t13 77q0 54 -13 78t-50 24zM518 330v-49h-82v-78h96v-49h-155v297h155v-52h-96v-69h82zM203 150q-47 0 -74 4v292q61 9 76 9q67 0 96 -37.5t29 -116.5t-29.5 -115t-97.5 -36zM586 451h80l39 -164l38 164h82
q3 -45 13 -297h-60q0 108 -6 213l-41 -168h-55l-41 168h-2q-4 -140 -4 -213h-58q3 156 15 297zM987 150q-60 0 -84 35.5t-24 115.5q0 81 24 117.5t84 36.5t85.5 -37t25.5 -117q0 -79 -25.5 -115t-85.5 -36zM987 403q-29 0 -39 -23.5t-10 -78.5q0 -54 10 -78t39 -24
q30 0 40.5 24t10.5 78q0 55 -10 78.5t-41 23.5zM967 1016q49 0 79.5 -24.5t39 -51t8.5 -53.5q0 -43 -34.5 -72.5t-72.5 -34.5q-213 -23 -340 -147q3 8 9 22t25 53.5t39 75.5t50 80.5t59.5 76t66 53.5t71.5 22zM285 909q39 0 78 -21t69.5 -55t58.5 -74.5t48 -81.5t35 -75
t22 -55l8 -21q-117 148 -319 148q-49 0 -88 30t-39 76q0 53 33.5 91t93.5 38zM643 1214q38 -37 48.5 -102t-2.5 -131t-31.5 -126.5t-35.5 -98.5l-18 -39q20 191 -125 330q-35 35 -42 81.5t24 83.5q23 23 53 34t65 3.5t64 -35.5z" />
    <glyph glyph-name="quotedbl" unicode="&#x22;" 
d="M207 403q-13 0 -19 -2v-200q4 -2 19 -2q37 0 50 25t13 77q0 54 -13 78t-50 24zM518 330v-49h-82v-78h96v-49h-155v297h155v-52h-96v-69h82zM203 150q-47 0 -74 4v292q61 9 76 9q67 0 96 -37.5t29 -116.5t-29.5 -115t-97.5 -36zM586 451h80l39 -164l38 164h82
q3 -45 13 -297h-60q0 108 -6 213l-41 -168h-55l-41 168h-2q-4 -140 -4 -213h-58q3 156 15 297zM987 150q-60 0 -84 35.5t-24 115.5q0 81 24 117.5t84 36.5t85.5 -37t25.5 -117q0 -79 -25.5 -115t-85.5 -36zM987 403q-29 0 -39 -23.5t-10 -78.5q0 -54 10 -78t39 -24
q30 0 40.5 24t10.5 78q0 55 -10 78.5t-41 23.5zM967 1016q49 0 79.5 -24.5t39 -51t8.5 -53.5q0 -43 -34.5 -72.5t-72.5 -34.5q-213 -23 -340 -147q3 8 9 22t25 53.5t39 75.5t50 80.5t59.5 76t66 53.5t71.5 22zM285 909q39 0 78 -21t69.5 -55t58.5 -74.5t48 -81.5t35 -75
t22 -55l8 -21q-117 148 -319 148q-49 0 -88 30t-39 76q0 53 33.5 91t93.5 38zM643 1214q38 -37 48.5 -102t-2.5 -131t-31.5 -126.5t-35.5 -98.5l-18 -39q20 191 -125 330q-35 35 -42 81.5t24 83.5q23 23 53 34t65 3.5t64 -35.5z" />
    <glyph glyph-name="numbersign" unicode="#" 
d="M207 403q-13 0 -19 -2v-200q4 -2 19 -2q37 0 50 25t13 77q0 54 -13 78t-50 24zM518 330v-49h-82v-78h96v-49h-155v297h155v-52h-96v-69h82zM203 150q-47 0 -74 4v292q61 9 76 9q67 0 96 -37.5t29 -116.5t-29.5 -115t-97.5 -36zM586 451h80l39 -164l38 164h82
q3 -45 13 -297h-60q0 108 -6 213l-41 -168h-55l-41 168h-2q-4 -140 -4 -213h-58q3 156 15 297zM987 150q-60 0 -84 35.5t-24 115.5q0 81 24 117.5t84 36.5t85.5 -37t25.5 -117q0 -79 -25.5 -115t-85.5 -36zM987 403q-29 0 -39 -23.5t-10 -78.5q0 -54 10 -78t39 -24
q30 0 40.5 24t10.5 78q0 55 -10 78.5t-41 23.5zM967 1016q49 0 79.5 -24.5t39 -51t8.5 -53.5q0 -43 -34.5 -72.5t-72.5 -34.5q-213 -23 -340 -147q3 8 9 22t25 53.5t39 75.5t50 80.5t59.5 76t66 53.5t71.5 22zM285 909q39 0 78 -21t69.5 -55t58.5 -74.5t48 -81.5t35 -75
t22 -55l8 -21q-117 148 -319 148q-49 0 -88 30t-39 76q0 53 33.5 91t93.5 38zM643 1214q38 -37 48.5 -102t-2.5 -131t-31.5 -126.5t-35.5 -98.5l-18 -39q20 191 -125 330q-35 35 -42 81.5t24 83.5q23 23 53 34t65 3.5t64 -35.5z" />
    <glyph glyph-name="dollar" unicode="$" 
d="M207 403q-13 0 -19 -2v-200q4 -2 19 -2q37 0 50 25t13 77q0 54 -13 78t-50 24zM518 330v-49h-82v-78h96v-49h-155v297h155v-52h-96v-69h82zM203 150q-47 0 -74 4v292q61 9 76 9q67 0 96 -37.5t29 -116.5t-29.5 -115t-97.5 -36zM586 451h80l39 -164l38 164h82
q3 -45 13 -297h-60q0 108 -6 213l-41 -168h-55l-41 168h-2q-4 -140 -4 -213h-58q3 156 15 297zM987 150q-60 0 -84 35.5t-24 115.5q0 81 24 117.5t84 36.5t85.5 -37t25.5 -117q0 -79 -25.5 -115t-85.5 -36zM987 403q-29 0 -39 -23.5t-10 -78.5q0 -54 10 -78t39 -24
q30 0 40.5 24t10.5 78q0 55 -10 78.5t-41 23.5zM967 1016q49 0 79.5 -24.5t39 -51t8.5 -53.5q0 -43 -34.5 -72.5t-72.5 -34.5q-213 -23 -340 -147q3 8 9 22t25 53.5t39 75.5t50 80.5t59.5 76t66 53.5t71.5 22zM285 909q39 0 78 -21t69.5 -55t58.5 -74.5t48 -81.5t35 -75
t22 -55l8 -21q-117 148 -319 148q-49 0 -88 30t-39 76q0 53 33.5 91t93.5 38zM643 1214q38 -37 48.5 -102t-2.5 -131t-31.5 -126.5t-35.5 -98.5l-18 -39q20 191 -125 330q-35 35 -42 81.5t24 83.5q23 23 53 34t65 3.5t64 -35.5z" />
    <glyph glyph-name="percent" unicode="%" 
d="M207 403q-13 0 -19 -2v-200q4 -2 19 -2q37 0 50 25t13 77q0 54 -13 78t-50 24zM518 330v-49h-82v-78h96v-49h-155v297h155v-52h-96v-69h82zM203 150q-47 0 -74 4v292q61 9 76 9q67 0 96 -37.5t29 -116.5t-29.5 -115t-97.5 -36zM586 451h80l39 -164l38 164h82
q3 -45 13 -297h-60q0 108 -6 213l-41 -168h-55l-41 168h-2q-4 -140 -4 -213h-58q3 156 15 297zM987 150q-60 0 -84 35.5t-24 115.5q0 81 24 117.5t84 36.5t85.5 -37t25.5 -117q0 -79 -25.5 -115t-85.5 -36zM987 403q-29 0 -39 -23.5t-10 -78.5q0 -54 10 -78t39 -24
q30 0 40.5 24t10.5 78q0 55 -10 78.5t-41 23.5zM967 1016q49 0 79.5 -24.5t39 -51t8.5 -53.5q0 -43 -34.5 -72.5t-72.5 -34.5q-213 -23 -340 -147q3 8 9 22t25 53.5t39 75.5t50 80.5t59.5 76t66 53.5t71.5 22zM285 909q39 0 78 -21t69.5 -55t58.5 -74.5t48 -81.5t35 -75
t22 -55l8 -21q-117 148 -319 148q-49 0 -88 30t-39 76q0 53 33.5 91t93.5 38zM643 1214q38 -37 48.5 -102t-2.5 -131t-31.5 -126.5t-35.5 -98.5l-18 -39q20 191 -125 330q-35 35 -42 81.5t24 83.5q23 23 53 34t65 3.5t64 -35.5z" />
    <glyph glyph-name="ampersand" unicode="&#x26;" 
d="M207 403q-13 0 -19 -2v-200q4 -2 19 -2q37 0 50 25t13 77q0 54 -13 78t-50 24zM518 330v-49h-82v-78h96v-49h-155v297h155v-52h-96v-69h82zM203 150q-47 0 -74 4v292q61 9 76 9q67 0 96 -37.5t29 -116.5t-29.5 -115t-97.5 -36zM586 451h80l39 -164l38 164h82
q3 -45 13 -297h-60q0 108 -6 213l-41 -168h-55l-41 168h-2q-4 -140 -4 -213h-58q3 156 15 297zM987 150q-60 0 -84 35.5t-24 115.5q0 81 24 117.5t84 36.5t85.5 -37t25.5 -117q0 -79 -25.5 -115t-85.5 -36zM987 403q-29 0 -39 -23.5t-10 -78.5q0 -54 10 -78t39 -24
q30 0 40.5 24t10.5 78q0 55 -10 78.5t-41 23.5zM967 1016q49 0 79.5 -24.5t39 -51t8.5 -53.5q0 -43 -34.5 -72.5t-72.5 -34.5q-213 -23 -340 -147q3 8 9 22t25 53.5t39 75.5t50 80.5t59.5 76t66 53.5t71.5 22zM285 909q39 0 78 -21t69.5 -55t58.5 -74.5t48 -81.5t35 -75
t22 -55l8 -21q-117 148 -319 148q-49 0 -88 30t-39 76q0 53 33.5 91t93.5 38zM643 1214q38 -37 48.5 -102t-2.5 -131t-31.5 -126.5t-35.5 -98.5l-18 -39q20 191 -125 330q-35 35 -42 81.5t24 83.5q23 23 53 34t65 3.5t64 -35.5z" />
    <glyph glyph-name="quotesingle" unicode="'" 
d="M207 403q-13 0 -19 -2v-200q4 -2 19 -2q37 0 50 25t13 77q0 54 -13 78t-50 24zM518 330v-49h-82v-78h96v-49h-155v297h155v-52h-96v-69h82zM203 150q-47 0 -74 4v292q61 9 76 9q67 0 96 -37.5t29 -116.5t-29.5 -115t-97.5 -36zM586 451h80l39 -164l38 164h82
q3 -45 13 -297h-60q0 108 -6 213l-41 -168h-55l-41 168h-2q-4 -140 -4 -213h-58q3 156 15 297zM987 150q-60 0 -84 35.5t-24 115.5q0 81 24 117.5t84 36.5t85.5 -37t25.5 -117q0 -79 -25.5 -115t-85.5 -36zM987 403q-29 0 -39 -23.5t-10 -78.5q0 -54 10 -78t39 -24
q30 0 40.5 24t10.5 78q0 55 -10 78.5t-41 23.5zM967 1016q49 0 79.5 -24.5t39 -51t8.5 -53.5q0 -43 -34.5 -72.5t-72.5 -34.5q-213 -23 -340 -147q3 8 9 22t25 53.5t39 75.5t50 80.5t59.5 76t66 53.5t71.5 22zM285 909q39 0 78 -21t69.5 -55t58.5 -74.5t48 -81.5t35 -75
t22 -55l8 -21q-117 148 -319 148q-49 0 -88 30t-39 76q0 53 33.5 91t93.5 38zM643 1214q38 -37 48.5 -102t-2.5 -131t-31.5 -126.5t-35.5 -98.5l-18 -39q20 191 -125 330q-35 35 -42 81.5t24 83.5q23 23 53 34t65 3.5t64 -35.5z" />
    <glyph glyph-name="parenleft" unicode="(" 
d="M207 403q-13 0 -19 -2v-200q4 -2 19 -2q37 0 50 25t13 77q0 54 -13 78t-50 24zM518 330v-49h-82v-78h96v-49h-155v297h155v-52h-96v-69h82zM203 150q-47 0 -74 4v292q61 9 76 9q67 0 96 -37.5t29 -116.5t-29.5 -115t-97.5 -36zM586 451h80l39 -164l38 164h82
q3 -45 13 -297h-60q0 108 -6 213l-41 -168h-55l-41 168h-2q-4 -140 -4 -213h-58q3 156 15 297zM987 150q-60 0 -84 35.5t-24 115.5q0 81 24 117.5t84 36.5t85.5 -37t25.5 -117q0 -79 -25.5 -115t-85.5 -36zM987 403q-29 0 -39 -23.5t-10 -78.5q0 -54 10 -78t39 -24
q30 0 40.5 24t10.5 78q0 55 -10 78.5t-41 23.5zM967 1016q49 0 79.5 -24.5t39 -51t8.5 -53.5q0 -43 -34.5 -72.5t-72.5 -34.5q-213 -23 -340 -147q3 8 9 22t25 53.5t39 75.5t50 80.5t59.5 76t66 53.5t71.5 22zM285 909q39 0 78 -21t69.5 -55t58.5 -74.5t48 -81.5t35 -75
t22 -55l8 -21q-117 148 -319 148q-49 0 -88 30t-39 76q0 53 33.5 91t93.5 38zM643 1214q38 -37 48.5 -102t-2.5 -131t-31.5 -126.5t-35.5 -98.5l-18 -39q20 191 -125 330q-35 35 -42 81.5t24 83.5q23 23 53 34t65 3.5t64 -35.5z" />
    <glyph glyph-name="parenright" unicode=")" 
d="M207 403q-13 0 -19 -2v-200q4 -2 19 -2q37 0 50 25t13 77q0 54 -13 78t-50 24zM518 330v-49h-82v-78h96v-49h-155v297h155v-52h-96v-69h82zM203 150q-47 0 -74 4v292q61 9 76 9q67 0 96 -37.5t29 -116.5t-29.5 -115t-97.5 -36zM586 451h80l39 -164l38 164h82
q3 -45 13 -297h-60q0 108 -6 213l-41 -168h-55l-41 168h-2q-4 -140 -4 -213h-58q3 156 15 297zM987 150q-60 0 -84 35.5t-24 115.5q0 81 24 117.5t84 36.5t85.5 -37t25.5 -117q0 -79 -25.5 -115t-85.5 -36zM987 403q-29 0 -39 -23.5t-10 -78.5q0 -54 10 -78t39 -24
q30 0 40.5 24t10.5 78q0 55 -10 78.5t-41 23.5zM967 1016q49 0 79.5 -24.5t39 -51t8.5 -53.5q0 -43 -34.5 -72.5t-72.5 -34.5q-213 -23 -340 -147q3 8 9 22t25 53.5t39 75.5t50 80.5t59.5 76t66 53.5t71.5 22zM285 909q39 0 78 -21t69.5 -55t58.5 -74.5t48 -81.5t35 -75
t22 -55l8 -21q-117 148 -319 148q-49 0 -88 30t-39 76q0 53 33.5 91t93.5 38zM643 1214q38 -37 48.5 -102t-2.5 -131t-31.5 -126.5t-35.5 -98.5l-18 -39q20 191 -125 330q-35 35 -42 81.5t24 83.5q23 23 53 34t65 3.5t64 -35.5z" />
    <glyph glyph-name="asterisk" unicode="*" 
d="M207 403q-13 0 -19 -2v-200q4 -2 19 -2q37 0 50 25t13 77q0 54 -13 78t-50 24zM518 330v-49h-82v-78h96v-49h-155v297h155v-52h-96v-69h82zM203 150q-47 0 -74 4v292q61 9 76 9q67 0 96 -37.5t29 -116.5t-29.5 -115t-97.5 -36zM586 451h80l39 -164l38 164h82
q3 -45 13 -297h-60q0 108 -6 213l-41 -168h-55l-41 168h-2q-4 -140 -4 -213h-58q3 156 15 297zM987 150q-60 0 -84 35.5t-24 115.5q0 81 24 117.5t84 36.5t85.5 -37t25.5 -117q0 -79 -25.5 -115t-85.5 -36zM987 403q-29 0 -39 -23.5t-10 -78.5q0 -54 10 -78t39 -24
q30 0 40.5 24t10.5 78q0 55 -10 78.5t-41 23.5zM967 1016q49 0 79.5 -24.5t39 -51t8.5 -53.5q0 -43 -34.5 -72.5t-72.5 -34.5q-213 -23 -340 -147q3 8 9 22t25 53.5t39 75.5t50 80.5t59.5 76t66 53.5t71.5 22zM285 909q39 0 78 -21t69.5 -55t58.5 -74.5t48 -81.5t35 -75
t22 -55l8 -21q-117 148 -319 148q-49 0 -88 30t-39 76q0 53 33.5 91t93.5 38zM643 1214q38 -37 48.5 -102t-2.5 -131t-31.5 -126.5t-35.5 -98.5l-18 -39q20 191 -125 330q-35 35 -42 81.5t24 83.5q23 23 53 34t65 3.5t64 -35.5z" />
    <glyph glyph-name="plus" unicode="+" 
d="M207 403q-13 0 -19 -2v-200q4 -2 19 -2q37 0 50 25t13 77q0 54 -13 78t-50 24zM518 330v-49h-82v-78h96v-49h-155v297h155v-52h-96v-69h82zM203 150q-47 0 -74 4v292q61 9 76 9q67 0 96 -37.5t29 -116.5t-29.5 -115t-97.5 -36zM586 451h80l39 -164l38 164h82
q3 -45 13 -297h-60q0 108 -6 213l-41 -168h-55l-41 168h-2q-4 -140 -4 -213h-58q3 156 15 297zM987 150q-60 0 -84 35.5t-24 115.5q0 81 24 117.5t84 36.5t85.5 -37t25.5 -117q0 -79 -25.5 -115t-85.5 -36zM987 403q-29 0 -39 -23.5t-10 -78.5q0 -54 10 -78t39 -24
q30 0 40.5 24t10.5 78q0 55 -10 78.5t-41 23.5zM967 1016q49 0 79.5 -24.5t39 -51t8.5 -53.5q0 -43 -34.5 -72.5t-72.5 -34.5q-213 -23 -340 -147q3 8 9 22t25 53.5t39 75.5t50 80.5t59.5 76t66 53.5t71.5 22zM285 909q39 0 78 -21t69.5 -55t58.5 -74.5t48 -81.5t35 -75
t22 -55l8 -21q-117 148 -319 148q-49 0 -88 30t-39 76q0 53 33.5 91t93.5 38zM643 1214q38 -37 48.5 -102t-2.5 -131t-31.5 -126.5t-35.5 -98.5l-18 -39q20 191 -125 330q-35 35 -42 81.5t24 83.5q23 23 53 34t65 3.5t64 -35.5z" />
    <glyph glyph-name="comma" unicode="," horiz-adv-x="331" 
d="M-14 -172l6 47h18q33 0 56.5 28.5t23.5 73.5q-32 0 -52 15.5t-20 46.5q0 28 18.5 47.5t47.5 19.5t47.5 -22.5t18.5 -63.5q0 -68 -40.5 -130t-105.5 -62h-18z" />
    <glyph glyph-name="hyphen" unicode="-" 
d="M207 403q-13 0 -19 -2v-200q4 -2 19 -2q37 0 50 25t13 77q0 54 -13 78t-50 24zM518 330v-49h-82v-78h96v-49h-155v297h155v-52h-96v-69h82zM203 150q-47 0 -74 4v292q61 9 76 9q67 0 96 -37.5t29 -116.5t-29.5 -115t-97.5 -36zM586 451h80l39 -164l38 164h82
q3 -45 13 -297h-60q0 108 -6 213l-41 -168h-55l-41 168h-2q-4 -140 -4 -213h-58q3 156 15 297zM987 150q-60 0 -84 35.5t-24 115.5q0 81 24 117.5t84 36.5t85.5 -37t25.5 -117q0 -79 -25.5 -115t-85.5 -36zM987 403q-29 0 -39 -23.5t-10 -78.5q0 -54 10 -78t39 -24
q30 0 40.5 24t10.5 78q0 55 -10 78.5t-41 23.5zM967 1016q49 0 79.5 -24.5t39 -51t8.5 -53.5q0 -43 -34.5 -72.5t-72.5 -34.5q-213 -23 -340 -147q3 8 9 22t25 53.5t39 75.5t50 80.5t59.5 76t66 53.5t71.5 22zM285 909q39 0 78 -21t69.5 -55t58.5 -74.5t48 -81.5t35 -75
t22 -55l8 -21q-117 148 -319 148q-49 0 -88 30t-39 76q0 53 33.5 91t93.5 38zM643 1214q38 -37 48.5 -102t-2.5 -131t-31.5 -126.5t-35.5 -98.5l-18 -39q20 191 -125 330q-35 35 -42 81.5t24 83.5q23 23 53 34t65 3.5t64 -35.5z" />
    <glyph glyph-name="period" unicode="." horiz-adv-x="317" 
d="M80 -20q-25 0 -43.5 18.5t-18.5 44.5q0 25 18.5 44t43.5 19q26 0 44.5 -19t18.5 -44q0 -26 -18.5 -44.5t-44.5 -18.5z" />
    <glyph glyph-name="slash" unicode="/" 
d="M207 403q-13 0 -19 -2v-200q4 -2 19 -2q37 0 50 25t13 77q0 54 -13 78t-50 24zM518 330v-49h-82v-78h96v-49h-155v297h155v-52h-96v-69h82zM203 150q-47 0 -74 4v292q61 9 76 9q67 0 96 -37.5t29 -116.5t-29.5 -115t-97.5 -36zM586 451h80l39 -164l38 164h82
q3 -45 13 -297h-60q0 108 -6 213l-41 -168h-55l-41 168h-2q-4 -140 -4 -213h-58q3 156 15 297zM987 150q-60 0 -84 35.5t-24 115.5q0 81 24 117.5t84 36.5t85.5 -37t25.5 -117q0 -79 -25.5 -115t-85.5 -36zM987 403q-29 0 -39 -23.5t-10 -78.5q0 -54 10 -78t39 -24
q30 0 40.5 24t10.5 78q0 55 -10 78.5t-41 23.5zM967 1016q49 0 79.5 -24.5t39 -51t8.5 -53.5q0 -43 -34.5 -72.5t-72.5 -34.5q-213 -23 -340 -147q3 8 9 22t25 53.5t39 75.5t50 80.5t59.5 76t66 53.5t71.5 22zM285 909q39 0 78 -21t69.5 -55t58.5 -74.5t48 -81.5t35 -75
t22 -55l8 -21q-117 148 -319 148q-49 0 -88 30t-39 76q0 53 33.5 91t93.5 38zM643 1214q38 -37 48.5 -102t-2.5 -131t-31.5 -126.5t-35.5 -98.5l-18 -39q20 191 -125 330q-35 35 -42 81.5t24 83.5q23 23 53 34t65 3.5t64 -35.5z" />
    <glyph glyph-name="zero" unicode="0" horiz-adv-x="1263" 
d="M539 -20q-207 0 -316.5 145t-109.5 410q0 136 27.5 268t84 249t134.5 206.5t187 141.5t234 52q207 0 317.5 -145.5t110.5 -407.5q0 -136 -28 -268.5t-85 -250t-135.5 -207t-187 -141.5t-233.5 -52zM549 29q96 0 182.5 36.5t152.5 99.5t119 147.5t86.5 182t51.5 200
t18 204.5q0 247 -102.5 375.5t-288.5 128.5q-115 0 -214.5 -52t-170 -138.5t-121 -199.5t-74.5 -235.5t-24 -245.5q0 -247 100.5 -375t284.5 -128z" />
    <glyph glyph-name="one" unicode="1" horiz-adv-x="538" 
d="M233 0l211 1331q-37 -44 -98.5 -82t-142.5 -41l8 49q80 4 155 61t95 116h53l-227 -1434h-54z" />
    <glyph glyph-name="two" unicode="2" horiz-adv-x="1058" 
d="M-2 0l8 49q14 93 49.5 167.5t101 142t149 126t210.5 131.5q76 43 122 70.5t104 66t92.5 70.5t69 72.5t52.5 85t25 94.5q21 145 -64 236.5t-251 91.5q-170 0 -289.5 -100.5t-145.5 -276.5l-4 -29h-57l6 33q35 193 169 307.5t323 114.5q192 0 292 -111t72 -278
q-9 -53 -28 -100t-52.5 -88.5t-69.5 -76.5t-92.5 -73.5t-106.5 -69t-126 -73.5q-110 -62 -185 -112.5t-146 -114t-110.5 -134t-47.5 -149.5l-2 -21h825l-8 -51h-885z" />
    <glyph glyph-name="three" unicode="3" horiz-adv-x="1140" 
d="M477 -20q-222 0 -329.5 125t-77.5 329h51q-26 -179 68 -291t296 -112q209 0 354.5 120.5t145.5 301.5q0 150 -106.5 227.5t-298.5 77.5h-43l6 55h39q189 0 305.5 92.5t116.5 243.5q0 121 -77.5 186.5t-228.5 65.5q-84 0 -155.5 -22t-130 -67t-97 -120.5t-51.5 -175.5h-53
q16 112 60 197t108.5 136.5t143.5 77t173 25.5q177 0 269 -80.5t92 -214.5q0 -129 -82 -227.5t-221 -138.5q131 -27 207.5 -111t76.5 -219q0 -136 -76 -247t-204.5 -172.5t-280.5 -61.5z" />
    <glyph glyph-name="four" unicode="4" 
d="M207 403q-13 0 -19 -2v-200q4 -2 19 -2q37 0 50 25t13 77q0 54 -13 78t-50 24zM518 330v-49h-82v-78h96v-49h-155v297h155v-52h-96v-69h82zM203 150q-47 0 -74 4v292q61 9 76 9q67 0 96 -37.5t29 -116.5t-29.5 -115t-97.5 -36zM586 451h80l39 -164l38 164h82
q3 -45 13 -297h-60q0 108 -6 213l-41 -168h-55l-41 168h-2q-4 -140 -4 -213h-58q3 156 15 297zM987 150q-60 0 -84 35.5t-24 115.5q0 81 24 117.5t84 36.5t85.5 -37t25.5 -117q0 -79 -25.5 -115t-85.5 -36zM987 403q-29 0 -39 -23.5t-10 -78.5q0 -54 10 -78t39 -24
q30 0 40.5 24t10.5 78q0 55 -10 78.5t-41 23.5zM967 1016q49 0 79.5 -24.5t39 -51t8.5 -53.5q0 -43 -34.5 -72.5t-72.5 -34.5q-213 -23 -340 -147q3 8 9 22t25 53.5t39 75.5t50 80.5t59.5 76t66 53.5t71.5 22zM285 909q39 0 78 -21t69.5 -55t58.5 -74.5t48 -81.5t35 -75
t22 -55l8 -21q-117 148 -319 148q-49 0 -88 30t-39 76q0 53 33.5 91t93.5 38zM643 1214q38 -37 48.5 -102t-2.5 -131t-31.5 -126.5t-35.5 -98.5l-18 -39q20 191 -125 330q-35 35 -42 81.5t24 83.5q23 23 53 34t65 3.5t64 -35.5z" />
    <glyph glyph-name="five" unicode="5" horiz-adv-x="1128" 
d="M489 -20q-213 0 -319.5 122t-83.5 312h51q-21 -165 74 -275t287 -110q113 0 208.5 44t158 117t97.5 166.5t35 194.5q0 168 -92 263t-262 95q-236 0 -397 -182h-66l228 707h677l-10 -45h-635l-196 -611q81 91 186.5 135.5t218.5 44.5q179 0 289.5 -104.5t110.5 -300.5
q0 -156 -69 -286.5t-198 -208.5t-293 -78z" />
    <glyph glyph-name="six" unicode="6" horiz-adv-x="1155" 
d="M1092 1128h-48q5 50 -8.5 96.5t-46.5 87.5t-96.5 66t-149.5 25q-126 0 -224 -54t-166 -158.5t-112 -243t-71 -322.5q29 76 73.5 135.5t94 96.5t107.5 61t111 33.5t108 9.5q190 0 290.5 -109.5t100.5 -294.5q0 -155 -67.5 -286t-194.5 -211t-287 -80q-197 0 -296 120.5
t-99 352.5q0 103 18 229q18 116 44.5 215.5t76 205.5t113.5 180t162 121.5t218 47.5q169 0 261 -82t92 -201q0 -21 -4 -41zM655 909q-144 0 -257 -70t-172.5 -185t-59.5 -253q0 -168 91 -270t261 -102q109 0 202 45.5t153 120t94 169.5t34 195q0 165 -89.5 257.5
t-256.5 92.5z" />
    <glyph glyph-name="seven" unicode="7" horiz-adv-x="950" 
d="M199 0q174 642 755 1384h-757l8 50h817l-6 -50q-587 -738 -758 -1384h-59z" />
    <glyph glyph-name="eight" unicode="8" horiz-adv-x="1150" 
d="M485 -20q-193 0 -308.5 96t-115.5 266q0 162 107.5 284.5t288.5 172.5q-87 33 -140 101.5t-53 166.5q0 156 126.5 270.5t330.5 114.5q171 0 261.5 -80.5t90.5 -210.5q0 -129 -85 -225.5t-208 -136.5q124 -39 196.5 -125t72.5 -217q0 -138 -76.5 -248t-205 -169.5
t-282.5 -59.5zM618 819q175 0 289.5 95t114.5 245q0 116 -79 181t-228 65q-174 0 -289 -93t-115 -239q0 -118 82 -186t225 -68zM494 29q137 0 249.5 50t181 148t68.5 226q0 149 -99.5 233t-281.5 84q-216 0 -357.5 -120.5t-141.5 -305.5q0 -153 103.5 -234t277.5 -81z" />
    <glyph glyph-name="nine" unicode="9" horiz-adv-x="1155" 
d="M707 1450q197 0 296 -120.5t99 -352.5q0 -96 -19 -229q-13 -81 -29.5 -153.5t-43.5 -152t-60.5 -145.5t-82 -126.5t-105.5 -102t-132.5 -66.5t-162.5 -25q-168 0 -259 82t-91 201q0 21 4 41h47q-6 -49 8 -96t47 -87.5t96.5 -65.5t149.5 -25q126 0 223.5 54t165.5 158.5
t112.5 243t71.5 322.5q-36 -94 -94 -162.5t-126.5 -104.5t-135.5 -52.5t-137 -16.5q-190 0 -290.5 109t-100.5 294q0 155 67 286t194 211.5t288 80.5zM557 520q144 0 257.5 70t173 185.5t59.5 252.5q0 168 -92 270.5t-261 102.5q-109 0 -202 -45.5t-153 -120.5t-94 -170
t-34 -195q0 -165 89 -257.5t257 -92.5z" />
    <glyph glyph-name="colon" unicode=":" horiz-adv-x="321" 
d="M233 938q-26 0 -43.5 19t-17.5 44q0 27 17.5 45.5t43.5 18.5t44 -19t18 -45q0 -25 -18 -44t-44 -19zM84 -20q-26 0 -45 18.5t-19 44.5q0 25 19 44t45 19q25 0 43 -19t18 -44q0 -26 -18 -44.5t-43 -18.5z" />
    <glyph glyph-name="semicolon" unicode=";" horiz-adv-x="331" 
d="M233 938q-26 0 -43.5 19t-17.5 44q0 27 17.5 45.5t43.5 18.5t44 -19t18 -45q0 -25 -18 -44t-44 -19zM-14 -172l6 47h18q33 0 56.5 28.5t23.5 73.5q-32 0 -52 15.5t-20 46.5q0 28 18.5 47.5t47.5 19.5t47.5 -22.5t18.5 -63.5q0 -68 -40.5 -130t-105.5 -62h-18z" />
    <glyph glyph-name="less" unicode="&#x3c;" 
d="M207 403q-13 0 -19 -2v-200q4 -2 19 -2q37 0 50 25t13 77q0 54 -13 78t-50 24zM518 330v-49h-82v-78h96v-49h-155v297h155v-52h-96v-69h82zM203 150q-47 0 -74 4v292q61 9 76 9q67 0 96 -37.5t29 -116.5t-29.5 -115t-97.5 -36zM586 451h80l39 -164l38 164h82
q3 -45 13 -297h-60q0 108 -6 213l-41 -168h-55l-41 168h-2q-4 -140 -4 -213h-58q3 156 15 297zM987 150q-60 0 -84 35.5t-24 115.5q0 81 24 117.5t84 36.5t85.5 -37t25.5 -117q0 -79 -25.5 -115t-85.5 -36zM987 403q-29 0 -39 -23.5t-10 -78.5q0 -54 10 -78t39 -24
q30 0 40.5 24t10.5 78q0 55 -10 78.5t-41 23.5zM967 1016q49 0 79.5 -24.5t39 -51t8.5 -53.5q0 -43 -34.5 -72.5t-72.5 -34.5q-213 -23 -340 -147q3 8 9 22t25 53.5t39 75.5t50 80.5t59.5 76t66 53.5t71.5 22zM285 909q39 0 78 -21t69.5 -55t58.5 -74.5t48 -81.5t35 -75
t22 -55l8 -21q-117 148 -319 148q-49 0 -88 30t-39 76q0 53 33.5 91t93.5 38zM643 1214q38 -37 48.5 -102t-2.5 -131t-31.5 -126.5t-35.5 -98.5l-18 -39q20 191 -125 330q-35 35 -42 81.5t24 83.5q23 23 53 34t65 3.5t64 -35.5z" />
    <glyph glyph-name="equal" unicode="=" 
d="M207 403q-13 0 -19 -2v-200q4 -2 19 -2q37 0 50 25t13 77q0 54 -13 78t-50 24zM518 330v-49h-82v-78h96v-49h-155v297h155v-52h-96v-69h82zM203 150q-47 0 -74 4v292q61 9 76 9q67 0 96 -37.5t29 -116.5t-29.5 -115t-97.5 -36zM586 451h80l39 -164l38 164h82
q3 -45 13 -297h-60q0 108 -6 213l-41 -168h-55l-41 168h-2q-4 -140 -4 -213h-58q3 156 15 297zM987 150q-60 0 -84 35.5t-24 115.5q0 81 24 117.5t84 36.5t85.5 -37t25.5 -117q0 -79 -25.5 -115t-85.5 -36zM987 403q-29 0 -39 -23.5t-10 -78.5q0 -54 10 -78t39 -24
q30 0 40.5 24t10.5 78q0 55 -10 78.5t-41 23.5zM967 1016q49 0 79.5 -24.5t39 -51t8.5 -53.5q0 -43 -34.5 -72.5t-72.5 -34.5q-213 -23 -340 -147q3 8 9 22t25 53.5t39 75.5t50 80.5t59.5 76t66 53.5t71.5 22zM285 909q39 0 78 -21t69.5 -55t58.5 -74.5t48 -81.5t35 -75
t22 -55l8 -21q-117 148 -319 148q-49 0 -88 30t-39 76q0 53 33.5 91t93.5 38zM643 1214q38 -37 48.5 -102t-2.5 -131t-31.5 -126.5t-35.5 -98.5l-18 -39q20 191 -125 330q-35 35 -42 81.5t24 83.5q23 23 53 34t65 3.5t64 -35.5z" />
    <glyph glyph-name="greater" unicode="&#x3e;" 
d="M207 403q-13 0 -19 -2v-200q4 -2 19 -2q37 0 50 25t13 77q0 54 -13 78t-50 24zM518 330v-49h-82v-78h96v-49h-155v297h155v-52h-96v-69h82zM203 150q-47 0 -74 4v292q61 9 76 9q67 0 96 -37.5t29 -116.5t-29.5 -115t-97.5 -36zM586 451h80l39 -164l38 164h82
q3 -45 13 -297h-60q0 108 -6 213l-41 -168h-55l-41 168h-2q-4 -140 -4 -213h-58q3 156 15 297zM987 150q-60 0 -84 35.5t-24 115.5q0 81 24 117.5t84 36.5t85.5 -37t25.5 -117q0 -79 -25.5 -115t-85.5 -36zM987 403q-29 0 -39 -23.5t-10 -78.5q0 -54 10 -78t39 -24
q30 0 40.5 24t10.5 78q0 55 -10 78.5t-41 23.5zM967 1016q49 0 79.5 -24.5t39 -51t8.5 -53.5q0 -43 -34.5 -72.5t-72.5 -34.5q-213 -23 -340 -147q3 8 9 22t25 53.5t39 75.5t50 80.5t59.5 76t66 53.5t71.5 22zM285 909q39 0 78 -21t69.5 -55t58.5 -74.5t48 -81.5t35 -75
t22 -55l8 -21q-117 148 -319 148q-49 0 -88 30t-39 76q0 53 33.5 91t93.5 38zM643 1214q38 -37 48.5 -102t-2.5 -131t-31.5 -126.5t-35.5 -98.5l-18 -39q20 191 -125 330q-35 35 -42 81.5t24 83.5q23 23 53 34t65 3.5t64 -35.5z" />
    <glyph glyph-name="question" unicode="?" horiz-adv-x="1003" 
d="M438 344l17 115q11 68 41 123t70.5 92t87 69.5t93.5 64.5t87.5 68t70.5 88.5t41 118.5q10 64 0 116.5t-37 89t-68 61t-91 36t-107 11.5q-78 0 -146 -21.5t-125 -65.5t-96.5 -118.5t-52.5 -173.5h-53q24 197 150 313.5t325 116.5q184 0 282 -97.5t72 -269.5
q-11 -70 -42 -127.5t-71.5 -95.5t-87.5 -71.5t-94 -65.5t-87 -66.5t-69 -84.5t-38 -111l-18 -115h-54zM428 -20q-25 0 -43 18.5t-18 44.5q0 25 18 44t43 19q26 0 45 -19t19 -44q0 -26 -19 -44.5t-45 -18.5z" />
    <glyph glyph-name="at" unicode="@" 
d="M207 403q-13 0 -19 -2v-200q4 -2 19 -2q37 0 50 25t13 77q0 54 -13 78t-50 24zM518 330v-49h-82v-78h96v-49h-155v297h155v-52h-96v-69h82zM203 150q-47 0 -74 4v292q61 9 76 9q67 0 96 -37.5t29 -116.5t-29.5 -115t-97.5 -36zM586 451h80l39 -164l38 164h82
q3 -45 13 -297h-60q0 108 -6 213l-41 -168h-55l-41 168h-2q-4 -140 -4 -213h-58q3 156 15 297zM987 150q-60 0 -84 35.5t-24 115.5q0 81 24 117.5t84 36.5t85.5 -37t25.5 -117q0 -79 -25.5 -115t-85.5 -36zM987 403q-29 0 -39 -23.5t-10 -78.5q0 -54 10 -78t39 -24
q30 0 40.5 24t10.5 78q0 55 -10 78.5t-41 23.5zM967 1016q49 0 79.5 -24.5t39 -51t8.5 -53.5q0 -43 -34.5 -72.5t-72.5 -34.5q-213 -23 -340 -147q3 8 9 22t25 53.5t39 75.5t50 80.5t59.5 76t66 53.5t71.5 22zM285 909q39 0 78 -21t69.5 -55t58.5 -74.5t48 -81.5t35 -75
t22 -55l8 -21q-117 148 -319 148q-49 0 -88 30t-39 76q0 53 33.5 91t93.5 38zM643 1214q38 -37 48.5 -102t-2.5 -131t-31.5 -126.5t-35.5 -98.5l-18 -39q20 191 -125 330q-35 35 -42 81.5t24 83.5q23 23 53 34t65 3.5t64 -35.5z" />
    <glyph glyph-name="A" unicode="A" horiz-adv-x="1308" 
d="M1110 0l-100 432h-738l-239 -432h-62l799 1434h55l344 -1434h-59zM301 483h696l-204 875h-7z" />
    <glyph glyph-name="B" unicode="B" horiz-adv-x="1183" 
d="M43 0l227 1434h498q177 0 261.5 -79t84.5 -210q0 -130 -78 -228.5t-215 -134.5q269 -57 269 -327q0 -211 -151.5 -333t-401.5 -122h-494zM227 809h432q186 0 291 94t105 250q0 116 -69.5 171.5t-231.5 55.5h-435zM106 53h431q224 0 358.5 109t134.5 295q0 299 -379 299
h-432z" />
    <glyph glyph-name="C" unicode="C" horiz-adv-x="1310" 
d="M657 -20q-119 0 -216 35t-170 105t-113.5 182.5t-40.5 260.5q0 139 32 269.5t95.5 243t152.5 196.5t210.5 132t260.5 48q203 0 327.5 -98.5t141.5 -274.5h-53q-17 152 -127 237t-291 85q-129 0 -241.5 -46t-195 -126t-141.5 -186t-88.5 -228.5t-29.5 -251.5
q0 -137 37 -241.5t104 -166.5t153 -93t191 -31q181 0 311.5 86t196.5 237h58q-73 -182 -219 -278t-345 -96z" />
    <glyph glyph-name="D" unicode="D" horiz-adv-x="1300" 
d="M43 0l227 1434h396q293 0 434 -142t141 -438q0 -181 -52.5 -336.5t-152 -271t-252 -181t-342.5 -65.5h-399zM106 53h340q179 0 322 62.5t234.5 172t139.5 255t48 315.5q0 273 -127.5 397.5t-392.5 124.5h-353z" />
    <glyph glyph-name="E" unicode="E" horiz-adv-x="1079" 
d="M43 0l227 1434h856l-10 -54h-799l-94 -608h738l-9 -55h-737l-109 -664h820l-6 -53h-877z" />
    <glyph glyph-name="F" unicode="F" horiz-adv-x="1071" 
d="M43 0l227 1434h883l-10 -54h-826l-100 -630h674l-6 -56h-674l-111 -694h-57z" />
    <glyph glyph-name="G" unicode="G" horiz-adv-x="1400" 
d="M653 -20q-247 0 -390.5 149t-143.5 451q0 138 31.5 266t94.5 238.5t152 192.5t211 128.5t264 46.5q196 0 309 -83t142 -234h-49q-71 266 -397 266q-135 0 -251 -45.5t-198.5 -124.5t-141.5 -184.5t-87.5 -226.5t-28.5 -251q0 -278 125.5 -408t351.5 -130q253 0 412 157.5
t203 454.5l-428 -2l6 49h479l-8 -67q-52 -314 -221 -478.5t-437 -164.5z" />
    <glyph glyph-name="H" unicode="H" horiz-adv-x="1271" 
d="M1231 1434h57l-227 -1434h-57l106 668h-903l-107 -668h-57l227 1434h58l-113 -717h903z" />
    <glyph glyph-name="I" unicode="I" horiz-adv-x="311" 
d="M43 0l227 1434h58l-228 -1434h-57z" />
    <glyph glyph-name="J" unicode="J" horiz-adv-x="1292" 
d="M571 -20q-244 0 -364.5 150.5t-77.5 410.5h55q-38 -240 68.5 -374t327.5 -134q214 0 353 132.5t177 373.5l141 895h58l-142 -893q-43 -263 -198.5 -412t-397.5 -149z" />
    <glyph glyph-name="K" unicode="K" horiz-adv-x="1189" 
d="M1231 1434l-742 -678l562 -756h-72l-530 719l-275 -252l-74 -467h-57l227 1434h58l-142 -891l967 891h78z" />
    <glyph glyph-name="L" unicode="L" horiz-adv-x="1054" 
d="M43 0l227 1434h58l-222 -1381h795l-6 -53h-852z" />
    <glyph glyph-name="M" unicode="M" horiz-adv-x="1671" 
d="M43 0l227 1434h56l434 -1377l868 1377h60l-228 -1434h-57l205 1300h-2l-815 -1300h-70l-414 1300h-2l-205 -1300h-57z" />
    <glyph glyph-name="N" unicode="N" horiz-adv-x="1296" 
d="M43 0l227 1434h82l684 -1366h4l215 1366h58l-228 -1434h-81l-685 1370h-2l-217 -1370h-57z" />
    <glyph glyph-name="O" unicode="O" horiz-adv-x="1441" 
d="M641 -20q-115 0 -208.5 34t-165 103t-111 182.5t-39.5 263.5q0 138 31.5 268.5t94.5 243t151 197t207.5 132.5t256.5 48q91 0 169.5 -21.5t144.5 -67.5t113 -114t73 -166t26 -219q0 -136 -32 -265.5t-95.5 -241.5t-151.5 -196t-208 -132.5t-256 -48.5zM643 31
q128 0 240 46.5t193.5 126.5t140 186t87.5 227t29 247q0 138 -36 242.5t-101 168t-149.5 95t-188.5 31.5q-129 0 -241 -46.5t-193.5 -127t-139.5 -187t-87 -228.5t-29 -249q0 -136 35.5 -239.5t100.5 -167t150 -94.5t189 -31z" />
    <glyph glyph-name="P" unicode="P" horiz-adv-x="1148" 
d="M43 0l227 1434h473q200 0 305 -88t105 -265q0 -215 -148 -342t-393 -127h-415l-97 -612h-57zM205 666h416q223 0 350 111t127 300q0 303 -367 303h-414z" />
    <glyph glyph-name="Q" unicode="Q" horiz-adv-x="1439" 
d="M1384 864q0 -197 -66.5 -376t-189.5 -304l134 -161l-39 -37l-133 161q-191 -167 -449 -167q-115 0 -208.5 34t-165 103t-111 182.5t-39.5 263.5q0 138 31.5 268.5t94.5 243t151 197t207.5 132.5t256.5 48q91 0 169.5 -21.5t144.5 -67.5t113 -114t73 -166t26 -219zM643 31
q238 0 414 155l-271 326l39 37l271 -326q114 118 175.5 287.5t61.5 353.5q0 138 -36 242.5t-101 168t-149.5 95t-188.5 31.5q-129 0 -241 -46.5t-193.5 -127t-139.5 -187t-87 -228.5t-29 -249q0 -136 35.5 -239.5t100.5 -167t150 -94.5t189 -31z" />
    <glyph glyph-name="R" unicode="R" horiz-adv-x="1159" 
d="M1153 1081q0 -190 -116.5 -311.5t-315.5 -148.5l278 -621h-59l-276 614q-16 -2 -52 -2h-415l-97 -612h-57l227 1434h473q200 0 305 -88t105 -265zM621 666q223 0 350 111t127 300q0 303 -367 303h-414l-112 -714h416z" />
    <glyph glyph-name="S" unicode="S" horiz-adv-x="1189" 
d="M520 -20q-124 0 -218 32t-147.5 87t-75.5 125.5t-9 150.5h51q-14 -151 88 -246.5t317 -95.5q222 0 354 106t132 277q0 55 -16 98.5t-41 72.5t-65.5 51.5t-81 36t-95.5 25.5l-170 37q-318 73 -318 326q0 177 136.5 283t359.5 106q214 0 323.5 -96t88.5 -238h-50
q3 55 -15.5 103.5t-60 89.5t-116 64.5t-174.5 23.5q-199 0 -317.5 -93t-118.5 -247q0 -109 70.5 -174.5t217.5 -96.5l172 -38q57 -13 101.5 -28.5t88.5 -42t73 -61t47 -85.5t18 -115q0 -200 -151.5 -319t-397.5 -119z" />
    <glyph glyph-name="T" unicode="T" horiz-adv-x="1150" 
d="M463 0l219 1380h-483l10 54h1020l-8 -54h-484l-217 -1380h-57z" />
    <glyph glyph-name="U" unicode="U" horiz-adv-x="1290" 
d="M565 -20q-244 0 -360 150.5t-76 410.5l141 893h56l-142 -895q-38 -241 65.5 -373.5t323.5 -132.5q219 0 358.5 132t176.5 374l143 895h56l-142 -893q-40 -262 -198 -411.5t-402 -149.5z" />
    <glyph glyph-name="V" unicode="V" horiz-adv-x="1329" 
d="M553 0l-344 1434h59l320 -1358h4l754 1358h61l-799 -1434h-55z" />
    <glyph glyph-name="W" unicode="W" horiz-adv-x="1912" 
d="M375 0l-166 1434h57l154 -1358h4l639 1358h70l210 -1358h5l583 1358h60l-619 -1434h-72l-213 1358l-641 -1358h-71z" />
    <glyph glyph-name="X" unicode="X" horiz-adv-x="1265" 
d="M1317 1434l-617 -695l426 -739h-65l-399 694l-619 -694h-72l662 743l-397 691h65l371 -646l575 646h70z" />
    <glyph glyph-name="Y" unicode="Y" horiz-adv-x="1247" 
d="M512 0l92 588l-395 846h61l371 -791l619 791h65l-668 -846l-90 -588h-55z" />
    <glyph glyph-name="Z" unicode="Z" horiz-adv-x="1230" 
d="M-2 0l6 53l1200 1327h-940l10 54h1010l-12 -54l-1196 -1327h995l-6 -53h-1067z" />
    <glyph glyph-name="bracketleft" unicode="[" 
d="M207 403q-13 0 -19 -2v-200q4 -2 19 -2q37 0 50 25t13 77q0 54 -13 78t-50 24zM518 330v-49h-82v-78h96v-49h-155v297h155v-52h-96v-69h82zM203 150q-47 0 -74 4v292q61 9 76 9q67 0 96 -37.5t29 -116.5t-29.5 -115t-97.5 -36zM586 451h80l39 -164l38 164h82
q3 -45 13 -297h-60q0 108 -6 213l-41 -168h-55l-41 168h-2q-4 -140 -4 -213h-58q3 156 15 297zM987 150q-60 0 -84 35.5t-24 115.5q0 81 24 117.5t84 36.5t85.5 -37t25.5 -117q0 -79 -25.5 -115t-85.5 -36zM987 403q-29 0 -39 -23.5t-10 -78.5q0 -54 10 -78t39 -24
q30 0 40.5 24t10.5 78q0 55 -10 78.5t-41 23.5zM967 1016q49 0 79.5 -24.5t39 -51t8.5 -53.5q0 -43 -34.5 -72.5t-72.5 -34.5q-213 -23 -340 -147q3 8 9 22t25 53.5t39 75.5t50 80.5t59.5 76t66 53.5t71.5 22zM285 909q39 0 78 -21t69.5 -55t58.5 -74.5t48 -81.5t35 -75
t22 -55l8 -21q-117 148 -319 148q-49 0 -88 30t-39 76q0 53 33.5 91t93.5 38zM643 1214q38 -37 48.5 -102t-2.5 -131t-31.5 -126.5t-35.5 -98.5l-18 -39q20 191 -125 330q-35 35 -42 81.5t24 83.5q23 23 53 34t65 3.5t64 -35.5z" />
    <glyph glyph-name="backslash" unicode="\" 
d="M207 403q-13 0 -19 -2v-200q4 -2 19 -2q37 0 50 25t13 77q0 54 -13 78t-50 24zM518 330v-49h-82v-78h96v-49h-155v297h155v-52h-96v-69h82zM203 150q-47 0 -74 4v292q61 9 76 9q67 0 96 -37.5t29 -116.5t-29.5 -115t-97.5 -36zM586 451h80l39 -164l38 164h82
q3 -45 13 -297h-60q0 108 -6 213l-41 -168h-55l-41 168h-2q-4 -140 -4 -213h-58q3 156 15 297zM987 150q-60 0 -84 35.5t-24 115.5q0 81 24 117.5t84 36.5t85.5 -37t25.5 -117q0 -79 -25.5 -115t-85.5 -36zM987 403q-29 0 -39 -23.5t-10 -78.5q0 -54 10 -78t39 -24
q30 0 40.5 24t10.5 78q0 55 -10 78.5t-41 23.5zM967 1016q49 0 79.5 -24.5t39 -51t8.5 -53.5q0 -43 -34.5 -72.5t-72.5 -34.5q-213 -23 -340 -147q3 8 9 22t25 53.5t39 75.5t50 80.5t59.5 76t66 53.5t71.5 22zM285 909q39 0 78 -21t69.5 -55t58.5 -74.5t48 -81.5t35 -75
t22 -55l8 -21q-117 148 -319 148q-49 0 -88 30t-39 76q0 53 33.5 91t93.5 38zM643 1214q38 -37 48.5 -102t-2.5 -131t-31.5 -126.5t-35.5 -98.5l-18 -39q20 191 -125 330q-35 35 -42 81.5t24 83.5q23 23 53 34t65 3.5t64 -35.5z" />
    <glyph glyph-name="bracketright" unicode="]" 
d="M207 403q-13 0 -19 -2v-200q4 -2 19 -2q37 0 50 25t13 77q0 54 -13 78t-50 24zM518 330v-49h-82v-78h96v-49h-155v297h155v-52h-96v-69h82zM203 150q-47 0 -74 4v292q61 9 76 9q67 0 96 -37.5t29 -116.5t-29.5 -115t-97.5 -36zM586 451h80l39 -164l38 164h82
q3 -45 13 -297h-60q0 108 -6 213l-41 -168h-55l-41 168h-2q-4 -140 -4 -213h-58q3 156 15 297zM987 150q-60 0 -84 35.5t-24 115.5q0 81 24 117.5t84 36.5t85.5 -37t25.5 -117q0 -79 -25.5 -115t-85.5 -36zM987 403q-29 0 -39 -23.5t-10 -78.5q0 -54 10 -78t39 -24
q30 0 40.5 24t10.5 78q0 55 -10 78.5t-41 23.5zM967 1016q49 0 79.5 -24.5t39 -51t8.5 -53.5q0 -43 -34.5 -72.5t-72.5 -34.5q-213 -23 -340 -147q3 8 9 22t25 53.5t39 75.5t50 80.5t59.5 76t66 53.5t71.5 22zM285 909q39 0 78 -21t69.5 -55t58.5 -74.5t48 -81.5t35 -75
t22 -55l8 -21q-117 148 -319 148q-49 0 -88 30t-39 76q0 53 33.5 91t93.5 38zM643 1214q38 -37 48.5 -102t-2.5 -131t-31.5 -126.5t-35.5 -98.5l-18 -39q20 191 -125 330q-35 35 -42 81.5t24 83.5q23 23 53 34t65 3.5t64 -35.5z" />
    <glyph glyph-name="asciicircum" unicode="^" 
d="M207 403q-13 0 -19 -2v-200q4 -2 19 -2q37 0 50 25t13 77q0 54 -13 78t-50 24zM518 330v-49h-82v-78h96v-49h-155v297h155v-52h-96v-69h82zM203 150q-47 0 -74 4v292q61 9 76 9q67 0 96 -37.5t29 -116.5t-29.5 -115t-97.5 -36zM586 451h80l39 -164l38 164h82
q3 -45 13 -297h-60q0 108 -6 213l-41 -168h-55l-41 168h-2q-4 -140 -4 -213h-58q3 156 15 297zM987 150q-60 0 -84 35.5t-24 115.5q0 81 24 117.5t84 36.5t85.5 -37t25.5 -117q0 -79 -25.5 -115t-85.5 -36zM987 403q-29 0 -39 -23.5t-10 -78.5q0 -54 10 -78t39 -24
q30 0 40.5 24t10.5 78q0 55 -10 78.5t-41 23.5zM967 1016q49 0 79.5 -24.5t39 -51t8.5 -53.5q0 -43 -34.5 -72.5t-72.5 -34.5q-213 -23 -340 -147q3 8 9 22t25 53.5t39 75.5t50 80.5t59.5 76t66 53.5t71.5 22zM285 909q39 0 78 -21t69.5 -55t58.5 -74.5t48 -81.5t35 -75
t22 -55l8 -21q-117 148 -319 148q-49 0 -88 30t-39 76q0 53 33.5 91t93.5 38zM643 1214q38 -37 48.5 -102t-2.5 -131t-31.5 -126.5t-35.5 -98.5l-18 -39q20 191 -125 330q-35 35 -42 81.5t24 83.5q23 23 53 34t65 3.5t64 -35.5z" />
    <glyph glyph-name="underscore" unicode="_" 
d="M207 403q-13 0 -19 -2v-200q4 -2 19 -2q37 0 50 25t13 77q0 54 -13 78t-50 24zM518 330v-49h-82v-78h96v-49h-155v297h155v-52h-96v-69h82zM203 150q-47 0 -74 4v292q61 9 76 9q67 0 96 -37.5t29 -116.5t-29.5 -115t-97.5 -36zM586 451h80l39 -164l38 164h82
q3 -45 13 -297h-60q0 108 -6 213l-41 -168h-55l-41 168h-2q-4 -140 -4 -213h-58q3 156 15 297zM987 150q-60 0 -84 35.5t-24 115.5q0 81 24 117.5t84 36.5t85.5 -37t25.5 -117q0 -79 -25.5 -115t-85.5 -36zM987 403q-29 0 -39 -23.5t-10 -78.5q0 -54 10 -78t39 -24
q30 0 40.5 24t10.5 78q0 55 -10 78.5t-41 23.5zM967 1016q49 0 79.5 -24.5t39 -51t8.5 -53.5q0 -43 -34.5 -72.5t-72.5 -34.5q-213 -23 -340 -147q3 8 9 22t25 53.5t39 75.5t50 80.5t59.5 76t66 53.5t71.5 22zM285 909q39 0 78 -21t69.5 -55t58.5 -74.5t48 -81.5t35 -75
t22 -55l8 -21q-117 148 -319 148q-49 0 -88 30t-39 76q0 53 33.5 91t93.5 38zM643 1214q38 -37 48.5 -102t-2.5 -131t-31.5 -126.5t-35.5 -98.5l-18 -39q20 191 -125 330q-35 35 -42 81.5t24 83.5q23 23 53 34t65 3.5t64 -35.5z" />
    <glyph glyph-name="grave" unicode="`" 
d="M207 403q-13 0 -19 -2v-200q4 -2 19 -2q37 0 50 25t13 77q0 54 -13 78t-50 24zM518 330v-49h-82v-78h96v-49h-155v297h155v-52h-96v-69h82zM203 150q-47 0 -74 4v292q61 9 76 9q67 0 96 -37.5t29 -116.5t-29.5 -115t-97.5 -36zM586 451h80l39 -164l38 164h82
q3 -45 13 -297h-60q0 108 -6 213l-41 -168h-55l-41 168h-2q-4 -140 -4 -213h-58q3 156 15 297zM987 150q-60 0 -84 35.5t-24 115.5q0 81 24 117.5t84 36.5t85.5 -37t25.5 -117q0 -79 -25.5 -115t-85.5 -36zM987 403q-29 0 -39 -23.5t-10 -78.5q0 -54 10 -78t39 -24
q30 0 40.5 24t10.5 78q0 55 -10 78.5t-41 23.5zM967 1016q49 0 79.5 -24.5t39 -51t8.5 -53.5q0 -43 -34.5 -72.5t-72.5 -34.5q-213 -23 -340 -147q3 8 9 22t25 53.5t39 75.5t50 80.5t59.5 76t66 53.5t71.5 22zM285 909q39 0 78 -21t69.5 -55t58.5 -74.5t48 -81.5t35 -75
t22 -55l8 -21q-117 148 -319 148q-49 0 -88 30t-39 76q0 53 33.5 91t93.5 38zM643 1214q38 -37 48.5 -102t-2.5 -131t-31.5 -126.5t-35.5 -98.5l-18 -39q20 191 -125 330q-35 35 -42 81.5t24 83.5q23 23 53 34t65 3.5t64 -35.5z" />
    <glyph glyph-name="a" unicode="a" horiz-adv-x="1048" 
d="M324 -20q-142 0 -218.5 61t-76.5 178q0 268 401 326l238 35q104 14 160 36.5t59 45.5l14 112q20 134 -50 199t-241 65q-170 0 -262 -59t-110 -162l-5 -22h-49l2 20q18 137 129 203.5t293 66.5q193 0 282.5 -76.5t63.5 -238.5l-116 -770h-54l33 211h-6q-17 -31 -57.5 -68
t-101 -75t-148 -63t-180.5 -25zM330 29q87 0 168 24t138.5 60t102 79t68 81t27.5 65l43 268q-15 -47 -205 -74l-242 -36q-168 -27 -259 -92t-91 -183q0 -192 250 -192z" />
    <glyph glyph-name="b" unicode="b" horiz-adv-x="1173" 
d="M696 1085q184 0 296 -112t112 -334q0 -179 -72.5 -329.5t-204 -240t-292.5 -89.5q-92 0 -169.5 27.5t-140.5 93.5t-88 165l-41 -266h-53l227 1434h54l-101 -631q88 146 210 214t263 68zM539 27q152 0 272.5 92t182 230.5t61.5 289.5q0 198 -100 298.5t-261 100.5
q-113 0 -212.5 -50.5t-168 -135.5t-108 -198.5t-39.5 -237.5q0 -126 52 -216t135 -131.5t186 -41.5z" />
    <glyph glyph-name="c" unicode="c" horiz-adv-x="1058" 
d="M487 -20q-194 0 -305.5 114.5t-111.5 333.5q0 131 41 249.5t115 209.5t185.5 144.5t243.5 53.5q75 0 140 -19t118.5 -58t85 -107t33.5 -158h-49q-3 80 -32.5 139t-77.5 92t-104 48.5t-120 15.5q-118 0 -217.5 -49t-166 -132t-103.5 -192.5t-37 -230.5q0 -205 101 -306
t268 -101q63 0 121.5 15t117 47.5t105 94t73.5 146.5h52q-29 -96 -81 -166.5t-117.5 -109t-134 -56.5t-143.5 -18z" />
    <glyph glyph-name="d" unicode="d" horiz-adv-x="1173" 
d="M1137 1434h53l-227 -1434h-54l41 266q-82 -147 -206.5 -216.5t-264.5 -69.5q-87 0 -161 27t-130 80t-88 138t-32 193q0 181 70 332.5t202 243t299 91.5q139 0 243.5 -68t151.5 -214zM485 27q113 0 211.5 50.5t165.5 134.5t105.5 195.5t38.5 231.5q0 99 -29.5 176.5
t-81 125.5t-118 72.5t-144.5 24.5q-115 0 -214.5 -53.5t-164 -141t-101 -196.5t-36.5 -223q0 -196 102.5 -296.5t265.5 -100.5z" />
    <glyph glyph-name="e" unicode="e" horiz-adv-x="1069" 
d="M985 516h-858q-6 -50 -6 -100q0 -383 360 -383q285 0 400 231h55q-138 -282 -455 -282q-201 0 -307 109.5t-106 326.5q0 128 38 247t108 213t179 150.5t240 56.5q178 0 278.5 -100t100.5 -274q0 -50 -8.5 -110t-18.5 -85zM625 1034q-102 0 -187.5 -37t-145.5 -102.5
t-100 -149t-57 -180.5h809q25 120 12 208t-59.5 146t-115.5 86.5t-156 28.5z" />
    <glyph glyph-name="f" unicode="f" horiz-adv-x="542" 
d="M561 1466h78l-6 -51h-60q-100 0 -145.5 -35.5t-60.5 -136.5l-29 -178h231l-6 -49h-233l-162 -1016h-53l159 1016h-141l6 49h144l30 197q19 114 84 159t164 45z" />
    <glyph glyph-name="g" unicode="g" horiz-adv-x="1167" 
d="M1071 1065h53l-145 -936l-23 -131q-17 -94 -56 -168.5t-91.5 -122t-120 -78.5t-136 -44t-144.5 -13q-193 0 -304 81t-90 224h47q-14 -116 78.5 -187t272.5 -71q94 0 172.5 21t144.5 64.5t111 118t63 175.5l23 131l24 158h-4q-86 -137 -209.5 -202t-261.5 -65
q-87 0 -159.5 25.5t-128 76t-86.5 131.5t-31 185q0 173 68.5 319.5t200 237t300.5 90.5q92 0 167 -25.5t136 -86.5t90 -154h2zM479 68q150 0 272 80.5t188.5 213.5t66.5 289q0 128 -50.5 217t-132 129.5t-186.5 40.5q-151 0 -270 -82t-181.5 -215.5t-62.5 -291.5
q0 -126 49.5 -214t128 -127.5t178.5 -39.5z" />
    <glyph glyph-name="h" unicode="h" horiz-adv-x="1087" 
d="M647 1085q52 0 97.5 -9t89 -29.5t74.5 -54t53.5 -83t26 -115.5t-8.5 -151l-102 -643h-54l103 641q29 185 -39 289t-246 104t-296 -105.5t-146 -279.5l-103 -649h-53l168 1065l59 369h54l-60 -369l-31 -199h3q13 23 31.5 46t55.5 56t79.5 57.5t107.5 42t137 17.5z" />
    <glyph glyph-name="i" unicode="i" horiz-adv-x="309" 
d="M293 1346q-22 0 -37.5 16.5t-15.5 38.5t15.5 37.5t37.5 15.5q23 0 38 -15.5t15 -37.5t-15 -38.5t-38 -16.5zM43 0l168 1065h53l-168 -1065h-53z" />
    <glyph glyph-name="j" unicode="j" horiz-adv-x="354" 
d="M338 1346q-22 0 -37.5 16.5t-15.5 38.5t15.5 37.5t37.5 15.5q23 0 38 -15.5t15 -37.5t-15 -38.5t-38 -16.5zM-131 -375q-10 0 -32.5 2.5t-33.5 3.5l7 45h38q104 0 151 37t64 140l193 1212h53l-196 -1233q-29 -207 -244 -207z" />
    <glyph glyph-name="k" unicode="k" horiz-adv-x="1032" 
d="M1018 1065l-549 -471l444 -594h-65l-418 559l-285 -244l-49 -315h-53l227 1434h54l-166 -1043l782 674h78z" />
    <glyph glyph-name="l" unicode="l" horiz-adv-x="307" 
d="M43 0l227 1434h54l-228 -1434h-53z" />
    <glyph glyph-name="m" unicode="m" horiz-adv-x="1736" 
d="M1323 1085q64 0 115 -13t96 -44t69 -81.5t34 -126t-9 -177.5l-102 -643h-53l102 641q62 393 -254 393q-162 0 -266.5 -98.5t-136.5 -265.5q-1 -4 -2.5 -13.5t-2.5 -13.5l-102 -643h-53l102 641q62 393 -254 393q-166 0 -272 -105t-135 -280l-103 -649h-53l168 1065h53
l-31 -199h7q11 22 24 43t45 55.5t70.5 59t100.5 43t134 18.5q270 0 306 -247h2q45 74 73 106q123 141 328 141z" />
    <glyph glyph-name="n" unicode="n" horiz-adv-x="1087" 
d="M647 1085q52 0 97.5 -9t89 -29.5t74.5 -54t53.5 -83t26 -115.5t-8.5 -151l-102 -643h-54l103 641q29 185 -39 289t-246 104t-296 -105.5t-146 -279.5l-103 -649h-53l168 1065h53l-31 -199h3q13 23 31.5 46t55.5 56t79.5 57.5t107.5 42t137 17.5z" />
    <glyph glyph-name="o" unicode="o" horiz-adv-x="1138" 
d="M489 -20q-88 0 -163.5 27t-133.5 80t-91 139.5t-33 197.5q0 128 41.5 247t115.5 211t184.5 147.5t239.5 55.5q88 0 163.5 -27t134 -80t91.5 -139.5t33 -197.5q0 -128 -42 -247t-116 -211t-184.5 -147.5t-239.5 -55.5zM494 27q114 0 213 51.5t166 136.5t105 195.5
t38 228.5q0 103 -29.5 181.5t-81 125t-117 69.5t-143.5 23q-114 0 -213 -51.5t-166 -136.5t-105 -195.5t-38 -228.5q0 -103 29.5 -181.5t81 -125t117 -69.5t143.5 -23z" />
    <glyph glyph-name="p" unicode="p" horiz-adv-x="1173" 
d="M690 1085q87 0 161.5 -26.5t131.5 -78.5t89 -136.5t32 -192.5q0 -186 -71.5 -338.5t-203.5 -242.5t-297 -90q-301 0 -395 286l-102 -655h-53l229 1454h53l-41 -262q85 146 207.5 214t259.5 68zM537 27q94 0 177.5 35t144.5 95t106 138.5t67.5 167t22.5 178.5
q0 196 -101.5 296.5t-261.5 100.5q-114 0 -213.5 -50.5t-167.5 -134.5t-106.5 -195.5t-38.5 -231.5q0 -99 29 -176.5t80.5 -125.5t117.5 -72.5t144 -24.5z" />
    <glyph glyph-name="q" unicode="q" horiz-adv-x="1173" 
d="M1077 1065h53l-229 -1454h-53l102 655q-82 -147 -206.5 -216.5t-264.5 -69.5q-87 0 -161 27t-130 80t-88 138t-32 193q0 181 70 332.5t202 243t299 91.5q139 0 243.5 -68t151.5 -214zM485 27q113 0 211.5 50.5t165.5 134.5t105.5 195.5t38.5 231.5q0 99 -29.5 176.5
t-81 125.5t-118 72.5t-144.5 24.5q-115 0 -214.5 -53.5t-164 -141t-101 -196.5t-36.5 -223q0 -196 102.5 -296.5t265.5 -100.5z" />
    <glyph glyph-name="r" unicode="r" horiz-adv-x="673" 
d="M625 1073q55 0 77 -10l-8 -47q-30 6 -71 6q-88 0 -161 -28t-124 -77.5t-84.5 -111t-50.5 -133.5l-107 -672h-53l168 1065h53l-35 -215q14 26 35 52.5t56.5 58.5t77.5 56t102 40t125 16z" />
    <glyph glyph-name="s" unicode="s" horiz-adv-x="946" 
d="M403 -20q-78 0 -146 16.5t-123 49t-85 89t-24 129.5h51q-2 -53 16.5 -94.5t50.5 -67t76 -43t89 -24t93 -6.5q104 0 190.5 30t141.5 93.5t55 150.5q0 40 -11 70t-28.5 49.5t-49 36t-60.5 26t-76 21.5l-188 49q-112 31 -171 87t-59 149q0 134 116 214t296 80q73 0 134 -15
t110 -46t75 -85.5t23 -127.5h-47q-9 120 -85 172.5t-210 52.5q-158 0 -257 -64t-99 -179q0 -72 44.5 -117.5t153.5 -73.5l179 -45q132 -34 197 -88t65 -162q0 -105 -63 -181t-160 -111t-214 -35z" />
    <glyph glyph-name="t" unicode="t" horiz-adv-x="573" 
d="M350 1016l-127 -805q-15 -102 19.5 -138t134.5 -36h53l-8 -45q-25 -6 -74 -6q-99 0 -149 46.5t-33 160.5l129 823h-162l6 49h164l41 258h53l-41 -258h215l-6 -49h-215z" />
    <glyph glyph-name="u" unicode="u" horiz-adv-x="1087" 
d="M991 1065h53l-167 -1065h-54l31 199h-2q-13 -22 -31.5 -45.5t-55.5 -56.5t-80 -57.5t-108 -42t-137 -17.5q-52 0 -97.5 9t-89 29.5t-74 54t-53 83t-26 115.5t8.5 151l102 643h53l-102 -641q-29 -185 38.5 -289t245.5 -104t296.5 105.5t146.5 279.5z" />
    <glyph glyph-name="v" unicode="v" horiz-adv-x="1040" 
d="M403 0l-264 1065h54l249 -1016h2l568 1016h57l-598 -1065h-68z" />
    <glyph glyph-name="w" unicode="w" horiz-adv-x="1572" 
d="M293 0l-154 1065h56l139 -997h8l498 997h55l192 -997h9l448 997h58l-484 -1065h-69l-189 995l-498 -995h-69z" />
    <glyph glyph-name="x" unicode="x" horiz-adv-x="983" 
d="M-8 0l473 539l-303 526h63l271 -481l424 481h69l-471 -526l305 -539h-63l-271 498l-428 -498h-69z" />
    <glyph glyph-name="y" unicode="y" horiz-adv-x="1021" 
d="M25 -385l8 53q184 -31 313 207q50 93 37 141l-244 1049h56l237 -1028l559 1028h60l-668 -1219q-72 -131 -166 -188t-192 -43z" />
    <glyph glyph-name="z" unicode="z" horiz-adv-x="999" 
d="M-2 0l8 49l918 967h-746l8 49h815l-8 -49l-919 -967h766l-6 -49h-836z" />
    <glyph glyph-name="braceleft" unicode="{" 
d="M207 403q-13 0 -19 -2v-200q4 -2 19 -2q37 0 50 25t13 77q0 54 -13 78t-50 24zM518 330v-49h-82v-78h96v-49h-155v297h155v-52h-96v-69h82zM203 150q-47 0 -74 4v292q61 9 76 9q67 0 96 -37.5t29 -116.5t-29.5 -115t-97.5 -36zM586 451h80l39 -164l38 164h82
q3 -45 13 -297h-60q0 108 -6 213l-41 -168h-55l-41 168h-2q-4 -140 -4 -213h-58q3 156 15 297zM987 150q-60 0 -84 35.5t-24 115.5q0 81 24 117.5t84 36.5t85.5 -37t25.5 -117q0 -79 -25.5 -115t-85.5 -36zM987 403q-29 0 -39 -23.5t-10 -78.5q0 -54 10 -78t39 -24
q30 0 40.5 24t10.5 78q0 55 -10 78.5t-41 23.5zM967 1016q49 0 79.5 -24.5t39 -51t8.5 -53.5q0 -43 -34.5 -72.5t-72.5 -34.5q-213 -23 -340 -147q3 8 9 22t25 53.5t39 75.5t50 80.5t59.5 76t66 53.5t71.5 22zM285 909q39 0 78 -21t69.5 -55t58.5 -74.5t48 -81.5t35 -75
t22 -55l8 -21q-117 148 -319 148q-49 0 -88 30t-39 76q0 53 33.5 91t93.5 38zM643 1214q38 -37 48.5 -102t-2.5 -131t-31.5 -126.5t-35.5 -98.5l-18 -39q20 191 -125 330q-35 35 -42 81.5t24 83.5q23 23 53 34t65 3.5t64 -35.5z" />
    <glyph glyph-name="bar" unicode="|" 
d="M207 403q-13 0 -19 -2v-200q4 -2 19 -2q37 0 50 25t13 77q0 54 -13 78t-50 24zM518 330v-49h-82v-78h96v-49h-155v297h155v-52h-96v-69h82zM203 150q-47 0 -74 4v292q61 9 76 9q67 0 96 -37.5t29 -116.5t-29.5 -115t-97.5 -36zM586 451h80l39 -164l38 164h82
q3 -45 13 -297h-60q0 108 -6 213l-41 -168h-55l-41 168h-2q-4 -140 -4 -213h-58q3 156 15 297zM987 150q-60 0 -84 35.5t-24 115.5q0 81 24 117.5t84 36.5t85.5 -37t25.5 -117q0 -79 -25.5 -115t-85.5 -36zM987 403q-29 0 -39 -23.5t-10 -78.5q0 -54 10 -78t39 -24
q30 0 40.5 24t10.5 78q0 55 -10 78.5t-41 23.5zM967 1016q49 0 79.5 -24.5t39 -51t8.5 -53.5q0 -43 -34.5 -72.5t-72.5 -34.5q-213 -23 -340 -147q3 8 9 22t25 53.5t39 75.5t50 80.5t59.5 76t66 53.5t71.5 22zM285 909q39 0 78 -21t69.5 -55t58.5 -74.5t48 -81.5t35 -75
t22 -55l8 -21q-117 148 -319 148q-49 0 -88 30t-39 76q0 53 33.5 91t93.5 38zM643 1214q38 -37 48.5 -102t-2.5 -131t-31.5 -126.5t-35.5 -98.5l-18 -39q20 191 -125 330q-35 35 -42 81.5t24 83.5q23 23 53 34t65 3.5t64 -35.5z" />
    <glyph glyph-name="braceright" unicode="}" 
d="M207 403q-13 0 -19 -2v-200q4 -2 19 -2q37 0 50 25t13 77q0 54 -13 78t-50 24zM518 330v-49h-82v-78h96v-49h-155v297h155v-52h-96v-69h82zM203 150q-47 0 -74 4v292q61 9 76 9q67 0 96 -37.5t29 -116.5t-29.5 -115t-97.5 -36zM586 451h80l39 -164l38 164h82
q3 -45 13 -297h-60q0 108 -6 213l-41 -168h-55l-41 168h-2q-4 -140 -4 -213h-58q3 156 15 297zM987 150q-60 0 -84 35.5t-24 115.5q0 81 24 117.5t84 36.5t85.5 -37t25.5 -117q0 -79 -25.5 -115t-85.5 -36zM987 403q-29 0 -39 -23.5t-10 -78.5q0 -54 10 -78t39 -24
q30 0 40.5 24t10.5 78q0 55 -10 78.5t-41 23.5zM967 1016q49 0 79.5 -24.5t39 -51t8.5 -53.5q0 -43 -34.5 -72.5t-72.5 -34.5q-213 -23 -340 -147q3 8 9 22t25 53.5t39 75.5t50 80.5t59.5 76t66 53.5t71.5 22zM285 909q39 0 78 -21t69.5 -55t58.5 -74.5t48 -81.5t35 -75
t22 -55l8 -21q-117 148 -319 148q-49 0 -88 30t-39 76q0 53 33.5 91t93.5 38zM643 1214q38 -37 48.5 -102t-2.5 -131t-31.5 -126.5t-35.5 -98.5l-18 -39q20 191 -125 330q-35 35 -42 81.5t24 83.5q23 23 53 34t65 3.5t64 -35.5z" />
    <glyph glyph-name="asciitilde" unicode="~" 
d="M207 403q-13 0 -19 -2v-200q4 -2 19 -2q37 0 50 25t13 77q0 54 -13 78t-50 24zM518 330v-49h-82v-78h96v-49h-155v297h155v-52h-96v-69h82zM203 150q-47 0 -74 4v292q61 9 76 9q67 0 96 -37.5t29 -116.5t-29.5 -115t-97.5 -36zM586 451h80l39 -164l38 164h82
q3 -45 13 -297h-60q0 108 -6 213l-41 -168h-55l-41 168h-2q-4 -140 -4 -213h-58q3 156 15 297zM987 150q-60 0 -84 35.5t-24 115.5q0 81 24 117.5t84 36.5t85.5 -37t25.5 -117q0 -79 -25.5 -115t-85.5 -36zM987 403q-29 0 -39 -23.5t-10 -78.5q0 -54 10 -78t39 -24
q30 0 40.5 24t10.5 78q0 55 -10 78.5t-41 23.5zM967 1016q49 0 79.5 -24.5t39 -51t8.5 -53.5q0 -43 -34.5 -72.5t-72.5 -34.5q-213 -23 -340 -147q3 8 9 22t25 53.5t39 75.5t50 80.5t59.5 76t66 53.5t71.5 22zM285 909q39 0 78 -21t69.5 -55t58.5 -74.5t48 -81.5t35 -75
t22 -55l8 -21q-117 148 -319 148q-49 0 -88 30t-39 76q0 53 33.5 91t93.5 38zM643 1214q38 -37 48.5 -102t-2.5 -131t-31.5 -126.5t-35.5 -98.5l-18 -39q20 191 -125 330q-35 35 -42 81.5t24 83.5q23 23 53 34t65 3.5t64 -35.5z" />
    </font>
</defs>
</svg>
