<?xml version="1.0" standalone="no"?>
<!DOCTYPE svg PUBLIC "-//W3C//DTD SVG 1.1//EN" "http://www.w3.org/Graphics/SVG/1.1/DTD/svg11.dtd" >
<svg xmlns="http://www.w3.org/2000/svg" xmlns:xlink="http://www.w3.org/1999/xlink" version="1.1">
<metadata>
Created by FontForge 20201107 at Mon Mar  9 12:55:22 2026
 By www-data
Copyright  2020 by Connary Fagen. All rights reserved.
</metadata>
<defs>
<font id="FONTSPRINGDEMO-ArticulatCFExtraBoldRegular" horiz-adv-x="1224" >
  <font-face 
    font-family="FSP DEMO - rtclt CF xtr Bld"
    font-weight="800"
    font-stretch="normal"
    units-per-em="2048"
    panose-1="0 0 9 0 0 0 0 0 0 0"
    ascent="1638"
    descent="-410"
    x-height="1065"
    cap-height="1434"
    bbox="-100 -428 2060 1522"
    underline-thickness="102"
    underline-position="-204"
    unicode-range="U+0020-007E"
  />
<missing-glyph 
d="M207 403q-13 0 -19 -2v-200q4 -2 19 -2q37 0 50 25t13 77q0 54 -13 78t-50 24zM518 330v-49h-82v-78h96v-49h-155v297h155v-52h-96v-69h82zM203 150q-47 0 -74 4v292q61 9 76 9q67 0 96 -37.5t29 -116.5t-29.5 -115t-97.5 -36zM586 451h80l39 -164l38 164h82
q3 -45 13 -297h-60q0 108 -6 213l-41 -168h-55l-41 168h-2q-4 -140 -4 -213h-58q3 156 15 297zM987 150q-60 0 -84 35.5t-24 115.5q0 81 24 117.5t84 36.5t85.5 -37t25.5 -117q0 -79 -25.5 -115t-85.5 -36zM987 403q-29 0 -39 -23.5t-10 -78.5q0 -54 10 -78t39 -24
q30 0 40.5 24t10.5 78q0 55 -10 78.5t-41 23.5zM967 1016q49 0 79.5 -24.5t39 -51t8.5 -53.5q0 -43 -34.5 -72.5t-72.5 -34.5q-213 -23 -340 -147q3 8 9 22t25 53.5t39 75.5t50 80.5t59.5 76t66 53.5t71.5 22zM285 909q39 0 78 -21t69.5 -55t58.5 -74.5t48 -81.5t35 -75
t22 -55l8 -21q-117 148 -319 148q-49 0 -88 30t-39 76q0 53 33.5 91t93.5 38zM643 1214q38 -37 48.5 -102t-2.5 -131t-31.5 -126.5t-35.5 -98.5l-18 -39q20 191 -125 330q-35 35 -42 81.5t24 83.5q23 23 53 34t65 3.5t64 -35.5z" />
    <glyph glyph-name=".notdef" 
d="M207 403q-13 0 -19 -2v-200q4 -2 19 -2q37 0 50 25t13 77q0 54 -13 78t-50 24zM518 330v-49h-82v-78h96v-49h-155v297h155v-52h-96v-69h82zM203 150q-47 0 -74 4v292q61 9 76 9q67 0 96 -37.5t29 -116.5t-29.5 -115t-97.5 -36zM586 451h80l39 -164l38 164h82
q3 -45 13 -297h-60q0 108 -6 213l-41 -168h-55l-41 168h-2q-4 -140 -4 -213h-58q3 156 15 297zM987 150q-60 0 -84 35.5t-24 115.5q0 81 24 117.5t84 36.5t85.5 -37t25.5 -117q0 -79 -25.5 -115t-85.5 -36zM987 403q-29 0 -39 -23.5t-10 -78.5q0 -54 10 -78t39 -24
q30 0 40.5 24t10.5 78q0 55 -10 78.5t-41 23.5zM967 1016q49 0 79.5 -24.5t39 -51t8.5 -53.5q0 -43 -34.5 -72.5t-72.5 -34.5q-213 -23 -340 -147q3 8 9 22t25 53.5t39 75.5t50 80.5t59.5 76t66 53.5t71.5 22zM285 909q39 0 78 -21t69.5 -55t58.5 -74.5t48 -81.5t35 -75
t22 -55l8 -21q-117 148 -319 148q-49 0 -88 30t-39 76q0 53 33.5 91t93.5 38zM643 1214q38 -37 48.5 -102t-2.5 -131t-31.5 -126.5t-35.5 -98.5l-18 -39q20 191 -125 330q-35 35 -42 81.5t24 83.5q23 23 53 34t65 3.5t64 -35.5z" />
    <glyph glyph-name=".null" horiz-adv-x="0" 
 />
    <glyph glyph-name="nonmarkingreturn" horiz-adv-x="682" 
 />
    <glyph glyph-name="space" unicode=" " horiz-adv-x="471" 
 />
    <glyph glyph-name="exclam" unicode="!" 
d="M207 403q-13 0 -19 -2v-200q4 -2 19 -2q37 0 50 25t13 77q0 54 -13 78t-50 24zM518 330v-49h-82v-78h96v-49h-155v297h155v-52h-96v-69h82zM203 150q-47 0 -74 4v292q61 9 76 9q67 0 96 -37.5t29 -116.5t-29.5 -115t-97.5 -36zM586 451h80l39 -164l38 164h82
q3 -45 13 -297h-60q0 108 -6 213l-41 -168h-55l-41 168h-2q-4 -140 -4 -213h-58q3 156 15 297zM987 150q-60 0 -84 35.5t-24 115.5q0 81 24 117.5t84 36.5t85.5 -37t25.5 -117q0 -79 -25.5 -115t-85.5 -36zM987 403q-29 0 -39 -23.5t-10 -78.5q0 -54 10 -78t39 -24
q30 0 40.5 24t10.5 78q0 55 -10 78.5t-41 23.5zM967 1016q49 0 79.5 -24.5t39 -51t8.5 -53.5q0 -43 -34.5 -72.5t-72.5 -34.5q-213 -23 -340 -147q3 8 9 22t25 53.5t39 75.5t50 80.5t59.5 76t66 53.5t71.5 22zM285 909q39 0 78 -21t69.5 -55t58.5 -74.5t48 -81.5t35 -75
t22 -55l8 -21q-117 148 -319 148q-49 0 -88 30t-39 76q0 53 33.5 91t93.5 38zM643 1214q38 -37 48.5 -102t-2.5 -131t-31.5 -126.5t-35.5 -98.5l-18 -39q20 191 -125 330q-35 35 -42 81.5t24 83.5q23 23 53 34t65 3.5t64 -35.5z" />
    <glyph glyph-name="quotedbl" unicode="&#x22;" 
d="M207 403q-13 0 -19 -2v-200q4 -2 19 -2q37 0 50 25t13 77q0 54 -13 78t-50 24zM518 330v-49h-82v-78h96v-49h-155v297h155v-52h-96v-69h82zM203 150q-47 0 -74 4v292q61 9 76 9q67 0 96 -37.5t29 -116.5t-29.5 -115t-97.5 -36zM586 451h80l39 -164l38 164h82
q3 -45 13 -297h-60q0 108 -6 213l-41 -168h-55l-41 168h-2q-4 -140 -4 -213h-58q3 156 15 297zM987 150q-60 0 -84 35.5t-24 115.5q0 81 24 117.5t84 36.5t85.5 -37t25.5 -117q0 -79 -25.5 -115t-85.5 -36zM987 403q-29 0 -39 -23.5t-10 -78.5q0 -54 10 -78t39 -24
q30 0 40.5 24t10.5 78q0 55 -10 78.5t-41 23.5zM967 1016q49 0 79.5 -24.5t39 -51t8.5 -53.5q0 -43 -34.5 -72.5t-72.5 -34.5q-213 -23 -340 -147q3 8 9 22t25 53.5t39 75.5t50 80.5t59.5 76t66 53.5t71.5 22zM285 909q39 0 78 -21t69.5 -55t58.5 -74.5t48 -81.5t35 -75
t22 -55l8 -21q-117 148 -319 148q-49 0 -88 30t-39 76q0 53 33.5 91t93.5 38zM643 1214q38 -37 48.5 -102t-2.5 -131t-31.5 -126.5t-35.5 -98.5l-18 -39q20 191 -125 330q-35 35 -42 81.5t24 83.5q23 23 53 34t65 3.5t64 -35.5z" />
    <glyph glyph-name="numbersign" unicode="#" 
d="M207 403q-13 0 -19 -2v-200q4 -2 19 -2q37 0 50 25t13 77q0 54 -13 78t-50 24zM518 330v-49h-82v-78h96v-49h-155v297h155v-52h-96v-69h82zM203 150q-47 0 -74 4v292q61 9 76 9q67 0 96 -37.5t29 -116.5t-29.5 -115t-97.5 -36zM586 451h80l39 -164l38 164h82
q3 -45 13 -297h-60q0 108 -6 213l-41 -168h-55l-41 168h-2q-4 -140 -4 -213h-58q3 156 15 297zM987 150q-60 0 -84 35.5t-24 115.5q0 81 24 117.5t84 36.5t85.5 -37t25.5 -117q0 -79 -25.5 -115t-85.5 -36zM987 403q-29 0 -39 -23.5t-10 -78.5q0 -54 10 -78t39 -24
q30 0 40.5 24t10.5 78q0 55 -10 78.5t-41 23.5zM967 1016q49 0 79.5 -24.5t39 -51t8.5 -53.5q0 -43 -34.5 -72.5t-72.5 -34.5q-213 -23 -340 -147q3 8 9 22t25 53.5t39 75.5t50 80.5t59.5 76t66 53.5t71.5 22zM285 909q39 0 78 -21t69.5 -55t58.5 -74.5t48 -81.5t35 -75
t22 -55l8 -21q-117 148 -319 148q-49 0 -88 30t-39 76q0 53 33.5 91t93.5 38zM643 1214q38 -37 48.5 -102t-2.5 -131t-31.5 -126.5t-35.5 -98.5l-18 -39q20 191 -125 330q-35 35 -42 81.5t24 83.5q23 23 53 34t65 3.5t64 -35.5z" />
    <glyph glyph-name="dollar" unicode="$" 
d="M207 403q-13 0 -19 -2v-200q4 -2 19 -2q37 0 50 25t13 77q0 54 -13 78t-50 24zM518 330v-49h-82v-78h96v-49h-155v297h155v-52h-96v-69h82zM203 150q-47 0 -74 4v292q61 9 76 9q67 0 96 -37.5t29 -116.5t-29.5 -115t-97.5 -36zM586 451h80l39 -164l38 164h82
q3 -45 13 -297h-60q0 108 -6 213l-41 -168h-55l-41 168h-2q-4 -140 -4 -213h-58q3 156 15 297zM987 150q-60 0 -84 35.5t-24 115.5q0 81 24 117.5t84 36.5t85.5 -37t25.5 -117q0 -79 -25.5 -115t-85.5 -36zM987 403q-29 0 -39 -23.5t-10 -78.5q0 -54 10 -78t39 -24
q30 0 40.5 24t10.5 78q0 55 -10 78.5t-41 23.5zM967 1016q49 0 79.5 -24.5t39 -51t8.5 -53.5q0 -43 -34.5 -72.5t-72.5 -34.5q-213 -23 -340 -147q3 8 9 22t25 53.5t39 75.5t50 80.5t59.5 76t66 53.5t71.5 22zM285 909q39 0 78 -21t69.5 -55t58.5 -74.5t48 -81.5t35 -75
t22 -55l8 -21q-117 148 -319 148q-49 0 -88 30t-39 76q0 53 33.5 91t93.5 38zM643 1214q38 -37 48.5 -102t-2.5 -131t-31.5 -126.5t-35.5 -98.5l-18 -39q20 191 -125 330q-35 35 -42 81.5t24 83.5q23 23 53 34t65 3.5t64 -35.5z" />
    <glyph glyph-name="percent" unicode="%" 
d="M207 403q-13 0 -19 -2v-200q4 -2 19 -2q37 0 50 25t13 77q0 54 -13 78t-50 24zM518 330v-49h-82v-78h96v-49h-155v297h155v-52h-96v-69h82zM203 150q-47 0 -74 4v292q61 9 76 9q67 0 96 -37.5t29 -116.5t-29.5 -115t-97.5 -36zM586 451h80l39 -164l38 164h82
q3 -45 13 -297h-60q0 108 -6 213l-41 -168h-55l-41 168h-2q-4 -140 -4 -213h-58q3 156 15 297zM987 150q-60 0 -84 35.5t-24 115.5q0 81 24 117.5t84 36.5t85.5 -37t25.5 -117q0 -79 -25.5 -115t-85.5 -36zM987 403q-29 0 -39 -23.5t-10 -78.5q0 -54 10 -78t39 -24
q30 0 40.5 24t10.5 78q0 55 -10 78.5t-41 23.5zM967 1016q49 0 79.5 -24.5t39 -51t8.5 -53.5q0 -43 -34.5 -72.5t-72.5 -34.5q-213 -23 -340 -147q3 8 9 22t25 53.5t39 75.5t50 80.5t59.5 76t66 53.5t71.5 22zM285 909q39 0 78 -21t69.5 -55t58.5 -74.5t48 -81.5t35 -75
t22 -55l8 -21q-117 148 -319 148q-49 0 -88 30t-39 76q0 53 33.5 91t93.5 38zM643 1214q38 -37 48.5 -102t-2.5 -131t-31.5 -126.5t-35.5 -98.5l-18 -39q20 191 -125 330q-35 35 -42 81.5t24 83.5q23 23 53 34t65 3.5t64 -35.5z" />
    <glyph glyph-name="ampersand" unicode="&#x26;" 
d="M207 403q-13 0 -19 -2v-200q4 -2 19 -2q37 0 50 25t13 77q0 54 -13 78t-50 24zM518 330v-49h-82v-78h96v-49h-155v297h155v-52h-96v-69h82zM203 150q-47 0 -74 4v292q61 9 76 9q67 0 96 -37.5t29 -116.5t-29.5 -115t-97.5 -36zM586 451h80l39 -164l38 164h82
q3 -45 13 -297h-60q0 108 -6 213l-41 -168h-55l-41 168h-2q-4 -140 -4 -213h-58q3 156 15 297zM987 150q-60 0 -84 35.5t-24 115.5q0 81 24 117.5t84 36.5t85.5 -37t25.5 -117q0 -79 -25.5 -115t-85.5 -36zM987 403q-29 0 -39 -23.5t-10 -78.5q0 -54 10 -78t39 -24
q30 0 40.5 24t10.5 78q0 55 -10 78.5t-41 23.5zM967 1016q49 0 79.5 -24.5t39 -51t8.5 -53.5q0 -43 -34.5 -72.5t-72.5 -34.5q-213 -23 -340 -147q3 8 9 22t25 53.5t39 75.5t50 80.5t59.5 76t66 53.5t71.5 22zM285 909q39 0 78 -21t69.5 -55t58.5 -74.5t48 -81.5t35 -75
t22 -55l8 -21q-117 148 -319 148q-49 0 -88 30t-39 76q0 53 33.5 91t93.5 38zM643 1214q38 -37 48.5 -102t-2.5 -131t-31.5 -126.5t-35.5 -98.5l-18 -39q20 191 -125 330q-35 35 -42 81.5t24 83.5q23 23 53 34t65 3.5t64 -35.5z" />
    <glyph glyph-name="quotesingle" unicode="'" 
d="M207 403q-13 0 -19 -2v-200q4 -2 19 -2q37 0 50 25t13 77q0 54 -13 78t-50 24zM518 330v-49h-82v-78h96v-49h-155v297h155v-52h-96v-69h82zM203 150q-47 0 -74 4v292q61 9 76 9q67 0 96 -37.5t29 -116.5t-29.5 -115t-97.5 -36zM586 451h80l39 -164l38 164h82
q3 -45 13 -297h-60q0 108 -6 213l-41 -168h-55l-41 168h-2q-4 -140 -4 -213h-58q3 156 15 297zM987 150q-60 0 -84 35.5t-24 115.5q0 81 24 117.5t84 36.5t85.5 -37t25.5 -117q0 -79 -25.5 -115t-85.5 -36zM987 403q-29 0 -39 -23.5t-10 -78.5q0 -54 10 -78t39 -24
q30 0 40.5 24t10.5 78q0 55 -10 78.5t-41 23.5zM967 1016q49 0 79.5 -24.5t39 -51t8.5 -53.5q0 -43 -34.5 -72.5t-72.5 -34.5q-213 -23 -340 -147q3 8 9 22t25 53.5t39 75.5t50 80.5t59.5 76t66 53.5t71.5 22zM285 909q39 0 78 -21t69.5 -55t58.5 -74.5t48 -81.5t35 -75
t22 -55l8 -21q-117 148 -319 148q-49 0 -88 30t-39 76q0 53 33.5 91t93.5 38zM643 1214q38 -37 48.5 -102t-2.5 -131t-31.5 -126.5t-35.5 -98.5l-18 -39q20 191 -125 330q-35 35 -42 81.5t24 83.5q23 23 53 34t65 3.5t64 -35.5z" />
    <glyph glyph-name="parenleft" unicode="(" 
d="M207 403q-13 0 -19 -2v-200q4 -2 19 -2q37 0 50 25t13 77q0 54 -13 78t-50 24zM518 330v-49h-82v-78h96v-49h-155v297h155v-52h-96v-69h82zM203 150q-47 0 -74 4v292q61 9 76 9q67 0 96 -37.5t29 -116.5t-29.5 -115t-97.5 -36zM586 451h80l39 -164l38 164h82
q3 -45 13 -297h-60q0 108 -6 213l-41 -168h-55l-41 168h-2q-4 -140 -4 -213h-58q3 156 15 297zM987 150q-60 0 -84 35.5t-24 115.5q0 81 24 117.5t84 36.5t85.5 -37t25.5 -117q0 -79 -25.5 -115t-85.5 -36zM987 403q-29 0 -39 -23.5t-10 -78.5q0 -54 10 -78t39 -24
q30 0 40.5 24t10.5 78q0 55 -10 78.5t-41 23.5zM967 1016q49 0 79.5 -24.5t39 -51t8.5 -53.5q0 -43 -34.5 -72.5t-72.5 -34.5q-213 -23 -340 -147q3 8 9 22t25 53.5t39 75.5t50 80.5t59.5 76t66 53.5t71.5 22zM285 909q39 0 78 -21t69.5 -55t58.5 -74.5t48 -81.5t35 -75
t22 -55l8 -21q-117 148 -319 148q-49 0 -88 30t-39 76q0 53 33.5 91t93.5 38zM643 1214q38 -37 48.5 -102t-2.5 -131t-31.5 -126.5t-35.5 -98.5l-18 -39q20 191 -125 330q-35 35 -42 81.5t24 83.5q23 23 53 34t65 3.5t64 -35.5z" />
    <glyph glyph-name="parenright" unicode=")" 
d="M207 403q-13 0 -19 -2v-200q4 -2 19 -2q37 0 50 25t13 77q0 54 -13 78t-50 24zM518 330v-49h-82v-78h96v-49h-155v297h155v-52h-96v-69h82zM203 150q-47 0 -74 4v292q61 9 76 9q67 0 96 -37.5t29 -116.5t-29.5 -115t-97.5 -36zM586 451h80l39 -164l38 164h82
q3 -45 13 -297h-60q0 108 -6 213l-41 -168h-55l-41 168h-2q-4 -140 -4 -213h-58q3 156 15 297zM987 150q-60 0 -84 35.5t-24 115.5q0 81 24 117.5t84 36.5t85.5 -37t25.5 -117q0 -79 -25.5 -115t-85.5 -36zM987 403q-29 0 -39 -23.5t-10 -78.5q0 -54 10 -78t39 -24
q30 0 40.5 24t10.5 78q0 55 -10 78.5t-41 23.5zM967 1016q49 0 79.5 -24.5t39 -51t8.5 -53.5q0 -43 -34.5 -72.5t-72.5 -34.5q-213 -23 -340 -147q3 8 9 22t25 53.5t39 75.5t50 80.5t59.5 76t66 53.5t71.5 22zM285 909q39 0 78 -21t69.5 -55t58.5 -74.5t48 -81.5t35 -75
t22 -55l8 -21q-117 148 -319 148q-49 0 -88 30t-39 76q0 53 33.5 91t93.5 38zM643 1214q38 -37 48.5 -102t-2.5 -131t-31.5 -126.5t-35.5 -98.5l-18 -39q20 191 -125 330q-35 35 -42 81.5t24 83.5q23 23 53 34t65 3.5t64 -35.5z" />
    <glyph glyph-name="asterisk" unicode="*" 
d="M207 403q-13 0 -19 -2v-200q4 -2 19 -2q37 0 50 25t13 77q0 54 -13 78t-50 24zM518 330v-49h-82v-78h96v-49h-155v297h155v-52h-96v-69h82zM203 150q-47 0 -74 4v292q61 9 76 9q67 0 96 -37.5t29 -116.5t-29.5 -115t-97.5 -36zM586 451h80l39 -164l38 164h82
q3 -45 13 -297h-60q0 108 -6 213l-41 -168h-55l-41 168h-2q-4 -140 -4 -213h-58q3 156 15 297zM987 150q-60 0 -84 35.5t-24 115.5q0 81 24 117.5t84 36.5t85.5 -37t25.5 -117q0 -79 -25.5 -115t-85.5 -36zM987 403q-29 0 -39 -23.5t-10 -78.5q0 -54 10 -78t39 -24
q30 0 40.5 24t10.5 78q0 55 -10 78.5t-41 23.5zM967 1016q49 0 79.5 -24.5t39 -51t8.5 -53.5q0 -43 -34.5 -72.5t-72.5 -34.5q-213 -23 -340 -147q3 8 9 22t25 53.5t39 75.5t50 80.5t59.5 76t66 53.5t71.5 22zM285 909q39 0 78 -21t69.5 -55t58.5 -74.5t48 -81.5t35 -75
t22 -55l8 -21q-117 148 -319 148q-49 0 -88 30t-39 76q0 53 33.5 91t93.5 38zM643 1214q38 -37 48.5 -102t-2.5 -131t-31.5 -126.5t-35.5 -98.5l-18 -39q20 191 -125 330q-35 35 -42 81.5t24 83.5q23 23 53 34t65 3.5t64 -35.5z" />
    <glyph glyph-name="plus" unicode="+" 
d="M207 403q-13 0 -19 -2v-200q4 -2 19 -2q37 0 50 25t13 77q0 54 -13 78t-50 24zM518 330v-49h-82v-78h96v-49h-155v297h155v-52h-96v-69h82zM203 150q-47 0 -74 4v292q61 9 76 9q67 0 96 -37.5t29 -116.5t-29.5 -115t-97.5 -36zM586 451h80l39 -164l38 164h82
q3 -45 13 -297h-60q0 108 -6 213l-41 -168h-55l-41 168h-2q-4 -140 -4 -213h-58q3 156 15 297zM987 150q-60 0 -84 35.5t-24 115.5q0 81 24 117.5t84 36.5t85.5 -37t25.5 -117q0 -79 -25.5 -115t-85.5 -36zM987 403q-29 0 -39 -23.5t-10 -78.5q0 -54 10 -78t39 -24
q30 0 40.5 24t10.5 78q0 55 -10 78.5t-41 23.5zM967 1016q49 0 79.5 -24.5t39 -51t8.5 -53.5q0 -43 -34.5 -72.5t-72.5 -34.5q-213 -23 -340 -147q3 8 9 22t25 53.5t39 75.5t50 80.5t59.5 76t66 53.5t71.5 22zM285 909q39 0 78 -21t69.5 -55t58.5 -74.5t48 -81.5t35 -75
t22 -55l8 -21q-117 148 -319 148q-49 0 -88 30t-39 76q0 53 33.5 91t93.5 38zM643 1214q38 -37 48.5 -102t-2.5 -131t-31.5 -126.5t-35.5 -98.5l-18 -39q20 191 -125 330q-35 35 -42 81.5t24 83.5q23 23 53 34t65 3.5t64 -35.5z" />
    <glyph glyph-name="comma" unicode="," horiz-adv-x="563" 
d="M74 -309v151h14q94 0 138 13t59 41.5t16 91.5q-105 1 -166 59.5t-61 138.5q0 78 54 130.5t136 52.5q101 0 164.5 -73t63.5 -228q0 -188 -94 -282.5t-261 -94.5h-63z" />
    <glyph glyph-name="hyphen" unicode="-" 
d="M207 403q-13 0 -19 -2v-200q4 -2 19 -2q37 0 50 25t13 77q0 54 -13 78t-50 24zM518 330v-49h-82v-78h96v-49h-155v297h155v-52h-96v-69h82zM203 150q-47 0 -74 4v292q61 9 76 9q67 0 96 -37.5t29 -116.5t-29.5 -115t-97.5 -36zM586 451h80l39 -164l38 164h82
q3 -45 13 -297h-60q0 108 -6 213l-41 -168h-55l-41 168h-2q-4 -140 -4 -213h-58q3 156 15 297zM987 150q-60 0 -84 35.5t-24 115.5q0 81 24 117.5t84 36.5t85.5 -37t25.5 -117q0 -79 -25.5 -115t-85.5 -36zM987 403q-29 0 -39 -23.5t-10 -78.5q0 -54 10 -78t39 -24
q30 0 40.5 24t10.5 78q0 55 -10 78.5t-41 23.5zM967 1016q49 0 79.5 -24.5t39 -51t8.5 -53.5q0 -43 -34.5 -72.5t-72.5 -34.5q-213 -23 -340 -147q3 8 9 22t25 53.5t39 75.5t50 80.5t59.5 76t66 53.5t71.5 22zM285 909q39 0 78 -21t69.5 -55t58.5 -74.5t48 -81.5t35 -75
t22 -55l8 -21q-117 148 -319 148q-49 0 -88 30t-39 76q0 53 33.5 91t93.5 38zM643 1214q38 -37 48.5 -102t-2.5 -131t-31.5 -126.5t-35.5 -98.5l-18 -39q20 191 -125 330q-35 35 -42 81.5t24 83.5q23 23 53 34t65 3.5t64 -35.5z" />
    <glyph glyph-name="period" unicode="." horiz-adv-x="542" 
d="M272 -20q-83 0 -140.5 56t-57.5 138q0 83 57 139t141 56q82 0 140.5 -56t58.5 -139q0 -81 -58.5 -137.5t-140.5 -56.5z" />
    <glyph glyph-name="slash" unicode="/" 
d="M207 403q-13 0 -19 -2v-200q4 -2 19 -2q37 0 50 25t13 77q0 54 -13 78t-50 24zM518 330v-49h-82v-78h96v-49h-155v297h155v-52h-96v-69h82zM203 150q-47 0 -74 4v292q61 9 76 9q67 0 96 -37.5t29 -116.5t-29.5 -115t-97.5 -36zM586 451h80l39 -164l38 164h82
q3 -45 13 -297h-60q0 108 -6 213l-41 -168h-55l-41 168h-2q-4 -140 -4 -213h-58q3 156 15 297zM987 150q-60 0 -84 35.5t-24 115.5q0 81 24 117.5t84 36.5t85.5 -37t25.5 -117q0 -79 -25.5 -115t-85.5 -36zM987 403q-29 0 -39 -23.5t-10 -78.5q0 -54 10 -78t39 -24
q30 0 40.5 24t10.5 78q0 55 -10 78.5t-41 23.5zM967 1016q49 0 79.5 -24.5t39 -51t8.5 -53.5q0 -43 -34.5 -72.5t-72.5 -34.5q-213 -23 -340 -147q3 8 9 22t25 53.5t39 75.5t50 80.5t59.5 76t66 53.5t71.5 22zM285 909q39 0 78 -21t69.5 -55t58.5 -74.5t48 -81.5t35 -75
t22 -55l8 -21q-117 148 -319 148q-49 0 -88 30t-39 76q0 53 33.5 91t93.5 38zM643 1214q38 -37 48.5 -102t-2.5 -131t-31.5 -126.5t-35.5 -98.5l-18 -39q20 191 -125 330q-35 35 -42 81.5t24 83.5q23 23 53 34t65 3.5t64 -35.5z" />
    <glyph glyph-name="zero" unicode="0" horiz-adv-x="1308" 
d="M655 -20q-86 0 -165.5 22t-156.5 76.5t-133.5 136t-91 211t-34.5 291.5q0 161 34.5 289.5t91 210.5t133.5 136t156.5 76.5t165.5 22.5t166 -22.5t157 -76.5t133.5 -136t91 -210.5t34.5 -289.5q0 -162 -34.5 -291.5t-91 -211t-133.5 -136t-157 -76.5t-166 -22zM655 260
q75 0 128 39t80.5 107.5t39.5 144t12 166.5q0 70 -7 131.5t-25 122.5t-46 104t-75 69.5t-107 26.5q-76 0 -129.5 -39t-81 -107t-39.5 -143t-12 -165q0 -91 12 -166.5t39.5 -144t81 -107.5t129.5 -39z" />
    <glyph glyph-name="one" unicode="1" horiz-adv-x="878" 
d="M397 0v1028q-100 -102 -323 -102v274q131 16 208.5 69t114.5 165h336v-1434h-336z" />
    <glyph glyph-name="two" unicode="2" horiz-adv-x="1204" 
d="M82 0v72q0 104 15.5 183.5t55.5 158t114 147t186 133.5q25 14 67 37t63.5 35.5t54 32.5t50 34t38.5 35t31.5 40.5t18 44.5t8.5 53q1 49 -15 82.5t-44.5 49.5t-56.5 22.5t-60 6.5q-79 0 -130.5 -46.5t-51.5 -151.5v-29h-324v43q0 99 28.5 181t87.5 148t159.5 103t234.5 37
q246 0 377 -115.5t131 -308.5q0 -81 -26.5 -151.5t-56.5 -114.5t-93 -92.5t-95 -67.5t-104 -58q-11 -6 -16 -9q-148 -84 -205 -140.5t-57 -111.5v-7h645v-276h-1030z" />
    <glyph glyph-name="three" unicode="3" horiz-adv-x="1234" 
d="M600 -20q-139 0 -243.5 37t-168.5 106t-95 162.5t-30 210.5h316q1 -67 21 -114.5t55 -72.5t73.5 -36t83.5 -11q56 0 103.5 15.5t83 57t35.5 103.5q0 80 -57.5 129t-186.5 49h-90v240h75q57 0 99 11.5t64 27t34.5 39t15.5 40.5t3 38q0 77 -51 115t-124 38q-36 0 -67.5 -10
t-60.5 -32t-47 -64t-19 -101h-313q0 232 131 363t383 131q226 0 360.5 -104t134.5 -277q0 -72 -23 -131t-59.5 -95.5t-74.5 -58t-76 -28.5q29 -2 63.5 -13t75.5 -37t73.5 -62.5t54.5 -96t22 -131.5q0 -192 -155.5 -315t-418.5 -123z" />
    <glyph glyph-name="four" unicode="4" 
d="M207 403q-13 0 -19 -2v-200q4 -2 19 -2q37 0 50 25t13 77q0 54 -13 78t-50 24zM518 330v-49h-82v-78h96v-49h-155v297h155v-52h-96v-69h82zM203 150q-47 0 -74 4v292q61 9 76 9q67 0 96 -37.5t29 -116.5t-29.5 -115t-97.5 -36zM586 451h80l39 -164l38 164h82
q3 -45 13 -297h-60q0 108 -6 213l-41 -168h-55l-41 168h-2q-4 -140 -4 -213h-58q3 156 15 297zM987 150q-60 0 -84 35.5t-24 115.5q0 81 24 117.5t84 36.5t85.5 -37t25.5 -117q0 -79 -25.5 -115t-85.5 -36zM987 403q-29 0 -39 -23.5t-10 -78.5q0 -54 10 -78t39 -24
q30 0 40.5 24t10.5 78q0 55 -10 78.5t-41 23.5zM967 1016q49 0 79.5 -24.5t39 -51t8.5 -53.5q0 -43 -34.5 -72.5t-72.5 -34.5q-213 -23 -340 -147q3 8 9 22t25 53.5t39 75.5t50 80.5t59.5 76t66 53.5t71.5 22zM285 909q39 0 78 -21t69.5 -55t58.5 -74.5t48 -81.5t35 -75
t22 -55l8 -21q-117 148 -319 148q-49 0 -88 30t-39 76q0 53 33.5 91t93.5 38zM643 1214q38 -37 48.5 -102t-2.5 -131t-31.5 -126.5t-35.5 -98.5l-18 -39q20 191 -125 330q-35 35 -42 81.5t24 83.5q23 23 53 34t65 3.5t64 -35.5z" />
    <glyph glyph-name="five" unicode="5" horiz-adv-x="1230" 
d="M707 995q206 0 338.5 -135.5t132.5 -363.5q0 -246 -150.5 -381t-404.5 -135q-257 0 -400.5 133.5t-138.5 351.5h303q2 -60 25 -104t58.5 -67t71 -33.5t70.5 -10.5q28 0 55.5 5t60.5 21.5t57.5 42.5t41.5 71.5t17 105.5q0 61 -17 107.5t-41.5 72t-57.5 41t-59.5 20
t-52.5 4.5q-69 0 -128 -33.5t-80 -89.5h-308l121 816h819v-267h-589l-37 -274q5 6 14.5 15t35.5 25t57 29t81 23t105 10z" />
    <glyph glyph-name="six" unicode="6" horiz-adv-x="1259" 
d="M713 950q63 0 124.5 -13.5t126 -48.5t112.5 -87.5t79 -137.5t31 -192q0 -114 -36.5 -203.5t-93 -142t-131 -87t-142.5 -46.5t-136 -12q-75 0 -142.5 16.5t-131.5 52t-116 95t-91 139.5t-60.5 193t-21.5 249q0 165 34.5 297t104.5 229t181.5 149t259.5 52q102 0 187 -26
t140.5 -69t94 -99t54.5 -115t15 -119h-295q-27 164 -205 164q-65 0 -114.5 -27.5t-76.5 -67t-43.5 -93t-21.5 -96.5t-4 -85q62 58 136 94.5t182 36.5zM645 250q36 0 71.5 11t70.5 35t57 70.5t22 108.5q0 50 -15 90.5t-38.5 64.5t-54 40t-59 22t-56.5 6q-34 0 -69 -10.5
t-69.5 -34t-56.5 -70t-22 -108.5q0 -64 22 -110.5t57.5 -70t70 -34t69.5 -10.5z" />
    <glyph glyph-name="seven" unicode="7" horiz-adv-x="1064" 
d="M221 0q22 290 137.5 574t315.5 585h-613v275h932v-275q-204 -301 -320.5 -584t-137.5 -575h-314z" />
    <glyph glyph-name="eight" unicode="8" horiz-adv-x="1245" 
d="M623 -20q-116 0 -217.5 30.5t-178 86.5t-120.5 142.5t-44 192.5q0 268 279 381q-178 96 -178 291q0 152 123 250t336 98t335.5 -98t122.5 -250q0 -195 -178 -291q281 -114 281 -381q0 -140 -76.5 -244.5t-202.5 -156t-282 -51.5zM623 899q84 0 129 46t45 118
q0 76 -46.5 123t-127.5 47t-127.5 -47t-46.5 -123q0 -72 45 -118t129 -46zM623 240q118 0 174.5 63t56.5 158q0 101 -65 163t-166 62t-166.5 -62t-65.5 -163q0 -95 57 -158t175 -63z" />
    <glyph glyph-name="nine" unicode="9" horiz-adv-x="1263" 
d="M616 1450q90 0 170 -23.5t153 -78.5t126 -138.5t84 -212.5t31 -292q0 -165 -35 -297t-105 -229t-181.5 -149.5t-258.5 -52.5q-127 0 -226 39.5t-155.5 103.5t-84 137t-25.5 149h294q24 -164 205 -164q65 0 114.5 27t76.5 66.5t43.5 92.5t21.5 96t4 86
q-62 -58 -135.5 -94.5t-181.5 -36.5q-63 0 -125 13.5t-126.5 48.5t-113 87.5t-79.5 137.5t-31 192q0 114 37 203.5t93 142.5t131 87t143 46.5t136 12.5zM621 733q34 0 69 10.5t69.5 34t56.5 69t22 107.5q0 52 -15 92.5t-38.5 65t-54 40.5t-58 22t-54.5 6q-36 0 -71.5 -11
t-70.5 -35t-57 -71t-22 -109t22.5 -107.5t58 -69t71.5 -34t72 -10.5z" />
    <glyph glyph-name="colon" unicode=":" horiz-adv-x="542" 
d="M272 676q-84 0 -141 55.5t-57 138.5q0 82 57.5 138.5t140.5 56.5q82 0 140.5 -57t58.5 -138q0 -82 -58 -138t-141 -56zM272 -20q-83 0 -140.5 56t-57.5 138q0 83 57 139t141 56q82 0 140.5 -56t58.5 -139q0 -81 -58.5 -137.5t-140.5 -56.5z" />
    <glyph glyph-name="semicolon" unicode=";" horiz-adv-x="563" 
d="M272 676q-84 0 -141 55.5t-57 138.5q0 82 57.5 138.5t140.5 56.5q82 0 140.5 -57t58.5 -138q0 -82 -58 -138t-141 -56zM74 -309v151h14q94 0 138 13t59 41.5t16 91.5q-105 1 -166 59.5t-61 138.5q0 78 54 130.5t136 52.5q101 0 164.5 -73t63.5 -228q0 -188 -94 -282.5
t-261 -94.5h-63z" />
    <glyph glyph-name="less" unicode="&#x3c;" 
d="M207 403q-13 0 -19 -2v-200q4 -2 19 -2q37 0 50 25t13 77q0 54 -13 78t-50 24zM518 330v-49h-82v-78h96v-49h-155v297h155v-52h-96v-69h82zM203 150q-47 0 -74 4v292q61 9 76 9q67 0 96 -37.5t29 -116.5t-29.5 -115t-97.5 -36zM586 451h80l39 -164l38 164h82
q3 -45 13 -297h-60q0 108 -6 213l-41 -168h-55l-41 168h-2q-4 -140 -4 -213h-58q3 156 15 297zM987 150q-60 0 -84 35.5t-24 115.5q0 81 24 117.5t84 36.5t85.5 -37t25.5 -117q0 -79 -25.5 -115t-85.5 -36zM987 403q-29 0 -39 -23.5t-10 -78.5q0 -54 10 -78t39 -24
q30 0 40.5 24t10.5 78q0 55 -10 78.5t-41 23.5zM967 1016q49 0 79.5 -24.5t39 -51t8.5 -53.5q0 -43 -34.5 -72.5t-72.5 -34.5q-213 -23 -340 -147q3 8 9 22t25 53.5t39 75.5t50 80.5t59.5 76t66 53.5t71.5 22zM285 909q39 0 78 -21t69.5 -55t58.5 -74.5t48 -81.5t35 -75
t22 -55l8 -21q-117 148 -319 148q-49 0 -88 30t-39 76q0 53 33.5 91t93.5 38zM643 1214q38 -37 48.5 -102t-2.5 -131t-31.5 -126.5t-35.5 -98.5l-18 -39q20 191 -125 330q-35 35 -42 81.5t24 83.5q23 23 53 34t65 3.5t64 -35.5z" />
    <glyph glyph-name="equal" unicode="=" 
d="M207 403q-13 0 -19 -2v-200q4 -2 19 -2q37 0 50 25t13 77q0 54 -13 78t-50 24zM518 330v-49h-82v-78h96v-49h-155v297h155v-52h-96v-69h82zM203 150q-47 0 -74 4v292q61 9 76 9q67 0 96 -37.5t29 -116.5t-29.5 -115t-97.5 -36zM586 451h80l39 -164l38 164h82
q3 -45 13 -297h-60q0 108 -6 213l-41 -168h-55l-41 168h-2q-4 -140 -4 -213h-58q3 156 15 297zM987 150q-60 0 -84 35.5t-24 115.5q0 81 24 117.5t84 36.5t85.5 -37t25.5 -117q0 -79 -25.5 -115t-85.5 -36zM987 403q-29 0 -39 -23.5t-10 -78.5q0 -54 10 -78t39 -24
q30 0 40.5 24t10.5 78q0 55 -10 78.5t-41 23.5zM967 1016q49 0 79.5 -24.5t39 -51t8.5 -53.5q0 -43 -34.5 -72.5t-72.5 -34.5q-213 -23 -340 -147q3 8 9 22t25 53.5t39 75.5t50 80.5t59.5 76t66 53.5t71.5 22zM285 909q39 0 78 -21t69.5 -55t58.5 -74.5t48 -81.5t35 -75
t22 -55l8 -21q-117 148 -319 148q-49 0 -88 30t-39 76q0 53 33.5 91t93.5 38zM643 1214q38 -37 48.5 -102t-2.5 -131t-31.5 -126.5t-35.5 -98.5l-18 -39q20 191 -125 330q-35 35 -42 81.5t24 83.5q23 23 53 34t65 3.5t64 -35.5z" />
    <glyph glyph-name="greater" unicode="&#x3e;" 
d="M207 403q-13 0 -19 -2v-200q4 -2 19 -2q37 0 50 25t13 77q0 54 -13 78t-50 24zM518 330v-49h-82v-78h96v-49h-155v297h155v-52h-96v-69h82zM203 150q-47 0 -74 4v292q61 9 76 9q67 0 96 -37.5t29 -116.5t-29.5 -115t-97.5 -36zM586 451h80l39 -164l38 164h82
q3 -45 13 -297h-60q0 108 -6 213l-41 -168h-55l-41 168h-2q-4 -140 -4 -213h-58q3 156 15 297zM987 150q-60 0 -84 35.5t-24 115.5q0 81 24 117.5t84 36.5t85.5 -37t25.5 -117q0 -79 -25.5 -115t-85.5 -36zM987 403q-29 0 -39 -23.5t-10 -78.5q0 -54 10 -78t39 -24
q30 0 40.5 24t10.5 78q0 55 -10 78.5t-41 23.5zM967 1016q49 0 79.5 -24.5t39 -51t8.5 -53.5q0 -43 -34.5 -72.5t-72.5 -34.5q-213 -23 -340 -147q3 8 9 22t25 53.5t39 75.5t50 80.5t59.5 76t66 53.5t71.5 22zM285 909q39 0 78 -21t69.5 -55t58.5 -74.5t48 -81.5t35 -75
t22 -55l8 -21q-117 148 -319 148q-49 0 -88 30t-39 76q0 53 33.5 91t93.5 38zM643 1214q38 -37 48.5 -102t-2.5 -131t-31.5 -126.5t-35.5 -98.5l-18 -39q20 191 -125 330q-35 35 -42 81.5t24 83.5q23 23 53 34t65 3.5t64 -35.5z" />
    <glyph glyph-name="question" unicode="?" horiz-adv-x="1181" 
d="M449 485v45q0 95 31.5 167t76.5 113.5t89.5 74t76 67.5t31.5 76q0 22 -5.5 42t-20 42t-45.5 35.5t-75 13.5q-55 0 -92.5 -18t-55.5 -51.5t-25 -68t-7 -79.5h-336q-2 110 25.5 197t75 143.5t115 94t141.5 53.5t159 16q215 0 348.5 -110.5t133.5 -309.5q0 -61 -15.5 -108.5
t-40.5 -78.5t-54.5 -57t-59.5 -49.5t-55 -50t-40.5 -65.5t-15.5 -89v-45h-360zM621 -20q-83 0 -141 56t-58 138q0 83 57.5 139t141.5 56q82 0 140 -56t58 -139q0 -81 -58 -137.5t-140 -56.5z" />
    <glyph glyph-name="at" unicode="@" 
d="M207 403q-13 0 -19 -2v-200q4 -2 19 -2q37 0 50 25t13 77q0 54 -13 78t-50 24zM518 330v-49h-82v-78h96v-49h-155v297h155v-52h-96v-69h82zM203 150q-47 0 -74 4v292q61 9 76 9q67 0 96 -37.5t29 -116.5t-29.5 -115t-97.5 -36zM586 451h80l39 -164l38 164h82
q3 -45 13 -297h-60q0 108 -6 213l-41 -168h-55l-41 168h-2q-4 -140 -4 -213h-58q3 156 15 297zM987 150q-60 0 -84 35.5t-24 115.5q0 81 24 117.5t84 36.5t85.5 -37t25.5 -117q0 -79 -25.5 -115t-85.5 -36zM987 403q-29 0 -39 -23.5t-10 -78.5q0 -54 10 -78t39 -24
q30 0 40.5 24t10.5 78q0 55 -10 78.5t-41 23.5zM967 1016q49 0 79.5 -24.5t39 -51t8.5 -53.5q0 -43 -34.5 -72.5t-72.5 -34.5q-213 -23 -340 -147q3 8 9 22t25 53.5t39 75.5t50 80.5t59.5 76t66 53.5t71.5 22zM285 909q39 0 78 -21t69.5 -55t58.5 -74.5t48 -81.5t35 -75
t22 -55l8 -21q-117 148 -319 148q-49 0 -88 30t-39 76q0 53 33.5 91t93.5 38zM643 1214q38 -37 48.5 -102t-2.5 -131t-31.5 -126.5t-35.5 -98.5l-18 -39q20 191 -125 330q-35 35 -42 81.5t24 83.5q23 23 53 34t65 3.5t64 -35.5z" />
    <glyph glyph-name="A" unicode="A" horiz-adv-x="1529" 
d="M1137 0l-82 244h-580l-82 -244h-360l510 1434h444l512 -1434h-362zM559 498h412l-195 587h-20z" />
    <glyph glyph-name="B" unicode="B" horiz-adv-x="1325" 
d="M104 0v1434h594q238 0 357 -95.5t119 -265.5q0 -116 -51.5 -183.5t-153.5 -101.5q305 -82 305 -364q0 -89 -32 -164t-96 -134t-171 -92.5t-248 -33.5h-623zM446 858h240q59 0 100 35.5t41 112.5q0 73 -41 106t-100 33h-240v-287zM446 289h269q109 0 156 49t47 125
q0 79 -47 129.5t-156 50.5h-269v-354z" />
    <glyph glyph-name="C" unicode="C" horiz-adv-x="1425" 
d="M748 -20q-312 0 -493 197t-181 540q0 342 181.5 538.5t492.5 196.5q126 0 232 -32t189.5 -95.5t134.5 -168t60 -241.5h-336q-59 240 -280 240q-87 0 -150.5 -34.5t-100 -96t-53 -138t-16.5 -169.5q0 -94 16 -170t52 -139t100 -97.5t152 -34.5q221 0 280 242h336
q-9 -138 -60 -242.5t-134.5 -168.5t-189 -95.5t-232.5 -31.5z" />
    <glyph glyph-name="D" unicode="D" horiz-adv-x="1419" 
d="M104 0v1434h564q332 0 505 -185t173 -532t-173 -532t-505 -185h-564zM446 299h187q202 0 281 95.5t79 322.5t-79 322.5t-281 95.5h-187v-836z" />
    <glyph glyph-name="E" unicode="E" horiz-adv-x="1173" 
d="M104 0v1434h998v-299h-656v-279h594v-266h-594v-291h676v-299h-1018z" />
    <glyph glyph-name="F" unicode="F" horiz-adv-x="1122" 
d="M104 0v1434h957v-299h-615v-291h510v-277h-510v-567h-342z" />
    <glyph glyph-name="G" unicode="G" horiz-adv-x="1468" 
d="M762 -20q-329 0 -508.5 194.5t-179.5 538.5t185.5 541.5t496.5 197.5q116 0 216.5 -29t183 -88t137 -155.5t71.5 -223.5h-342q-17 60 -48.5 101.5t-71 61.5t-75 28t-73.5 8q-85 0 -149 -34t-102 -95t-56.5 -137.5t-18.5 -167.5q0 -92 18 -169.5t56 -140.5t102 -99
t150 -36q41 0 78.5 7t76 25t67 45.5t46 72t18.5 100.5h-252v279h596v-127q0 -698 -622 -698z" />
    <glyph glyph-name="H" unicode="H" horiz-adv-x="1402" 
d="M956 1434h344v-1434h-344v578h-510v-578h-342v1434h342v-572h510v572z" />
    <glyph glyph-name="I" unicode="I" horiz-adv-x="550" 
d="M104 0v1434h342v-1434h-342z" />
    <glyph glyph-name="J" unicode="J" horiz-adv-x="1409" 
d="M707 -20q-136 0 -245.5 34.5t-190 103t-124 177t-43.5 250.5h347q0 -129 66.5 -197.5t189.5 -68.5t189.5 73t66.5 219v863h344v-889q0 -142 -44 -251t-125 -177t-189.5 -102.5t-241.5 -34.5z" />
    <glyph glyph-name="K" unicode="K" horiz-adv-x="1472" 
d="M1047 0l-410 551l-191 -225v-326h-342v1434h342v-646l535 646h403l-536 -635l594 -799h-395z" />
    <glyph glyph-name="L" unicode="L" horiz-adv-x="1138" 
d="M104 0v1434h342v-1135h641v-299h-983z" />
    <glyph glyph-name="M" unicode="M" horiz-adv-x="1748" 
d="M104 0v1434h435l335 -963l336 963h437v-1434h-344v844h-13l-289 -844h-253l-289 844h-13v-844h-342z" />
    <glyph glyph-name="N" unicode="N" horiz-adv-x="1441" 
d="M104 0v1434h355l528 -879h8v879h344v-1434h-368l-516 856h-9v-856h-342z" />
    <glyph glyph-name="O" unicode="O" horiz-adv-x="1531" 
d="M766 -20q-208 0 -366 94.5t-242 261.5t-84 381q0 215 84 381.5t241.5 260t366.5 93.5t367 -93.5t242.5 -260t84.5 -381.5q0 -214 -84.5 -381t-243 -261.5t-366.5 -94.5zM766 276q163 0 250.5 120.5t87.5 320.5t-87.5 319t-250.5 119t-250.5 -119t-87.5 -319t87.5 -320.5
t250.5 -120.5z" />
    <glyph glyph-name="P" unicode="P" horiz-adv-x="1310" 
d="M104 0v1434h594q144 0 252.5 -36.5t175 -102.5t99 -153.5t32.5 -195.5t-32.5 -196t-99 -154.5t-175 -102.5t-252.5 -36h-252v-457h-342zM446 756h240q111 0 164 50.5t53 139.5q0 88 -53 138.5t-164 50.5h-240v-379z" />
    <glyph glyph-name="Q" unicode="Q" horiz-adv-x="1531" 
d="M1460 717q0 -266 -127 -453l119 -121l-209 -194l-119 121q-158 -90 -358 -90q-208 0 -366 94.5t-242 261.5t-84 381q0 215 84 381.5t241.5 260t366.5 93.5t367 -93.5t242.5 -260t84.5 -381.5zM766 276q71 0 129 25l-172 174l209 195l145 -148q27 86 27 195
q0 200 -87.5 319t-250.5 119t-250.5 -119t-87.5 -319t87.5 -320.5t250.5 -120.5z" />
    <glyph glyph-name="R" unicode="R" horiz-adv-x="1325" 
d="M1272 0h-340l-258 457h-228v-457h-342v1434h594q144 0 252.5 -36.5t175 -102.5t99 -153.5t32.5 -195.5q0 -158 -68.5 -272.5t-209.5 -169.5zM446 1135v-379h240q111 0 164 50.5t53 139.5q0 88 -53 138.5t-164 50.5h-240z" />
    <glyph glyph-name="S" unicode="S" horiz-adv-x="1355" 
d="M686 -20q-283 0 -447.5 129.5t-164.5 373.5h356q5 -98 68.5 -158.5t189.5 -60.5q109 0 169.5 42.5t60.5 121.5q0 61 -41.5 95.5t-131.5 51.5l-210 41q-71 13 -129 32t-114.5 52.5t-94.5 77t-61 107.5t-23 143q0 140 72.5 237t195.5 142t287 45q127 0 231.5 -28.5
t182 -83.5t120.5 -142.5t43 -200.5h-356q4 88 -56.5 129t-158.5 41q-105 0 -153 -43t-48 -108q0 -111 135 -135l197 -37q176 -32 282.5 -90t150.5 -136.5t44 -189.5q0 -116 -47 -204t-130 -140t-188.5 -78t-230.5 -26z" />
    <glyph glyph-name="T" unicode="T" horiz-adv-x="1241" 
d="M449 0v1135h-406v299h1157v-299h-407v-1135h-344z" />
    <glyph glyph-name="U" unicode="U" horiz-adv-x="1409" 
d="M707 -20q-135 0 -244.5 34.5t-190 102.5t-124.5 177t-44 251v889h347v-863q0 -144 67 -218t189 -74q121 0 186 73.5t65 218.5v863h349v-889q0 -142 -44 -251t-125 -177t-189.5 -102.5t-241.5 -34.5z" />
    <glyph glyph-name="V" unicode="V" horiz-adv-x="1550" 
d="M553 0l-510 1434h360l363 -1086h20l361 1086h362l-512 -1434h-444z" />
    <glyph glyph-name="W" unicode="W" horiz-adv-x="2101" 
d="M412 0l-369 1434h352l211 -949h12l256 949h353l256 -949h12l211 949h354l-370 -1434h-357l-282 1001l-283 -1001h-356z" />
    <glyph glyph-name="X" unicode="X" horiz-adv-x="1406" 
d="M1376 0h-387l-284 440l-287 -440h-385l479 737l-453 697h385l261 -400l258 400h385l-451 -697z" />
    <glyph glyph-name="Y" unicode="Y" horiz-adv-x="1472" 
d="M559 0v518l-516 916h391l303 -582l303 582h392l-519 -916v-518h-354z" />
    <glyph glyph-name="Z" unicode="Z" horiz-adv-x="1277" 
d="M82 0v299l725 836h-713v299h1094l2 -299l-731 -836h737v-299h-1114z" />
    <glyph glyph-name="bracketleft" unicode="[" 
d="M207 403q-13 0 -19 -2v-200q4 -2 19 -2q37 0 50 25t13 77q0 54 -13 78t-50 24zM518 330v-49h-82v-78h96v-49h-155v297h155v-52h-96v-69h82zM203 150q-47 0 -74 4v292q61 9 76 9q67 0 96 -37.5t29 -116.5t-29.5 -115t-97.5 -36zM586 451h80l39 -164l38 164h82
q3 -45 13 -297h-60q0 108 -6 213l-41 -168h-55l-41 168h-2q-4 -140 -4 -213h-58q3 156 15 297zM987 150q-60 0 -84 35.5t-24 115.5q0 81 24 117.5t84 36.5t85.5 -37t25.5 -117q0 -79 -25.5 -115t-85.5 -36zM987 403q-29 0 -39 -23.5t-10 -78.5q0 -54 10 -78t39 -24
q30 0 40.5 24t10.5 78q0 55 -10 78.5t-41 23.5zM967 1016q49 0 79.5 -24.5t39 -51t8.5 -53.5q0 -43 -34.5 -72.5t-72.5 -34.5q-213 -23 -340 -147q3 8 9 22t25 53.5t39 75.5t50 80.5t59.5 76t66 53.5t71.5 22zM285 909q39 0 78 -21t69.5 -55t58.5 -74.5t48 -81.5t35 -75
t22 -55l8 -21q-117 148 -319 148q-49 0 -88 30t-39 76q0 53 33.5 91t93.5 38zM643 1214q38 -37 48.5 -102t-2.5 -131t-31.5 -126.5t-35.5 -98.5l-18 -39q20 191 -125 330q-35 35 -42 81.5t24 83.5q23 23 53 34t65 3.5t64 -35.5z" />
    <glyph glyph-name="backslash" unicode="\" 
d="M207 403q-13 0 -19 -2v-200q4 -2 19 -2q37 0 50 25t13 77q0 54 -13 78t-50 24zM518 330v-49h-82v-78h96v-49h-155v297h155v-52h-96v-69h82zM203 150q-47 0 -74 4v292q61 9 76 9q67 0 96 -37.5t29 -116.5t-29.5 -115t-97.5 -36zM586 451h80l39 -164l38 164h82
q3 -45 13 -297h-60q0 108 -6 213l-41 -168h-55l-41 168h-2q-4 -140 -4 -213h-58q3 156 15 297zM987 150q-60 0 -84 35.5t-24 115.5q0 81 24 117.5t84 36.5t85.5 -37t25.5 -117q0 -79 -25.5 -115t-85.5 -36zM987 403q-29 0 -39 -23.5t-10 -78.5q0 -54 10 -78t39 -24
q30 0 40.5 24t10.5 78q0 55 -10 78.5t-41 23.5zM967 1016q49 0 79.5 -24.5t39 -51t8.5 -53.5q0 -43 -34.5 -72.5t-72.5 -34.5q-213 -23 -340 -147q3 8 9 22t25 53.5t39 75.5t50 80.5t59.5 76t66 53.5t71.5 22zM285 909q39 0 78 -21t69.5 -55t58.5 -74.5t48 -81.5t35 -75
t22 -55l8 -21q-117 148 -319 148q-49 0 -88 30t-39 76q0 53 33.5 91t93.5 38zM643 1214q38 -37 48.5 -102t-2.5 -131t-31.5 -126.5t-35.5 -98.5l-18 -39q20 191 -125 330q-35 35 -42 81.5t24 83.5q23 23 53 34t65 3.5t64 -35.5z" />
    <glyph glyph-name="bracketright" unicode="]" 
d="M207 403q-13 0 -19 -2v-200q4 -2 19 -2q37 0 50 25t13 77q0 54 -13 78t-50 24zM518 330v-49h-82v-78h96v-49h-155v297h155v-52h-96v-69h82zM203 150q-47 0 -74 4v292q61 9 76 9q67 0 96 -37.5t29 -116.5t-29.5 -115t-97.5 -36zM586 451h80l39 -164l38 164h82
q3 -45 13 -297h-60q0 108 -6 213l-41 -168h-55l-41 168h-2q-4 -140 -4 -213h-58q3 156 15 297zM987 150q-60 0 -84 35.5t-24 115.5q0 81 24 117.5t84 36.5t85.5 -37t25.5 -117q0 -79 -25.5 -115t-85.5 -36zM987 403q-29 0 -39 -23.5t-10 -78.5q0 -54 10 -78t39 -24
q30 0 40.5 24t10.5 78q0 55 -10 78.5t-41 23.5zM967 1016q49 0 79.5 -24.5t39 -51t8.5 -53.5q0 -43 -34.5 -72.5t-72.5 -34.5q-213 -23 -340 -147q3 8 9 22t25 53.5t39 75.5t50 80.5t59.5 76t66 53.5t71.5 22zM285 909q39 0 78 -21t69.5 -55t58.5 -74.5t48 -81.5t35 -75
t22 -55l8 -21q-117 148 -319 148q-49 0 -88 30t-39 76q0 53 33.5 91t93.5 38zM643 1214q38 -37 48.5 -102t-2.5 -131t-31.5 -126.5t-35.5 -98.5l-18 -39q20 191 -125 330q-35 35 -42 81.5t24 83.5q23 23 53 34t65 3.5t64 -35.5z" />
    <glyph glyph-name="asciicircum" unicode="^" 
d="M207 403q-13 0 -19 -2v-200q4 -2 19 -2q37 0 50 25t13 77q0 54 -13 78t-50 24zM518 330v-49h-82v-78h96v-49h-155v297h155v-52h-96v-69h82zM203 150q-47 0 -74 4v292q61 9 76 9q67 0 96 -37.5t29 -116.5t-29.5 -115t-97.5 -36zM586 451h80l39 -164l38 164h82
q3 -45 13 -297h-60q0 108 -6 213l-41 -168h-55l-41 168h-2q-4 -140 -4 -213h-58q3 156 15 297zM987 150q-60 0 -84 35.5t-24 115.5q0 81 24 117.5t84 36.5t85.5 -37t25.5 -117q0 -79 -25.5 -115t-85.5 -36zM987 403q-29 0 -39 -23.5t-10 -78.5q0 -54 10 -78t39 -24
q30 0 40.5 24t10.5 78q0 55 -10 78.5t-41 23.5zM967 1016q49 0 79.5 -24.5t39 -51t8.5 -53.5q0 -43 -34.5 -72.5t-72.5 -34.5q-213 -23 -340 -147q3 8 9 22t25 53.5t39 75.5t50 80.5t59.5 76t66 53.5t71.5 22zM285 909q39 0 78 -21t69.5 -55t58.5 -74.5t48 -81.5t35 -75
t22 -55l8 -21q-117 148 -319 148q-49 0 -88 30t-39 76q0 53 33.5 91t93.5 38zM643 1214q38 -37 48.5 -102t-2.5 -131t-31.5 -126.5t-35.5 -98.5l-18 -39q20 191 -125 330q-35 35 -42 81.5t24 83.5q23 23 53 34t65 3.5t64 -35.5z" />
    <glyph glyph-name="underscore" unicode="_" 
d="M207 403q-13 0 -19 -2v-200q4 -2 19 -2q37 0 50 25t13 77q0 54 -13 78t-50 24zM518 330v-49h-82v-78h96v-49h-155v297h155v-52h-96v-69h82zM203 150q-47 0 -74 4v292q61 9 76 9q67 0 96 -37.5t29 -116.5t-29.5 -115t-97.5 -36zM586 451h80l39 -164l38 164h82
q3 -45 13 -297h-60q0 108 -6 213l-41 -168h-55l-41 168h-2q-4 -140 -4 -213h-58q3 156 15 297zM987 150q-60 0 -84 35.5t-24 115.5q0 81 24 117.5t84 36.5t85.5 -37t25.5 -117q0 -79 -25.5 -115t-85.5 -36zM987 403q-29 0 -39 -23.5t-10 -78.5q0 -54 10 -78t39 -24
q30 0 40.5 24t10.5 78q0 55 -10 78.5t-41 23.5zM967 1016q49 0 79.5 -24.5t39 -51t8.5 -53.5q0 -43 -34.5 -72.5t-72.5 -34.5q-213 -23 -340 -147q3 8 9 22t25 53.5t39 75.5t50 80.5t59.5 76t66 53.5t71.5 22zM285 909q39 0 78 -21t69.5 -55t58.5 -74.5t48 -81.5t35 -75
t22 -55l8 -21q-117 148 -319 148q-49 0 -88 30t-39 76q0 53 33.5 91t93.5 38zM643 1214q38 -37 48.5 -102t-2.5 -131t-31.5 -126.5t-35.5 -98.5l-18 -39q20 191 -125 330q-35 35 -42 81.5t24 83.5q23 23 53 34t65 3.5t64 -35.5z" />
    <glyph glyph-name="grave" unicode="`" 
d="M207 403q-13 0 -19 -2v-200q4 -2 19 -2q37 0 50 25t13 77q0 54 -13 78t-50 24zM518 330v-49h-82v-78h96v-49h-155v297h155v-52h-96v-69h82zM203 150q-47 0 -74 4v292q61 9 76 9q67 0 96 -37.5t29 -116.5t-29.5 -115t-97.5 -36zM586 451h80l39 -164l38 164h82
q3 -45 13 -297h-60q0 108 -6 213l-41 -168h-55l-41 168h-2q-4 -140 -4 -213h-58q3 156 15 297zM987 150q-60 0 -84 35.5t-24 115.5q0 81 24 117.5t84 36.5t85.5 -37t25.5 -117q0 -79 -25.5 -115t-85.5 -36zM987 403q-29 0 -39 -23.5t-10 -78.5q0 -54 10 -78t39 -24
q30 0 40.5 24t10.5 78q0 55 -10 78.5t-41 23.5zM967 1016q49 0 79.5 -24.5t39 -51t8.5 -53.5q0 -43 -34.5 -72.5t-72.5 -34.5q-213 -23 -340 -147q3 8 9 22t25 53.5t39 75.5t50 80.5t59.5 76t66 53.5t71.5 22zM285 909q39 0 78 -21t69.5 -55t58.5 -74.5t48 -81.5t35 -75
t22 -55l8 -21q-117 148 -319 148q-49 0 -88 30t-39 76q0 53 33.5 91t93.5 38zM643 1214q38 -37 48.5 -102t-2.5 -131t-31.5 -126.5t-35.5 -98.5l-18 -39q20 191 -125 330q-35 35 -42 81.5t24 83.5q23 23 53 34t65 3.5t64 -35.5z" />
    <glyph glyph-name="a" unicode="a" horiz-adv-x="1153" 
d="M590 1085q243 0 351 -86t108 -262v-737h-320v182h-12q-3 -23 -22 -54t-54.5 -65.5t-100.5 -58.5t-145 -24q-65 0 -123 16t-108.5 50t-80.5 94t-30 139q0 58 15.5 105t45.5 77.5t63.5 52.5t79.5 35.5t82 20.5t83 12l199 26q61 7 76.5 27.5t15.5 81.5q0 73 -35.5 98
t-97.5 25q-150 0 -150 -119v-8l-315 -4v45q0 161 113.5 246t361.5 85zM713 373v90q-20 -18 -90 -27l-117 -16q-57 -11 -89 -31.5t-32 -66.5q0 -16 5 -31t18 -32t43.5 -27.5t74.5 -10.5q90 0 138.5 46.5t48.5 105.5z" />
    <glyph glyph-name="b" unicode="b" horiz-adv-x="1249" 
d="M735 -20q-112 0 -191.5 49t-103.5 114v-143h-336v1434h336v-512q24 65 103.5 114t191.5 49q67 0 131.5 -19.5t125 -62.5t106 -106t73 -157t27.5 -208t-27.5 -208.5t-73 -157t-106 -105.5t-125 -62t-131.5 -19zM651 258q97 0 164.5 70.5t67.5 203.5t-67.5 204t-164.5 71
q-95 0 -160 -71t-65 -204t65 -203.5t160 -70.5z" />
    <glyph glyph-name="c" unicode="c" horiz-adv-x="1153" 
d="M594 -20q-81 0 -156.5 18t-146 59.5t-123 103t-84 156.5t-31.5 213q0 119 31.5 215t84 158t123 104t146 60t156.5 18q62 0 120 -9.5t124 -39t116 -77t88.5 -130t49.5 -190.5h-297q-34 168 -203 168q-115 0 -170 -76.5t-55 -200.5q0 -121 55 -196.5t170 -75.5
q168 0 203 170h297q-9 -107 -46 -189.5t-87.5 -130t-117 -77.5t-125.5 -40.5t-122 -10.5z" />
    <glyph glyph-name="d" unicode="d" horiz-adv-x="1249" 
d="M514 -20q-67 0 -131.5 19t-124.5 62t-105.5 105.5t-72.5 157t-27 208.5q0 141 41 251t109 174t147 96t164 32q112 0 191.5 -49t103.5 -114h2v512h336v-1434h-336v143h-2q-24 -65 -103.5 -114t-191.5 -49zM598 258q95 0 161 70.5t66 203.5t-66 204t-161 71
q-96 0 -162.5 -71t-66.5 -204t66 -203.5t163 -70.5z" />
    <glyph glyph-name="e" unicode="e" horiz-adv-x="1163" 
d="M1112 516q0 -32 -6 -70h-735q13 -120 74.5 -172.5t170.5 -52.5q89 0 128 33t59 98h295q-36 -183 -168.5 -282t-333.5 -99q-83 0 -159 17.5t-147 59.5t-123 104.5t-83 159t-31 216.5q0 146 44 256t120.5 174.5t171.5 95.5t207 31q108 0 197.5 -30t163 -94.5t114.5 -177.5
t41 -267zM371 625h424q-12 206 -207 206t-217 -206z" />
    <glyph glyph-name="f" unicode="f" horiz-adv-x="778" 
d="M635 1212q-115 0 -115 -131v-16h201v-258h-201v-807h-336v807h-151v258h151v51q0 180 97.5 265t273.5 85h172v-254h-92z" />
    <glyph glyph-name="g" unicode="g" horiz-adv-x="1234" 
d="M795 1065h335v-1020q0 -84 -20 -154t-53 -118t-80 -84.5t-96 -58t-106 -35.5t-104.5 -18.5t-97.5 -4.5q-43 0 -84 3t-92.5 13.5t-95 26.5t-87 45t-74 67t-49.5 94.5t-19 125.5h297q2 -33 21.5 -57.5t50 -36.5t60.5 -17.5t62 -5.5q102 0 167 53.5t65 161.5v117
q-43 -57 -119 -95t-178 -38q-65 0 -126.5 17t-120 57t-102 99t-70 150.5t-26.5 204.5q0 112 27 203.5t70.5 151t102.5 99.5t120 57t125 17q102 0 178 -38t119 -95v113zM592 307q94 0 155.5 64.5t61.5 185.5t-61.5 185.5t-155.5 64.5q-97 0 -160 -64t-63 -186t63 -186
t160 -64z" />
    <glyph glyph-name="h" unicode="h" horiz-adv-x="1253" 
d="M784 1085q162 0 263.5 -105.5t101.5 -299.5v-680h-336v598q0 211 -176 211q-87 0 -142 -52t-55 -159v-598h-336v1434h336v-594h13q8 42 31.5 83t62.5 78.5t100.5 60.5t136.5 23z" />
    <glyph glyph-name="i" unicode="i" horiz-adv-x="542" 
d="M272 1167q-73 0 -127.5 51.5t-54.5 124.5q0 74 54.5 126.5t127.5 52.5q72 0 126.5 -52.5t54.5 -126.5q0 -72 -54.5 -124t-126.5 -52zM104 0v1065h336v-1065h-336z" />
    <glyph glyph-name="j" unicode="j" horiz-adv-x="565" 
d="M293 1167q-73 0 -126.5 51.5t-53.5 124.5q0 74 53.5 126.5t126.5 52.5t126.5 -52.5t53.5 -126.5q0 -73 -53.5 -124.5t-126.5 -51.5zM90 -401q-143 0 -190 6v260h112q113 0 113 133v1067h336v-1116q0 -180 -97.5 -265t-273.5 -85z" />
    <glyph glyph-name="k" unicode="k" horiz-adv-x="1220" 
d="M842 0l-318 397l-84 -90v-307h-336v1434h336v-766l348 397h367l-426 -451l481 -614h-368z" />
    <glyph glyph-name="l" unicode="l" horiz-adv-x="542" 
d="M104 0v1434h336v-1434h-336z" />
    <glyph glyph-name="m" unicode="m" horiz-adv-x="1859" 
d="M1407 1085q158 0 254 -105t96 -300v-680h-336v598q0 109 -41.5 160t-113.5 51q-74 0 -121 -52t-47 -159v-598h-336v598q0 211 -156 211q-72 0 -119 -52t-47 -159v-598h-336v1065h336v-225h13q14 89 98.5 167t206.5 78q114 0 198.5 -62.5t118.5 -180.5h2q7 40 33 82
t67 78.5t101.5 59.5t128.5 23z" />
    <glyph glyph-name="n" unicode="n" horiz-adv-x="1253" 
d="M784 1085q162 0 263.5 -105.5t101.5 -299.5v-680h-336v598q0 211 -176 211q-87 0 -142 -52t-55 -159v-598h-336v1065h336v-225h13q8 42 31.5 83t62.5 78.5t100.5 60.5t136.5 23z" />
    <glyph glyph-name="o" unicode="o" horiz-adv-x="1185" 
d="M594 -20q-105 0 -199 32t-172 96.5t-124 173.5t-46 250q0 114 30.5 207.5t82 156.5t121.5 106.5t147 63t160 19.5t159.5 -19.5t146.5 -63t122 -106.5t82.5 -156.5t30.5 -207.5t-30.5 -207.5t-82.5 -156.5t-122 -106t-146.5 -62.5t-159.5 -19.5zM594 258q102 0 163.5 69
t61.5 205t-62 205.5t-163 69.5q-103 0 -165 -69.5t-62 -205.5t62 -205t165 -69z" />
    <glyph glyph-name="p" unicode="p" horiz-adv-x="1249" 
d="M104 -389v1454h336v-143q24 65 103.5 114t191.5 49q67 0 131.5 -19.5t125 -62.5t106 -106t73 -157t27.5 -208t-27.5 -208.5t-73 -157t-106 -105.5t-125 -62t-131.5 -19q-112 0 -191.5 49t-103.5 114v-532h-336zM651 258q97 0 164.5 70.5t67.5 203.5t-67.5 204t-164.5 71
q-95 0 -160 -71t-65 -204t65 -203.5t160 -70.5z" />
    <glyph glyph-name="q" unicode="q" horiz-adv-x="1249" 
d="M1147 -389h-336v532h-2q-24 -65 -103.5 -114t-191.5 -49q-67 0 -131.5 19t-124.5 62t-105.5 105.5t-72.5 157t-27 208.5q0 141 41 251t109 174t147 96t164 32q112 0 191.5 -49t103.5 -114h2v143h336v-1454zM598 258q95 0 161 70.5t66 203.5t-66 204t-161 71
q-96 0 -162.5 -71t-66.5 -204t66 -203.5t163 -70.5z" />
    <glyph glyph-name="r" unicode="r" horiz-adv-x="862" 
d="M750 1073q40 0 81 -10v-283q-53 6 -86 6q-47 0 -88.5 -9.5t-82 -33.5t-69.5 -61.5t-47 -97.5t-18 -138v-446h-336v1065h336v-264h9q30 129 106 200.5t195 71.5z" />
    <glyph glyph-name="s" unicode="s" horiz-adv-x="1040" 
d="M510 -20q-228 0 -348 96.5t-119 285.5h299q8 -69 47.5 -102t122.5 -33q67 0 103 23.5t36 66.5q0 58 -78 74l-194 43q-307 65 -307 320q0 158 119.5 244.5t324.5 86.5q218 0 328 -101t110 -282h-278q-8 136 -150 136q-64 0 -100.5 -22t-36.5 -58q0 -32 27 -54t69 -28
l205 -45q309 -65 309 -307q0 -87 -38.5 -154.5t-106.5 -108t-155 -61t-189 -20.5z" />
    <glyph glyph-name="t" unicode="t" horiz-adv-x="808" 
d="M668 252h100v-260q-63 -6 -182 -6q-176 0 -273.5 86t-97.5 266v469h-182v258h182v278h336v-278h209v-258h-209v-422q0 -133 117 -133z" />
    <glyph glyph-name="u" unicode="u" horiz-adv-x="1253" 
d="M815 1065h336v-1065h-336v225h-14q-6 -33 -21.5 -65.5t-44 -65.5t-65 -58t-89 -40.5t-112.5 -15.5q-162 0 -263.5 105.5t-101.5 299.5v680h336v-598q0 -211 176 -211q87 0 143 52t56 159v598z" />
    <glyph glyph-name="v" unicode="v" horiz-adv-x="1249" 
d="M414 0l-381 1065h340l245 -743h13l243 743h343l-381 -1065h-422z" />
    <glyph glyph-name="w" unicode="w" horiz-adv-x="1714" 
d="M309 0l-276 1065h315l166 -741h8l191 741h288l191 -741h8l166 741h317l-278 -1065h-377l-170 618l-170 -618h-379z" />
    <glyph glyph-name="x" unicode="x" horiz-adv-x="1218" 
d="M53 0l365 539l-340 526h360l172 -287l170 287h361l-340 -526l366 -539h-360l-197 297l-198 -297h-359z" />
    <glyph glyph-name="y" unicode="y" horiz-adv-x="1210" 
d="M139 -414v283q233 -31 287 92q17 39 15.5 69.5t-21.5 78.5l-387 956h342l227 -637l234 637h344l-430 -1053q-55 -136 -109 -220t-126 -136.5t-161.5 -67.5t-214.5 -2z" />
    <glyph glyph-name="z" unicode="z" horiz-adv-x="1050" 
d="M82 0v281l485 503h-465v281h867v-281l-486 -503h486v-281h-887z" />
    <glyph glyph-name="braceleft" unicode="{" 
d="M207 403q-13 0 -19 -2v-200q4 -2 19 -2q37 0 50 25t13 77q0 54 -13 78t-50 24zM518 330v-49h-82v-78h96v-49h-155v297h155v-52h-96v-69h82zM203 150q-47 0 -74 4v292q61 9 76 9q67 0 96 -37.5t29 -116.5t-29.5 -115t-97.5 -36zM586 451h80l39 -164l38 164h82
q3 -45 13 -297h-60q0 108 -6 213l-41 -168h-55l-41 168h-2q-4 -140 -4 -213h-58q3 156 15 297zM987 150q-60 0 -84 35.5t-24 115.5q0 81 24 117.5t84 36.5t85.5 -37t25.5 -117q0 -79 -25.5 -115t-85.5 -36zM987 403q-29 0 -39 -23.5t-10 -78.5q0 -54 10 -78t39 -24
q30 0 40.5 24t10.5 78q0 55 -10 78.5t-41 23.5zM967 1016q49 0 79.5 -24.5t39 -51t8.5 -53.5q0 -43 -34.5 -72.5t-72.5 -34.5q-213 -23 -340 -147q3 8 9 22t25 53.5t39 75.5t50 80.5t59.5 76t66 53.5t71.5 22zM285 909q39 0 78 -21t69.5 -55t58.5 -74.5t48 -81.5t35 -75
t22 -55l8 -21q-117 148 -319 148q-49 0 -88 30t-39 76q0 53 33.5 91t93.5 38zM643 1214q38 -37 48.5 -102t-2.5 -131t-31.5 -126.5t-35.5 -98.5l-18 -39q20 191 -125 330q-35 35 -42 81.5t24 83.5q23 23 53 34t65 3.5t64 -35.5z" />
    <glyph glyph-name="bar" unicode="|" 
d="M207 403q-13 0 -19 -2v-200q4 -2 19 -2q37 0 50 25t13 77q0 54 -13 78t-50 24zM518 330v-49h-82v-78h96v-49h-155v297h155v-52h-96v-69h82zM203 150q-47 0 -74 4v292q61 9 76 9q67 0 96 -37.5t29 -116.5t-29.5 -115t-97.5 -36zM586 451h80l39 -164l38 164h82
q3 -45 13 -297h-60q0 108 -6 213l-41 -168h-55l-41 168h-2q-4 -140 -4 -213h-58q3 156 15 297zM987 150q-60 0 -84 35.5t-24 115.5q0 81 24 117.5t84 36.5t85.5 -37t25.5 -117q0 -79 -25.5 -115t-85.5 -36zM987 403q-29 0 -39 -23.5t-10 -78.5q0 -54 10 -78t39 -24
q30 0 40.5 24t10.5 78q0 55 -10 78.5t-41 23.5zM967 1016q49 0 79.5 -24.5t39 -51t8.5 -53.5q0 -43 -34.5 -72.5t-72.5 -34.5q-213 -23 -340 -147q3 8 9 22t25 53.5t39 75.5t50 80.5t59.5 76t66 53.5t71.5 22zM285 909q39 0 78 -21t69.5 -55t58.5 -74.5t48 -81.5t35 -75
t22 -55l8 -21q-117 148 -319 148q-49 0 -88 30t-39 76q0 53 33.5 91t93.5 38zM643 1214q38 -37 48.5 -102t-2.5 -131t-31.5 -126.5t-35.5 -98.5l-18 -39q20 191 -125 330q-35 35 -42 81.5t24 83.5q23 23 53 34t65 3.5t64 -35.5z" />
    <glyph glyph-name="braceright" unicode="}" 
d="M207 403q-13 0 -19 -2v-200q4 -2 19 -2q37 0 50 25t13 77q0 54 -13 78t-50 24zM518 330v-49h-82v-78h96v-49h-155v297h155v-52h-96v-69h82zM203 150q-47 0 -74 4v292q61 9 76 9q67 0 96 -37.5t29 -116.5t-29.5 -115t-97.5 -36zM586 451h80l39 -164l38 164h82
q3 -45 13 -297h-60q0 108 -6 213l-41 -168h-55l-41 168h-2q-4 -140 -4 -213h-58q3 156 15 297zM987 150q-60 0 -84 35.5t-24 115.5q0 81 24 117.5t84 36.5t85.5 -37t25.5 -117q0 -79 -25.5 -115t-85.5 -36zM987 403q-29 0 -39 -23.5t-10 -78.5q0 -54 10 -78t39 -24
q30 0 40.5 24t10.5 78q0 55 -10 78.5t-41 23.5zM967 1016q49 0 79.5 -24.5t39 -51t8.5 -53.5q0 -43 -34.5 -72.5t-72.5 -34.5q-213 -23 -340 -147q3 8 9 22t25 53.5t39 75.5t50 80.5t59.5 76t66 53.5t71.5 22zM285 909q39 0 78 -21t69.5 -55t58.5 -74.5t48 -81.5t35 -75
t22 -55l8 -21q-117 148 -319 148q-49 0 -88 30t-39 76q0 53 33.5 91t93.5 38zM643 1214q38 -37 48.5 -102t-2.5 -131t-31.5 -126.5t-35.5 -98.5l-18 -39q20 191 -125 330q-35 35 -42 81.5t24 83.5q23 23 53 34t65 3.5t64 -35.5z" />
    <glyph glyph-name="asciitilde" unicode="~" 
d="M207 403q-13 0 -19 -2v-200q4 -2 19 -2q37 0 50 25t13 77q0 54 -13 78t-50 24zM518 330v-49h-82v-78h96v-49h-155v297h155v-52h-96v-69h82zM203 150q-47 0 -74 4v292q61 9 76 9q67 0 96 -37.5t29 -116.5t-29.5 -115t-97.5 -36zM586 451h80l39 -164l38 164h82
q3 -45 13 -297h-60q0 108 -6 213l-41 -168h-55l-41 168h-2q-4 -140 -4 -213h-58q3 156 15 297zM987 150q-60 0 -84 35.5t-24 115.5q0 81 24 117.5t84 36.5t85.5 -37t25.5 -117q0 -79 -25.5 -115t-85.5 -36zM987 403q-29 0 -39 -23.5t-10 -78.5q0 -54 10 -78t39 -24
q30 0 40.5 24t10.5 78q0 55 -10 78.5t-41 23.5zM967 1016q49 0 79.5 -24.5t39 -51t8.5 -53.5q0 -43 -34.5 -72.5t-72.5 -34.5q-213 -23 -340 -147q3 8 9 22t25 53.5t39 75.5t50 80.5t59.5 76t66 53.5t71.5 22zM285 909q39 0 78 -21t69.5 -55t58.5 -74.5t48 -81.5t35 -75
t22 -55l8 -21q-117 148 -319 148q-49 0 -88 30t-39 76q0 53 33.5 91t93.5 38zM643 1214q38 -37 48.5 -102t-2.5 -131t-31.5 -126.5t-35.5 -98.5l-18 -39q20 191 -125 330q-35 35 -42 81.5t24 83.5q23 23 53 34t65 3.5t64 -35.5z" />
    </font>
</defs>
</svg>
