<?xml version="1.0" standalone="no"?>
<!DOCTYPE svg PUBLIC "-//W3C//DTD SVG 1.1//EN" "http://www.w3.org/Graphics/SVG/1.1/DTD/svg11.dtd" >
<svg xmlns="http://www.w3.org/2000/svg" xmlns:xlink="http://www.w3.org/1999/xlink" version="1.1">
<metadata>
Created by FontForge 20201107 at Mon Mar  9 12:55:22 2026
 By www-data
Copyright  2020 by Connary Fagen. All rights reserved.
</metadata>
<defs>
<font id="FONTSPRINGDEMO-ArticulatCFDemiBoldRegular" horiz-adv-x="1224" >
  <font-face 
    font-family="FSP DEMO - rtclt CF Dm Bld"
    font-weight="600"
    font-stretch="normal"
    units-per-em="2048"
    panose-1="0 0 7 0 0 0 0 0 0 0"
    ascent="1638"
    descent="-410"
    x-height="1065"
    cap-height="1434"
    bbox="-88 -428 2005 1503"
    underline-thickness="102"
    underline-position="-204"
    unicode-range="U+0020-007E"
  />
<missing-glyph 
d="M207 403q-13 0 -19 -2v-200q4 -2 19 -2q37 0 50 25t13 77q0 54 -13 78t-50 24zM518 330v-49h-82v-78h96v-49h-155v297h155v-52h-96v-69h82zM203 150q-47 0 -74 4v292q61 9 76 9q67 0 96 -37.5t29 -116.5t-29.5 -115t-97.5 -36zM586 451h80l39 -164l38 164h82
q3 -45 13 -297h-60q0 108 -6 213l-41 -168h-55l-41 168h-2q-4 -140 -4 -213h-58q3 156 15 297zM987 150q-60 0 -84 35.5t-24 115.5q0 81 24 117.5t84 36.5t85.5 -37t25.5 -117q0 -79 -25.5 -115t-85.5 -36zM987 403q-29 0 -39 -23.5t-10 -78.5q0 -54 10 -78t39 -24
q30 0 40.5 24t10.5 78q0 55 -10 78.5t-41 23.5zM967 1016q49 0 79.5 -24.5t39 -51t8.5 -53.5q0 -43 -34.5 -72.5t-72.5 -34.5q-213 -23 -340 -147q3 8 9 22t25 53.5t39 75.5t50 80.5t59.5 76t66 53.5t71.5 22zM285 909q39 0 78 -21t69.5 -55t58.5 -74.5t48 -81.5t35 -75
t22 -55l8 -21q-117 148 -319 148q-49 0 -88 30t-39 76q0 53 33.5 91t93.5 38zM643 1214q38 -37 48.5 -102t-2.5 -131t-31.5 -126.5t-35.5 -98.5l-18 -39q20 191 -125 330q-35 35 -42 81.5t24 83.5q23 23 53 34t65 3.5t64 -35.5z" />
    <glyph glyph-name=".notdef" 
d="M207 403q-13 0 -19 -2v-200q4 -2 19 -2q37 0 50 25t13 77q0 54 -13 78t-50 24zM518 330v-49h-82v-78h96v-49h-155v297h155v-52h-96v-69h82zM203 150q-47 0 -74 4v292q61 9 76 9q67 0 96 -37.5t29 -116.5t-29.5 -115t-97.5 -36zM586 451h80l39 -164l38 164h82
q3 -45 13 -297h-60q0 108 -6 213l-41 -168h-55l-41 168h-2q-4 -140 -4 -213h-58q3 156 15 297zM987 150q-60 0 -84 35.5t-24 115.5q0 81 24 117.5t84 36.5t85.5 -37t25.5 -117q0 -79 -25.5 -115t-85.5 -36zM987 403q-29 0 -39 -23.5t-10 -78.5q0 -54 10 -78t39 -24
q30 0 40.5 24t10.5 78q0 55 -10 78.5t-41 23.5zM967 1016q49 0 79.5 -24.5t39 -51t8.5 -53.5q0 -43 -34.5 -72.5t-72.5 -34.5q-213 -23 -340 -147q3 8 9 22t25 53.5t39 75.5t50 80.5t59.5 76t66 53.5t71.5 22zM285 909q39 0 78 -21t69.5 -55t58.5 -74.5t48 -81.5t35 -75
t22 -55l8 -21q-117 148 -319 148q-49 0 -88 30t-39 76q0 53 33.5 91t93.5 38zM643 1214q38 -37 48.5 -102t-2.5 -131t-31.5 -126.5t-35.5 -98.5l-18 -39q20 191 -125 330q-35 35 -42 81.5t24 83.5q23 23 53 34t65 3.5t64 -35.5z" />
    <glyph glyph-name=".null" horiz-adv-x="0" 
 />
    <glyph glyph-name="nonmarkingreturn" horiz-adv-x="682" 
 />
    <glyph glyph-name="space" unicode=" " horiz-adv-x="471" 
 />
    <glyph glyph-name="exclam" unicode="!" 
d="M207 403q-13 0 -19 -2v-200q4 -2 19 -2q37 0 50 25t13 77q0 54 -13 78t-50 24zM518 330v-49h-82v-78h96v-49h-155v297h155v-52h-96v-69h82zM203 150q-47 0 -74 4v292q61 9 76 9q67 0 96 -37.5t29 -116.5t-29.5 -115t-97.5 -36zM586 451h80l39 -164l38 164h82
q3 -45 13 -297h-60q0 108 -6 213l-41 -168h-55l-41 168h-2q-4 -140 -4 -213h-58q3 156 15 297zM987 150q-60 0 -84 35.5t-24 115.5q0 81 24 117.5t84 36.5t85.5 -37t25.5 -117q0 -79 -25.5 -115t-85.5 -36zM987 403q-29 0 -39 -23.5t-10 -78.5q0 -54 10 -78t39 -24
q30 0 40.5 24t10.5 78q0 55 -10 78.5t-41 23.5zM967 1016q49 0 79.5 -24.5t39 -51t8.5 -53.5q0 -43 -34.5 -72.5t-72.5 -34.5q-213 -23 -340 -147q3 8 9 22t25 53.5t39 75.5t50 80.5t59.5 76t66 53.5t71.5 22zM285 909q39 0 78 -21t69.5 -55t58.5 -74.5t48 -81.5t35 -75
t22 -55l8 -21q-117 148 -319 148q-49 0 -88 30t-39 76q0 53 33.5 91t93.5 38zM643 1214q38 -37 48.5 -102t-2.5 -131t-31.5 -126.5t-35.5 -98.5l-18 -39q20 191 -125 330q-35 35 -42 81.5t24 83.5q23 23 53 34t65 3.5t64 -35.5z" />
    <glyph glyph-name="quotedbl" unicode="&#x22;" 
d="M207 403q-13 0 -19 -2v-200q4 -2 19 -2q37 0 50 25t13 77q0 54 -13 78t-50 24zM518 330v-49h-82v-78h96v-49h-155v297h155v-52h-96v-69h82zM203 150q-47 0 -74 4v292q61 9 76 9q67 0 96 -37.5t29 -116.5t-29.5 -115t-97.5 -36zM586 451h80l39 -164l38 164h82
q3 -45 13 -297h-60q0 108 -6 213l-41 -168h-55l-41 168h-2q-4 -140 -4 -213h-58q3 156 15 297zM987 150q-60 0 -84 35.5t-24 115.5q0 81 24 117.5t84 36.5t85.5 -37t25.5 -117q0 -79 -25.5 -115t-85.5 -36zM987 403q-29 0 -39 -23.5t-10 -78.5q0 -54 10 -78t39 -24
q30 0 40.5 24t10.5 78q0 55 -10 78.5t-41 23.5zM967 1016q49 0 79.5 -24.5t39 -51t8.5 -53.5q0 -43 -34.5 -72.5t-72.5 -34.5q-213 -23 -340 -147q3 8 9 22t25 53.5t39 75.5t50 80.5t59.5 76t66 53.5t71.5 22zM285 909q39 0 78 -21t69.5 -55t58.5 -74.5t48 -81.5t35 -75
t22 -55l8 -21q-117 148 -319 148q-49 0 -88 30t-39 76q0 53 33.5 91t93.5 38zM643 1214q38 -37 48.5 -102t-2.5 -131t-31.5 -126.5t-35.5 -98.5l-18 -39q20 191 -125 330q-35 35 -42 81.5t24 83.5q23 23 53 34t65 3.5t64 -35.5z" />
    <glyph glyph-name="numbersign" unicode="#" 
d="M207 403q-13 0 -19 -2v-200q4 -2 19 -2q37 0 50 25t13 77q0 54 -13 78t-50 24zM518 330v-49h-82v-78h96v-49h-155v297h155v-52h-96v-69h82zM203 150q-47 0 -74 4v292q61 9 76 9q67 0 96 -37.5t29 -116.5t-29.5 -115t-97.5 -36zM586 451h80l39 -164l38 164h82
q3 -45 13 -297h-60q0 108 -6 213l-41 -168h-55l-41 168h-2q-4 -140 -4 -213h-58q3 156 15 297zM987 150q-60 0 -84 35.5t-24 115.5q0 81 24 117.5t84 36.5t85.5 -37t25.5 -117q0 -79 -25.5 -115t-85.5 -36zM987 403q-29 0 -39 -23.5t-10 -78.5q0 -54 10 -78t39 -24
q30 0 40.5 24t10.5 78q0 55 -10 78.5t-41 23.5zM967 1016q49 0 79.5 -24.5t39 -51t8.5 -53.5q0 -43 -34.5 -72.5t-72.5 -34.5q-213 -23 -340 -147q3 8 9 22t25 53.5t39 75.5t50 80.5t59.5 76t66 53.5t71.5 22zM285 909q39 0 78 -21t69.5 -55t58.5 -74.5t48 -81.5t35 -75
t22 -55l8 -21q-117 148 -319 148q-49 0 -88 30t-39 76q0 53 33.5 91t93.5 38zM643 1214q38 -37 48.5 -102t-2.5 -131t-31.5 -126.5t-35.5 -98.5l-18 -39q20 191 -125 330q-35 35 -42 81.5t24 83.5q23 23 53 34t65 3.5t64 -35.5z" />
    <glyph glyph-name="dollar" unicode="$" 
d="M207 403q-13 0 -19 -2v-200q4 -2 19 -2q37 0 50 25t13 77q0 54 -13 78t-50 24zM518 330v-49h-82v-78h96v-49h-155v297h155v-52h-96v-69h82zM203 150q-47 0 -74 4v292q61 9 76 9q67 0 96 -37.5t29 -116.5t-29.5 -115t-97.5 -36zM586 451h80l39 -164l38 164h82
q3 -45 13 -297h-60q0 108 -6 213l-41 -168h-55l-41 168h-2q-4 -140 -4 -213h-58q3 156 15 297zM987 150q-60 0 -84 35.5t-24 115.5q0 81 24 117.5t84 36.5t85.5 -37t25.5 -117q0 -79 -25.5 -115t-85.5 -36zM987 403q-29 0 -39 -23.5t-10 -78.5q0 -54 10 -78t39 -24
q30 0 40.5 24t10.5 78q0 55 -10 78.5t-41 23.5zM967 1016q49 0 79.5 -24.5t39 -51t8.5 -53.5q0 -43 -34.5 -72.5t-72.5 -34.5q-213 -23 -340 -147q3 8 9 22t25 53.5t39 75.5t50 80.5t59.5 76t66 53.5t71.5 22zM285 909q39 0 78 -21t69.5 -55t58.5 -74.5t48 -81.5t35 -75
t22 -55l8 -21q-117 148 -319 148q-49 0 -88 30t-39 76q0 53 33.5 91t93.5 38zM643 1214q38 -37 48.5 -102t-2.5 -131t-31.5 -126.5t-35.5 -98.5l-18 -39q20 191 -125 330q-35 35 -42 81.5t24 83.5q23 23 53 34t65 3.5t64 -35.5z" />
    <glyph glyph-name="percent" unicode="%" 
d="M207 403q-13 0 -19 -2v-200q4 -2 19 -2q37 0 50 25t13 77q0 54 -13 78t-50 24zM518 330v-49h-82v-78h96v-49h-155v297h155v-52h-96v-69h82zM203 150q-47 0 -74 4v292q61 9 76 9q67 0 96 -37.5t29 -116.5t-29.5 -115t-97.5 -36zM586 451h80l39 -164l38 164h82
q3 -45 13 -297h-60q0 108 -6 213l-41 -168h-55l-41 168h-2q-4 -140 -4 -213h-58q3 156 15 297zM987 150q-60 0 -84 35.5t-24 115.5q0 81 24 117.5t84 36.5t85.5 -37t25.5 -117q0 -79 -25.5 -115t-85.5 -36zM987 403q-29 0 -39 -23.5t-10 -78.5q0 -54 10 -78t39 -24
q30 0 40.5 24t10.5 78q0 55 -10 78.5t-41 23.5zM967 1016q49 0 79.5 -24.5t39 -51t8.5 -53.5q0 -43 -34.5 -72.5t-72.5 -34.5q-213 -23 -340 -147q3 8 9 22t25 53.5t39 75.5t50 80.5t59.5 76t66 53.5t71.5 22zM285 909q39 0 78 -21t69.5 -55t58.5 -74.5t48 -81.5t35 -75
t22 -55l8 -21q-117 148 -319 148q-49 0 -88 30t-39 76q0 53 33.5 91t93.5 38zM643 1214q38 -37 48.5 -102t-2.5 -131t-31.5 -126.5t-35.5 -98.5l-18 -39q20 191 -125 330q-35 35 -42 81.5t24 83.5q23 23 53 34t65 3.5t64 -35.5z" />
    <glyph glyph-name="ampersand" unicode="&#x26;" 
d="M207 403q-13 0 -19 -2v-200q4 -2 19 -2q37 0 50 25t13 77q0 54 -13 78t-50 24zM518 330v-49h-82v-78h96v-49h-155v297h155v-52h-96v-69h82zM203 150q-47 0 -74 4v292q61 9 76 9q67 0 96 -37.5t29 -116.5t-29.5 -115t-97.5 -36zM586 451h80l39 -164l38 164h82
q3 -45 13 -297h-60q0 108 -6 213l-41 -168h-55l-41 168h-2q-4 -140 -4 -213h-58q3 156 15 297zM987 150q-60 0 -84 35.5t-24 115.5q0 81 24 117.5t84 36.5t85.5 -37t25.5 -117q0 -79 -25.5 -115t-85.5 -36zM987 403q-29 0 -39 -23.5t-10 -78.5q0 -54 10 -78t39 -24
q30 0 40.5 24t10.5 78q0 55 -10 78.5t-41 23.5zM967 1016q49 0 79.5 -24.5t39 -51t8.5 -53.5q0 -43 -34.5 -72.5t-72.5 -34.5q-213 -23 -340 -147q3 8 9 22t25 53.5t39 75.5t50 80.5t59.5 76t66 53.5t71.5 22zM285 909q39 0 78 -21t69.5 -55t58.5 -74.5t48 -81.5t35 -75
t22 -55l8 -21q-117 148 -319 148q-49 0 -88 30t-39 76q0 53 33.5 91t93.5 38zM643 1214q38 -37 48.5 -102t-2.5 -131t-31.5 -126.5t-35.5 -98.5l-18 -39q20 191 -125 330q-35 35 -42 81.5t24 83.5q23 23 53 34t65 3.5t64 -35.5z" />
    <glyph glyph-name="quotesingle" unicode="'" 
d="M207 403q-13 0 -19 -2v-200q4 -2 19 -2q37 0 50 25t13 77q0 54 -13 78t-50 24zM518 330v-49h-82v-78h96v-49h-155v297h155v-52h-96v-69h82zM203 150q-47 0 -74 4v292q61 9 76 9q67 0 96 -37.5t29 -116.5t-29.5 -115t-97.5 -36zM586 451h80l39 -164l38 164h82
q3 -45 13 -297h-60q0 108 -6 213l-41 -168h-55l-41 168h-2q-4 -140 -4 -213h-58q3 156 15 297zM987 150q-60 0 -84 35.5t-24 115.5q0 81 24 117.5t84 36.5t85.5 -37t25.5 -117q0 -79 -25.5 -115t-85.5 -36zM987 403q-29 0 -39 -23.5t-10 -78.5q0 -54 10 -78t39 -24
q30 0 40.5 24t10.5 78q0 55 -10 78.5t-41 23.5zM967 1016q49 0 79.5 -24.5t39 -51t8.5 -53.5q0 -43 -34.5 -72.5t-72.5 -34.5q-213 -23 -340 -147q3 8 9 22t25 53.5t39 75.5t50 80.5t59.5 76t66 53.5t71.5 22zM285 909q39 0 78 -21t69.5 -55t58.5 -74.5t48 -81.5t35 -75
t22 -55l8 -21q-117 148 -319 148q-49 0 -88 30t-39 76q0 53 33.5 91t93.5 38zM643 1214q38 -37 48.5 -102t-2.5 -131t-31.5 -126.5t-35.5 -98.5l-18 -39q20 191 -125 330q-35 35 -42 81.5t24 83.5q23 23 53 34t65 3.5t64 -35.5z" />
    <glyph glyph-name="parenleft" unicode="(" 
d="M207 403q-13 0 -19 -2v-200q4 -2 19 -2q37 0 50 25t13 77q0 54 -13 78t-50 24zM518 330v-49h-82v-78h96v-49h-155v297h155v-52h-96v-69h82zM203 150q-47 0 -74 4v292q61 9 76 9q67 0 96 -37.5t29 -116.5t-29.5 -115t-97.5 -36zM586 451h80l39 -164l38 164h82
q3 -45 13 -297h-60q0 108 -6 213l-41 -168h-55l-41 168h-2q-4 -140 -4 -213h-58q3 156 15 297zM987 150q-60 0 -84 35.5t-24 115.5q0 81 24 117.5t84 36.5t85.5 -37t25.5 -117q0 -79 -25.5 -115t-85.5 -36zM987 403q-29 0 -39 -23.5t-10 -78.5q0 -54 10 -78t39 -24
q30 0 40.5 24t10.5 78q0 55 -10 78.5t-41 23.5zM967 1016q49 0 79.5 -24.5t39 -51t8.5 -53.5q0 -43 -34.5 -72.5t-72.5 -34.5q-213 -23 -340 -147q3 8 9 22t25 53.5t39 75.5t50 80.5t59.5 76t66 53.5t71.5 22zM285 909q39 0 78 -21t69.5 -55t58.5 -74.5t48 -81.5t35 -75
t22 -55l8 -21q-117 148 -319 148q-49 0 -88 30t-39 76q0 53 33.5 91t93.5 38zM643 1214q38 -37 48.5 -102t-2.5 -131t-31.5 -126.5t-35.5 -98.5l-18 -39q20 191 -125 330q-35 35 -42 81.5t24 83.5q23 23 53 34t65 3.5t64 -35.5z" />
    <glyph glyph-name="parenright" unicode=")" 
d="M207 403q-13 0 -19 -2v-200q4 -2 19 -2q37 0 50 25t13 77q0 54 -13 78t-50 24zM518 330v-49h-82v-78h96v-49h-155v297h155v-52h-96v-69h82zM203 150q-47 0 -74 4v292q61 9 76 9q67 0 96 -37.5t29 -116.5t-29.5 -115t-97.5 -36zM586 451h80l39 -164l38 164h82
q3 -45 13 -297h-60q0 108 -6 213l-41 -168h-55l-41 168h-2q-4 -140 -4 -213h-58q3 156 15 297zM987 150q-60 0 -84 35.5t-24 115.5q0 81 24 117.5t84 36.5t85.5 -37t25.5 -117q0 -79 -25.5 -115t-85.5 -36zM987 403q-29 0 -39 -23.5t-10 -78.5q0 -54 10 -78t39 -24
q30 0 40.5 24t10.5 78q0 55 -10 78.5t-41 23.5zM967 1016q49 0 79.5 -24.5t39 -51t8.5 -53.5q0 -43 -34.5 -72.5t-72.5 -34.5q-213 -23 -340 -147q3 8 9 22t25 53.5t39 75.5t50 80.5t59.5 76t66 53.5t71.5 22zM285 909q39 0 78 -21t69.5 -55t58.5 -74.5t48 -81.5t35 -75
t22 -55l8 -21q-117 148 -319 148q-49 0 -88 30t-39 76q0 53 33.5 91t93.5 38zM643 1214q38 -37 48.5 -102t-2.5 -131t-31.5 -126.5t-35.5 -98.5l-18 -39q20 191 -125 330q-35 35 -42 81.5t24 83.5q23 23 53 34t65 3.5t64 -35.5z" />
    <glyph glyph-name="asterisk" unicode="*" 
d="M207 403q-13 0 -19 -2v-200q4 -2 19 -2q37 0 50 25t13 77q0 54 -13 78t-50 24zM518 330v-49h-82v-78h96v-49h-155v297h155v-52h-96v-69h82zM203 150q-47 0 -74 4v292q61 9 76 9q67 0 96 -37.5t29 -116.5t-29.5 -115t-97.5 -36zM586 451h80l39 -164l38 164h82
q3 -45 13 -297h-60q0 108 -6 213l-41 -168h-55l-41 168h-2q-4 -140 -4 -213h-58q3 156 15 297zM987 150q-60 0 -84 35.5t-24 115.5q0 81 24 117.5t84 36.5t85.5 -37t25.5 -117q0 -79 -25.5 -115t-85.5 -36zM987 403q-29 0 -39 -23.5t-10 -78.5q0 -54 10 -78t39 -24
q30 0 40.5 24t10.5 78q0 55 -10 78.5t-41 23.5zM967 1016q49 0 79.5 -24.5t39 -51t8.5 -53.5q0 -43 -34.5 -72.5t-72.5 -34.5q-213 -23 -340 -147q3 8 9 22t25 53.5t39 75.5t50 80.5t59.5 76t66 53.5t71.5 22zM285 909q39 0 78 -21t69.5 -55t58.5 -74.5t48 -81.5t35 -75
t22 -55l8 -21q-117 148 -319 148q-49 0 -88 30t-39 76q0 53 33.5 91t93.5 38zM643 1214q38 -37 48.5 -102t-2.5 -131t-31.5 -126.5t-35.5 -98.5l-18 -39q20 191 -125 330q-35 35 -42 81.5t24 83.5q23 23 53 34t65 3.5t64 -35.5z" />
    <glyph glyph-name="plus" unicode="+" 
d="M207 403q-13 0 -19 -2v-200q4 -2 19 -2q37 0 50 25t13 77q0 54 -13 78t-50 24zM518 330v-49h-82v-78h96v-49h-155v297h155v-52h-96v-69h82zM203 150q-47 0 -74 4v292q61 9 76 9q67 0 96 -37.5t29 -116.5t-29.5 -115t-97.5 -36zM586 451h80l39 -164l38 164h82
q3 -45 13 -297h-60q0 108 -6 213l-41 -168h-55l-41 168h-2q-4 -140 -4 -213h-58q3 156 15 297zM987 150q-60 0 -84 35.5t-24 115.5q0 81 24 117.5t84 36.5t85.5 -37t25.5 -117q0 -79 -25.5 -115t-85.5 -36zM987 403q-29 0 -39 -23.5t-10 -78.5q0 -54 10 -78t39 -24
q30 0 40.5 24t10.5 78q0 55 -10 78.5t-41 23.5zM967 1016q49 0 79.5 -24.5t39 -51t8.5 -53.5q0 -43 -34.5 -72.5t-72.5 -34.5q-213 -23 -340 -147q3 8 9 22t25 53.5t39 75.5t50 80.5t59.5 76t66 53.5t71.5 22zM285 909q39 0 78 -21t69.5 -55t58.5 -74.5t48 -81.5t35 -75
t22 -55l8 -21q-117 148 -319 148q-49 0 -88 30t-39 76q0 53 33.5 91t93.5 38zM643 1214q38 -37 48.5 -102t-2.5 -131t-31.5 -126.5t-35.5 -98.5l-18 -39q20 191 -125 330q-35 35 -42 81.5t24 83.5q23 23 53 34t65 3.5t64 -35.5z" />
    <glyph glyph-name="comma" unicode="," horiz-adv-x="501" 
d="M80 -274v124h14q109 0 141.5 28t32.5 108q-87 0 -137.5 47t-50.5 114q0 66 44.5 110t113.5 44q82 0 134 -61.5t52 -190.5q0 -161 -78.5 -242t-214.5 -81h-51z" />
    <glyph glyph-name="hyphen" unicode="-" 
d="M207 403q-13 0 -19 -2v-200q4 -2 19 -2q37 0 50 25t13 77q0 54 -13 78t-50 24zM518 330v-49h-82v-78h96v-49h-155v297h155v-52h-96v-69h82zM203 150q-47 0 -74 4v292q61 9 76 9q67 0 96 -37.5t29 -116.5t-29.5 -115t-97.5 -36zM586 451h80l39 -164l38 164h82
q3 -45 13 -297h-60q0 108 -6 213l-41 -168h-55l-41 168h-2q-4 -140 -4 -213h-58q3 156 15 297zM987 150q-60 0 -84 35.5t-24 115.5q0 81 24 117.5t84 36.5t85.5 -37t25.5 -117q0 -79 -25.5 -115t-85.5 -36zM987 403q-29 0 -39 -23.5t-10 -78.5q0 -54 10 -78t39 -24
q30 0 40.5 24t10.5 78q0 55 -10 78.5t-41 23.5zM967 1016q49 0 79.5 -24.5t39 -51t8.5 -53.5q0 -43 -34.5 -72.5t-72.5 -34.5q-213 -23 -340 -147q3 8 9 22t25 53.5t39 75.5t50 80.5t59.5 76t66 53.5t71.5 22zM285 909q39 0 78 -21t69.5 -55t58.5 -74.5t48 -81.5t35 -75
t22 -55l8 -21q-117 148 -319 148q-49 0 -88 30t-39 76q0 53 33.5 91t93.5 38zM643 1214q38 -37 48.5 -102t-2.5 -131t-31.5 -126.5t-35.5 -98.5l-18 -39q20 191 -125 330q-35 35 -42 81.5t24 83.5q23 23 53 34t65 3.5t64 -35.5z" />
    <glyph glyph-name="period" unicode="." horiz-adv-x="483" 
d="M242 -20q-67 0 -114.5 46.5t-47.5 112.5q0 67 47 114.5t115 47.5t116 -47.5t48 -114.5q0 -66 -48 -112.5t-116 -46.5z" />
    <glyph glyph-name="slash" unicode="/" 
d="M207 403q-13 0 -19 -2v-200q4 -2 19 -2q37 0 50 25t13 77q0 54 -13 78t-50 24zM518 330v-49h-82v-78h96v-49h-155v297h155v-52h-96v-69h82zM203 150q-47 0 -74 4v292q61 9 76 9q67 0 96 -37.5t29 -116.5t-29.5 -115t-97.5 -36zM586 451h80l39 -164l38 164h82
q3 -45 13 -297h-60q0 108 -6 213l-41 -168h-55l-41 168h-2q-4 -140 -4 -213h-58q3 156 15 297zM987 150q-60 0 -84 35.5t-24 115.5q0 81 24 117.5t84 36.5t85.5 -37t25.5 -117q0 -79 -25.5 -115t-85.5 -36zM987 403q-29 0 -39 -23.5t-10 -78.5q0 -54 10 -78t39 -24
q30 0 40.5 24t10.5 78q0 55 -10 78.5t-41 23.5zM967 1016q49 0 79.5 -24.5t39 -51t8.5 -53.5q0 -43 -34.5 -72.5t-72.5 -34.5q-213 -23 -340 -147q3 8 9 22t25 53.5t39 75.5t50 80.5t59.5 76t66 53.5t71.5 22zM285 909q39 0 78 -21t69.5 -55t58.5 -74.5t48 -81.5t35 -75
t22 -55l8 -21q-117 148 -319 148q-49 0 -88 30t-39 76q0 53 33.5 91t93.5 38zM643 1214q38 -37 48.5 -102t-2.5 -131t-31.5 -126.5t-35.5 -98.5l-18 -39q20 191 -125 330q-35 35 -42 81.5t24 83.5q23 23 53 34t65 3.5t64 -35.5z" />
    <glyph glyph-name="zero" unicode="0" horiz-adv-x="1296" 
d="M649 -20q-89 0 -170 25t-155 81.5t-127.5 140.5t-85 209.5t-31.5 280.5q0 154 31.5 279t85.5 208.5t127.5 140.5t154.5 82t170 25t170.5 -25t155 -82t127.5 -140.5t85.5 -208.5t31.5 -279q0 -155 -31.5 -280.5t-85.5 -209.5t-127.5 -140.5t-155 -81.5t-170.5 -25z
M649 201q82 0 144 40t99.5 111.5t56 163t18.5 201.5q0 108 -18.5 199t-55.5 162.5t-99.5 112t-144.5 40.5q-83 0 -145.5 -40.5t-99.5 -112t-55.5 -162t-18.5 -199.5q0 -110 18.5 -201.5t55.5 -163t99.5 -111.5t145.5 -40z" />
    <glyph glyph-name="one" unicode="1" horiz-adv-x="790" 
d="M377 0v1108q-100 -106 -297 -109v215q237 25 297 220h262v-1434h-262z" />
    <glyph glyph-name="two" unicode="2" horiz-adv-x="1165" 
d="M82 0v66q0 201 83.5 340t301.5 266q20 12 57 33.5t55 32t48.5 30t46 31t39 30t35 32.5t26.5 34t22 38.5t12 41t5 47.5q1 106 -63.5 156.5t-161.5 50.5q-102 0 -168 -61t-66 -185v-29h-254v41q0 203 124 330t366 127q231 0 358 -114t127 -300q0 -77 -24 -143.5t-57 -112
t-91 -92t-100 -72.5t-110 -65q-7 -4 -11 -6q-162 -95 -231.5 -167t-69.5 -153v-10h692v-217h-991z" />
    <glyph glyph-name="three" unicode="3" horiz-adv-x="1210" 
d="M590 -20q-260 0 -391 134t-129 365h245q1 -95 41 -158.5t102 -90.5t142 -27q116 0 196.5 58t80.5 169q0 103 -74.5 163t-224.5 60h-78v193h65q78 0 132 17.5t80 48.5t36 61t10 65q0 91 -62 140t-159 49q-49 0 -90 -13t-76 -41t-55 -79t-21 -121h-243q0 229 126.5 354
t362.5 125q217 0 344 -102.5t127 -268.5q0 -127 -68.5 -208t-166.5 -107q37 -5 75 -18.5t79.5 -42t73.5 -67t52.5 -97t20.5 -127.5q0 -192 -150.5 -313t-402.5 -121z" />
    <glyph glyph-name="four" unicode="4" 
d="M207 403q-13 0 -19 -2v-200q4 -2 19 -2q37 0 50 25t13 77q0 54 -13 78t-50 24zM518 330v-49h-82v-78h96v-49h-155v297h155v-52h-96v-69h82zM203 150q-47 0 -74 4v292q61 9 76 9q67 0 96 -37.5t29 -116.5t-29.5 -115t-97.5 -36zM586 451h80l39 -164l38 164h82
q3 -45 13 -297h-60q0 108 -6 213l-41 -168h-55l-41 168h-2q-4 -140 -4 -213h-58q3 156 15 297zM987 150q-60 0 -84 35.5t-24 115.5q0 81 24 117.5t84 36.5t85.5 -37t25.5 -117q0 -79 -25.5 -115t-85.5 -36zM987 403q-29 0 -39 -23.5t-10 -78.5q0 -54 10 -78t39 -24
q30 0 40.5 24t10.5 78q0 55 -10 78.5t-41 23.5zM967 1016q49 0 79.5 -24.5t39 -51t8.5 -53.5q0 -43 -34.5 -72.5t-72.5 -34.5q-213 -23 -340 -147q3 8 9 22t25 53.5t39 75.5t50 80.5t59.5 76t66 53.5t71.5 22zM285 909q39 0 78 -21t69.5 -55t58.5 -74.5t48 -81.5t35 -75
t22 -55l8 -21q-117 148 -319 148q-49 0 -88 30t-39 76q0 53 33.5 91t93.5 38zM643 1214q38 -37 48.5 -102t-2.5 -131t-31.5 -126.5t-35.5 -98.5l-18 -39q20 191 -125 330q-35 35 -42 81.5t24 83.5q23 23 53 34t65 3.5t64 -35.5z" />
    <glyph glyph-name="five" unicode="5" horiz-adv-x="1204" 
d="M610 -20q-245 0 -383.5 131t-136.5 340h238q2 -64 26.5 -115t64 -81.5t87 -46t98.5 -15.5q52 0 99.5 15.5t90 47.5t68 92.5t25.5 140.5q0 81 -25.5 141t-68 92t-88.5 47t-97 15q-82 0 -150.5 -36t-101.5 -101h-243l118 787h783v-209h-602l-54 -361q9 13 30.5 30.5
t59.5 39.5t98.5 36.5t129.5 14.5q206 0 338.5 -134t132.5 -362q0 -241 -145.5 -375t-391.5 -134z" />
    <glyph glyph-name="six" unicode="6" horiz-adv-x="1230" 
d="M682 952q69 0 134.5 -16.5t127 -53.5t107 -91.5t73 -136t27.5 -181.5q0 -105 -31.5 -190t-82.5 -140.5t-119.5 -93t-139.5 -53.5t-145 -16q-92 0 -171.5 25t-148.5 81t-118 140t-77 208.5t-28 280.5q0 160 30.5 290t95 232t174 158.5t257.5 56.5q95 0 174.5 -24
t132.5 -63.5t90.5 -92t54 -108.5t15.5 -113h-231q-13 96 -79.5 144t-162.5 48q-75 0 -132 -31t-89 -76.5t-52 -108.5t-26 -117.5t-6 -112.5q136 155 346 155zM631 193q111 0 190.5 73.5t79.5 210.5q0 136 -79.5 206.5t-190.5 70.5q-110 0 -189.5 -71t-79.5 -206
q0 -71 23.5 -127t62.5 -89.5t85.5 -50.5t97.5 -17z" />
    <glyph glyph-name="seven" unicode="7" horiz-adv-x="1034" 
d="M238 0q27 304 148.5 604t326.5 615h-652v215h902v-215q-209 -318 -332 -617t-148 -602h-245z" />
    <glyph glyph-name="eight" unicode="8" horiz-adv-x="1220" 
d="M610 -20q-153 0 -274 50.5t-193.5 152.5t-72.5 241q0 276 286 385q-92 49 -137 126t-45 169q0 151 118 249.5t318 98.5q201 0 319 -98t118 -250q0 -92 -45.5 -169t-137.5 -126q289 -110 289 -385q0 -139 -73 -241t-195 -152.5t-275 -50.5zM610 897q94 0 149.5 50
t55.5 132q0 83 -55.5 134t-149.5 51t-149 -51t-55 -134t55 -132.5t149 -49.5zM610 197q138 0 210.5 69.5t72.5 177.5q0 116 -80 181t-203 65t-202.5 -65t-79.5 -181q0 -108 72 -177.5t210 -69.5z" />
    <glyph glyph-name="nine" unicode="9" horiz-adv-x="1232" 
d="M602 1450q91 0 170.5 -25t149 -81t118.5 -140t77 -208.5t28 -280.5q0 -127 -19 -235.5t-61.5 -202t-106 -159.5t-158.5 -103.5t-214 -37.5q-95 0 -174.5 24t-132.5 64t-90.5 92.5t-54 108.5t-15.5 113h231q13 -96 80 -144.5t162 -48.5q75 0 132 31t89.5 77t52.5 109.5
t26.5 118t6.5 113.5q-135 -158 -348 -158q-69 0 -134 16.5t-126.5 53.5t-107.5 91.5t-73.5 136t-27.5 181.5q0 105 31.5 190t83 140.5t120.5 93.5t140 54t145 16zM602 678q110 0 190 70.5t80 203.5q0 138 -80 211.5t-190 73.5q-52 0 -99.5 -17.5t-86 -51.5t-61.5 -90
t-23 -126q0 -91 40 -154.5t99.5 -91.5t130.5 -28z" />
    <glyph glyph-name="colon" unicode=":" horiz-adv-x="483" 
d="M242 743q-68 0 -115 47.5t-47 114.5q0 66 47.5 113t114.5 47q68 0 116 -47t48 -113q0 -67 -48 -114.5t-116 -47.5zM242 -20q-67 0 -114.5 46.5t-47.5 112.5q0 67 47 114.5t115 47.5t116 -47.5t48 -114.5q0 -66 -48 -112.5t-116 -46.5z" />
    <glyph glyph-name="semicolon" unicode=";" horiz-adv-x="501" 
d="M242 743q-68 0 -115 47.5t-47 114.5q0 66 47.5 113t114.5 47q68 0 116 -47t48 -113q0 -67 -48 -114.5t-116 -47.5zM80 -274v124h14q109 0 141.5 28t32.5 108q-87 0 -137.5 47t-50.5 114q0 66 44.5 110t113.5 44q82 0 134 -61.5t52 -190.5q0 -161 -78.5 -242t-214.5 -81
h-51z" />
    <glyph glyph-name="less" unicode="&#x3c;" 
d="M207 403q-13 0 -19 -2v-200q4 -2 19 -2q37 0 50 25t13 77q0 54 -13 78t-50 24zM518 330v-49h-82v-78h96v-49h-155v297h155v-52h-96v-69h82zM203 150q-47 0 -74 4v292q61 9 76 9q67 0 96 -37.5t29 -116.5t-29.5 -115t-97.5 -36zM586 451h80l39 -164l38 164h82
q3 -45 13 -297h-60q0 108 -6 213l-41 -168h-55l-41 168h-2q-4 -140 -4 -213h-58q3 156 15 297zM987 150q-60 0 -84 35.5t-24 115.5q0 81 24 117.5t84 36.5t85.5 -37t25.5 -117q0 -79 -25.5 -115t-85.5 -36zM987 403q-29 0 -39 -23.5t-10 -78.5q0 -54 10 -78t39 -24
q30 0 40.5 24t10.5 78q0 55 -10 78.5t-41 23.5zM967 1016q49 0 79.5 -24.5t39 -51t8.5 -53.5q0 -43 -34.5 -72.5t-72.5 -34.5q-213 -23 -340 -147q3 8 9 22t25 53.5t39 75.5t50 80.5t59.5 76t66 53.5t71.5 22zM285 909q39 0 78 -21t69.5 -55t58.5 -74.5t48 -81.5t35 -75
t22 -55l8 -21q-117 148 -319 148q-49 0 -88 30t-39 76q0 53 33.5 91t93.5 38zM643 1214q38 -37 48.5 -102t-2.5 -131t-31.5 -126.5t-35.5 -98.5l-18 -39q20 191 -125 330q-35 35 -42 81.5t24 83.5q23 23 53 34t65 3.5t64 -35.5z" />
    <glyph glyph-name="equal" unicode="=" 
d="M207 403q-13 0 -19 -2v-200q4 -2 19 -2q37 0 50 25t13 77q0 54 -13 78t-50 24zM518 330v-49h-82v-78h96v-49h-155v297h155v-52h-96v-69h82zM203 150q-47 0 -74 4v292q61 9 76 9q67 0 96 -37.5t29 -116.5t-29.5 -115t-97.5 -36zM586 451h80l39 -164l38 164h82
q3 -45 13 -297h-60q0 108 -6 213l-41 -168h-55l-41 168h-2q-4 -140 -4 -213h-58q3 156 15 297zM987 150q-60 0 -84 35.5t-24 115.5q0 81 24 117.5t84 36.5t85.5 -37t25.5 -117q0 -79 -25.5 -115t-85.5 -36zM987 403q-29 0 -39 -23.5t-10 -78.5q0 -54 10 -78t39 -24
q30 0 40.5 24t10.5 78q0 55 -10 78.5t-41 23.5zM967 1016q49 0 79.5 -24.5t39 -51t8.5 -53.5q0 -43 -34.5 -72.5t-72.5 -34.5q-213 -23 -340 -147q3 8 9 22t25 53.5t39 75.5t50 80.5t59.5 76t66 53.5t71.5 22zM285 909q39 0 78 -21t69.5 -55t58.5 -74.5t48 -81.5t35 -75
t22 -55l8 -21q-117 148 -319 148q-49 0 -88 30t-39 76q0 53 33.5 91t93.5 38zM643 1214q38 -37 48.5 -102t-2.5 -131t-31.5 -126.5t-35.5 -98.5l-18 -39q20 191 -125 330q-35 35 -42 81.5t24 83.5q23 23 53 34t65 3.5t64 -35.5z" />
    <glyph glyph-name="greater" unicode="&#x3e;" 
d="M207 403q-13 0 -19 -2v-200q4 -2 19 -2q37 0 50 25t13 77q0 54 -13 78t-50 24zM518 330v-49h-82v-78h96v-49h-155v297h155v-52h-96v-69h82zM203 150q-47 0 -74 4v292q61 9 76 9q67 0 96 -37.5t29 -116.5t-29.5 -115t-97.5 -36zM586 451h80l39 -164l38 164h82
q3 -45 13 -297h-60q0 108 -6 213l-41 -168h-55l-41 168h-2q-4 -140 -4 -213h-58q3 156 15 297zM987 150q-60 0 -84 35.5t-24 115.5q0 81 24 117.5t84 36.5t85.5 -37t25.5 -117q0 -79 -25.5 -115t-85.5 -36zM987 403q-29 0 -39 -23.5t-10 -78.5q0 -54 10 -78t39 -24
q30 0 40.5 24t10.5 78q0 55 -10 78.5t-41 23.5zM967 1016q49 0 79.5 -24.5t39 -51t8.5 -53.5q0 -43 -34.5 -72.5t-72.5 -34.5q-213 -23 -340 -147q3 8 9 22t25 53.5t39 75.5t50 80.5t59.5 76t66 53.5t71.5 22zM285 909q39 0 78 -21t69.5 -55t58.5 -74.5t48 -81.5t35 -75
t22 -55l8 -21q-117 148 -319 148q-49 0 -88 30t-39 76q0 53 33.5 91t93.5 38zM643 1214q38 -37 48.5 -102t-2.5 -131t-31.5 -126.5t-35.5 -98.5l-18 -39q20 191 -125 330q-35 35 -42 81.5t24 83.5q23 23 53 34t65 3.5t64 -35.5z" />
    <glyph glyph-name="question" unicode="?" horiz-adv-x="1134" 
d="M455 449v63q0 69 18 126t46.5 94.5t63.5 69t69.5 57t63 51t46.5 58.5t18 72q0 79 -49.5 131t-150.5 52q-116 0 -171 -69.5t-55 -190.5h-262q-1 126 37 221.5t106.5 152t155 84t189.5 27.5q207 0 334.5 -107.5t127.5 -300.5q0 -63 -17 -112.5t-44.5 -82t-60.5 -60
t-65.5 -53.5t-60 -54.5t-44.5 -70.5t-17 -95v-63h-278zM590 -20q-67 0 -114.5 46.5t-47.5 112.5q0 67 47 114.5t115 47.5t116 -47.5t48 -114.5q0 -66 -48 -112.5t-116 -46.5z" />
    <glyph glyph-name="at" unicode="@" 
d="M207 403q-13 0 -19 -2v-200q4 -2 19 -2q37 0 50 25t13 77q0 54 -13 78t-50 24zM518 330v-49h-82v-78h96v-49h-155v297h155v-52h-96v-69h82zM203 150q-47 0 -74 4v292q61 9 76 9q67 0 96 -37.5t29 -116.5t-29.5 -115t-97.5 -36zM586 451h80l39 -164l38 164h82
q3 -45 13 -297h-60q0 108 -6 213l-41 -168h-55l-41 168h-2q-4 -140 -4 -213h-58q3 156 15 297zM987 150q-60 0 -84 35.5t-24 115.5q0 81 24 117.5t84 36.5t85.5 -37t25.5 -117q0 -79 -25.5 -115t-85.5 -36zM987 403q-29 0 -39 -23.5t-10 -78.5q0 -54 10 -78t39 -24
q30 0 40.5 24t10.5 78q0 55 -10 78.5t-41 23.5zM967 1016q49 0 79.5 -24.5t39 -51t8.5 -53.5q0 -43 -34.5 -72.5t-72.5 -34.5q-213 -23 -340 -147q3 8 9 22t25 53.5t39 75.5t50 80.5t59.5 76t66 53.5t71.5 22zM285 909q39 0 78 -21t69.5 -55t58.5 -74.5t48 -81.5t35 -75
t22 -55l8 -21q-117 148 -319 148q-49 0 -88 30t-39 76q0 53 33.5 91t93.5 38zM643 1214q38 -37 48.5 -102t-2.5 -131t-31.5 -126.5t-35.5 -98.5l-18 -39q20 191 -125 330q-35 35 -42 81.5t24 83.5q23 23 53 34t65 3.5t64 -35.5z" />
    <glyph glyph-name="A" unicode="A" horiz-adv-x="1472" 
d="M1151 0l-102 293h-625l-102 -293h-283l526 1434h344l527 -1434h-285zM496 494h483l-234 663h-16z" />
    <glyph glyph-name="B" unicode="B" horiz-adv-x="1288" 
d="M111 0v1434h569q227 0 341 -95t114 -260q0 -224 -211 -293q154 -39 230.5 -133t76.5 -235q0 -89 -31.5 -163.5t-94.5 -132.5t-166.5 -90t-238.5 -32h-589zM379 848h289q91 0 142.5 46t51.5 138q0 89 -51 131.5t-143 42.5h-289v-358zM379 227h309q135 0 199.5 60t64.5 159
q0 101 -64.5 162.5t-199.5 61.5h-309v-443z" />
    <glyph glyph-name="C" unicode="C" horiz-adv-x="1394" 
d="M741 -20q-303 0 -482 195t-179 542q0 346 179 540.5t482 194.5q246 0 407 -125.5t185 -370.5h-262q-68 263 -330 263q-190 0 -287.5 -135t-97.5 -367q0 -233 96.5 -368.5t288.5 -135.5q124 0 210 65t120 199h262q-12 -125 -62 -221.5t-129.5 -156t-180.5 -89.5t-220 -30z
" />
    <glyph glyph-name="D" unicode="D" horiz-adv-x="1388" 
d="M111 0v1434h520q334 0 506 -185t172 -532t-172 -532t-506 -185h-520zM379 236h225q232 0 331 113.5t99 367.5t-99 367.5t-331 113.5h-225v-962z" />
    <glyph glyph-name="E" unicode="E" horiz-adv-x="1148" 
d="M111 0v1434h960v-236h-692v-364h631v-211h-631v-387h713v-236h-981z" />
    <glyph glyph-name="F" unicode="F" horiz-adv-x="1107" 
d="M111 0v1434h936v-236h-668v-379h551v-219h-551v-600h-268z" />
    <glyph glyph-name="G" unicode="G" horiz-adv-x="1449" 
d="M758 -20q-319 0 -498.5 193t-179.5 542q0 347 183.5 542t486.5 195q149 0 268 -47t202 -149.5t109 -251.5h-268q-24 78 -75 128t-109.5 68.5t-128.5 18.5q-189 0 -290.5 -135.5t-101.5 -364.5q0 -230 101.5 -368t292.5 -138q71 0 131 19.5t109 59t76.5 107.5t27.5 158
h-299v217h567v-110q0 -342 -154.5 -513t-449.5 -171z" />
    <glyph glyph-name="H" unicode="H" horiz-adv-x="1372" 
d="M993 1434h269v-1434h-269v600h-614v-600h-268v1434h268v-611h614v611z" />
    <glyph glyph-name="I" unicode="I" horiz-adv-x="487" 
d="M111 0v1434h268v-1434h-268z" />
    <glyph glyph-name="J" unicode="J" horiz-adv-x="1380" 
d="M690 -20q-268 0 -423.5 144t-155.5 419h270q0 -158 81 -243t228 -85q148 0 229.5 88.5t81.5 259.5v871h269v-891q0 -274 -157 -418.5t-423 -144.5z" />
    <glyph glyph-name="K" unicode="K" horiz-adv-x="1398" 
d="M1051 0l-469 598l-203 -236v-362h-268v1434h268v-709l610 709h318l-559 -646l614 -788h-311z" />
    <glyph glyph-name="L" unicode="L" horiz-adv-x="1116" 
d="M111 0v1434h268v-1198h680v-236h-948z" />
    <glyph glyph-name="M" unicode="M" horiz-adv-x="1726" 
d="M111 0v1434h335l418 -1072l418 1072h336v-1434h-268v963h-11l-372 -963h-205l-375 963h-8v-963h-268z" />
    <glyph glyph-name="N" unicode="N" horiz-adv-x="1404" 
d="M111 0v1434h282l627 -1006h6v1006h270v-1434h-295l-616 989h-6v-989h-268z" />
    <glyph glyph-name="O" unicode="O" horiz-adv-x="1507" 
d="M754 -20q-302 0 -488 201t-186 536q0 336 185.5 535.5t488.5 199.5q149 0 274.5 -52t214 -146t138 -232t49.5 -305q0 -221 -85 -389t-238.5 -258t-352.5 -90zM754 213q185 0 291 134.5t106 369.5q0 236 -106 369t-291 133t-291.5 -133.5t-106.5 -368.5q0 -234 106.5 -369
t291.5 -135z" />
    <glyph glyph-name="P" unicode="P" horiz-adv-x="1267" 
d="M111 0v1434h563q268 0 402 -125.5t134 -343.5q0 -216 -134.5 -341.5t-401.5 -125.5h-295v-498h-268zM379 733h285q135 0 201.5 61t66.5 171q0 112 -66.5 172.5t-201.5 60.5h-285v-465z" />
    <glyph glyph-name="Q" unicode="Q" horiz-adv-x="1507" 
d="M1430 717q0 -278 -136 -473l129 -131l-161 -154l-127 129q-164 -108 -381 -108q-302 0 -488 201t-186 536q0 336 185.5 535.5t488.5 199.5q149 0 274.5 -52t214 -146t138 -232t49.5 -305zM754 213q117 0 202 55l-215 217l162 154l197 -199q51 117 51 277q0 236 -106 369
t-291 133t-291.5 -133.5t-106.5 -368.5q0 -234 106.5 -369t291.5 -135z" />
    <glyph glyph-name="R" unicode="R" horiz-adv-x="1282" 
d="M1223 0h-269l-286 498h-289v-498h-268v1434h563q268 0 402 -125.5t134 -343.5q0 -161 -74.5 -273t-224.5 -162zM379 1198v-465h285q135 0 201.5 61t66.5 171q0 112 -66.5 172.5t-201.5 60.5h-285z" />
    <glyph glyph-name="S" unicode="S" horiz-adv-x="1312" 
d="M666 -20q-274 0 -430 125.5t-156 349.5h276q6 -112 83 -181t229 -69q136 0 208 55t72 154q0 83 -54.5 128t-164.5 66l-201 39q-409 79 -409 400q0 193 142.5 299t385.5 106q248 0 397.5 -111.5t149.5 -312.5h-276q0 95 -72.5 147t-194.5 52q-128 0 -189 -54t-61 -135
q0 -146 189 -182l190 -37q236 -44 344.5 -141t108.5 -264q0 -108 -42.5 -192t-119 -136t-179 -79t-226.5 -27z" />
    <glyph glyph-name="T" unicode="T" horiz-adv-x="1218" 
d="M475 0v1198h-426v236h1120v-236h-426v-1198h-268z" />
    <glyph glyph-name="U" unicode="U" horiz-adv-x="1380" 
d="M690 -20q-268 0 -423.5 144t-155.5 419v891h270v-871q0 -170 80.5 -259t228.5 -89t227.5 89t79.5 259v871h273v-891q0 -274 -157 -418.5t-423 -144.5z" />
    <glyph glyph-name="V" unicode="V" horiz-adv-x="1492" 
d="M575 0l-526 1434h283l407 -1158h17l405 1158h285l-526 -1434h-345z" />
    <glyph glyph-name="W" unicode="W" horiz-adv-x="2052" 
d="M424 0l-375 1434h275l251 -1055h13l299 1055h278l299 -1055h13l252 1055h276l-377 -1434h-280l-322 1094l-321 -1094h-281z" />
    <glyph glyph-name="X" unicode="X" horiz-adv-x="1370" 
d="M1333 0h-303l-344 514l-346 -514h-301l496 737l-467 697h301l317 -471l315 471h302l-467 -695z" />
    <glyph glyph-name="Y" unicode="Y" horiz-adv-x="1413" 
d="M569 0v537l-520 897h305l353 -637l354 637h305l-520 -897v-537h-277z" />
    <glyph glyph-name="Z" unicode="Z" horiz-adv-x="1265" 
d="M82 0v236l795 962h-773v236h1072v-236l-797 -962h805v-236h-1102z" />
    <glyph glyph-name="bracketleft" unicode="[" 
d="M207 403q-13 0 -19 -2v-200q4 -2 19 -2q37 0 50 25t13 77q0 54 -13 78t-50 24zM518 330v-49h-82v-78h96v-49h-155v297h155v-52h-96v-69h82zM203 150q-47 0 -74 4v292q61 9 76 9q67 0 96 -37.5t29 -116.5t-29.5 -115t-97.5 -36zM586 451h80l39 -164l38 164h82
q3 -45 13 -297h-60q0 108 -6 213l-41 -168h-55l-41 168h-2q-4 -140 -4 -213h-58q3 156 15 297zM987 150q-60 0 -84 35.5t-24 115.5q0 81 24 117.5t84 36.5t85.5 -37t25.5 -117q0 -79 -25.5 -115t-85.5 -36zM987 403q-29 0 -39 -23.5t-10 -78.5q0 -54 10 -78t39 -24
q30 0 40.5 24t10.5 78q0 55 -10 78.5t-41 23.5zM967 1016q49 0 79.5 -24.5t39 -51t8.5 -53.5q0 -43 -34.5 -72.5t-72.5 -34.5q-213 -23 -340 -147q3 8 9 22t25 53.5t39 75.5t50 80.5t59.5 76t66 53.5t71.5 22zM285 909q39 0 78 -21t69.5 -55t58.5 -74.5t48 -81.5t35 -75
t22 -55l8 -21q-117 148 -319 148q-49 0 -88 30t-39 76q0 53 33.5 91t93.5 38zM643 1214q38 -37 48.5 -102t-2.5 -131t-31.5 -126.5t-35.5 -98.5l-18 -39q20 191 -125 330q-35 35 -42 81.5t24 83.5q23 23 53 34t65 3.5t64 -35.5z" />
    <glyph glyph-name="backslash" unicode="\" 
d="M207 403q-13 0 -19 -2v-200q4 -2 19 -2q37 0 50 25t13 77q0 54 -13 78t-50 24zM518 330v-49h-82v-78h96v-49h-155v297h155v-52h-96v-69h82zM203 150q-47 0 -74 4v292q61 9 76 9q67 0 96 -37.5t29 -116.5t-29.5 -115t-97.5 -36zM586 451h80l39 -164l38 164h82
q3 -45 13 -297h-60q0 108 -6 213l-41 -168h-55l-41 168h-2q-4 -140 -4 -213h-58q3 156 15 297zM987 150q-60 0 -84 35.5t-24 115.5q0 81 24 117.5t84 36.5t85.5 -37t25.5 -117q0 -79 -25.5 -115t-85.5 -36zM987 403q-29 0 -39 -23.5t-10 -78.5q0 -54 10 -78t39 -24
q30 0 40.5 24t10.5 78q0 55 -10 78.5t-41 23.5zM967 1016q49 0 79.5 -24.5t39 -51t8.5 -53.5q0 -43 -34.5 -72.5t-72.5 -34.5q-213 -23 -340 -147q3 8 9 22t25 53.5t39 75.5t50 80.5t59.5 76t66 53.5t71.5 22zM285 909q39 0 78 -21t69.5 -55t58.5 -74.5t48 -81.5t35 -75
t22 -55l8 -21q-117 148 -319 148q-49 0 -88 30t-39 76q0 53 33.5 91t93.5 38zM643 1214q38 -37 48.5 -102t-2.5 -131t-31.5 -126.5t-35.5 -98.5l-18 -39q20 191 -125 330q-35 35 -42 81.5t24 83.5q23 23 53 34t65 3.5t64 -35.5z" />
    <glyph glyph-name="bracketright" unicode="]" 
d="M207 403q-13 0 -19 -2v-200q4 -2 19 -2q37 0 50 25t13 77q0 54 -13 78t-50 24zM518 330v-49h-82v-78h96v-49h-155v297h155v-52h-96v-69h82zM203 150q-47 0 -74 4v292q61 9 76 9q67 0 96 -37.5t29 -116.5t-29.5 -115t-97.5 -36zM586 451h80l39 -164l38 164h82
q3 -45 13 -297h-60q0 108 -6 213l-41 -168h-55l-41 168h-2q-4 -140 -4 -213h-58q3 156 15 297zM987 150q-60 0 -84 35.5t-24 115.5q0 81 24 117.5t84 36.5t85.5 -37t25.5 -117q0 -79 -25.5 -115t-85.5 -36zM987 403q-29 0 -39 -23.5t-10 -78.5q0 -54 10 -78t39 -24
q30 0 40.5 24t10.5 78q0 55 -10 78.5t-41 23.5zM967 1016q49 0 79.5 -24.5t39 -51t8.5 -53.5q0 -43 -34.5 -72.5t-72.5 -34.5q-213 -23 -340 -147q3 8 9 22t25 53.5t39 75.5t50 80.5t59.5 76t66 53.5t71.5 22zM285 909q39 0 78 -21t69.5 -55t58.5 -74.5t48 -81.5t35 -75
t22 -55l8 -21q-117 148 -319 148q-49 0 -88 30t-39 76q0 53 33.5 91t93.5 38zM643 1214q38 -37 48.5 -102t-2.5 -131t-31.5 -126.5t-35.5 -98.5l-18 -39q20 191 -125 330q-35 35 -42 81.5t24 83.5q23 23 53 34t65 3.5t64 -35.5z" />
    <glyph glyph-name="asciicircum" unicode="^" 
d="M207 403q-13 0 -19 -2v-200q4 -2 19 -2q37 0 50 25t13 77q0 54 -13 78t-50 24zM518 330v-49h-82v-78h96v-49h-155v297h155v-52h-96v-69h82zM203 150q-47 0 -74 4v292q61 9 76 9q67 0 96 -37.5t29 -116.5t-29.5 -115t-97.5 -36zM586 451h80l39 -164l38 164h82
q3 -45 13 -297h-60q0 108 -6 213l-41 -168h-55l-41 168h-2q-4 -140 -4 -213h-58q3 156 15 297zM987 150q-60 0 -84 35.5t-24 115.5q0 81 24 117.5t84 36.5t85.5 -37t25.5 -117q0 -79 -25.5 -115t-85.5 -36zM987 403q-29 0 -39 -23.5t-10 -78.5q0 -54 10 -78t39 -24
q30 0 40.5 24t10.5 78q0 55 -10 78.5t-41 23.5zM967 1016q49 0 79.5 -24.5t39 -51t8.5 -53.5q0 -43 -34.5 -72.5t-72.5 -34.5q-213 -23 -340 -147q3 8 9 22t25 53.5t39 75.5t50 80.5t59.5 76t66 53.5t71.5 22zM285 909q39 0 78 -21t69.5 -55t58.5 -74.5t48 -81.5t35 -75
t22 -55l8 -21q-117 148 -319 148q-49 0 -88 30t-39 76q0 53 33.5 91t93.5 38zM643 1214q38 -37 48.5 -102t-2.5 -131t-31.5 -126.5t-35.5 -98.5l-18 -39q20 191 -125 330q-35 35 -42 81.5t24 83.5q23 23 53 34t65 3.5t64 -35.5z" />
    <glyph glyph-name="underscore" unicode="_" 
d="M207 403q-13 0 -19 -2v-200q4 -2 19 -2q37 0 50 25t13 77q0 54 -13 78t-50 24zM518 330v-49h-82v-78h96v-49h-155v297h155v-52h-96v-69h82zM203 150q-47 0 -74 4v292q61 9 76 9q67 0 96 -37.5t29 -116.5t-29.5 -115t-97.5 -36zM586 451h80l39 -164l38 164h82
q3 -45 13 -297h-60q0 108 -6 213l-41 -168h-55l-41 168h-2q-4 -140 -4 -213h-58q3 156 15 297zM987 150q-60 0 -84 35.5t-24 115.5q0 81 24 117.5t84 36.5t85.5 -37t25.5 -117q0 -79 -25.5 -115t-85.5 -36zM987 403q-29 0 -39 -23.5t-10 -78.5q0 -54 10 -78t39 -24
q30 0 40.5 24t10.5 78q0 55 -10 78.5t-41 23.5zM967 1016q49 0 79.5 -24.5t39 -51t8.5 -53.5q0 -43 -34.5 -72.5t-72.5 -34.5q-213 -23 -340 -147q3 8 9 22t25 53.5t39 75.5t50 80.5t59.5 76t66 53.5t71.5 22zM285 909q39 0 78 -21t69.5 -55t58.5 -74.5t48 -81.5t35 -75
t22 -55l8 -21q-117 148 -319 148q-49 0 -88 30t-39 76q0 53 33.5 91t93.5 38zM643 1214q38 -37 48.5 -102t-2.5 -131t-31.5 -126.5t-35.5 -98.5l-18 -39q20 191 -125 330q-35 35 -42 81.5t24 83.5q23 23 53 34t65 3.5t64 -35.5z" />
    <glyph glyph-name="grave" unicode="`" 
d="M207 403q-13 0 -19 -2v-200q4 -2 19 -2q37 0 50 25t13 77q0 54 -13 78t-50 24zM518 330v-49h-82v-78h96v-49h-155v297h155v-52h-96v-69h82zM203 150q-47 0 -74 4v292q61 9 76 9q67 0 96 -37.5t29 -116.5t-29.5 -115t-97.5 -36zM586 451h80l39 -164l38 164h82
q3 -45 13 -297h-60q0 108 -6 213l-41 -168h-55l-41 168h-2q-4 -140 -4 -213h-58q3 156 15 297zM987 150q-60 0 -84 35.5t-24 115.5q0 81 24 117.5t84 36.5t85.5 -37t25.5 -117q0 -79 -25.5 -115t-85.5 -36zM987 403q-29 0 -39 -23.5t-10 -78.5q0 -54 10 -78t39 -24
q30 0 40.5 24t10.5 78q0 55 -10 78.5t-41 23.5zM967 1016q49 0 79.5 -24.5t39 -51t8.5 -53.5q0 -43 -34.5 -72.5t-72.5 -34.5q-213 -23 -340 -147q3 8 9 22t25 53.5t39 75.5t50 80.5t59.5 76t66 53.5t71.5 22zM285 909q39 0 78 -21t69.5 -55t58.5 -74.5t48 -81.5t35 -75
t22 -55l8 -21q-117 148 -319 148q-49 0 -88 30t-39 76q0 53 33.5 91t93.5 38zM643 1214q38 -37 48.5 -102t-2.5 -131t-31.5 -126.5t-35.5 -98.5l-18 -39q20 191 -125 330q-35 35 -42 81.5t24 83.5q23 23 53 34t65 3.5t64 -35.5z" />
    <glyph glyph-name="a" unicode="a" horiz-adv-x="1126" 
d="M575 1085q231 0 336 -85t105 -265v-735h-250v188h-10q-6 -25 -28.5 -57t-63 -67.5t-110 -59.5t-153.5 -24q-69 0 -129 16.5t-108.5 50.5t-76.5 91.5t-28 133.5q0 63 20.5 112t53 80.5t82.5 54t98.5 34.5t110.5 20l209 29q72 9 96.5 30t24.5 68v23q0 94 -48.5 131
t-140.5 37q-196 0 -196 -152v-12l-248 -4v41q0 321 454 321zM754 367v133q-8 -16 -34 -24t-81 -17l-152 -21q-86 -14 -128 -45t-42 -88q0 -60 43.5 -96.5t133.5 -36.5q122 0 191 64t69 131z" />
    <glyph glyph-name="b" unicode="b" horiz-adv-x="1230" 
d="M702 1085q71 0 137 -19.5t127 -63.5t106 -107t72 -156.5t27 -206.5t-27 -206.5t-72 -156.5t-106 -106.5t-127 -63t-137 -19.5q-114 0 -202 48.5t-127 125.5v-154h-262v1434h262v-523q39 77 127 125.5t202 48.5zM641 199q120 0 202.5 85.5t82.5 247.5t-83 248t-202 86
q-55 0 -104.5 -20.5t-89.5 -60t-63.5 -105t-23.5 -148.5t23.5 -148t63.5 -104.5t89.5 -60t104.5 -20.5z" />
    <glyph glyph-name="c" unicode="c" horiz-adv-x="1128" 
d="M588 -20q-81 0 -156.5 19t-144 62t-118.5 105.5t-80 156t-30 207.5q0 115 30 209.5t80 157.5t118.5 106.5t143.5 62.5t157 19q62 0 119 -10t119 -38.5t110 -74t84 -121.5t47 -175h-233q-19 103 -84.5 151.5t-163.5 48.5q-133 0 -207 -90t-74 -246q0 -153 74 -242t207 -89
q99 0 163.5 50t84.5 152h233q-9 -98 -44.5 -174.5t-83.5 -122t-110.5 -74.5t-120.5 -39.5t-120 -10.5z" />
    <glyph glyph-name="d" unicode="d" horiz-adv-x="1230" 
d="M858 1434h262v-1434h-262v156q-41 -79 -128.5 -127.5t-201.5 -48.5q-71 0 -137 19.5t-127 63t-106 106.5t-72 156.5t-27 206.5t27 206.5t72 156.5t106 107t127 63.5t137 19.5q114 0 201.5 -48.5t128.5 -127.5v525zM588 199q118 0 200 85.5t82 247.5t-82 248t-200 86
t-200.5 -86t-82.5 -248t82.5 -247.5t200.5 -85.5z" />
    <glyph glyph-name="e" unicode="e" horiz-adv-x="1138" 
d="M1081 535q0 -40 -6 -70h-768q12 -152 86.5 -222.5t208.5 -70.5q95 0 150 39t82 119h233q-42 -177 -169 -267t-312 -90q-85 0 -161 19t-143.5 62t-116.5 106.5t-77.5 157.5t-28.5 210q0 144 42 253.5t115.5 174.5t165.5 97t200 32q107 0 195 -31t157.5 -95t108 -172
t38.5 -252zM307 610h527q-5 127 -68.5 201t-187.5 74q-119 0 -189 -70.5t-82 -204.5z" />
    <glyph glyph-name="f" unicode="f" horiz-adv-x="716" 
d="M582 1266q-70 0 -100.5 -35.5t-30.5 -106.5v-59h208v-203h-208v-862h-263v862h-149v203h149v90q0 311 330 311h148v-200h-84z" />
    <glyph glyph-name="g" unicode="g" horiz-adv-x="1216" 
d="M846 1065h262v-1032q0 -110 -35.5 -194.5t-90.5 -133.5t-129.5 -80.5t-142.5 -42t-141 -10.5q-65 0 -126.5 8.5t-128.5 32.5t-116 62t-81 103t-33 150h231q4 -76 77 -114.5t171 -38.5q125 0 204 64t79 194v153q-47 -73 -134 -116t-198 -43q-87 0 -165.5 29.5t-145 90
t-105.5 165.5t-39 243q0 111 26.5 201.5t70.5 150.5t103.5 101t123 59t131.5 18q111 0 198 -43t134 -116v139zM582 244q116 0 195 80.5t79 230.5q0 152 -78.5 231.5t-195.5 79.5t-197 -80t-80 -231q0 -150 80 -230.5t197 -80.5z" />
    <glyph glyph-name="h" unicode="h" horiz-adv-x="1210" 
d="M729 1085q166 0 268.5 -104t102.5 -311v-670h-262v608q0 260 -217 260q-112 0 -180 -67t-68 -193v-608h-262v1434h262v-588h8q8 38 32 77t64.5 76.5t106 61.5t145.5 24z" />
    <glyph glyph-name="i" unicode="i" horiz-adv-x="481" 
d="M242 1214q-61 0 -105.5 42.5t-44.5 101.5q0 61 44.5 103t105.5 42q59 0 103 -42t44 -103q0 -59 -44 -101.5t-103 -42.5zM111 0v1065h262v-1065h-262z" />
    <glyph glyph-name="j" unicode="j" horiz-adv-x="509" 
d="M268 1214q-59 0 -103 42.5t-44 101.5q0 61 44 103t103 42t103.5 -42t44.5 -103q0 -59 -44.5 -101.5t-103.5 -42.5zM70 -395q-105 0 -158 6v205h94q71 0 101 35.5t30 107.5v1106h262v-1147q0 -162 -87 -237.5t-242 -75.5z" />
    <glyph glyph-name="k" unicode="k" horiz-adv-x="1171" 
d="M864 0l-362 442l-129 -135v-307h-262v1434h262v-846l434 477h291l-436 -457l493 -608h-291z" />
    <glyph glyph-name="l" unicode="l" horiz-adv-x="481" 
d="M111 0v1434h262v-1434h-262z" />
    <glyph glyph-name="m" unicode="m" horiz-adv-x="1835" 
d="M1368 1085q162 0 260 -103.5t98 -311.5v-670h-262v608q0 129 -51 194.5t-147 65.5q-98 0 -157.5 -67t-59.5 -193v-608h-263v608q0 260 -196 260q-98 0 -157.5 -67t-59.5 -193v-608h-262v1065h262v-219h8q6 37 29.5 76.5t61.5 77t98 61.5t130 24q118 0 204.5 -61
t121.5 -184q8 38 33 78.5t65.5 79t104.5 63t139 24.5z" />
    <glyph glyph-name="n" unicode="n" horiz-adv-x="1210" 
d="M729 1085q166 0 268.5 -104t102.5 -311v-670h-262v608q0 260 -217 260q-112 0 -180 -67t-68 -193v-608h-262v1065h262v-219h8q8 38 32 77t64.5 76.5t106 61.5t145.5 24z" />
    <glyph glyph-name="o" unicode="o" horiz-adv-x="1173" 
d="M588 -20q-104 0 -196.5 33t-168 98t-120 173.5t-44.5 247.5q0 112 29.5 205t79.5 156.5t118 107.5t144 64t158 20t157.5 -20t143.5 -64t118 -107.5t79.5 -156.5t29.5 -205t-29.5 -205t-79.5 -156t-118 -107t-143.5 -64t-157.5 -20zM588 199q123 0 201.5 84t78.5 249
t-78.5 249.5t-201.5 84.5q-125 0 -204 -84.5t-79 -249.5t79 -249t204 -84z" />
    <glyph glyph-name="p" unicode="p" horiz-adv-x="1230" 
d="M702 1085q71 0 137 -19.5t127 -63.5t106 -107t72 -156.5t27 -206.5t-27 -206.5t-72 -156.5t-106 -106.5t-127 -63t-137 -19.5q-114 0 -202 48.5t-127 125.5v-543h-262v1454h262v-154q39 77 127 125.5t202 48.5zM641 199q120 0 202.5 85.5t82.5 247.5t-83 248t-202 86
q-55 0 -104.5 -20.5t-89.5 -60t-63.5 -105t-23.5 -148.5t23.5 -148t63.5 -104.5t89.5 -60t104.5 -20.5z" />
    <glyph glyph-name="q" unicode="q" horiz-adv-x="1230" 
d="M858 1065h262v-1454h-262v545q-41 -79 -128.5 -127.5t-201.5 -48.5q-71 0 -137 19.5t-127 63t-106 106.5t-72 156.5t-27 206.5t27 206.5t72 156.5t106 107t127 63.5t137 19.5q114 0 201.5 -48.5t128.5 -127.5v156zM588 199q118 0 200 85.5t82 247.5t-82 248t-200 86
t-200.5 -86t-82.5 -248t82.5 -247.5t200.5 -85.5z" />
    <glyph glyph-name="r" unicode="r" horiz-adv-x="813" 
d="M694 1073q46 0 82 -10v-221q-46 6 -82 6q-142 0 -231.5 -87t-89.5 -265v-496h-262v1065h262v-254h6q28 116 107.5 189t207.5 73z" />
    <glyph glyph-name="s" unicode="s" horiz-adv-x="1015" 
d="M502 -20q-211 0 -331.5 90t-121.5 266h234q20 -160 223 -160q88 0 140 33t52 98q0 48 -30 73.5t-95 41.5l-196 43q-297 68 -297 305q0 150 114.5 232.5t309.5 82.5q202 0 311.5 -92.5t112.5 -261.5h-217q-19 158 -199 158q-85 0 -133.5 -30.5t-48.5 -84.5q0 -44 34 -74.5
t97 -42.5l203 -45q144 -33 224.5 -101.5t80.5 -197.5q0 -69 -25 -125.5t-68 -94.5t-102.5 -64t-127.5 -37.5t-144 -11.5z" />
    <glyph glyph-name="t" unicode="t" horiz-adv-x="747" 
d="M612 197h88v-205q-53 -6 -153 -6q-156 0 -243 75.5t-87 237.5v563h-178v203h178v272h262v-272h209v-203h-209v-522q0 -72 30.5 -107.5t102.5 -35.5z" />
    <glyph glyph-name="u" unicode="u" horiz-adv-x="1210" 
d="M840 1065h262v-1065h-262v219h-11q-8 -38 -32 -77t-64.5 -76.5t-106 -61.5t-145.5 -24q-165 0 -267.5 104t-102.5 311v670h262v-608q0 -260 219 -260q110 0 179 67t69 193v608z" />
    <glyph glyph-name="v" unicode="v" horiz-adv-x="1193" 
d="M432 0l-393 1065h266l287 -815h10l287 815h268l-395 -1065h-330z" />
    <glyph glyph-name="w" unicode="w" horiz-adv-x="1677" 
d="M328 0l-289 1065h248l198 -809h9l231 809h227l232 -809h8l199 809h249l-290 -1065h-295l-215 717l-217 -717h-295z" />
    <glyph glyph-name="x" unicode="x" horiz-adv-x="1157" 
d="M59 0l371 539l-352 526h284l218 -338l215 338h284l-352 -526l373 -539h-285l-235 348l-238 -348h-283z" />
    <glyph glyph-name="y" unicode="y" horiz-adv-x="1161" 
d="M145 -406v224q50 -5 87.5 -5.5t67.5 8.5t50.5 19.5t37 28.5t26 34.5t18.5 37.5q17 41 17 71.5t-17 71.5l-393 981h268l273 -737l274 737h270l-442 -1094q-64 -157 -134 -242.5t-166 -118t-237 -16.5z" />
    <glyph glyph-name="z" unicode="z" horiz-adv-x="1036" 
d="M82 0v221l561 623h-541v221h852v-221l-559 -623h559v-221h-872z" />
    <glyph glyph-name="braceleft" unicode="{" 
d="M207 403q-13 0 -19 -2v-200q4 -2 19 -2q37 0 50 25t13 77q0 54 -13 78t-50 24zM518 330v-49h-82v-78h96v-49h-155v297h155v-52h-96v-69h82zM203 150q-47 0 -74 4v292q61 9 76 9q67 0 96 -37.5t29 -116.5t-29.5 -115t-97.5 -36zM586 451h80l39 -164l38 164h82
q3 -45 13 -297h-60q0 108 -6 213l-41 -168h-55l-41 168h-2q-4 -140 -4 -213h-58q3 156 15 297zM987 150q-60 0 -84 35.5t-24 115.5q0 81 24 117.5t84 36.5t85.5 -37t25.5 -117q0 -79 -25.5 -115t-85.5 -36zM987 403q-29 0 -39 -23.5t-10 -78.5q0 -54 10 -78t39 -24
q30 0 40.5 24t10.5 78q0 55 -10 78.5t-41 23.5zM967 1016q49 0 79.5 -24.5t39 -51t8.5 -53.5q0 -43 -34.5 -72.5t-72.5 -34.5q-213 -23 -340 -147q3 8 9 22t25 53.5t39 75.5t50 80.5t59.5 76t66 53.5t71.5 22zM285 909q39 0 78 -21t69.5 -55t58.5 -74.5t48 -81.5t35 -75
t22 -55l8 -21q-117 148 -319 148q-49 0 -88 30t-39 76q0 53 33.5 91t93.5 38zM643 1214q38 -37 48.5 -102t-2.5 -131t-31.5 -126.5t-35.5 -98.5l-18 -39q20 191 -125 330q-35 35 -42 81.5t24 83.5q23 23 53 34t65 3.5t64 -35.5z" />
    <glyph glyph-name="bar" unicode="|" 
d="M207 403q-13 0 -19 -2v-200q4 -2 19 -2q37 0 50 25t13 77q0 54 -13 78t-50 24zM518 330v-49h-82v-78h96v-49h-155v297h155v-52h-96v-69h82zM203 150q-47 0 -74 4v292q61 9 76 9q67 0 96 -37.5t29 -116.5t-29.5 -115t-97.5 -36zM586 451h80l39 -164l38 164h82
q3 -45 13 -297h-60q0 108 -6 213l-41 -168h-55l-41 168h-2q-4 -140 -4 -213h-58q3 156 15 297zM987 150q-60 0 -84 35.5t-24 115.5q0 81 24 117.5t84 36.5t85.5 -37t25.5 -117q0 -79 -25.5 -115t-85.5 -36zM987 403q-29 0 -39 -23.5t-10 -78.5q0 -54 10 -78t39 -24
q30 0 40.5 24t10.5 78q0 55 -10 78.5t-41 23.5zM967 1016q49 0 79.5 -24.5t39 -51t8.5 -53.5q0 -43 -34.5 -72.5t-72.5 -34.5q-213 -23 -340 -147q3 8 9 22t25 53.5t39 75.5t50 80.5t59.5 76t66 53.5t71.5 22zM285 909q39 0 78 -21t69.5 -55t58.5 -74.5t48 -81.5t35 -75
t22 -55l8 -21q-117 148 -319 148q-49 0 -88 30t-39 76q0 53 33.5 91t93.5 38zM643 1214q38 -37 48.5 -102t-2.5 -131t-31.5 -126.5t-35.5 -98.5l-18 -39q20 191 -125 330q-35 35 -42 81.5t24 83.5q23 23 53 34t65 3.5t64 -35.5z" />
    <glyph glyph-name="braceright" unicode="}" 
d="M207 403q-13 0 -19 -2v-200q4 -2 19 -2q37 0 50 25t13 77q0 54 -13 78t-50 24zM518 330v-49h-82v-78h96v-49h-155v297h155v-52h-96v-69h82zM203 150q-47 0 -74 4v292q61 9 76 9q67 0 96 -37.5t29 -116.5t-29.5 -115t-97.5 -36zM586 451h80l39 -164l38 164h82
q3 -45 13 -297h-60q0 108 -6 213l-41 -168h-55l-41 168h-2q-4 -140 -4 -213h-58q3 156 15 297zM987 150q-60 0 -84 35.5t-24 115.5q0 81 24 117.5t84 36.5t85.5 -37t25.5 -117q0 -79 -25.5 -115t-85.5 -36zM987 403q-29 0 -39 -23.5t-10 -78.5q0 -54 10 -78t39 -24
q30 0 40.5 24t10.5 78q0 55 -10 78.5t-41 23.5zM967 1016q49 0 79.5 -24.5t39 -51t8.5 -53.5q0 -43 -34.5 -72.5t-72.5 -34.5q-213 -23 -340 -147q3 8 9 22t25 53.5t39 75.5t50 80.5t59.5 76t66 53.5t71.5 22zM285 909q39 0 78 -21t69.5 -55t58.5 -74.5t48 -81.5t35 -75
t22 -55l8 -21q-117 148 -319 148q-49 0 -88 30t-39 76q0 53 33.5 91t93.5 38zM643 1214q38 -37 48.5 -102t-2.5 -131t-31.5 -126.5t-35.5 -98.5l-18 -39q20 191 -125 330q-35 35 -42 81.5t24 83.5q23 23 53 34t65 3.5t64 -35.5z" />
    <glyph glyph-name="asciitilde" unicode="~" 
d="M207 403q-13 0 -19 -2v-200q4 -2 19 -2q37 0 50 25t13 77q0 54 -13 78t-50 24zM518 330v-49h-82v-78h96v-49h-155v297h155v-52h-96v-69h82zM203 150q-47 0 -74 4v292q61 9 76 9q67 0 96 -37.5t29 -116.5t-29.5 -115t-97.5 -36zM586 451h80l39 -164l38 164h82
q3 -45 13 -297h-60q0 108 -6 213l-41 -168h-55l-41 168h-2q-4 -140 -4 -213h-58q3 156 15 297zM987 150q-60 0 -84 35.5t-24 115.5q0 81 24 117.5t84 36.5t85.5 -37t25.5 -117q0 -79 -25.5 -115t-85.5 -36zM987 403q-29 0 -39 -23.5t-10 -78.5q0 -54 10 -78t39 -24
q30 0 40.5 24t10.5 78q0 55 -10 78.5t-41 23.5zM967 1016q49 0 79.5 -24.5t39 -51t8.5 -53.5q0 -43 -34.5 -72.5t-72.5 -34.5q-213 -23 -340 -147q3 8 9 22t25 53.5t39 75.5t50 80.5t59.5 76t66 53.5t71.5 22zM285 909q39 0 78 -21t69.5 -55t58.5 -74.5t48 -81.5t35 -75
t22 -55l8 -21q-117 148 -319 148q-49 0 -88 30t-39 76q0 53 33.5 91t93.5 38zM643 1214q38 -37 48.5 -102t-2.5 -131t-31.5 -126.5t-35.5 -98.5l-18 -39q20 191 -125 330q-35 35 -42 81.5t24 83.5q23 23 53 34t65 3.5t64 -35.5z" />
    </font>
</defs>
</svg>
