<?xml version="1.0" standalone="no"?>
<!DOCTYPE svg PUBLIC "-//W3C//DTD SVG 1.1//EN" "http://www.w3.org/Graphics/SVG/1.1/DTD/svg11.dtd" >
<svg xmlns="http://www.w3.org/2000/svg" xmlns:xlink="http://www.w3.org/1999/xlink" version="1.1">
<metadata>
Created by FontForge 20201107 at Mon Mar  9 12:55:23 2026
 By www-data
Copyright  2020 by Connary Fagen. All rights reserved.
</metadata>
<defs>
<font id="FONTSPRINGDEMO-ArticulatCFHeavyRegular" horiz-adv-x="1224" >
  <font-face 
    font-family="FSP DEMO - Articulat CF Heavy"
    font-weight="900"
    font-stretch="normal"
    units-per-em="2048"
    panose-1="0 0 10 0 0 0 0 0 0 0"
    ascent="1638"
    descent="-410"
    x-height="1065"
    cap-height="1434"
    bbox="-109 -428 2091 1532"
    underline-thickness="102"
    underline-position="-204"
    unicode-range="U+0020-007E"
  />
<missing-glyph 
d="M207 403q-13 0 -19 -2v-200q4 -2 19 -2q37 0 50 25t13 77q0 54 -13 78t-50 24zM518 330v-49h-82v-78h96v-49h-155v297h155v-52h-96v-69h82zM203 150q-47 0 -74 4v292q61 9 76 9q67 0 96 -37.5t29 -116.5t-29.5 -115t-97.5 -36zM586 451h80l39 -164l38 164h82
q3 -45 13 -297h-60q0 108 -6 213l-41 -168h-55l-41 168h-2q-4 -140 -4 -213h-58q3 156 15 297zM987 150q-60 0 -84 35.5t-24 115.5q0 81 24 117.5t84 36.5t85.5 -37t25.5 -117q0 -79 -25.5 -115t-85.5 -36zM987 403q-29 0 -39 -23.5t-10 -78.5q0 -54 10 -78t39 -24
q30 0 40.5 24t10.5 78q0 55 -10 78.5t-41 23.5zM967 1016q49 0 79.5 -24.5t39 -51t8.5 -53.5q0 -43 -34.5 -72.5t-72.5 -34.5q-213 -23 -340 -147q3 8 9 22t25 53.5t39 75.5t50 80.5t59.5 76t66 53.5t71.5 22zM285 909q39 0 78 -21t69.5 -55t58.5 -74.5t48 -81.5t35 -75
t22 -55l8 -21q-117 148 -319 148q-49 0 -88 30t-39 76q0 53 33.5 91t93.5 38zM643 1214q38 -37 48.5 -102t-2.5 -131t-31.5 -126.5t-35.5 -98.5l-18 -39q20 191 -125 330q-35 35 -42 81.5t24 83.5q23 23 53 34t65 3.5t64 -35.5z" />
    <glyph glyph-name=".notdef" 
d="M207 403q-13 0 -19 -2v-200q4 -2 19 -2q37 0 50 25t13 77q0 54 -13 78t-50 24zM518 330v-49h-82v-78h96v-49h-155v297h155v-52h-96v-69h82zM203 150q-47 0 -74 4v292q61 9 76 9q67 0 96 -37.5t29 -116.5t-29.5 -115t-97.5 -36zM586 451h80l39 -164l38 164h82
q3 -45 13 -297h-60q0 108 -6 213l-41 -168h-55l-41 168h-2q-4 -140 -4 -213h-58q3 156 15 297zM987 150q-60 0 -84 35.5t-24 115.5q0 81 24 117.5t84 36.5t85.5 -37t25.5 -117q0 -79 -25.5 -115t-85.5 -36zM987 403q-29 0 -39 -23.5t-10 -78.5q0 -54 10 -78t39 -24
q30 0 40.5 24t10.5 78q0 55 -10 78.5t-41 23.5zM967 1016q49 0 79.5 -24.5t39 -51t8.5 -53.5q0 -43 -34.5 -72.5t-72.5 -34.5q-213 -23 -340 -147q3 8 9 22t25 53.5t39 75.5t50 80.5t59.5 76t66 53.5t71.5 22zM285 909q39 0 78 -21t69.5 -55t58.5 -74.5t48 -81.5t35 -75
t22 -55l8 -21q-117 148 -319 148q-49 0 -88 30t-39 76q0 53 33.5 91t93.5 38zM643 1214q38 -37 48.5 -102t-2.5 -131t-31.5 -126.5t-35.5 -98.5l-18 -39q20 191 -125 330q-35 35 -42 81.5t24 83.5q23 23 53 34t65 3.5t64 -35.5z" />
    <glyph glyph-name=".null" horiz-adv-x="0" 
 />
    <glyph glyph-name="nonmarkingreturn" horiz-adv-x="682" 
 />
    <glyph glyph-name="space" unicode=" " horiz-adv-x="471" 
 />
    <glyph glyph-name="exclam" unicode="!" 
d="M207 403q-13 0 -19 -2v-200q4 -2 19 -2q37 0 50 25t13 77q0 54 -13 78t-50 24zM518 330v-49h-82v-78h96v-49h-155v297h155v-52h-96v-69h82zM203 150q-47 0 -74 4v292q61 9 76 9q67 0 96 -37.5t29 -116.5t-29.5 -115t-97.5 -36zM586 451h80l39 -164l38 164h82
q3 -45 13 -297h-60q0 108 -6 213l-41 -168h-55l-41 168h-2q-4 -140 -4 -213h-58q3 156 15 297zM987 150q-60 0 -84 35.5t-24 115.5q0 81 24 117.5t84 36.5t85.5 -37t25.5 -117q0 -79 -25.5 -115t-85.5 -36zM987 403q-29 0 -39 -23.5t-10 -78.5q0 -54 10 -78t39 -24
q30 0 40.5 24t10.5 78q0 55 -10 78.5t-41 23.5zM967 1016q49 0 79.5 -24.5t39 -51t8.5 -53.5q0 -43 -34.5 -72.5t-72.5 -34.5q-213 -23 -340 -147q3 8 9 22t25 53.5t39 75.5t50 80.5t59.5 76t66 53.5t71.5 22zM285 909q39 0 78 -21t69.5 -55t58.5 -74.5t48 -81.5t35 -75
t22 -55l8 -21q-117 148 -319 148q-49 0 -88 30t-39 76q0 53 33.5 91t93.5 38zM643 1214q38 -37 48.5 -102t-2.5 -131t-31.5 -126.5t-35.5 -98.5l-18 -39q20 191 -125 330q-35 35 -42 81.5t24 83.5q23 23 53 34t65 3.5t64 -35.5z" />
    <glyph glyph-name="quotedbl" unicode="&#x22;" 
d="M207 403q-13 0 -19 -2v-200q4 -2 19 -2q37 0 50 25t13 77q0 54 -13 78t-50 24zM518 330v-49h-82v-78h96v-49h-155v297h155v-52h-96v-69h82zM203 150q-47 0 -74 4v292q61 9 76 9q67 0 96 -37.5t29 -116.5t-29.5 -115t-97.5 -36zM586 451h80l39 -164l38 164h82
q3 -45 13 -297h-60q0 108 -6 213l-41 -168h-55l-41 168h-2q-4 -140 -4 -213h-58q3 156 15 297zM987 150q-60 0 -84 35.5t-24 115.5q0 81 24 117.5t84 36.5t85.5 -37t25.5 -117q0 -79 -25.5 -115t-85.5 -36zM987 403q-29 0 -39 -23.5t-10 -78.5q0 -54 10 -78t39 -24
q30 0 40.5 24t10.5 78q0 55 -10 78.5t-41 23.5zM967 1016q49 0 79.5 -24.5t39 -51t8.5 -53.5q0 -43 -34.5 -72.5t-72.5 -34.5q-213 -23 -340 -147q3 8 9 22t25 53.5t39 75.5t50 80.5t59.5 76t66 53.5t71.5 22zM285 909q39 0 78 -21t69.5 -55t58.5 -74.5t48 -81.5t35 -75
t22 -55l8 -21q-117 148 -319 148q-49 0 -88 30t-39 76q0 53 33.5 91t93.5 38zM643 1214q38 -37 48.5 -102t-2.5 -131t-31.5 -126.5t-35.5 -98.5l-18 -39q20 191 -125 330q-35 35 -42 81.5t24 83.5q23 23 53 34t65 3.5t64 -35.5z" />
    <glyph glyph-name="numbersign" unicode="#" 
d="M207 403q-13 0 -19 -2v-200q4 -2 19 -2q37 0 50 25t13 77q0 54 -13 78t-50 24zM518 330v-49h-82v-78h96v-49h-155v297h155v-52h-96v-69h82zM203 150q-47 0 -74 4v292q61 9 76 9q67 0 96 -37.5t29 -116.5t-29.5 -115t-97.5 -36zM586 451h80l39 -164l38 164h82
q3 -45 13 -297h-60q0 108 -6 213l-41 -168h-55l-41 168h-2q-4 -140 -4 -213h-58q3 156 15 297zM987 150q-60 0 -84 35.5t-24 115.5q0 81 24 117.5t84 36.5t85.5 -37t25.5 -117q0 -79 -25.5 -115t-85.5 -36zM987 403q-29 0 -39 -23.5t-10 -78.5q0 -54 10 -78t39 -24
q30 0 40.5 24t10.5 78q0 55 -10 78.5t-41 23.5zM967 1016q49 0 79.5 -24.5t39 -51t8.5 -53.5q0 -43 -34.5 -72.5t-72.5 -34.5q-213 -23 -340 -147q3 8 9 22t25 53.5t39 75.5t50 80.5t59.5 76t66 53.5t71.5 22zM285 909q39 0 78 -21t69.5 -55t58.5 -74.5t48 -81.5t35 -75
t22 -55l8 -21q-117 148 -319 148q-49 0 -88 30t-39 76q0 53 33.5 91t93.5 38zM643 1214q38 -37 48.5 -102t-2.5 -131t-31.5 -126.5t-35.5 -98.5l-18 -39q20 191 -125 330q-35 35 -42 81.5t24 83.5q23 23 53 34t65 3.5t64 -35.5z" />
    <glyph glyph-name="dollar" unicode="$" 
d="M207 403q-13 0 -19 -2v-200q4 -2 19 -2q37 0 50 25t13 77q0 54 -13 78t-50 24zM518 330v-49h-82v-78h96v-49h-155v297h155v-52h-96v-69h82zM203 150q-47 0 -74 4v292q61 9 76 9q67 0 96 -37.5t29 -116.5t-29.5 -115t-97.5 -36zM586 451h80l39 -164l38 164h82
q3 -45 13 -297h-60q0 108 -6 213l-41 -168h-55l-41 168h-2q-4 -140 -4 -213h-58q3 156 15 297zM987 150q-60 0 -84 35.5t-24 115.5q0 81 24 117.5t84 36.5t85.5 -37t25.5 -117q0 -79 -25.5 -115t-85.5 -36zM987 403q-29 0 -39 -23.5t-10 -78.5q0 -54 10 -78t39 -24
q30 0 40.5 24t10.5 78q0 55 -10 78.5t-41 23.5zM967 1016q49 0 79.5 -24.5t39 -51t8.5 -53.5q0 -43 -34.5 -72.5t-72.5 -34.5q-213 -23 -340 -147q3 8 9 22t25 53.5t39 75.5t50 80.5t59.5 76t66 53.5t71.5 22zM285 909q39 0 78 -21t69.5 -55t58.5 -74.5t48 -81.5t35 -75
t22 -55l8 -21q-117 148 -319 148q-49 0 -88 30t-39 76q0 53 33.5 91t93.5 38zM643 1214q38 -37 48.5 -102t-2.5 -131t-31.5 -126.5t-35.5 -98.5l-18 -39q20 191 -125 330q-35 35 -42 81.5t24 83.5q23 23 53 34t65 3.5t64 -35.5z" />
    <glyph glyph-name="percent" unicode="%" 
d="M207 403q-13 0 -19 -2v-200q4 -2 19 -2q37 0 50 25t13 77q0 54 -13 78t-50 24zM518 330v-49h-82v-78h96v-49h-155v297h155v-52h-96v-69h82zM203 150q-47 0 -74 4v292q61 9 76 9q67 0 96 -37.5t29 -116.5t-29.5 -115t-97.5 -36zM586 451h80l39 -164l38 164h82
q3 -45 13 -297h-60q0 108 -6 213l-41 -168h-55l-41 168h-2q-4 -140 -4 -213h-58q3 156 15 297zM987 150q-60 0 -84 35.5t-24 115.5q0 81 24 117.5t84 36.5t85.5 -37t25.5 -117q0 -79 -25.5 -115t-85.5 -36zM987 403q-29 0 -39 -23.5t-10 -78.5q0 -54 10 -78t39 -24
q30 0 40.5 24t10.5 78q0 55 -10 78.5t-41 23.5zM967 1016q49 0 79.5 -24.5t39 -51t8.5 -53.5q0 -43 -34.5 -72.5t-72.5 -34.5q-213 -23 -340 -147q3 8 9 22t25 53.5t39 75.5t50 80.5t59.5 76t66 53.5t71.5 22zM285 909q39 0 78 -21t69.5 -55t58.5 -74.5t48 -81.5t35 -75
t22 -55l8 -21q-117 148 -319 148q-49 0 -88 30t-39 76q0 53 33.5 91t93.5 38zM643 1214q38 -37 48.5 -102t-2.5 -131t-31.5 -126.5t-35.5 -98.5l-18 -39q20 191 -125 330q-35 35 -42 81.5t24 83.5q23 23 53 34t65 3.5t64 -35.5z" />
    <glyph glyph-name="ampersand" unicode="&#x26;" 
d="M207 403q-13 0 -19 -2v-200q4 -2 19 -2q37 0 50 25t13 77q0 54 -13 78t-50 24zM518 330v-49h-82v-78h96v-49h-155v297h155v-52h-96v-69h82zM203 150q-47 0 -74 4v292q61 9 76 9q67 0 96 -37.5t29 -116.5t-29.5 -115t-97.5 -36zM586 451h80l39 -164l38 164h82
q3 -45 13 -297h-60q0 108 -6 213l-41 -168h-55l-41 168h-2q-4 -140 -4 -213h-58q3 156 15 297zM987 150q-60 0 -84 35.5t-24 115.5q0 81 24 117.5t84 36.5t85.5 -37t25.5 -117q0 -79 -25.5 -115t-85.5 -36zM987 403q-29 0 -39 -23.5t-10 -78.5q0 -54 10 -78t39 -24
q30 0 40.5 24t10.5 78q0 55 -10 78.5t-41 23.5zM967 1016q49 0 79.5 -24.5t39 -51t8.5 -53.5q0 -43 -34.5 -72.5t-72.5 -34.5q-213 -23 -340 -147q3 8 9 22t25 53.5t39 75.5t50 80.5t59.5 76t66 53.5t71.5 22zM285 909q39 0 78 -21t69.5 -55t58.5 -74.5t48 -81.5t35 -75
t22 -55l8 -21q-117 148 -319 148q-49 0 -88 30t-39 76q0 53 33.5 91t93.5 38zM643 1214q38 -37 48.5 -102t-2.5 -131t-31.5 -126.5t-35.5 -98.5l-18 -39q20 191 -125 330q-35 35 -42 81.5t24 83.5q23 23 53 34t65 3.5t64 -35.5z" />
    <glyph glyph-name="quotesingle" unicode="'" 
d="M207 403q-13 0 -19 -2v-200q4 -2 19 -2q37 0 50 25t13 77q0 54 -13 78t-50 24zM518 330v-49h-82v-78h96v-49h-155v297h155v-52h-96v-69h82zM203 150q-47 0 -74 4v292q61 9 76 9q67 0 96 -37.5t29 -116.5t-29.5 -115t-97.5 -36zM586 451h80l39 -164l38 164h82
q3 -45 13 -297h-60q0 108 -6 213l-41 -168h-55l-41 168h-2q-4 -140 -4 -213h-58q3 156 15 297zM987 150q-60 0 -84 35.5t-24 115.5q0 81 24 117.5t84 36.5t85.5 -37t25.5 -117q0 -79 -25.5 -115t-85.5 -36zM987 403q-29 0 -39 -23.5t-10 -78.5q0 -54 10 -78t39 -24
q30 0 40.5 24t10.5 78q0 55 -10 78.5t-41 23.5zM967 1016q49 0 79.5 -24.5t39 -51t8.5 -53.5q0 -43 -34.5 -72.5t-72.5 -34.5q-213 -23 -340 -147q3 8 9 22t25 53.5t39 75.5t50 80.5t59.5 76t66 53.5t71.5 22zM285 909q39 0 78 -21t69.5 -55t58.5 -74.5t48 -81.5t35 -75
t22 -55l8 -21q-117 148 -319 148q-49 0 -88 30t-39 76q0 53 33.5 91t93.5 38zM643 1214q38 -37 48.5 -102t-2.5 -131t-31.5 -126.5t-35.5 -98.5l-18 -39q20 191 -125 330q-35 35 -42 81.5t24 83.5q23 23 53 34t65 3.5t64 -35.5z" />
    <glyph glyph-name="parenleft" unicode="(" 
d="M207 403q-13 0 -19 -2v-200q4 -2 19 -2q37 0 50 25t13 77q0 54 -13 78t-50 24zM518 330v-49h-82v-78h96v-49h-155v297h155v-52h-96v-69h82zM203 150q-47 0 -74 4v292q61 9 76 9q67 0 96 -37.5t29 -116.5t-29.5 -115t-97.5 -36zM586 451h80l39 -164l38 164h82
q3 -45 13 -297h-60q0 108 -6 213l-41 -168h-55l-41 168h-2q-4 -140 -4 -213h-58q3 156 15 297zM987 150q-60 0 -84 35.5t-24 115.5q0 81 24 117.5t84 36.5t85.5 -37t25.5 -117q0 -79 -25.5 -115t-85.5 -36zM987 403q-29 0 -39 -23.5t-10 -78.5q0 -54 10 -78t39 -24
q30 0 40.5 24t10.5 78q0 55 -10 78.5t-41 23.5zM967 1016q49 0 79.5 -24.5t39 -51t8.5 -53.5q0 -43 -34.5 -72.5t-72.5 -34.5q-213 -23 -340 -147q3 8 9 22t25 53.5t39 75.5t50 80.5t59.5 76t66 53.5t71.5 22zM285 909q39 0 78 -21t69.5 -55t58.5 -74.5t48 -81.5t35 -75
t22 -55l8 -21q-117 148 -319 148q-49 0 -88 30t-39 76q0 53 33.5 91t93.5 38zM643 1214q38 -37 48.5 -102t-2.5 -131t-31.5 -126.5t-35.5 -98.5l-18 -39q20 191 -125 330q-35 35 -42 81.5t24 83.5q23 23 53 34t65 3.5t64 -35.5z" />
    <glyph glyph-name="parenright" unicode=")" 
d="M207 403q-13 0 -19 -2v-200q4 -2 19 -2q37 0 50 25t13 77q0 54 -13 78t-50 24zM518 330v-49h-82v-78h96v-49h-155v297h155v-52h-96v-69h82zM203 150q-47 0 -74 4v292q61 9 76 9q67 0 96 -37.5t29 -116.5t-29.5 -115t-97.5 -36zM586 451h80l39 -164l38 164h82
q3 -45 13 -297h-60q0 108 -6 213l-41 -168h-55l-41 168h-2q-4 -140 -4 -213h-58q3 156 15 297zM987 150q-60 0 -84 35.5t-24 115.5q0 81 24 117.5t84 36.5t85.5 -37t25.5 -117q0 -79 -25.5 -115t-85.5 -36zM987 403q-29 0 -39 -23.5t-10 -78.5q0 -54 10 -78t39 -24
q30 0 40.5 24t10.5 78q0 55 -10 78.5t-41 23.5zM967 1016q49 0 79.5 -24.5t39 -51t8.5 -53.5q0 -43 -34.5 -72.5t-72.5 -34.5q-213 -23 -340 -147q3 8 9 22t25 53.5t39 75.5t50 80.5t59.5 76t66 53.5t71.5 22zM285 909q39 0 78 -21t69.5 -55t58.5 -74.5t48 -81.5t35 -75
t22 -55l8 -21q-117 148 -319 148q-49 0 -88 30t-39 76q0 53 33.5 91t93.5 38zM643 1214q38 -37 48.5 -102t-2.5 -131t-31.5 -126.5t-35.5 -98.5l-18 -39q20 191 -125 330q-35 35 -42 81.5t24 83.5q23 23 53 34t65 3.5t64 -35.5z" />
    <glyph glyph-name="asterisk" unicode="*" 
d="M207 403q-13 0 -19 -2v-200q4 -2 19 -2q37 0 50 25t13 77q0 54 -13 78t-50 24zM518 330v-49h-82v-78h96v-49h-155v297h155v-52h-96v-69h82zM203 150q-47 0 -74 4v292q61 9 76 9q67 0 96 -37.5t29 -116.5t-29.5 -115t-97.5 -36zM586 451h80l39 -164l38 164h82
q3 -45 13 -297h-60q0 108 -6 213l-41 -168h-55l-41 168h-2q-4 -140 -4 -213h-58q3 156 15 297zM987 150q-60 0 -84 35.5t-24 115.5q0 81 24 117.5t84 36.5t85.5 -37t25.5 -117q0 -79 -25.5 -115t-85.5 -36zM987 403q-29 0 -39 -23.5t-10 -78.5q0 -54 10 -78t39 -24
q30 0 40.5 24t10.5 78q0 55 -10 78.5t-41 23.5zM967 1016q49 0 79.5 -24.5t39 -51t8.5 -53.5q0 -43 -34.5 -72.5t-72.5 -34.5q-213 -23 -340 -147q3 8 9 22t25 53.5t39 75.5t50 80.5t59.5 76t66 53.5t71.5 22zM285 909q39 0 78 -21t69.5 -55t58.5 -74.5t48 -81.5t35 -75
t22 -55l8 -21q-117 148 -319 148q-49 0 -88 30t-39 76q0 53 33.5 91t93.5 38zM643 1214q38 -37 48.5 -102t-2.5 -131t-31.5 -126.5t-35.5 -98.5l-18 -39q20 191 -125 330q-35 35 -42 81.5t24 83.5q23 23 53 34t65 3.5t64 -35.5z" />
    <glyph glyph-name="plus" unicode="+" 
d="M207 403q-13 0 -19 -2v-200q4 -2 19 -2q37 0 50 25t13 77q0 54 -13 78t-50 24zM518 330v-49h-82v-78h96v-49h-155v297h155v-52h-96v-69h82zM203 150q-47 0 -74 4v292q61 9 76 9q67 0 96 -37.5t29 -116.5t-29.5 -115t-97.5 -36zM586 451h80l39 -164l38 164h82
q3 -45 13 -297h-60q0 108 -6 213l-41 -168h-55l-41 168h-2q-4 -140 -4 -213h-58q3 156 15 297zM987 150q-60 0 -84 35.5t-24 115.5q0 81 24 117.5t84 36.5t85.5 -37t25.5 -117q0 -79 -25.5 -115t-85.5 -36zM987 403q-29 0 -39 -23.5t-10 -78.5q0 -54 10 -78t39 -24
q30 0 40.5 24t10.5 78q0 55 -10 78.5t-41 23.5zM967 1016q49 0 79.5 -24.5t39 -51t8.5 -53.5q0 -43 -34.5 -72.5t-72.5 -34.5q-213 -23 -340 -147q3 8 9 22t25 53.5t39 75.5t50 80.5t59.5 76t66 53.5t71.5 22zM285 909q39 0 78 -21t69.5 -55t58.5 -74.5t48 -81.5t35 -75
t22 -55l8 -21q-117 148 -319 148q-49 0 -88 30t-39 76q0 53 33.5 91t93.5 38zM643 1214q38 -37 48.5 -102t-2.5 -131t-31.5 -126.5t-35.5 -98.5l-18 -39q20 191 -125 330q-35 35 -42 81.5t24 83.5q23 23 53 34t65 3.5t64 -35.5z" />
    <glyph glyph-name="comma" unicode="," horiz-adv-x="600" 
d="M70 -330v166h14q80 0 124.5 5.5t71 24t34 45.5t8.5 77q-118 3 -185 68t-67 153q0 87 60.5 144t150.5 57q110 0 179.5 -81t69.5 -251q0 -204 -102.5 -306t-288.5 -102h-69z" />
    <glyph glyph-name="hyphen" unicode="-" 
d="M207 403q-13 0 -19 -2v-200q4 -2 19 -2q37 0 50 25t13 77q0 54 -13 78t-50 24zM518 330v-49h-82v-78h96v-49h-155v297h155v-52h-96v-69h82zM203 150q-47 0 -74 4v292q61 9 76 9q67 0 96 -37.5t29 -116.5t-29.5 -115t-97.5 -36zM586 451h80l39 -164l38 164h82
q3 -45 13 -297h-60q0 108 -6 213l-41 -168h-55l-41 168h-2q-4 -140 -4 -213h-58q3 156 15 297zM987 150q-60 0 -84 35.5t-24 115.5q0 81 24 117.5t84 36.5t85.5 -37t25.5 -117q0 -79 -25.5 -115t-85.5 -36zM987 403q-29 0 -39 -23.5t-10 -78.5q0 -54 10 -78t39 -24
q30 0 40.5 24t10.5 78q0 55 -10 78.5t-41 23.5zM967 1016q49 0 79.5 -24.5t39 -51t8.5 -53.5q0 -43 -34.5 -72.5t-72.5 -34.5q-213 -23 -340 -147q3 8 9 22t25 53.5t39 75.5t50 80.5t59.5 76t66 53.5t71.5 22zM285 909q39 0 78 -21t69.5 -55t58.5 -74.5t48 -81.5t35 -75
t22 -55l8 -21q-117 148 -319 148q-49 0 -88 30t-39 76q0 53 33.5 91t93.5 38zM643 1214q38 -37 48.5 -102t-2.5 -131t-31.5 -126.5t-35.5 -98.5l-18 -39q20 191 -125 330q-35 35 -42 81.5t24 83.5q23 23 53 34t65 3.5t64 -35.5z" />
    <glyph glyph-name="period" unicode="." horiz-adv-x="577" 
d="M289 -20q-91 0 -155 62.5t-64 152.5t64 152.5t155 62.5t155 -62.5t64 -152.5t-64 -152.5t-155 -62.5z" />
    <glyph glyph-name="slash" unicode="/" 
d="M207 403q-13 0 -19 -2v-200q4 -2 19 -2q37 0 50 25t13 77q0 54 -13 78t-50 24zM518 330v-49h-82v-78h96v-49h-155v297h155v-52h-96v-69h82zM203 150q-47 0 -74 4v292q61 9 76 9q67 0 96 -37.5t29 -116.5t-29.5 -115t-97.5 -36zM586 451h80l39 -164l38 164h82
q3 -45 13 -297h-60q0 108 -6 213l-41 -168h-55l-41 168h-2q-4 -140 -4 -213h-58q3 156 15 297zM987 150q-60 0 -84 35.5t-24 115.5q0 81 24 117.5t84 36.5t85.5 -37t25.5 -117q0 -79 -25.5 -115t-85.5 -36zM987 403q-29 0 -39 -23.5t-10 -78.5q0 -54 10 -78t39 -24
q30 0 40.5 24t10.5 78q0 55 -10 78.5t-41 23.5zM967 1016q49 0 79.5 -24.5t39 -51t8.5 -53.5q0 -43 -34.5 -72.5t-72.5 -34.5q-213 -23 -340 -147q3 8 9 22t25 53.5t39 75.5t50 80.5t59.5 76t66 53.5t71.5 22zM285 909q39 0 78 -21t69.5 -55t58.5 -74.5t48 -81.5t35 -75
t22 -55l8 -21q-117 148 -319 148q-49 0 -88 30t-39 76q0 53 33.5 91t93.5 38zM643 1214q38 -37 48.5 -102t-2.5 -131t-31.5 -126.5t-35.5 -98.5l-18 -39q20 191 -125 330q-35 35 -42 81.5t24 83.5q23 23 53 34t65 3.5t64 -35.5z" />
    <glyph glyph-name="zero" unicode="0" horiz-adv-x="1316" 
d="M657 -20q-58 0 -114.5 10t-115.5 35t-110.5 63t-97.5 96.5t-78.5 133t-51.5 177t-19 222.5q0 165 36.5 295.5t95 211.5t137.5 134t157 73.5t161 20.5q85 0 164 -20.5t158 -73.5t137 -134t94.5 -211.5t36.5 -295.5q0 -167 -36.5 -298t-94.5 -212t-137 -133.5t-158 -73
t-164 -20.5zM657 295q230 0 230 422q0 420 -230 420q-227 0 -227 -420q0 -52 3 -96.5t11.5 -95t24.5 -89.5t40.5 -72t62 -51t85.5 -18z" />
    <glyph glyph-name="one" unicode="1" horiz-adv-x="929" 
d="M410 0v983q-34 -35 -75.5 -56.5t-92 -30.5t-84.5 -11t-88 -2v309q141 18 220 70t120 172h378v-1434h-378z" />
    <glyph glyph-name="two" unicode="2" horiz-adv-x="1226" 
d="M82 0v74q0 86 8 151.5t30.5 135t62.5 126t105 113.5t156 109q30 17 84.5 45.5t80 42.5t62 39t53 45.5t30 50.5t14.5 65q2 37 -8.5 63.5t-26 40t-38.5 21.5t-39 9.5t-35 1.5q-64 0 -108 -39t-44 -133v-29h-367v45q0 78 17 146.5t56 129.5t98.5 104.5t150 69t203.5 25.5
q253 0 386.5 -116t133.5 -314q0 -60 -15 -115t-30.5 -93t-56 -80.5t-59.5 -62.5t-74 -55t-67 -41.5t-69 -36.5q-12 -7 -18 -10q-138 -79 -189 -127t-51 -88v-2h617v-311h-1053z" />
    <glyph glyph-name="three" unicode="3" horiz-adv-x="1249" 
d="M606 -20q-282 0 -415.5 139t-131.5 385h357q1 -63 20.5 -107t52.5 -64t64 -28t68 -8q33 0 63.5 7t59 22.5t46 45.5t17.5 72q0 152 -209 152h-98v266h82q53 0 91.5 10.5t57.5 24.5t29.5 35.5t12 34.5t1.5 30q0 70 -45 101.5t-104 31.5q-28 0 -54.5 -8t-52 -27t-42 -56
t-17.5 -89h-353q0 234 132.5 368t392.5 134q231 0 370.5 -104.5t139.5 -282.5q0 -75 -24.5 -136t-62 -96t-74 -55t-69.5 -26q23 0 55 -9.5t72 -34t73.5 -60t56 -95.5t22.5 -133q0 -193 -157 -316.5t-427 -123.5z" />
    <glyph glyph-name="four" unicode="4" 
d="M207 403q-13 0 -19 -2v-200q4 -2 19 -2q37 0 50 25t13 77q0 54 -13 78t-50 24zM518 330v-49h-82v-78h96v-49h-155v297h155v-52h-96v-69h82zM203 150q-47 0 -74 4v292q61 9 76 9q67 0 96 -37.5t29 -116.5t-29.5 -115t-97.5 -36zM586 451h80l39 -164l38 164h82
q3 -45 13 -297h-60q0 108 -6 213l-41 -168h-55l-41 168h-2q-4 -140 -4 -213h-58q3 156 15 297zM987 150q-60 0 -84 35.5t-24 115.5q0 81 24 117.5t84 36.5t85.5 -37t25.5 -117q0 -79 -25.5 -115t-85.5 -36zM987 403q-29 0 -39 -23.5t-10 -78.5q0 -54 10 -78t39 -24
q30 0 40.5 24t10.5 78q0 55 -10 78.5t-41 23.5zM967 1016q49 0 79.5 -24.5t39 -51t8.5 -53.5q0 -43 -34.5 -72.5t-72.5 -34.5q-213 -23 -340 -147q3 8 9 22t25 53.5t39 75.5t50 80.5t59.5 76t66 53.5t71.5 22zM285 909q39 0 78 -21t69.5 -55t58.5 -74.5t48 -81.5t35 -75
t22 -55l8 -21q-117 148 -319 148q-49 0 -88 30t-39 76q0 53 33.5 91t93.5 38zM643 1214q38 -37 48.5 -102t-2.5 -131t-31.5 -126.5t-35.5 -98.5l-18 -39q20 191 -125 330q-35 35 -42 81.5t24 83.5q23 23 53 34t65 3.5t64 -35.5z" />
    <glyph glyph-name="five" unicode="5" horiz-adv-x="1245" 
d="M723 1001q209 0 342 -136t133 -363q0 -250 -154 -386t-413 -136q-263 0 -410 135.5t-141 357.5h342q2 -57 24.5 -97t56 -58t61.5 -25.5t54 -7.5q20 0 41 3t52 16t54 34.5t39.5 64t16.5 99.5q0 59 -17 101.5t-39 63t-53.5 32.5t-50 14t-38.5 2q-64 0 -118 -31t-69 -82
h-342l121 832h840v-301h-582l-29 -222q0 -2 -2 -2q10 10 26.5 21.5t50.5 29.5t88 29.5t116 11.5z" />
    <glyph glyph-name="six" unicode="6" horiz-adv-x="1275" 
d="M655 -20q-89 0 -169 22.5t-155.5 77.5t-130 138.5t-87.5 215t-33 297.5q0 343 149.5 532t442.5 189q107 0 195.5 -27.5t146 -72t96.5 -103t54.5 -118.5t13.5 -121h-332q-24 145 -182 145q-59 0 -104 -24t-70 -59.5t-40 -82t-19 -85.5t-3 -75q37 33 69.5 55.5t96 44
t135.5 21.5q59 0 119 -12.5t126 -46t116 -85t83 -138.5t33 -197q0 -101 -27 -182.5t-74 -133t-102.5 -88t-121 -54.5t-119 -25.5t-107.5 -7.5zM653 285q21 0 42.5 3.5t50 15.5t49.5 31.5t36 55.5t15 84q0 47 -15 83t-37 55.5t-50 32t-50.5 16.5t-42.5 4q-25 0 -52.5 -7.5
t-60.5 -26t-54 -59.5t-21 -98q0 -49 15 -85.5t36 -56t49.5 -31t49 -14.5t40.5 -3z" />
    <glyph glyph-name="seven" unicode="7" horiz-adv-x="1081" 
d="M213 0q19 281 130.5 555.5t307.5 568.5h-590v310h949v-310q-202 -296 -315 -567.5t-132 -556.5h-350z" />
    <glyph glyph-name="eight" unicode="8" horiz-adv-x="1259" 
d="M631 -20q-160 0 -288 52t-206 157.5t-78 248.5q0 266 275 377q-172 95 -172 289q0 152 126 250t343 98t342 -98t125 -250q0 -194 -172 -289q274 -111 274 -377q0 -143 -77.5 -248.5t-205 -157.5t-286.5 -52zM631 911q73 0 110 40.5t37 103.5q0 68 -39.5 109.5
t-107.5 41.5q-70 0 -110 -41.5t-40 -109.5q0 -63 38 -103.5t112 -40.5zM631 270q56 0 96.5 17.5t62.5 47.5t31.5 63t9.5 71q0 93 -57 149t-143 56q-87 0 -145 -56t-58 -149q0 -82 48 -140.5t155 -58.5z" />
    <glyph glyph-name="nine" unicode="9" horiz-adv-x="1280" 
d="M625 1450q89 0 169 -22.5t155.5 -77.5t130 -139t87.5 -215.5t33 -297.5q0 -343 -149.5 -532t-442.5 -189q-107 0 -195 27.5t-145.5 72.5t-96.5 103.5t-55 119.5t-14 122h332q26 -146 182 -146q59 0 104 24t70 59t40 81.5t19 85t3 74.5q-37 -33 -69.5 -55t-96 -43
t-135.5 -21q-59 0 -118.5 12t-126 46t-116.5 85.5t-83 138.5t-33 198q0 120 40 211.5t98.5 142.5t137.5 83t144 42t131 10zM627 1145q-21 0 -42.5 -3.5t-50 -15.5t-49.5 -32t-36 -56t-15 -84q0 -47 15.5 -82.5t37.5 -55.5t50.5 -32.5t51 -16t42.5 -3.5q18 0 39 3.5t48 16
t48.5 32.5t36 55.5t14.5 82.5q0 49 -15 85.5t-36 56t-49.5 31.5t-49 15t-40.5 3z" />
    <glyph glyph-name="colon" unicode=":" horiz-adv-x="577" 
d="M289 635q-91 0 -155 62.5t-64 152.5t64 152.5t155 62.5t155 -62.5t64 -152.5t-64 -152.5t-155 -62.5zM289 -20q-91 0 -155 62.5t-64 152.5t64 152.5t155 62.5t155 -62.5t64 -152.5t-64 -152.5t-155 -62.5z" />
    <glyph glyph-name="semicolon" unicode=";" horiz-adv-x="600" 
d="M289 635q-91 0 -155 62.5t-64 152.5t64 152.5t155 62.5t155 -62.5t64 -152.5t-64 -152.5t-155 -62.5zM70 -330v166h14q80 0 124.5 5.5t71 24t34 45.5t8.5 77q-118 3 -185 68t-67 153q0 87 60.5 144t150.5 57q110 0 179.5 -81t69.5 -251q0 -204 -102.5 -306t-288.5 -102
h-69z" />
    <glyph glyph-name="less" unicode="&#x3c;" 
d="M207 403q-13 0 -19 -2v-200q4 -2 19 -2q37 0 50 25t13 77q0 54 -13 78t-50 24zM518 330v-49h-82v-78h96v-49h-155v297h155v-52h-96v-69h82zM203 150q-47 0 -74 4v292q61 9 76 9q67 0 96 -37.5t29 -116.5t-29.5 -115t-97.5 -36zM586 451h80l39 -164l38 164h82
q3 -45 13 -297h-60q0 108 -6 213l-41 -168h-55l-41 168h-2q-4 -140 -4 -213h-58q3 156 15 297zM987 150q-60 0 -84 35.5t-24 115.5q0 81 24 117.5t84 36.5t85.5 -37t25.5 -117q0 -79 -25.5 -115t-85.5 -36zM987 403q-29 0 -39 -23.5t-10 -78.5q0 -54 10 -78t39 -24
q30 0 40.5 24t10.5 78q0 55 -10 78.5t-41 23.5zM967 1016q49 0 79.5 -24.5t39 -51t8.5 -53.5q0 -43 -34.5 -72.5t-72.5 -34.5q-213 -23 -340 -147q3 8 9 22t25 53.5t39 75.5t50 80.5t59.5 76t66 53.5t71.5 22zM285 909q39 0 78 -21t69.5 -55t58.5 -74.5t48 -81.5t35 -75
t22 -55l8 -21q-117 148 -319 148q-49 0 -88 30t-39 76q0 53 33.5 91t93.5 38zM643 1214q38 -37 48.5 -102t-2.5 -131t-31.5 -126.5t-35.5 -98.5l-18 -39q20 191 -125 330q-35 35 -42 81.5t24 83.5q23 23 53 34t65 3.5t64 -35.5z" />
    <glyph glyph-name="equal" unicode="=" 
d="M207 403q-13 0 -19 -2v-200q4 -2 19 -2q37 0 50 25t13 77q0 54 -13 78t-50 24zM518 330v-49h-82v-78h96v-49h-155v297h155v-52h-96v-69h82zM203 150q-47 0 -74 4v292q61 9 76 9q67 0 96 -37.5t29 -116.5t-29.5 -115t-97.5 -36zM586 451h80l39 -164l38 164h82
q3 -45 13 -297h-60q0 108 -6 213l-41 -168h-55l-41 168h-2q-4 -140 -4 -213h-58q3 156 15 297zM987 150q-60 0 -84 35.5t-24 115.5q0 81 24 117.5t84 36.5t85.5 -37t25.5 -117q0 -79 -25.5 -115t-85.5 -36zM987 403q-29 0 -39 -23.5t-10 -78.5q0 -54 10 -78t39 -24
q30 0 40.5 24t10.5 78q0 55 -10 78.5t-41 23.5zM967 1016q49 0 79.5 -24.5t39 -51t8.5 -53.5q0 -43 -34.5 -72.5t-72.5 -34.5q-213 -23 -340 -147q3 8 9 22t25 53.5t39 75.5t50 80.5t59.5 76t66 53.5t71.5 22zM285 909q39 0 78 -21t69.5 -55t58.5 -74.5t48 -81.5t35 -75
t22 -55l8 -21q-117 148 -319 148q-49 0 -88 30t-39 76q0 53 33.5 91t93.5 38zM643 1214q38 -37 48.5 -102t-2.5 -131t-31.5 -126.5t-35.5 -98.5l-18 -39q20 191 -125 330q-35 35 -42 81.5t24 83.5q23 23 53 34t65 3.5t64 -35.5z" />
    <glyph glyph-name="greater" unicode="&#x3e;" 
d="M207 403q-13 0 -19 -2v-200q4 -2 19 -2q37 0 50 25t13 77q0 54 -13 78t-50 24zM518 330v-49h-82v-78h96v-49h-155v297h155v-52h-96v-69h82zM203 150q-47 0 -74 4v292q61 9 76 9q67 0 96 -37.5t29 -116.5t-29.5 -115t-97.5 -36zM586 451h80l39 -164l38 164h82
q3 -45 13 -297h-60q0 108 -6 213l-41 -168h-55l-41 168h-2q-4 -140 -4 -213h-58q3 156 15 297zM987 150q-60 0 -84 35.5t-24 115.5q0 81 24 117.5t84 36.5t85.5 -37t25.5 -117q0 -79 -25.5 -115t-85.5 -36zM987 403q-29 0 -39 -23.5t-10 -78.5q0 -54 10 -78t39 -24
q30 0 40.5 24t10.5 78q0 55 -10 78.5t-41 23.5zM967 1016q49 0 79.5 -24.5t39 -51t8.5 -53.5q0 -43 -34.5 -72.5t-72.5 -34.5q-213 -23 -340 -147q3 8 9 22t25 53.5t39 75.5t50 80.5t59.5 76t66 53.5t71.5 22zM285 909q39 0 78 -21t69.5 -55t58.5 -74.5t48 -81.5t35 -75
t22 -55l8 -21q-117 148 -319 148q-49 0 -88 30t-39 76q0 53 33.5 91t93.5 38zM643 1214q38 -37 48.5 -102t-2.5 -131t-31.5 -126.5t-35.5 -98.5l-18 -39q20 191 -125 330q-35 35 -42 81.5t24 83.5q23 23 53 34t65 3.5t64 -35.5z" />
    <glyph glyph-name="question" unicode="?" horiz-adv-x="1210" 
d="M446 508v33q0 70 16 128t42 96t57 69t62.5 53.5t57.5 42.5t42 43t16 49q0 11 -0.5 19t-6.5 25.5t-17 29t-34.5 21t-55.5 9.5q-42 0 -72 -13t-45.5 -31t-24.5 -47t-10.5 -50.5t-1.5 -52.5h-379q-2 115 27 205t78.5 147.5t120 95t146 53t161.5 15.5q220 0 356.5 -112
t136.5 -314q0 -59 -14.5 -106t-38 -77t-52 -55t-57 -47.5t-52 -47.5t-38 -62.5t-14.5 -85.5v-33h-406zM637 -20q-91 0 -155 62.5t-64 152.5t64 152.5t155 62.5t155 -62.5t64 -152.5t-64 -152.5t-155 -62.5z" />
    <glyph glyph-name="at" unicode="@" 
d="M207 403q-13 0 -19 -2v-200q4 -2 19 -2q37 0 50 25t13 77q0 54 -13 78t-50 24zM518 330v-49h-82v-78h96v-49h-155v297h155v-52h-96v-69h82zM203 150q-47 0 -74 4v292q61 9 76 9q67 0 96 -37.5t29 -116.5t-29.5 -115t-97.5 -36zM586 451h80l39 -164l38 164h82
q3 -45 13 -297h-60q0 108 -6 213l-41 -168h-55l-41 168h-2q-4 -140 -4 -213h-58q3 156 15 297zM987 150q-60 0 -84 35.5t-24 115.5q0 81 24 117.5t84 36.5t85.5 -37t25.5 -117q0 -79 -25.5 -115t-85.5 -36zM987 403q-29 0 -39 -23.5t-10 -78.5q0 -54 10 -78t39 -24
q30 0 40.5 24t10.5 78q0 55 -10 78.5t-41 23.5zM967 1016q49 0 79.5 -24.5t39 -51t8.5 -53.5q0 -43 -34.5 -72.5t-72.5 -34.5q-213 -23 -340 -147q3 8 9 22t25 53.5t39 75.5t50 80.5t59.5 76t66 53.5t71.5 22zM285 909q39 0 78 -21t69.5 -55t58.5 -74.5t48 -81.5t35 -75
t22 -55l8 -21q-117 148 -319 148q-49 0 -88 30t-39 76q0 53 33.5 91t93.5 38zM643 1214q38 -37 48.5 -102t-2.5 -131t-31.5 -126.5t-35.5 -98.5l-18 -39q20 191 -125 330q-35 35 -42 81.5t24 83.5q23 23 53 34t65 3.5t64 -35.5z" />
    <glyph glyph-name="A" unicode="A" horiz-adv-x="1564" 
d="M1128 0l-69 215h-553l-70 -215h-407l501 1434h504l502 -1434h-408zM596 500h373l-176 544h-21z" />
    <glyph glyph-name="B" unicode="B" horiz-adv-x="1347" 
d="M100 0v1434h609q243 0 365 -96.5t122 -268.5q0 -116 -50.5 -181.5t-150.5 -99.5q303 -83 303 -362q0 -70 -19.5 -131.5t-62.5 -116t-106.5 -94t-157.5 -62t-209 -22.5h-643zM487 864h209q24 0 47 9.5t43.5 40t20.5 77.5q0 65 -35.5 92t-75.5 27h-209v-246zM487 326h242
q168 0 168 145q0 158 -168 158h-242v-303z" />
    <glyph glyph-name="C" unicode="C" horiz-adv-x="1441" 
d="M750 -20q-316 0 -498 198t-182 539q0 339 182 537t498 198q131 0 240.5 -33t195.5 -99t136.5 -176t57.5 -255h-379q-28 123 -91.5 176t-159.5 53q-279 0 -279 -401q0 -404 279 -404q199 0 251 232h379q-7 -145 -57.5 -255t-136.5 -177t-195.5 -100t-240.5 -33z" />
    <glyph glyph-name="D" unicode="D" horiz-adv-x="1435" 
d="M100 0v1434h590q330 0 504 -185t174 -532t-174 -532t-504 -185h-590zM487 336h162q95 0 156.5 20.5t98.5 68t52 117t15 175.5q0 212 -68.5 296.5t-253.5 84.5h-162v-762z" />
    <glyph glyph-name="E" unicode="E" horiz-adv-x="1187" 
d="M100 0v1434h1018v-336h-631v-228h570v-301h-570v-233h652v-336h-1039z" />
    <glyph glyph-name="F" unicode="F" horiz-adv-x="1130" 
d="M100 0v1434h969v-336h-582v-240h484v-311h-484v-547h-387z" />
    <glyph glyph-name="G" unicode="G" horiz-adv-x="1478" 
d="M766 -20q-336 0 -516 195.5t-180 537.5q0 226 85.5 393.5t241 256.5t361.5 89q95 0 180 -18.5t161.5 -59t134.5 -100.5t97.5 -147.5t52.5 -196.5h-385q-49 188 -243 188q-77 0 -134.5 -33t-89 -91t-46.5 -125.5t-15 -147.5t14 -148.5t45 -129t89 -95.5t137 -35
q41 0 80.5 8.5t80.5 28t66.5 61t26.5 99.5h-226v311h615v-135q0 -706 -633 -706z" />
    <glyph glyph-name="H" unicode="H" horiz-adv-x="1423" 
d="M936 1434h387v-1434h-387v563h-449v-563h-387v1434h387v-549h449v549z" />
    <glyph glyph-name="I" unicode="I" horiz-adv-x="587" 
d="M100 0v1434h387v-1434h-387z" />
    <glyph glyph-name="J" unicode="J" horiz-adv-x="1427" 
d="M715 -20q-137 0 -248 34t-194 101.5t-128 177t-45 252.5h392q0 -113 58 -171.5t165 -58.5t166 65t59 198v856h389v-889q0 -144 -45.5 -253.5t-128.5 -177t-193.5 -101t-246.5 -33.5z" />
    <glyph glyph-name="K" unicode="K" horiz-adv-x="1515" 
d="M1044 0l-372 526l-185 -221v-305h-387v1434h387v-605l488 605h455l-527 -629l584 -805h-443z" />
    <glyph glyph-name="L" unicode="L" horiz-adv-x="1153" 
d="M100 0v1434h387v-1098h617v-336h-1004z" />
    <glyph glyph-name="M" unicode="M" horiz-adv-x="1763" 
d="M100 0v1434h494l287 -899l288 899h494v-1434h-387v774h-14l-240 -774h-283l-237 774h-15v-774h-387z" />
    <glyph glyph-name="N" unicode="N" horiz-adv-x="1464" 
d="M100 0v1434h396l471 -805h10v805h387v-1434h-412l-456 778h-9v-778h-387z" />
    <glyph glyph-name="O" unicode="O" horiz-adv-x="1546" 
d="M774 -20q-214 0 -375.5 97.5t-245 263.5t-83.5 376t83.5 376t245 262.5t375.5 96.5q160 0 293 -56t222.5 -154t138.5 -233t49 -292q0 -156 -49 -291.5t-138.5 -234t-222.5 -155t-293 -56.5zM774 313q149 0 225 113t76 291q0 180 -75.5 290.5t-225.5 110.5
q-151 0 -227 -110.5t-76 -290.5q0 -115 31 -204t100.5 -144.5t171.5 -55.5z" />
    <glyph glyph-name="P" unicode="P" horiz-adv-x="1335" 
d="M100 0v1434h613q149 0 261 -37.5t179 -106t100 -157.5t33 -199t-33 -199t-100 -157.5t-179 -106t-261 -37.5h-226v-434h-387zM487 770h213q95 0 140 45t45 119t-45 119t-140 45h-213v-328z" />
    <glyph glyph-name="Q" unicode="Q" horiz-adv-x="1546" 
d="M1477 717q0 -250 -121 -438l112 -115l-233 -221l-117 116q-149 -79 -344 -79q-214 0 -375.5 97.5t-245 263.5t-83.5 376t83.5 376t245 262.5t375.5 96.5q160 0 293 -56t222.5 -154t138.5 -233t49 -292zM774 313q34 0 84 11l-143 145l233 221l113 -115q14 63 14 142
q0 180 -75.5 290.5t-225.5 110.5q-151 0 -227 -110.5t-76 -290.5q0 -115 31 -204t100.5 -144.5t171.5 -55.5z" />
    <glyph glyph-name="R" unicode="R" horiz-adv-x="1349" 
d="M1300 0h-382l-242 434h-189v-434h-387v1434h613q149 0 261 -37.5t179 -106t100 -157.5t33 -199q0 -155 -66 -270t-202 -175zM487 1098v-328h213q95 0 140 45t45 119t-45 119t-140 45h-213z" />
    <glyph glyph-name="S" unicode="S" horiz-adv-x="1380" 
d="M698 -20q-289 0 -458.5 132.5t-169.5 387.5h403q5 -90 59.5 -145.5t167.5 -55.5q95 0 147 34.5t52 102.5q0 48 -33 77t-112 42l-217 43q-70 13 -126.5 31t-114.5 51t-97.5 77t-64.5 111.5t-25 151.5q0 146 76.5 245t202 143t292.5 44q103 0 192 -17.5t163.5 -55
t128 -92.5t83 -133.5t29.5 -174.5h-404q5 84 -48.5 119t-135.5 35q-89 0 -130.5 -37.5t-41.5 -91.5q0 -91 105 -109l198 -37q141 -26 238 -65.5t152 -94t78.5 -117.5t23.5 -145q0 -97 -33 -175t-89.5 -130t-135 -86.5t-167 -49.5t-188.5 -15z" />
    <glyph glyph-name="T" unicode="T" horiz-adv-x="1255" 
d="M434 0v1098h-395v336h1178v-336h-396v-1098h-387z" />
    <glyph glyph-name="U" unicode="U" horiz-adv-x="1427" 
d="M715 -20q-137 0 -247.5 33.5t-193.5 101t-128.5 177t-45.5 253.5v889h392v-856q0 -130 58.5 -196.5t164.5 -66.5t163.5 66.5t57.5 196.5v856h393v-889q0 -144 -45.5 -253.5t-128.5 -177t-193.5 -101t-246.5 -33.5z" />
    <glyph glyph-name="V" unicode="V" horiz-adv-x="1585" 
d="M541 0l-502 1434h407l336 -1043h21l336 1043h407l-502 -1434h-503z" />
    <glyph glyph-name="W" unicode="W" horiz-adv-x="2129" 
d="M406 0l-367 1434h399l185 -885h16l229 885h396l229 -885h14l187 885h397l-365 -1434h-401l-260 946l-260 -946h-399z" />
    <glyph glyph-name="X" unicode="X" horiz-adv-x="1429" 
d="M1401 0h-434l-252 395l-252 -395h-434l469 737l-445 697h434l228 -357l225 357h434l-442 -697z" />
    <glyph glyph-name="Y" unicode="Y" horiz-adv-x="1507" 
d="M553 0v506l-514 928h440l275 -551l274 551h440l-514 -928v-506h-401z" />
    <glyph glyph-name="Z" unicode="Z" horiz-adv-x="1286" 
d="M82 0v336l684 762h-678v336h1108l2 -336l-690 -762h696v-336h-1122z" />
    <glyph glyph-name="bracketleft" unicode="[" 
d="M207 403q-13 0 -19 -2v-200q4 -2 19 -2q37 0 50 25t13 77q0 54 -13 78t-50 24zM518 330v-49h-82v-78h96v-49h-155v297h155v-52h-96v-69h82zM203 150q-47 0 -74 4v292q61 9 76 9q67 0 96 -37.5t29 -116.5t-29.5 -115t-97.5 -36zM586 451h80l39 -164l38 164h82
q3 -45 13 -297h-60q0 108 -6 213l-41 -168h-55l-41 168h-2q-4 -140 -4 -213h-58q3 156 15 297zM987 150q-60 0 -84 35.5t-24 115.5q0 81 24 117.5t84 36.5t85.5 -37t25.5 -117q0 -79 -25.5 -115t-85.5 -36zM987 403q-29 0 -39 -23.5t-10 -78.5q0 -54 10 -78t39 -24
q30 0 40.5 24t10.5 78q0 55 -10 78.5t-41 23.5zM967 1016q49 0 79.5 -24.5t39 -51t8.5 -53.5q0 -43 -34.5 -72.5t-72.5 -34.5q-213 -23 -340 -147q3 8 9 22t25 53.5t39 75.5t50 80.5t59.5 76t66 53.5t71.5 22zM285 909q39 0 78 -21t69.5 -55t58.5 -74.5t48 -81.5t35 -75
t22 -55l8 -21q-117 148 -319 148q-49 0 -88 30t-39 76q0 53 33.5 91t93.5 38zM643 1214q38 -37 48.5 -102t-2.5 -131t-31.5 -126.5t-35.5 -98.5l-18 -39q20 191 -125 330q-35 35 -42 81.5t24 83.5q23 23 53 34t65 3.5t64 -35.5z" />
    <glyph glyph-name="backslash" unicode="\" 
d="M207 403q-13 0 -19 -2v-200q4 -2 19 -2q37 0 50 25t13 77q0 54 -13 78t-50 24zM518 330v-49h-82v-78h96v-49h-155v297h155v-52h-96v-69h82zM203 150q-47 0 -74 4v292q61 9 76 9q67 0 96 -37.5t29 -116.5t-29.5 -115t-97.5 -36zM586 451h80l39 -164l38 164h82
q3 -45 13 -297h-60q0 108 -6 213l-41 -168h-55l-41 168h-2q-4 -140 -4 -213h-58q3 156 15 297zM987 150q-60 0 -84 35.5t-24 115.5q0 81 24 117.5t84 36.5t85.5 -37t25.5 -117q0 -79 -25.5 -115t-85.5 -36zM987 403q-29 0 -39 -23.5t-10 -78.5q0 -54 10 -78t39 -24
q30 0 40.5 24t10.5 78q0 55 -10 78.5t-41 23.5zM967 1016q49 0 79.5 -24.5t39 -51t8.5 -53.5q0 -43 -34.5 -72.5t-72.5 -34.5q-213 -23 -340 -147q3 8 9 22t25 53.5t39 75.5t50 80.5t59.5 76t66 53.5t71.5 22zM285 909q39 0 78 -21t69.5 -55t58.5 -74.5t48 -81.5t35 -75
t22 -55l8 -21q-117 148 -319 148q-49 0 -88 30t-39 76q0 53 33.5 91t93.5 38zM643 1214q38 -37 48.5 -102t-2.5 -131t-31.5 -126.5t-35.5 -98.5l-18 -39q20 191 -125 330q-35 35 -42 81.5t24 83.5q23 23 53 34t65 3.5t64 -35.5z" />
    <glyph glyph-name="bracketright" unicode="]" 
d="M207 403q-13 0 -19 -2v-200q4 -2 19 -2q37 0 50 25t13 77q0 54 -13 78t-50 24zM518 330v-49h-82v-78h96v-49h-155v297h155v-52h-96v-69h82zM203 150q-47 0 -74 4v292q61 9 76 9q67 0 96 -37.5t29 -116.5t-29.5 -115t-97.5 -36zM586 451h80l39 -164l38 164h82
q3 -45 13 -297h-60q0 108 -6 213l-41 -168h-55l-41 168h-2q-4 -140 -4 -213h-58q3 156 15 297zM987 150q-60 0 -84 35.5t-24 115.5q0 81 24 117.5t84 36.5t85.5 -37t25.5 -117q0 -79 -25.5 -115t-85.5 -36zM987 403q-29 0 -39 -23.5t-10 -78.5q0 -54 10 -78t39 -24
q30 0 40.5 24t10.5 78q0 55 -10 78.5t-41 23.5zM967 1016q49 0 79.5 -24.5t39 -51t8.5 -53.5q0 -43 -34.5 -72.5t-72.5 -34.5q-213 -23 -340 -147q3 8 9 22t25 53.5t39 75.5t50 80.5t59.5 76t66 53.5t71.5 22zM285 909q39 0 78 -21t69.5 -55t58.5 -74.5t48 -81.5t35 -75
t22 -55l8 -21q-117 148 -319 148q-49 0 -88 30t-39 76q0 53 33.5 91t93.5 38zM643 1214q38 -37 48.5 -102t-2.5 -131t-31.5 -126.5t-35.5 -98.5l-18 -39q20 191 -125 330q-35 35 -42 81.5t24 83.5q23 23 53 34t65 3.5t64 -35.5z" />
    <glyph glyph-name="asciicircum" unicode="^" 
d="M207 403q-13 0 -19 -2v-200q4 -2 19 -2q37 0 50 25t13 77q0 54 -13 78t-50 24zM518 330v-49h-82v-78h96v-49h-155v297h155v-52h-96v-69h82zM203 150q-47 0 -74 4v292q61 9 76 9q67 0 96 -37.5t29 -116.5t-29.5 -115t-97.5 -36zM586 451h80l39 -164l38 164h82
q3 -45 13 -297h-60q0 108 -6 213l-41 -168h-55l-41 168h-2q-4 -140 -4 -213h-58q3 156 15 297zM987 150q-60 0 -84 35.5t-24 115.5q0 81 24 117.5t84 36.5t85.5 -37t25.5 -117q0 -79 -25.5 -115t-85.5 -36zM987 403q-29 0 -39 -23.5t-10 -78.5q0 -54 10 -78t39 -24
q30 0 40.5 24t10.5 78q0 55 -10 78.5t-41 23.5zM967 1016q49 0 79.5 -24.5t39 -51t8.5 -53.5q0 -43 -34.5 -72.5t-72.5 -34.5q-213 -23 -340 -147q3 8 9 22t25 53.5t39 75.5t50 80.5t59.5 76t66 53.5t71.5 22zM285 909q39 0 78 -21t69.5 -55t58.5 -74.5t48 -81.5t35 -75
t22 -55l8 -21q-117 148 -319 148q-49 0 -88 30t-39 76q0 53 33.5 91t93.5 38zM643 1214q38 -37 48.5 -102t-2.5 -131t-31.5 -126.5t-35.5 -98.5l-18 -39q20 191 -125 330q-35 35 -42 81.5t24 83.5q23 23 53 34t65 3.5t64 -35.5z" />
    <glyph glyph-name="underscore" unicode="_" 
d="M207 403q-13 0 -19 -2v-200q4 -2 19 -2q37 0 50 25t13 77q0 54 -13 78t-50 24zM518 330v-49h-82v-78h96v-49h-155v297h155v-52h-96v-69h82zM203 150q-47 0 -74 4v292q61 9 76 9q67 0 96 -37.5t29 -116.5t-29.5 -115t-97.5 -36zM586 451h80l39 -164l38 164h82
q3 -45 13 -297h-60q0 108 -6 213l-41 -168h-55l-41 168h-2q-4 -140 -4 -213h-58q3 156 15 297zM987 150q-60 0 -84 35.5t-24 115.5q0 81 24 117.5t84 36.5t85.5 -37t25.5 -117q0 -79 -25.5 -115t-85.5 -36zM987 403q-29 0 -39 -23.5t-10 -78.5q0 -54 10 -78t39 -24
q30 0 40.5 24t10.5 78q0 55 -10 78.5t-41 23.5zM967 1016q49 0 79.5 -24.5t39 -51t8.5 -53.5q0 -43 -34.5 -72.5t-72.5 -34.5q-213 -23 -340 -147q3 8 9 22t25 53.5t39 75.5t50 80.5t59.5 76t66 53.5t71.5 22zM285 909q39 0 78 -21t69.5 -55t58.5 -74.5t48 -81.5t35 -75
t22 -55l8 -21q-117 148 -319 148q-49 0 -88 30t-39 76q0 53 33.5 91t93.5 38zM643 1214q38 -37 48.5 -102t-2.5 -131t-31.5 -126.5t-35.5 -98.5l-18 -39q20 191 -125 330q-35 35 -42 81.5t24 83.5q23 23 53 34t65 3.5t64 -35.5z" />
    <glyph glyph-name="grave" unicode="`" 
d="M207 403q-13 0 -19 -2v-200q4 -2 19 -2q37 0 50 25t13 77q0 54 -13 78t-50 24zM518 330v-49h-82v-78h96v-49h-155v297h155v-52h-96v-69h82zM203 150q-47 0 -74 4v292q61 9 76 9q67 0 96 -37.5t29 -116.5t-29.5 -115t-97.5 -36zM586 451h80l39 -164l38 164h82
q3 -45 13 -297h-60q0 108 -6 213l-41 -168h-55l-41 168h-2q-4 -140 -4 -213h-58q3 156 15 297zM987 150q-60 0 -84 35.5t-24 115.5q0 81 24 117.5t84 36.5t85.5 -37t25.5 -117q0 -79 -25.5 -115t-85.5 -36zM987 403q-29 0 -39 -23.5t-10 -78.5q0 -54 10 -78t39 -24
q30 0 40.5 24t10.5 78q0 55 -10 78.5t-41 23.5zM967 1016q49 0 79.5 -24.5t39 -51t8.5 -53.5q0 -43 -34.5 -72.5t-72.5 -34.5q-213 -23 -340 -147q3 8 9 22t25 53.5t39 75.5t50 80.5t59.5 76t66 53.5t71.5 22zM285 909q39 0 78 -21t69.5 -55t58.5 -74.5t48 -81.5t35 -75
t22 -55l8 -21q-117 148 -319 148q-49 0 -88 30t-39 76q0 53 33.5 91t93.5 38zM643 1214q38 -37 48.5 -102t-2.5 -131t-31.5 -126.5t-35.5 -98.5l-18 -39q20 191 -125 330q-35 35 -42 81.5t24 83.5q23 23 53 34t65 3.5t64 -35.5z" />
    <glyph glyph-name="a" unicode="a" horiz-adv-x="1169" 
d="M598 1085q251 0 361 -86t110 -260v-739h-360v180h-15q-1 -22 -17.5 -52.5t-49 -65t-94.5 -58.5t-140 -24q-49 0 -96 9.5t-92.5 32t-79.5 56t-55 86t-21 117.5q0 53 14 96.5t35 73.5t54.5 53.5t63 37t71.5 23.5t69.5 14.5t65.5 8.5l192 22q55 7 65.5 27.5t10.5 91.5v-14
q0 31 -9 51.5t-25.5 29.5t-31.5 12t-36 3q-121 0 -121 -102v-4l-356 -5v48q0 163 114.5 250t372.5 87zM690 375v67q-8 -5 -17.5 -8.5t-16 -4.5t-21 -3.5t-21.5 -3.5l-98 -14q-56 -10 -74 -28q-18 -17 -18 -46q0 -12 2 -21t11.5 -26t36.5 -27t69 -10q74 0 110.5 35.5
t36.5 89.5z" />
    <glyph glyph-name="b" unicode="b" horiz-adv-x="1261" 
d="M756 1085q86 0 164.5 -32t145 -95.5t106.5 -173.5t40 -252q0 -115 -26.5 -209.5t-71 -157t-104 -105t-123 -61.5t-131.5 -19q-99 0 -175 37.5t-102 84.5v-102h-379v1434h379v-471q26 47 102 84.5t175 37.5zM657 293q79 0 139 61.5t60 177.5t-60 178t-139 62
q-77 0 -135.5 -62t-58.5 -178t58.5 -177.5t135.5 -61.5z" />
    <glyph glyph-name="c" unicode="c" horiz-adv-x="1167" 
d="M596 -20q-80 0 -155.5 17t-147.5 58.5t-125.5 102.5t-86 157t-32.5 215q0 121 32.5 218t86 158.5t126 103t147 58.5t155.5 17q52 0 100.5 -7t105.5 -24.5t105 -51.5t90.5 -82.5t71 -124t37.5 -170.5h-334q-15 75 -58 111t-120 36q-191 0 -191 -242q0 -103 44 -170
t147 -67q78 0 120 38t58 111h334q-8 -112 -46.5 -197t-90.5 -134t-120.5 -80t-128.5 -41t-124 -10z" />
    <glyph glyph-name="d" unicode="d" horiz-adv-x="1261" 
d="M782 1434h379v-1434h-379v100q-29 -48 -103.5 -84t-172.5 -36q-68 0 -132 19t-123.5 61.5t-104 105t-71 157t-26.5 209.5t26.5 209t71 157t104 106t123.5 62t132 19q98 0 172.5 -36t103.5 -84v469zM604 293q77 0 136 61.5t59 177.5t-59 178t-136 62q-79 0 -138.5 -62
t-59.5 -178t59.5 -177.5t138.5 -61.5z" />
    <glyph glyph-name="e" unicode="e" horiz-adv-x="1177" 
d="M1128 504q0 -28 -6 -66h-712q13 -103 66 -145.5t149 -42.5q27 0 49 4t36.5 9t26.5 16.5t18 18t13 23t9 22t7 24.5h330q-32 -187 -166.5 -292.5t-345.5 -105.5q-82 0 -157.5 17t-149 58.5t-127 104t-86.5 160t-33 219.5q0 147 45.5 257.5t124.5 174t175.5 94.5t209.5 31
q86 0 160.5 -17.5t142.5 -60t116 -107.5t76.5 -166t28.5 -230zM408 633h364q-13 168 -178 168q-164 0 -186 -168z" />
    <glyph glyph-name="f" unicode="f" horiz-adv-x="815" 
d="M666 1182q-101 0 -105 -117h197v-289h-197v-776h-379v776h-153v289h153v29q0 190 103.5 281t292.5 91h186v-284h-98z" />
    <glyph glyph-name="g" unicode="g" horiz-adv-x="1245" 
d="M766 1065h379v-1012q0 -87 -21 -158.5t-54.5 -120.5t-82.5 -86.5t-99 -59t-109 -34.5t-107.5 -17.5t-100.5 -4.5q-43 0 -82.5 2.5t-93 12.5t-97 26t-88.5 45.5t-75 69t-48.5 99t-16.5 132.5h344q7 -104 164 -104q98 0 143 48.5t45 149.5v117h-6q-10 -19 -25 -36t-44 -38
t-77.5 -34t-109.5 -13q-66 0 -128.5 16t-122.5 55t-104.5 96.5t-72 146.5t-27.5 200t27.5 201.5t72 149t104.5 98t122.5 56.5t128.5 17q50 0 91.5 -10t68 -23.5t47.5 -33t31.5 -34t17.5 -30.5h6v111zM594 348q80 0 133 55t53 160q0 104 -53 158.5t-133 54.5
q-84 0 -136 -54.5t-52 -158.5q0 -106 52 -160.5t136 -54.5z" />
    <glyph glyph-name="h" unicode="h" horiz-adv-x="1277" 
d="M819 1085q158 0 258.5 -106t100.5 -293v-686h-379v592q0 182 -150 182q-74 0 -122 -43t-48 -139v-592h-379v1434h379v-598h17q8 45 31.5 87.5t61.5 79.5t98 59.5t132 22.5z" />
    <glyph glyph-name="i" unicode="i" horiz-adv-x="579" 
d="M289 1141q-80 0 -139.5 56t-59.5 138t60 139.5t139 57.5q81 0 140.5 -57.5t59.5 -139.5t-59.5 -138t-140.5 -56zM100 0v1065h379v-1065h-379z" />
    <glyph glyph-name="j" unicode="j" horiz-adv-x="595" 
d="M307 1141q-80 0 -140.5 56.5t-60.5 137.5q0 82 60.5 139.5t140.5 57.5q81 0 141 -57.5t60 -139.5t-60 -138t-141 -56zM102 -408q-150 0 -211 7v295h127q53 0 77 35.5t24 90.5v1045h379v-1098q0 -189 -104 -282t-292 -93z" />
    <glyph glyph-name="k" unicode="k" horiz-adv-x="1249" 
d="M829 0l-288 371l-62 -64v-307h-379v1434h379v-717l297 348h414l-420 -449l471 -616h-412z" />
    <glyph glyph-name="l" unicode="l" horiz-adv-x="579" 
d="M100 0v1434h379v-1434h-379z" />
    <glyph glyph-name="m" unicode="m" horiz-adv-x="1873" 
d="M1430 1085q156 0 250 -105.5t94 -293.5v-686h-379v592q0 96 -35.5 139t-93.5 43q-60 0 -100 -43.5t-40 -138.5v-592h-378v592q0 96 -36.5 139t-93.5 43q-59 0 -99 -43.5t-40 -138.5v-592h-379v1065h379v-229h17q13 94 96.5 171.5t200.5 77.5q110 0 194 -63.5t119 -179.5
h2q13 92 104.5 167.5t217.5 75.5z" />
    <glyph glyph-name="n" unicode="n" horiz-adv-x="1277" 
d="M819 1085q158 0 258.5 -106t100.5 -293v-686h-379v592q0 182 -150 182q-74 0 -122 -43t-48 -139v-592h-379v1065h379v-229h17q8 45 31.5 87.5t61.5 79.5t98 59.5t132 22.5z" />
    <glyph glyph-name="o" unicode="o" horiz-adv-x="1193" 
d="M596 -20q-83 0 -160.5 19t-148.5 62.5t-123.5 106t-83.5 156.5t-31 208t31 208t83.5 157t123.5 106t148.5 62.5t160.5 19.5q84 0 162 -19.5t149 -62.5t123.5 -106t83.5 -157t31 -208t-31 -208t-83.5 -156.5t-124 -105.5t-149 -62.5t-161.5 -19.5zM596 293
q92 0 143.5 59.5t51.5 179.5q0 121 -51.5 180.5t-143.5 59.5q-91 0 -142 -59.5t-51 -180.5q0 -120 51 -179.5t142 -59.5z" />
    <glyph glyph-name="p" unicode="p" horiz-adv-x="1261" 
d="M756 1085q84 0 162.5 -32t145.5 -95.5t107.5 -173.5t40.5 -252q0 -115 -27 -209.5t-71.5 -157t-104 -105t-123 -61.5t-130.5 -19q-99 0 -175 37.5t-102 84.5v-491h-379v1454h379v-102q26 47 102 84.5t175 37.5zM657 293q79 0 139 61.5t60 177.5t-60 178t-139 62
q-77 0 -135.5 -62t-58.5 -178t58.5 -177.5t135.5 -61.5z" />
    <glyph glyph-name="q" unicode="q" horiz-adv-x="1261" 
d="M782 1065h379v-1454h-379v489q-29 -48 -103.5 -84t-172.5 -36q-84 0 -162 31.5t-145.5 94.5t-108.5 173.5t-41 252.5q0 114 27 208.5t72 157t105 106t123.5 62.5t129.5 19q98 0 172.5 -36t103.5 -84v100zM604 293q77 0 136 61.5t59 177.5t-59 178t-136 62
q-79 0 -138.5 -62t-59.5 -178t59.5 -177.5t138.5 -61.5z" />
    <glyph glyph-name="r" unicode="r" horiz-adv-x="890" 
d="M780 1073q41 0 82 -10v-318q-61 7 -86 7q-43 0 -81 -7.5t-79 -30t-70 -58t-48 -97t-19 -141.5v-418h-379v1065h379v-270h10q31 137 105 207.5t186 70.5z" />
    <glyph glyph-name="s" unicode="s" horiz-adv-x="1054" 
d="M508 -20q-231 0 -351.5 96.5t-117.5 281.5h334q5 -60 35 -92.5t112 -32.5q117 0 117 72q0 21 -16.5 40t-51.5 26l-188 39q-88 19 -151.5 55t-98 83.5t-50 96.5t-15.5 105q0 160 122 247.5t330 87.5q226 0 341 -104t110 -281h-310q0 131 -139 131q-114 0 -114 -73
q0 -62 94 -82l207 -41q309 -66 309 -309q0 -110 -67.5 -189.5t-180.5 -118t-260 -38.5z" />
    <glyph glyph-name="t" unicode="t" horiz-adv-x="845" 
d="M698 287h109v-295q-68 -6 -199 -6q-188 0 -290.5 91.5t-102.5 282.5v416h-186v289h186v281h379v-281h209v-289h-209v-364q0 -54 24.5 -89.5t79.5 -35.5z" />
    <glyph glyph-name="u" unicode="u" horiz-adv-x="1277" 
d="M799 1065h379v-1065h-379v231h-15q-9 -46 -33 -88.5t-62 -80t-97.5 -60t-130.5 -22.5q-160 0 -260.5 106t-100.5 293v686h379v-592q0 -182 150 -182q74 0 122 43t48 139v592z" />
    <glyph glyph-name="v" unicode="v" horiz-adv-x="1280" 
d="M401 0l-372 1065h385l219 -700h14l219 700h385l-372 -1065h-478z" />
    <glyph glyph-name="w" unicode="w" horiz-adv-x="1736" 
d="M301 0l-272 1065h356l145 -703h9l168 703h323l168 -703h8l146 703h356l-272 -1065h-422l-146 561l-143 -561h-424z" />
    <glyph glyph-name="x" unicode="x" horiz-adv-x="1255" 
d="M49 0l363 539l-334 526h405l144 -258l145 258h406l-334 -526l362 -539h-405l-174 268l-174 -268h-404z" />
    <glyph glyph-name="y" unicode="y" horiz-adv-x="1239" 
d="M135 -420v318q49 -6 90.5 -5.5t68 3.5t50.5 13.5t34.5 15.5t23 20t13 15.5t7.5 12.5q17 40 15 68t-23 82l-385 942h387l200 -578l207 578h387l-422 -1026q-60 -147 -116.5 -237t-132.5 -147t-171.5 -73t-232.5 -2z" />
    <glyph glyph-name="z" unicode="z" horiz-adv-x="1058" 
d="M82 0v315l442 435h-422v315h875v-315l-442 -435h442v-315h-895z" />
    <glyph glyph-name="braceleft" unicode="{" 
d="M207 403q-13 0 -19 -2v-200q4 -2 19 -2q37 0 50 25t13 77q0 54 -13 78t-50 24zM518 330v-49h-82v-78h96v-49h-155v297h155v-52h-96v-69h82zM203 150q-47 0 -74 4v292q61 9 76 9q67 0 96 -37.5t29 -116.5t-29.5 -115t-97.5 -36zM586 451h80l39 -164l38 164h82
q3 -45 13 -297h-60q0 108 -6 213l-41 -168h-55l-41 168h-2q-4 -140 -4 -213h-58q3 156 15 297zM987 150q-60 0 -84 35.5t-24 115.5q0 81 24 117.5t84 36.5t85.5 -37t25.5 -117q0 -79 -25.5 -115t-85.5 -36zM987 403q-29 0 -39 -23.5t-10 -78.5q0 -54 10 -78t39 -24
q30 0 40.5 24t10.5 78q0 55 -10 78.5t-41 23.5zM967 1016q49 0 79.5 -24.5t39 -51t8.5 -53.5q0 -43 -34.5 -72.5t-72.5 -34.5q-213 -23 -340 -147q3 8 9 22t25 53.5t39 75.5t50 80.5t59.5 76t66 53.5t71.5 22zM285 909q39 0 78 -21t69.5 -55t58.5 -74.5t48 -81.5t35 -75
t22 -55l8 -21q-117 148 -319 148q-49 0 -88 30t-39 76q0 53 33.5 91t93.5 38zM643 1214q38 -37 48.5 -102t-2.5 -131t-31.5 -126.5t-35.5 -98.5l-18 -39q20 191 -125 330q-35 35 -42 81.5t24 83.5q23 23 53 34t65 3.5t64 -35.5z" />
    <glyph glyph-name="bar" unicode="|" 
d="M207 403q-13 0 -19 -2v-200q4 -2 19 -2q37 0 50 25t13 77q0 54 -13 78t-50 24zM518 330v-49h-82v-78h96v-49h-155v297h155v-52h-96v-69h82zM203 150q-47 0 -74 4v292q61 9 76 9q67 0 96 -37.5t29 -116.5t-29.5 -115t-97.5 -36zM586 451h80l39 -164l38 164h82
q3 -45 13 -297h-60q0 108 -6 213l-41 -168h-55l-41 168h-2q-4 -140 -4 -213h-58q3 156 15 297zM987 150q-60 0 -84 35.5t-24 115.5q0 81 24 117.5t84 36.5t85.5 -37t25.5 -117q0 -79 -25.5 -115t-85.5 -36zM987 403q-29 0 -39 -23.5t-10 -78.5q0 -54 10 -78t39 -24
q30 0 40.5 24t10.5 78q0 55 -10 78.5t-41 23.5zM967 1016q49 0 79.5 -24.5t39 -51t8.5 -53.5q0 -43 -34.5 -72.5t-72.5 -34.5q-213 -23 -340 -147q3 8 9 22t25 53.5t39 75.5t50 80.5t59.5 76t66 53.5t71.5 22zM285 909q39 0 78 -21t69.5 -55t58.5 -74.5t48 -81.5t35 -75
t22 -55l8 -21q-117 148 -319 148q-49 0 -88 30t-39 76q0 53 33.5 91t93.5 38zM643 1214q38 -37 48.5 -102t-2.5 -131t-31.5 -126.5t-35.5 -98.5l-18 -39q20 191 -125 330q-35 35 -42 81.5t24 83.5q23 23 53 34t65 3.5t64 -35.5z" />
    <glyph glyph-name="braceright" unicode="}" 
d="M207 403q-13 0 -19 -2v-200q4 -2 19 -2q37 0 50 25t13 77q0 54 -13 78t-50 24zM518 330v-49h-82v-78h96v-49h-155v297h155v-52h-96v-69h82zM203 150q-47 0 -74 4v292q61 9 76 9q67 0 96 -37.5t29 -116.5t-29.5 -115t-97.5 -36zM586 451h80l39 -164l38 164h82
q3 -45 13 -297h-60q0 108 -6 213l-41 -168h-55l-41 168h-2q-4 -140 -4 -213h-58q3 156 15 297zM987 150q-60 0 -84 35.5t-24 115.5q0 81 24 117.5t84 36.5t85.5 -37t25.5 -117q0 -79 -25.5 -115t-85.5 -36zM987 403q-29 0 -39 -23.5t-10 -78.5q0 -54 10 -78t39 -24
q30 0 40.5 24t10.5 78q0 55 -10 78.5t-41 23.5zM967 1016q49 0 79.5 -24.5t39 -51t8.5 -53.5q0 -43 -34.5 -72.5t-72.5 -34.5q-213 -23 -340 -147q3 8 9 22t25 53.5t39 75.5t50 80.5t59.5 76t66 53.5t71.5 22zM285 909q39 0 78 -21t69.5 -55t58.5 -74.5t48 -81.5t35 -75
t22 -55l8 -21q-117 148 -319 148q-49 0 -88 30t-39 76q0 53 33.5 91t93.5 38zM643 1214q38 -37 48.5 -102t-2.5 -131t-31.5 -126.5t-35.5 -98.5l-18 -39q20 191 -125 330q-35 35 -42 81.5t24 83.5q23 23 53 34t65 3.5t64 -35.5z" />
    <glyph glyph-name="asciitilde" unicode="~" 
d="M207 403q-13 0 -19 -2v-200q4 -2 19 -2q37 0 50 25t13 77q0 54 -13 78t-50 24zM518 330v-49h-82v-78h96v-49h-155v297h155v-52h-96v-69h82zM203 150q-47 0 -74 4v292q61 9 76 9q67 0 96 -37.5t29 -116.5t-29.5 -115t-97.5 -36zM586 451h80l39 -164l38 164h82
q3 -45 13 -297h-60q0 108 -6 213l-41 -168h-55l-41 168h-2q-4 -140 -4 -213h-58q3 156 15 297zM987 150q-60 0 -84 35.5t-24 115.5q0 81 24 117.5t84 36.5t85.5 -37t25.5 -117q0 -79 -25.5 -115t-85.5 -36zM987 403q-29 0 -39 -23.5t-10 -78.5q0 -54 10 -78t39 -24
q30 0 40.5 24t10.5 78q0 55 -10 78.5t-41 23.5zM967 1016q49 0 79.5 -24.5t39 -51t8.5 -53.5q0 -43 -34.5 -72.5t-72.5 -34.5q-213 -23 -340 -147q3 8 9 22t25 53.5t39 75.5t50 80.5t59.5 76t66 53.5t71.5 22zM285 909q39 0 78 -21t69.5 -55t58.5 -74.5t48 -81.5t35 -75
t22 -55l8 -21q-117 148 -319 148q-49 0 -88 30t-39 76q0 53 33.5 91t93.5 38zM643 1214q38 -37 48.5 -102t-2.5 -131t-31.5 -126.5t-35.5 -98.5l-18 -39q20 191 -125 330q-35 35 -42 81.5t24 83.5q23 23 53 34t65 3.5t64 -35.5z" />
    </font>
</defs>
</svg>
