<?xml version="1.0" standalone="no"?>
<!DOCTYPE svg PUBLIC "-//W3C//DTD SVG 1.1//EN" "http://www.w3.org/Graphics/SVG/1.1/DTD/svg11.dtd" >
<svg xmlns="http://www.w3.org/2000/svg" xmlns:xlink="http://www.w3.org/1999/xlink" version="1.1">
<metadata>
Created by FontForge 20201107 at Mon Mar  9 12:55:22 2026
 By www-data
Copyright  2020 by Connary Fagen. All rights reserved.
</metadata>
<defs>
<font id="FONTSPRINGDEMO-ArticulatCFBoldItalic" horiz-adv-x="1224" >
  <font-face 
    font-family="FSP DEMO - Articulat CF"
    font-weight="700"
    font-style="italic"
    font-stretch="normal"
    units-per-em="2048"
    panose-1="0 0 8 0 0 0 0 0 0 0"
    ascent="1638"
    descent="-410"
    x-height="1065"
    cap-height="1434"
    bbox="-242 -428 2175 1511"
    underline-thickness="102"
    underline-position="-204"
    slope="-9"
    unicode-range="U+0020-007E"
  />
<missing-glyph 
d="M207 403q-13 0 -19 -2v-200q4 -2 19 -2q37 0 50 25t13 77q0 54 -13 78t-50 24zM518 330v-49h-82v-78h96v-49h-155v297h155v-52h-96v-69h82zM203 150q-47 0 -74 4v292q61 9 76 9q67 0 96 -37.5t29 -116.5t-29.5 -115t-97.5 -36zM586 451h80l39 -164l38 164h82
q3 -45 13 -297h-60q0 108 -6 213l-41 -168h-55l-41 168h-2q-4 -140 -4 -213h-58q3 156 15 297zM987 150q-60 0 -84 35.5t-24 115.5q0 81 24 117.5t84 36.5t85.5 -37t25.5 -117q0 -79 -25.5 -115t-85.5 -36zM987 403q-29 0 -39 -23.5t-10 -78.5q0 -54 10 -78t39 -24
q30 0 40.5 24t10.5 78q0 55 -10 78.5t-41 23.5zM967 1016q49 0 79.5 -24.5t39 -51t8.5 -53.5q0 -43 -34.5 -72.5t-72.5 -34.5q-213 -23 -340 -147q3 8 9 22t25 53.5t39 75.5t50 80.5t59.5 76t66 53.5t71.5 22zM285 909q39 0 78 -21t69.5 -55t58.5 -74.5t48 -81.5t35 -75
t22 -55l8 -21q-117 148 -319 148q-49 0 -88 30t-39 76q0 53 33.5 91t93.5 38zM643 1214q38 -37 48.5 -102t-2.5 -131t-31.5 -126.5t-35.5 -98.5l-18 -39q20 191 -125 330q-35 35 -42 81.5t24 83.5q23 23 53 34t65 3.5t64 -35.5z" />
    <glyph glyph-name=".notdef" 
d="M207 403q-13 0 -19 -2v-200q4 -2 19 -2q37 0 50 25t13 77q0 54 -13 78t-50 24zM518 330v-49h-82v-78h96v-49h-155v297h155v-52h-96v-69h82zM203 150q-47 0 -74 4v292q61 9 76 9q67 0 96 -37.5t29 -116.5t-29.5 -115t-97.5 -36zM586 451h80l39 -164l38 164h82
q3 -45 13 -297h-60q0 108 -6 213l-41 -168h-55l-41 168h-2q-4 -140 -4 -213h-58q3 156 15 297zM987 150q-60 0 -84 35.5t-24 115.5q0 81 24 117.5t84 36.5t85.5 -37t25.5 -117q0 -79 -25.5 -115t-85.5 -36zM987 403q-29 0 -39 -23.5t-10 -78.5q0 -54 10 -78t39 -24
q30 0 40.5 24t10.5 78q0 55 -10 78.5t-41 23.5zM967 1016q49 0 79.5 -24.5t39 -51t8.5 -53.5q0 -43 -34.5 -72.5t-72.5 -34.5q-213 -23 -340 -147q3 8 9 22t25 53.5t39 75.5t50 80.5t59.5 76t66 53.5t71.5 22zM285 909q39 0 78 -21t69.5 -55t58.5 -74.5t48 -81.5t35 -75
t22 -55l8 -21q-117 148 -319 148q-49 0 -88 30t-39 76q0 53 33.5 91t93.5 38zM643 1214q38 -37 48.5 -102t-2.5 -131t-31.5 -126.5t-35.5 -98.5l-18 -39q20 191 -125 330q-35 35 -42 81.5t24 83.5q23 23 53 34t65 3.5t64 -35.5z" />
    <glyph glyph-name=".null" horiz-adv-x="0" 
 />
    <glyph glyph-name="nonmarkingreturn" horiz-adv-x="682" 
 />
    <glyph glyph-name="space" unicode=" " horiz-adv-x="471" 
 />
    <glyph glyph-name="exclam" unicode="!" 
d="M207 403q-13 0 -19 -2v-200q4 -2 19 -2q37 0 50 25t13 77q0 54 -13 78t-50 24zM518 330v-49h-82v-78h96v-49h-155v297h155v-52h-96v-69h82zM203 150q-47 0 -74 4v292q61 9 76 9q67 0 96 -37.5t29 -116.5t-29.5 -115t-97.5 -36zM586 451h80l39 -164l38 164h82
q3 -45 13 -297h-60q0 108 -6 213l-41 -168h-55l-41 168h-2q-4 -140 -4 -213h-58q3 156 15 297zM987 150q-60 0 -84 35.5t-24 115.5q0 81 24 117.5t84 36.5t85.5 -37t25.5 -117q0 -79 -25.5 -115t-85.5 -36zM987 403q-29 0 -39 -23.5t-10 -78.5q0 -54 10 -78t39 -24
q30 0 40.5 24t10.5 78q0 55 -10 78.5t-41 23.5zM967 1016q49 0 79.5 -24.5t39 -51t8.5 -53.5q0 -43 -34.5 -72.5t-72.5 -34.5q-213 -23 -340 -147q3 8 9 22t25 53.5t39 75.5t50 80.5t59.5 76t66 53.5t71.5 22zM285 909q39 0 78 -21t69.5 -55t58.5 -74.5t48 -81.5t35 -75
t22 -55l8 -21q-117 148 -319 148q-49 0 -88 30t-39 76q0 53 33.5 91t93.5 38zM643 1214q38 -37 48.5 -102t-2.5 -131t-31.5 -126.5t-35.5 -98.5l-18 -39q20 191 -125 330q-35 35 -42 81.5t24 83.5q23 23 53 34t65 3.5t64 -35.5z" />
    <glyph glyph-name="quotedbl" unicode="&#x22;" 
d="M207 403q-13 0 -19 -2v-200q4 -2 19 -2q37 0 50 25t13 77q0 54 -13 78t-50 24zM518 330v-49h-82v-78h96v-49h-155v297h155v-52h-96v-69h82zM203 150q-47 0 -74 4v292q61 9 76 9q67 0 96 -37.5t29 -116.5t-29.5 -115t-97.5 -36zM586 451h80l39 -164l38 164h82
q3 -45 13 -297h-60q0 108 -6 213l-41 -168h-55l-41 168h-2q-4 -140 -4 -213h-58q3 156 15 297zM987 150q-60 0 -84 35.5t-24 115.5q0 81 24 117.5t84 36.5t85.5 -37t25.5 -117q0 -79 -25.5 -115t-85.5 -36zM987 403q-29 0 -39 -23.5t-10 -78.5q0 -54 10 -78t39 -24
q30 0 40.5 24t10.5 78q0 55 -10 78.5t-41 23.5zM967 1016q49 0 79.5 -24.5t39 -51t8.5 -53.5q0 -43 -34.5 -72.5t-72.5 -34.5q-213 -23 -340 -147q3 8 9 22t25 53.5t39 75.5t50 80.5t59.5 76t66 53.5t71.5 22zM285 909q39 0 78 -21t69.5 -55t58.5 -74.5t48 -81.5t35 -75
t22 -55l8 -21q-117 148 -319 148q-49 0 -88 30t-39 76q0 53 33.5 91t93.5 38zM643 1214q38 -37 48.5 -102t-2.5 -131t-31.5 -126.5t-35.5 -98.5l-18 -39q20 191 -125 330q-35 35 -42 81.5t24 83.5q23 23 53 34t65 3.5t64 -35.5z" />
    <glyph glyph-name="numbersign" unicode="#" 
d="M207 403q-13 0 -19 -2v-200q4 -2 19 -2q37 0 50 25t13 77q0 54 -13 78t-50 24zM518 330v-49h-82v-78h96v-49h-155v297h155v-52h-96v-69h82zM203 150q-47 0 -74 4v292q61 9 76 9q67 0 96 -37.5t29 -116.5t-29.5 -115t-97.5 -36zM586 451h80l39 -164l38 164h82
q3 -45 13 -297h-60q0 108 -6 213l-41 -168h-55l-41 168h-2q-4 -140 -4 -213h-58q3 156 15 297zM987 150q-60 0 -84 35.5t-24 115.5q0 81 24 117.5t84 36.5t85.5 -37t25.5 -117q0 -79 -25.5 -115t-85.5 -36zM987 403q-29 0 -39 -23.5t-10 -78.5q0 -54 10 -78t39 -24
q30 0 40.5 24t10.5 78q0 55 -10 78.5t-41 23.5zM967 1016q49 0 79.5 -24.5t39 -51t8.5 -53.5q0 -43 -34.5 -72.5t-72.5 -34.5q-213 -23 -340 -147q3 8 9 22t25 53.5t39 75.5t50 80.5t59.5 76t66 53.5t71.5 22zM285 909q39 0 78 -21t69.5 -55t58.5 -74.5t48 -81.5t35 -75
t22 -55l8 -21q-117 148 -319 148q-49 0 -88 30t-39 76q0 53 33.5 91t93.5 38zM643 1214q38 -37 48.5 -102t-2.5 -131t-31.5 -126.5t-35.5 -98.5l-18 -39q20 191 -125 330q-35 35 -42 81.5t24 83.5q23 23 53 34t65 3.5t64 -35.5z" />
    <glyph glyph-name="dollar" unicode="$" 
d="M207 403q-13 0 -19 -2v-200q4 -2 19 -2q37 0 50 25t13 77q0 54 -13 78t-50 24zM518 330v-49h-82v-78h96v-49h-155v297h155v-52h-96v-69h82zM203 150q-47 0 -74 4v292q61 9 76 9q67 0 96 -37.5t29 -116.5t-29.5 -115t-97.5 -36zM586 451h80l39 -164l38 164h82
q3 -45 13 -297h-60q0 108 -6 213l-41 -168h-55l-41 168h-2q-4 -140 -4 -213h-58q3 156 15 297zM987 150q-60 0 -84 35.5t-24 115.5q0 81 24 117.5t84 36.5t85.5 -37t25.5 -117q0 -79 -25.5 -115t-85.5 -36zM987 403q-29 0 -39 -23.5t-10 -78.5q0 -54 10 -78t39 -24
q30 0 40.5 24t10.5 78q0 55 -10 78.5t-41 23.5zM967 1016q49 0 79.5 -24.5t39 -51t8.5 -53.5q0 -43 -34.5 -72.5t-72.5 -34.5q-213 -23 -340 -147q3 8 9 22t25 53.5t39 75.5t50 80.5t59.5 76t66 53.5t71.5 22zM285 909q39 0 78 -21t69.5 -55t58.5 -74.5t48 -81.5t35 -75
t22 -55l8 -21q-117 148 -319 148q-49 0 -88 30t-39 76q0 53 33.5 91t93.5 38zM643 1214q38 -37 48.5 -102t-2.5 -131t-31.5 -126.5t-35.5 -98.5l-18 -39q20 191 -125 330q-35 35 -42 81.5t24 83.5q23 23 53 34t65 3.5t64 -35.5z" />
    <glyph glyph-name="percent" unicode="%" 
d="M207 403q-13 0 -19 -2v-200q4 -2 19 -2q37 0 50 25t13 77q0 54 -13 78t-50 24zM518 330v-49h-82v-78h96v-49h-155v297h155v-52h-96v-69h82zM203 150q-47 0 -74 4v292q61 9 76 9q67 0 96 -37.5t29 -116.5t-29.5 -115t-97.5 -36zM586 451h80l39 -164l38 164h82
q3 -45 13 -297h-60q0 108 -6 213l-41 -168h-55l-41 168h-2q-4 -140 -4 -213h-58q3 156 15 297zM987 150q-60 0 -84 35.5t-24 115.5q0 81 24 117.5t84 36.5t85.5 -37t25.5 -117q0 -79 -25.5 -115t-85.5 -36zM987 403q-29 0 -39 -23.5t-10 -78.5q0 -54 10 -78t39 -24
q30 0 40.5 24t10.5 78q0 55 -10 78.5t-41 23.5zM967 1016q49 0 79.5 -24.5t39 -51t8.5 -53.5q0 -43 -34.5 -72.5t-72.5 -34.5q-213 -23 -340 -147q3 8 9 22t25 53.5t39 75.5t50 80.5t59.5 76t66 53.5t71.5 22zM285 909q39 0 78 -21t69.5 -55t58.5 -74.5t48 -81.5t35 -75
t22 -55l8 -21q-117 148 -319 148q-49 0 -88 30t-39 76q0 53 33.5 91t93.5 38zM643 1214q38 -37 48.5 -102t-2.5 -131t-31.5 -126.5t-35.5 -98.5l-18 -39q20 191 -125 330q-35 35 -42 81.5t24 83.5q23 23 53 34t65 3.5t64 -35.5z" />
    <glyph glyph-name="ampersand" unicode="&#x26;" 
d="M207 403q-13 0 -19 -2v-200q4 -2 19 -2q37 0 50 25t13 77q0 54 -13 78t-50 24zM518 330v-49h-82v-78h96v-49h-155v297h155v-52h-96v-69h82zM203 150q-47 0 -74 4v292q61 9 76 9q67 0 96 -37.5t29 -116.5t-29.5 -115t-97.5 -36zM586 451h80l39 -164l38 164h82
q3 -45 13 -297h-60q0 108 -6 213l-41 -168h-55l-41 168h-2q-4 -140 -4 -213h-58q3 156 15 297zM987 150q-60 0 -84 35.5t-24 115.5q0 81 24 117.5t84 36.5t85.5 -37t25.5 -117q0 -79 -25.5 -115t-85.5 -36zM987 403q-29 0 -39 -23.5t-10 -78.5q0 -54 10 -78t39 -24
q30 0 40.5 24t10.5 78q0 55 -10 78.5t-41 23.5zM967 1016q49 0 79.5 -24.5t39 -51t8.5 -53.5q0 -43 -34.5 -72.5t-72.5 -34.5q-213 -23 -340 -147q3 8 9 22t25 53.5t39 75.5t50 80.5t59.5 76t66 53.5t71.5 22zM285 909q39 0 78 -21t69.5 -55t58.5 -74.5t48 -81.5t35 -75
t22 -55l8 -21q-117 148 -319 148q-49 0 -88 30t-39 76q0 53 33.5 91t93.5 38zM643 1214q38 -37 48.5 -102t-2.5 -131t-31.5 -126.5t-35.5 -98.5l-18 -39q20 191 -125 330q-35 35 -42 81.5t24 83.5q23 23 53 34t65 3.5t64 -35.5z" />
    <glyph glyph-name="quotesingle" unicode="'" 
d="M207 403q-13 0 -19 -2v-200q4 -2 19 -2q37 0 50 25t13 77q0 54 -13 78t-50 24zM518 330v-49h-82v-78h96v-49h-155v297h155v-52h-96v-69h82zM203 150q-47 0 -74 4v292q61 9 76 9q67 0 96 -37.5t29 -116.5t-29.5 -115t-97.5 -36zM586 451h80l39 -164l38 164h82
q3 -45 13 -297h-60q0 108 -6 213l-41 -168h-55l-41 168h-2q-4 -140 -4 -213h-58q3 156 15 297zM987 150q-60 0 -84 35.5t-24 115.5q0 81 24 117.5t84 36.5t85.5 -37t25.5 -117q0 -79 -25.5 -115t-85.5 -36zM987 403q-29 0 -39 -23.5t-10 -78.5q0 -54 10 -78t39 -24
q30 0 40.5 24t10.5 78q0 55 -10 78.5t-41 23.5zM967 1016q49 0 79.5 -24.5t39 -51t8.5 -53.5q0 -43 -34.5 -72.5t-72.5 -34.5q-213 -23 -340 -147q3 8 9 22t25 53.5t39 75.5t50 80.5t59.5 76t66 53.5t71.5 22zM285 909q39 0 78 -21t69.5 -55t58.5 -74.5t48 -81.5t35 -75
t22 -55l8 -21q-117 148 -319 148q-49 0 -88 30t-39 76q0 53 33.5 91t93.5 38zM643 1214q38 -37 48.5 -102t-2.5 -131t-31.5 -126.5t-35.5 -98.5l-18 -39q20 191 -125 330q-35 35 -42 81.5t24 83.5q23 23 53 34t65 3.5t64 -35.5z" />
    <glyph glyph-name="parenleft" unicode="(" 
d="M207 403q-13 0 -19 -2v-200q4 -2 19 -2q37 0 50 25t13 77q0 54 -13 78t-50 24zM518 330v-49h-82v-78h96v-49h-155v297h155v-52h-96v-69h82zM203 150q-47 0 -74 4v292q61 9 76 9q67 0 96 -37.5t29 -116.5t-29.5 -115t-97.5 -36zM586 451h80l39 -164l38 164h82
q3 -45 13 -297h-60q0 108 -6 213l-41 -168h-55l-41 168h-2q-4 -140 -4 -213h-58q3 156 15 297zM987 150q-60 0 -84 35.5t-24 115.5q0 81 24 117.5t84 36.5t85.5 -37t25.5 -117q0 -79 -25.5 -115t-85.5 -36zM987 403q-29 0 -39 -23.5t-10 -78.5q0 -54 10 -78t39 -24
q30 0 40.5 24t10.5 78q0 55 -10 78.5t-41 23.5zM967 1016q49 0 79.5 -24.5t39 -51t8.5 -53.5q0 -43 -34.5 -72.5t-72.5 -34.5q-213 -23 -340 -147q3 8 9 22t25 53.5t39 75.5t50 80.5t59.5 76t66 53.5t71.5 22zM285 909q39 0 78 -21t69.5 -55t58.5 -74.5t48 -81.5t35 -75
t22 -55l8 -21q-117 148 -319 148q-49 0 -88 30t-39 76q0 53 33.5 91t93.5 38zM643 1214q38 -37 48.5 -102t-2.5 -131t-31.5 -126.5t-35.5 -98.5l-18 -39q20 191 -125 330q-35 35 -42 81.5t24 83.5q23 23 53 34t65 3.5t64 -35.5z" />
    <glyph glyph-name="parenright" unicode=")" 
d="M207 403q-13 0 -19 -2v-200q4 -2 19 -2q37 0 50 25t13 77q0 54 -13 78t-50 24zM518 330v-49h-82v-78h96v-49h-155v297h155v-52h-96v-69h82zM203 150q-47 0 -74 4v292q61 9 76 9q67 0 96 -37.5t29 -116.5t-29.5 -115t-97.5 -36zM586 451h80l39 -164l38 164h82
q3 -45 13 -297h-60q0 108 -6 213l-41 -168h-55l-41 168h-2q-4 -140 -4 -213h-58q3 156 15 297zM987 150q-60 0 -84 35.5t-24 115.5q0 81 24 117.5t84 36.5t85.5 -37t25.5 -117q0 -79 -25.5 -115t-85.5 -36zM987 403q-29 0 -39 -23.5t-10 -78.5q0 -54 10 -78t39 -24
q30 0 40.5 24t10.5 78q0 55 -10 78.5t-41 23.5zM967 1016q49 0 79.5 -24.5t39 -51t8.5 -53.5q0 -43 -34.5 -72.5t-72.5 -34.5q-213 -23 -340 -147q3 8 9 22t25 53.5t39 75.5t50 80.5t59.5 76t66 53.5t71.5 22zM285 909q39 0 78 -21t69.5 -55t58.5 -74.5t48 -81.5t35 -75
t22 -55l8 -21q-117 148 -319 148q-49 0 -88 30t-39 76q0 53 33.5 91t93.5 38zM643 1214q38 -37 48.5 -102t-2.5 -131t-31.5 -126.5t-35.5 -98.5l-18 -39q20 191 -125 330q-35 35 -42 81.5t24 83.5q23 23 53 34t65 3.5t64 -35.5z" />
    <glyph glyph-name="asterisk" unicode="*" 
d="M207 403q-13 0 -19 -2v-200q4 -2 19 -2q37 0 50 25t13 77q0 54 -13 78t-50 24zM518 330v-49h-82v-78h96v-49h-155v297h155v-52h-96v-69h82zM203 150q-47 0 -74 4v292q61 9 76 9q67 0 96 -37.5t29 -116.5t-29.5 -115t-97.5 -36zM586 451h80l39 -164l38 164h82
q3 -45 13 -297h-60q0 108 -6 213l-41 -168h-55l-41 168h-2q-4 -140 -4 -213h-58q3 156 15 297zM987 150q-60 0 -84 35.5t-24 115.5q0 81 24 117.5t84 36.5t85.5 -37t25.5 -117q0 -79 -25.5 -115t-85.5 -36zM987 403q-29 0 -39 -23.5t-10 -78.5q0 -54 10 -78t39 -24
q30 0 40.5 24t10.5 78q0 55 -10 78.5t-41 23.5zM967 1016q49 0 79.5 -24.5t39 -51t8.5 -53.5q0 -43 -34.5 -72.5t-72.5 -34.5q-213 -23 -340 -147q3 8 9 22t25 53.5t39 75.5t50 80.5t59.5 76t66 53.5t71.5 22zM285 909q39 0 78 -21t69.5 -55t58.5 -74.5t48 -81.5t35 -75
t22 -55l8 -21q-117 148 -319 148q-49 0 -88 30t-39 76q0 53 33.5 91t93.5 38zM643 1214q38 -37 48.5 -102t-2.5 -131t-31.5 -126.5t-35.5 -98.5l-18 -39q20 191 -125 330q-35 35 -42 81.5t24 83.5q23 23 53 34t65 3.5t64 -35.5z" />
    <glyph glyph-name="plus" unicode="+" 
d="M207 403q-13 0 -19 -2v-200q4 -2 19 -2q37 0 50 25t13 77q0 54 -13 78t-50 24zM518 330v-49h-82v-78h96v-49h-155v297h155v-52h-96v-69h82zM203 150q-47 0 -74 4v292q61 9 76 9q67 0 96 -37.5t29 -116.5t-29.5 -115t-97.5 -36zM586 451h80l39 -164l38 164h82
q3 -45 13 -297h-60q0 108 -6 213l-41 -168h-55l-41 168h-2q-4 -140 -4 -213h-58q3 156 15 297zM987 150q-60 0 -84 35.5t-24 115.5q0 81 24 117.5t84 36.5t85.5 -37t25.5 -117q0 -79 -25.5 -115t-85.5 -36zM987 403q-29 0 -39 -23.5t-10 -78.5q0 -54 10 -78t39 -24
q30 0 40.5 24t10.5 78q0 55 -10 78.5t-41 23.5zM967 1016q49 0 79.5 -24.5t39 -51t8.5 -53.5q0 -43 -34.5 -72.5t-72.5 -34.5q-213 -23 -340 -147q3 8 9 22t25 53.5t39 75.5t50 80.5t59.5 76t66 53.5t71.5 22zM285 909q39 0 78 -21t69.5 -55t58.5 -74.5t48 -81.5t35 -75
t22 -55l8 -21q-117 148 -319 148q-49 0 -88 30t-39 76q0 53 33.5 91t93.5 38zM643 1214q38 -37 48.5 -102t-2.5 -131t-31.5 -126.5t-35.5 -98.5l-18 -39q20 191 -125 330q-35 35 -42 81.5t24 83.5q23 23 53 34t65 3.5t64 -35.5z" />
    <glyph glyph-name="comma" unicode="," horiz-adv-x="540" 
d="M-51 -291l22 133h6q107 0 159.5 31.5t64.5 112.5q-88 0 -135.5 44.5t-47.5 114.5q0 79 55.5 135t141.5 56q79 0 127.5 -55t48.5 -166q0 -110 -43.5 -200.5t-133 -148t-210.5 -57.5h-55z" />
    <glyph glyph-name="hyphen" unicode="-" 
d="M207 403q-13 0 -19 -2v-200q4 -2 19 -2q37 0 50 25t13 77q0 54 -13 78t-50 24zM518 330v-49h-82v-78h96v-49h-155v297h155v-52h-96v-69h82zM203 150q-47 0 -74 4v292q61 9 76 9q67 0 96 -37.5t29 -116.5t-29.5 -115t-97.5 -36zM586 451h80l39 -164l38 164h82
q3 -45 13 -297h-60q0 108 -6 213l-41 -168h-55l-41 168h-2q-4 -140 -4 -213h-58q3 156 15 297zM987 150q-60 0 -84 35.5t-24 115.5q0 81 24 117.5t84 36.5t85.5 -37t25.5 -117q0 -79 -25.5 -115t-85.5 -36zM987 403q-29 0 -39 -23.5t-10 -78.5q0 -54 10 -78t39 -24
q30 0 40.5 24t10.5 78q0 55 -10 78.5t-41 23.5zM967 1016q49 0 79.5 -24.5t39 -51t8.5 -53.5q0 -43 -34.5 -72.5t-72.5 -34.5q-213 -23 -340 -147q3 8 9 22t25 53.5t39 75.5t50 80.5t59.5 76t66 53.5t71.5 22zM285 909q39 0 78 -21t69.5 -55t58.5 -74.5t48 -81.5t35 -75
t22 -55l8 -21q-117 148 -319 148q-49 0 -88 30t-39 76q0 53 33.5 91t93.5 38zM643 1214q38 -37 48.5 -102t-2.5 -131t-31.5 -126.5t-35.5 -98.5l-18 -39q20 191 -125 330q-35 35 -42 81.5t24 83.5q23 23 53 34t65 3.5t64 -35.5z" />
    <glyph glyph-name="period" unicode="." horiz-adv-x="518" 
d="M199 -20q-74 0 -127.5 52t-53.5 126q0 73 53.5 125.5t127.5 52.5q75 0 128.5 -52.5t53.5 -125.5q0 -75 -53.5 -126.5t-128.5 -51.5z" />
    <glyph glyph-name="slash" unicode="/" 
d="M207 403q-13 0 -19 -2v-200q4 -2 19 -2q37 0 50 25t13 77q0 54 -13 78t-50 24zM518 330v-49h-82v-78h96v-49h-155v297h155v-52h-96v-69h82zM203 150q-47 0 -74 4v292q61 9 76 9q67 0 96 -37.5t29 -116.5t-29.5 -115t-97.5 -36zM586 451h80l39 -164l38 164h82
q3 -45 13 -297h-60q0 108 -6 213l-41 -168h-55l-41 168h-2q-4 -140 -4 -213h-58q3 156 15 297zM987 150q-60 0 -84 35.5t-24 115.5q0 81 24 117.5t84 36.5t85.5 -37t25.5 -117q0 -79 -25.5 -115t-85.5 -36zM987 403q-29 0 -39 -23.5t-10 -78.5q0 -54 10 -78t39 -24
q30 0 40.5 24t10.5 78q0 55 -10 78.5t-41 23.5zM967 1016q49 0 79.5 -24.5t39 -51t8.5 -53.5q0 -43 -34.5 -72.5t-72.5 -34.5q-213 -23 -340 -147q3 8 9 22t25 53.5t39 75.5t50 80.5t59.5 76t66 53.5t71.5 22zM285 909q39 0 78 -21t69.5 -55t58.5 -74.5t48 -81.5t35 -75
t22 -55l8 -21q-117 148 -319 148q-49 0 -88 30t-39 76q0 53 33.5 91t93.5 38zM643 1214q38 -37 48.5 -102t-2.5 -131t-31.5 -126.5t-35.5 -98.5l-18 -39q20 191 -125 330q-35 35 -42 81.5t24 83.5q23 23 53 34t65 3.5t64 -35.5z" />
    <glyph glyph-name="zero" unicode="0" horiz-adv-x="1300" 
d="M575 -20q-79 0 -148 18.5t-131.5 60.5t-107 106.5t-70.5 162t-26 219.5q0 136 29 266.5t88 246t140 203t193.5 138.5t241.5 51q101 0 185 -30.5t152 -95.5t106.5 -178t38.5 -265q0 -134 -28 -263.5t-86 -245.5t-139 -203.5t-194 -139t-244 -51.5zM606 229q91 0 165 59
t117.5 153t67 202t23.5 215q0 344 -223 344q-91 0 -165 -58t-118.5 -151t-68 -200.5t-23.5 -214.5q0 -165 56.5 -257t168.5 -92z" />
    <glyph glyph-name="one" unicode="1" horiz-adv-x="833" 
d="M303 0l170 1069q-119 -106 -328 -106l37 245q126 14 211.5 67.5t136.5 158.5h299l-227 -1434h-299z" />
    <glyph glyph-name="two" unicode="2" horiz-adv-x="1185" 
d="M-2 0l12 70q16 102 45 180.5t82 154.5t138 143.5t208 133.5q23 12 66.5 34.5t64.5 34t56 31t52.5 32t43.5 31.5t40 35.5t29.5 37.5t24.5 43.5t14 48.5q18 99 -37 143.5t-139 44.5q-91 0 -156 -53.5t-81 -167.5l-4 -29h-291l6 41q15 98 56.5 180t109.5 146.5t171 100.5
t232 36q236 0 349.5 -115t85.5 -303q-12 -78 -46 -145.5t-75 -114t-102.5 -91t-108.5 -71t-113 -60.5q-15 -7 -22 -11q-166 -89 -239.5 -152.5t-90.5 -132.5l-2 -8h670l-37 -248h-1012z" />
    <glyph glyph-name="three" unicode="3" horiz-adv-x="1222" 
d="M522 -20q-263 0 -382 137t-83 370h277q-10 -69 4.5 -120.5t48.5 -80t77 -42t95 -13.5q119 0 199 66t80 168q0 79 -58 124.5t-180 45.5h-84l35 215h72q121 0 191.5 53.5t70.5 143.5q0 77 -50 113t-128 36q-41 0 -78 -11.5t-71.5 -36.5t-60 -71.5t-36.5 -109.5h-279
q31 229 180 357t392 128q201 0 315.5 -90.5t114.5 -237.5q0 -126 -82.5 -228.5t-208.5 -133.5q38 -4 77.5 -21.5t79.5 -50.5t65.5 -91.5t25.5 -133.5q0 -142 -83 -253.5t-223.5 -171.5t-312.5 -60z" />
    <glyph glyph-name="four" unicode="4" 
d="M207 403q-13 0 -19 -2v-200q4 -2 19 -2q37 0 50 25t13 77q0 54 -13 78t-50 24zM518 330v-49h-82v-78h96v-49h-155v297h155v-52h-96v-69h82zM203 150q-47 0 -74 4v292q61 9 76 9q67 0 96 -37.5t29 -116.5t-29.5 -115t-97.5 -36zM586 451h80l39 -164l38 164h82
q3 -45 13 -297h-60q0 108 -6 213l-41 -168h-55l-41 168h-2q-4 -140 -4 -213h-58q3 156 15 297zM987 150q-60 0 -84 35.5t-24 115.5q0 81 24 117.5t84 36.5t85.5 -37t25.5 -117q0 -79 -25.5 -115t-85.5 -36zM987 403q-29 0 -39 -23.5t-10 -78.5q0 -54 10 -78t39 -24
q30 0 40.5 24t10.5 78q0 55 -10 78.5t-41 23.5zM967 1016q49 0 79.5 -24.5t39 -51t8.5 -53.5q0 -43 -34.5 -72.5t-72.5 -34.5q-213 -23 -340 -147q3 8 9 22t25 53.5t39 75.5t50 80.5t59.5 76t66 53.5t71.5 22zM285 909q39 0 78 -21t69.5 -55t58.5 -74.5t48 -81.5t35 -75
t22 -55l8 -21q-117 148 -319 148q-49 0 -88 30t-39 76q0 53 33.5 91t93.5 38zM643 1214q38 -37 48.5 -102t-2.5 -131t-31.5 -126.5t-35.5 -98.5l-18 -39q20 191 -125 330q-35 35 -42 81.5t24 83.5q23 23 53 34t65 3.5t64 -35.5z" />
    <glyph glyph-name="five" unicode="5" horiz-adv-x="1218" 
d="M530 -20q-247 0 -370 132.5t-86 346.5h272q-8 -62 8.5 -110t51 -75t76.5 -40t89 -13q133 0 212 92.5t79 225.5q0 65 -20 111.5t-54.5 69.5t-68.5 32.5t-72 9.5q-76 0 -144 -34.5t-106 -94.5h-274l248 801h800l-38 -238h-594l-99 -319q2 5 15.5 16.5t42.5 28.5t65 32
t89.5 26t111.5 11q184 0 291.5 -108t107.5 -305q0 -263 -177 -430.5t-456 -167.5z" />
    <glyph glyph-name="six" unicode="6" horiz-adv-x="1249" 
d="M756 1214q-71 0 -129.5 -29.5t-94.5 -72t-63.5 -102t-40 -106.5t-20.5 -97q162 141 358 141q60 0 115 -12t108.5 -41.5t92.5 -73.5t63 -113t24 -155q0 -165 -82.5 -297t-219.5 -204t-300 -72q-100 0 -182 29t-148 89t-102.5 164t-36.5 244q0 93 19 213q21 130 58.5 239.5
t96 201.5t134 156.5t176 100t219.5 35.5q88 0 159.5 -20t119 -53t79.5 -78.5t46 -94.5t14 -102q0 -8 -5 -66h-264q0 94 -55.5 135t-138.5 41zM664 725q-126 0 -205.5 -86t-79.5 -205q0 -106 62.5 -159.5t150.5 -53.5q117 0 202 84.5t85 208.5q0 107 -61.5 159t-153.5 52z
" />
    <glyph glyph-name="seven" unicode="7" horiz-adv-x="1048" 
d="M145 0q70 308 239 610t415 578h-635l41 246h915l-39 -246q-255 -304 -420 -596.5t-231 -591.5h-285z" />
    <glyph glyph-name="eight" unicode="8" horiz-adv-x="1232" 
d="M535 -20q-142 0 -251 43t-174 131.5t-65 212.5q0 155 94 269.5t260 174.5q-147 79 -147 244q0 168 140.5 282.5t365.5 114.5q188 0 294.5 -83.5t106.5 -219.5q0 -100 -56.5 -189t-182.5 -149q120 -46 177.5 -124.5t57.5 -197.5q0 -150 -83 -267t-223.5 -179.5
t-313.5 -62.5zM676 897q96 0 157.5 58.5t61.5 138.5q0 68 -45 109.5t-123 41.5q-103 0 -161 -58.5t-58 -142.5q0 -70 43.5 -108.5t124.5 -38.5zM571 221q72 0 129 24.5t91.5 64t52.5 87t18 97.5q0 95 -61.5 144.5t-159.5 49.5q-124 0 -207.5 -76.5t-83.5 -193.5
q0 -89 57 -143t164 -54z" />
    <glyph glyph-name="nine" unicode="9" horiz-adv-x="1245" 
d="M739 1450q100 0 182 -29t148 -89t102.5 -164t36.5 -244q0 -99 -18 -213q-26 -163 -79.5 -294t-136 -231t-202 -154.5t-268.5 -54.5q-108 0 -191 30t-130.5 80.5t-71 111t-23.5 127.5q0 19 4 65h264q-1 -94 55 -135t140 -41q71 0 129 29.5t94 72.5t63.5 102t40.5 106.5
t21 97.5q-167 -142 -358 -142q-60 0 -115.5 12.5t-108.5 42t-92.5 73.5t-63.5 113t-24 155q0 165 82 297t219.5 204t300.5 72zM643 705q126 0 205.5 85.5t79.5 204.5q0 106 -63 159.5t-150 53.5q-117 0 -202 -84.5t-85 -208.5q0 -107 61 -158.5t154 -51.5z" />
    <glyph glyph-name="colon" unicode=":" horiz-adv-x="518" 
d="M315 709q-75 0 -127.5 52t-52.5 126q0 75 52.5 126.5t127.5 51.5t128 -51.5t53 -126.5q0 -74 -53 -126t-128 -52zM199 -20q-75 0 -129 51.5t-54 126.5q0 73 54 125.5t129 52.5q74 0 127 -52.5t53 -125.5q0 -74 -53 -126t-127 -52z" />
    <glyph glyph-name="semicolon" unicode=";" horiz-adv-x="540" 
d="M315 709q-75 0 -127.5 52t-52.5 126q0 75 52.5 126.5t127.5 51.5t128 -51.5t53 -126.5q0 -74 -53 -126t-128 -52zM-51 -291l22 133h6q107 0 159.5 31.5t64.5 112.5q-88 0 -135.5 44.5t-47.5 114.5q0 79 55.5 135t141.5 56q79 0 127.5 -55t48.5 -166q0 -110 -43.5 -200.5
t-133 -148t-210.5 -57.5h-55z" />
    <glyph glyph-name="less" unicode="&#x3c;" 
d="M207 403q-13 0 -19 -2v-200q4 -2 19 -2q37 0 50 25t13 77q0 54 -13 78t-50 24zM518 330v-49h-82v-78h96v-49h-155v297h155v-52h-96v-69h82zM203 150q-47 0 -74 4v292q61 9 76 9q67 0 96 -37.5t29 -116.5t-29.5 -115t-97.5 -36zM586 451h80l39 -164l38 164h82
q3 -45 13 -297h-60q0 108 -6 213l-41 -168h-55l-41 168h-2q-4 -140 -4 -213h-58q3 156 15 297zM987 150q-60 0 -84 35.5t-24 115.5q0 81 24 117.5t84 36.5t85.5 -37t25.5 -117q0 -79 -25.5 -115t-85.5 -36zM987 403q-29 0 -39 -23.5t-10 -78.5q0 -54 10 -78t39 -24
q30 0 40.5 24t10.5 78q0 55 -10 78.5t-41 23.5zM967 1016q49 0 79.5 -24.5t39 -51t8.5 -53.5q0 -43 -34.5 -72.5t-72.5 -34.5q-213 -23 -340 -147q3 8 9 22t25 53.5t39 75.5t50 80.5t59.5 76t66 53.5t71.5 22zM285 909q39 0 78 -21t69.5 -55t58.5 -74.5t48 -81.5t35 -75
t22 -55l8 -21q-117 148 -319 148q-49 0 -88 30t-39 76q0 53 33.5 91t93.5 38zM643 1214q38 -37 48.5 -102t-2.5 -131t-31.5 -126.5t-35.5 -98.5l-18 -39q20 191 -125 330q-35 35 -42 81.5t24 83.5q23 23 53 34t65 3.5t64 -35.5z" />
    <glyph glyph-name="equal" unicode="=" 
d="M207 403q-13 0 -19 -2v-200q4 -2 19 -2q37 0 50 25t13 77q0 54 -13 78t-50 24zM518 330v-49h-82v-78h96v-49h-155v297h155v-52h-96v-69h82zM203 150q-47 0 -74 4v292q61 9 76 9q67 0 96 -37.5t29 -116.5t-29.5 -115t-97.5 -36zM586 451h80l39 -164l38 164h82
q3 -45 13 -297h-60q0 108 -6 213l-41 -168h-55l-41 168h-2q-4 -140 -4 -213h-58q3 156 15 297zM987 150q-60 0 -84 35.5t-24 115.5q0 81 24 117.5t84 36.5t85.5 -37t25.5 -117q0 -79 -25.5 -115t-85.5 -36zM987 403q-29 0 -39 -23.5t-10 -78.5q0 -54 10 -78t39 -24
q30 0 40.5 24t10.5 78q0 55 -10 78.5t-41 23.5zM967 1016q49 0 79.5 -24.5t39 -51t8.5 -53.5q0 -43 -34.5 -72.5t-72.5 -34.5q-213 -23 -340 -147q3 8 9 22t25 53.5t39 75.5t50 80.5t59.5 76t66 53.5t71.5 22zM285 909q39 0 78 -21t69.5 -55t58.5 -74.5t48 -81.5t35 -75
t22 -55l8 -21q-117 148 -319 148q-49 0 -88 30t-39 76q0 53 33.5 91t93.5 38zM643 1214q38 -37 48.5 -102t-2.5 -131t-31.5 -126.5t-35.5 -98.5l-18 -39q20 191 -125 330q-35 35 -42 81.5t24 83.5q23 23 53 34t65 3.5t64 -35.5z" />
    <glyph glyph-name="greater" unicode="&#x3e;" 
d="M207 403q-13 0 -19 -2v-200q4 -2 19 -2q37 0 50 25t13 77q0 54 -13 78t-50 24zM518 330v-49h-82v-78h96v-49h-155v297h155v-52h-96v-69h82zM203 150q-47 0 -74 4v292q61 9 76 9q67 0 96 -37.5t29 -116.5t-29.5 -115t-97.5 -36zM586 451h80l39 -164l38 164h82
q3 -45 13 -297h-60q0 108 -6 213l-41 -168h-55l-41 168h-2q-4 -140 -4 -213h-58q3 156 15 297zM987 150q-60 0 -84 35.5t-24 115.5q0 81 24 117.5t84 36.5t85.5 -37t25.5 -117q0 -79 -25.5 -115t-85.5 -36zM987 403q-29 0 -39 -23.5t-10 -78.5q0 -54 10 -78t39 -24
q30 0 40.5 24t10.5 78q0 55 -10 78.5t-41 23.5zM967 1016q49 0 79.5 -24.5t39 -51t8.5 -53.5q0 -43 -34.5 -72.5t-72.5 -34.5q-213 -23 -340 -147q3 8 9 22t25 53.5t39 75.5t50 80.5t59.5 76t66 53.5t71.5 22zM285 909q39 0 78 -21t69.5 -55t58.5 -74.5t48 -81.5t35 -75
t22 -55l8 -21q-117 148 -319 148q-49 0 -88 30t-39 76q0 53 33.5 91t93.5 38zM643 1214q38 -37 48.5 -102t-2.5 -131t-31.5 -126.5t-35.5 -98.5l-18 -39q20 191 -125 330q-35 35 -42 81.5t24 83.5q23 23 53 34t65 3.5t64 -35.5z" />
    <glyph glyph-name="question" unicode="?" horiz-adv-x="1159" 
d="M442 467l9 53q13 75 41 134.5t62 97t72 68t74.5 54t67.5 46.5t52.5 53.5t27.5 68.5q4 26 -1 50.5t-20.5 48t-49 37.5t-81.5 14q-107 0 -164.5 -66.5t-74.5 -173.5h-299q15 106 53 190.5t91.5 141t122.5 94t142.5 54t155.5 16.5q214 0 334.5 -108.5t89.5 -299.5
q-10 -63 -34 -111t-55 -78t-66 -55t-70.5 -48.5t-66 -51t-54 -71.5t-33.5 -101l-10 -57h-316zM547 -20q-74 0 -127 52t-53 126q0 73 53 125.5t127 52.5q75 0 128.5 -52.5t53.5 -125.5q0 -75 -53.5 -126.5t-128.5 -51.5z" />
    <glyph glyph-name="at" unicode="@" 
d="M207 403q-13 0 -19 -2v-200q4 -2 19 -2q37 0 50 25t13 77q0 54 -13 78t-50 24zM518 330v-49h-82v-78h96v-49h-155v297h155v-52h-96v-69h82zM203 150q-47 0 -74 4v292q61 9 76 9q67 0 96 -37.5t29 -116.5t-29.5 -115t-97.5 -36zM586 451h80l39 -164l38 164h82
q3 -45 13 -297h-60q0 108 -6 213l-41 -168h-55l-41 168h-2q-4 -140 -4 -213h-58q3 156 15 297zM987 150q-60 0 -84 35.5t-24 115.5q0 81 24 117.5t84 36.5t85.5 -37t25.5 -117q0 -79 -25.5 -115t-85.5 -36zM987 403q-29 0 -39 -23.5t-10 -78.5q0 -54 10 -78t39 -24
q30 0 40.5 24t10.5 78q0 55 -10 78.5t-41 23.5zM967 1016q49 0 79.5 -24.5t39 -51t8.5 -53.5q0 -43 -34.5 -72.5t-72.5 -34.5q-213 -23 -340 -147q3 8 9 22t25 53.5t39 75.5t50 80.5t59.5 76t66 53.5t71.5 22zM285 909q39 0 78 -21t69.5 -55t58.5 -74.5t48 -81.5t35 -75
t22 -55l8 -21q-117 148 -319 148q-49 0 -88 30t-39 76q0 53 33.5 91t93.5 38zM643 1214q38 -37 48.5 -102t-2.5 -131t-31.5 -126.5t-35.5 -98.5l-18 -39q20 191 -125 330q-35 35 -42 81.5t24 83.5q23 23 53 34t65 3.5t64 -35.5z" />
    <glyph glyph-name="A" unicode="A" horiz-adv-x="1501" 
d="M1065 0l-49 268h-602l-135 -268h-328l745 1434h396l290 -1434h-317zM526 496h447l-115 624h-18z" />
    <glyph glyph-name="B" unicode="B" horiz-adv-x="1306" 
d="M23 0l227 1434h573q208 0 313 -83t105 -239q0 -246 -256 -330q252 -71 252 -319q0 -143 -80 -249t-215 -160t-305 -54h-614zM463 852h250q91 0 149 56t58 139q0 129 -142 129h-266zM369 258h274q125 0 202 65t77 166q0 168 -199 168h-289z" />
    <glyph glyph-name="C" unicode="C" horiz-adv-x="1409" 
d="M678 -20q-276 0 -427 157.5t-151 454.5q0 177 52.5 332.5t149 273t244 186t326.5 68.5q121 0 221.5 -32t174 -94.5t112 -162t31.5 -227.5h-295q-10 131 -85 191.5t-189 60.5q-87 0 -159.5 -33.5t-121.5 -88.5t-83.5 -128t-50 -151t-15.5 -158q0 -180 77 -282.5
t228 -102.5q233 0 332 254h294q-31 -134 -96.5 -235t-154.5 -162t-193 -91t-221 -30z" />
    <glyph glyph-name="D" unicode="D" horiz-adv-x="1402" 
d="M23 0l227 1434h534q285 0 430.5 -148.5t145.5 -443.5q0 -180 -52 -333t-149.5 -266.5t-248 -178t-337.5 -64.5h-550zM373 266h196q127 0 222 44.5t150.5 123.5t82.5 177.5t27 217.5q0 187 -74.5 262.5t-253.5 75.5h-209z" />
    <glyph glyph-name="E" unicode="E" horiz-adv-x="1161" 
d="M23 0l227 1434h979l-43 -267h-672l-53 -321h610l-37 -240h-610l-51 -340h692l-43 -266h-999z" />
    <glyph glyph-name="F" unicode="F" horiz-adv-x="1116" 
d="M23 0l227 1434h948l-43 -267h-641l-55 -336h530l-39 -247h-530l-90 -584h-307z" />
    <glyph glyph-name="G" unicode="G" horiz-adv-x="1462" 
d="M694 -20q-289 0 -442.5 155t-153.5 449q0 177 55.5 335t155 276.5t248 187.5t324.5 69q115 0 211 -29t169.5 -86t114.5 -148.5t41 -209.5h-303q-10 63 -37 106.5t-65 64.5t-74.5 29.5t-77.5 8.5q-86 0 -159.5 -33.5t-126 -90.5t-89.5 -131.5t-55 -156.5t-18 -166
q0 -172 79.5 -269t233.5 -97q132 0 226 75t122 230l-276 -6l39 245h581l-20 -124q-55 -349 -230 -516.5t-473 -167.5z" />
    <glyph glyph-name="H" unicode="H" horiz-adv-x="1394" 
d="M1124 1434h308l-228 -1434h-307l94 590h-567l-94 -590h-307l227 1434h307l-94 -590h567z" />
    <glyph glyph-name="I" unicode="I" horiz-adv-x="520" 
d="M23 0l227 1434h307l-227 -1434h-307z" />
    <glyph glyph-name="J" unicode="J" horiz-adv-x="1394" 
d="M621 -20q-274 0 -415 144t-97 421h309q-23 -144 44.5 -221.5t203.5 -77.5q269 0 321 321l137 867h308l-142 -889q-45 -280 -221.5 -422.5t-447.5 -142.5z" />
    <glyph glyph-name="K" unicode="K" horiz-adv-x="1435" 
d="M1489 1434l-651 -641l479 -793h-350l-351 575l-231 -227l-55 -348h-307l227 1434h307l-108 -680l679 680h361z" />
    <glyph glyph-name="L" unicode="L" horiz-adv-x="1128" 
d="M23 0l227 1434h307l-184 -1168h659l-43 -266h-966z" />
    <glyph glyph-name="M" unicode="M" horiz-adv-x="1712" 
d="M23 0l227 1434h387l201 -1016l516 1016h395l-227 -1434h-308l144 903h-10l-451 -903h-242l-172 903h-10l-143 -903h-307z" />
    <glyph glyph-name="N" unicode="N" horiz-adv-x="1419" 
d="M23 0l227 1434h319l422 -936h8l150 936h307l-227 -1434h-332l-418 915h-6l-143 -915h-307z" />
    <glyph glyph-name="O" unicode="O" horiz-adv-x="1507" 
d="M686 -20q-277 0 -433.5 163.5t-156.5 452.5q0 172 56.5 327.5t157 272.5t248.5 186.5t321 69.5q276 0 431.5 -162t155.5 -450q0 -138 -35.5 -266.5t-104 -235.5t-162 -187.5t-217 -125.5t-261.5 -45zM709 244q86 0 160 34.5t125 92t87.5 133.5t54 159t17.5 168
q0 177 -76 267t-219 90q-86 0 -159.5 -33.5t-126 -90.5t-89.5 -132t-55 -158.5t-18 -169.5q0 -177 77.5 -268.5t221.5 -91.5z" />
    <glyph glyph-name="P" unicode="P" horiz-adv-x="1288" 
d="M23 0l227 1434h575q244 0 362 -105t118 -301q0 -251 -171.5 -401t-459.5 -150h-268l-76 -477h-307zM446 743h261q131 0 205.5 66.5t74.5 177.5q0 180 -215 180h-258z" />
    <glyph glyph-name="Q" unicode="Q" horiz-adv-x="1513" 
d="M1466 840q0 -166 -51.5 -317.5t-146.5 -268.5l104 -125l-211 -176l-102 123q-167 -96 -373 -96q-277 0 -433.5 163.5t-156.5 452.5q0 172 56.5 327.5t157 272.5t248.5 186.5t321 69.5q276 0 431.5 -162t155.5 -450zM709 244q95 0 176 43l-160 192l211 176l139 -168
q78 159 78 344q0 177 -76 267t-219 90q-86 0 -159.5 -33.5t-126 -90.5t-89.5 -132t-55 -158.5t-18 -169.5q0 -177 77.5 -268.5t221.5 -91.5z" />
    <glyph glyph-name="R" unicode="R" horiz-adv-x="1302" 
d="M1305 1028q0 -185 -96 -318t-269 -192l223 -518h-305l-199 477h-253l-76 -477h-307l227 1434h575q244 0 362 -105t118 -301zM514 1167l-68 -424h261q131 0 205.5 66.5t74.5 177.5q0 180 -215 180h-258z" />
    <glyph glyph-name="S" unicode="S" horiz-adv-x="1333" 
d="M590 -20q-278 0 -419 128t-105 361h317q-8 -104 55 -170t203 -66q125 0 198.5 52.5t73.5 146.5q0 69 -44 106.5t-152 59.5l-170 33q-64 13 -114.5 30.5t-97.5 46t-78.5 65t-50 89.5t-18.5 119q0 144 82.5 252t221 163.5t311.5 55.5q254 0 388.5 -113t100.5 -327h-315
q18 92 -45.5 139t-173.5 47q-114 0 -179 -49t-65 -135q0 -57 36.5 -96t133.5 -56l156 -31q215 -41 308 -124.5t93 -231.5q0 -154 -87 -268t-233 -170.5t-331 -56.5z" />
    <glyph glyph-name="T" unicode="T" horiz-adv-x="1228" 
d="M377 0l186 1167h-418l43 267h1139l-41 -267h-418l-184 -1167h-307z" />
    <glyph glyph-name="U" unicode="U" horiz-adv-x="1392" 
d="M614 -20q-273 0 -411 143.5t-94 421.5l141 889h309l-137 -867q-26 -156 40 -238.5t202 -82.5q267 0 317 321l139 867h310l-142 -889q-30 -187 -124.5 -315.5t-233.5 -189t-316 -60.5z" />
    <glyph glyph-name="V" unicode="V" horiz-adv-x="1521" 
d="M479 0l-291 1434h318l209 -1121h16l561 1121h328l-746 -1434h-395z" />
    <glyph glyph-name="W" unicode="W" horiz-adv-x="2076" 
d="M334 0l-146 1434h316l71 -1002h13l434 1002h315l121 -1002h12l388 1002h317l-598 -1434h-322l-135 1047l-465 -1047h-321z" />
    <glyph glyph-name="X" unicode="X" horiz-adv-x="1388" 
d="M1468 1434l-569 -695l371 -739h-344l-240 479l-393 -479h-342l606 737l-350 697h344l219 -437l358 437h340z" />
    <glyph glyph-name="Y" unicode="Y" horiz-adv-x="1443" 
d="M479 0l84 526l-375 908h349l231 -611l422 611h352l-663 -908l-82 -526h-318z" />
    <glyph glyph-name="Z" unicode="Z" horiz-adv-x="1271" 
d="M-2 0l43 266l901 901h-743l43 267h1083l-41 -267l-905 -901h770l-43 -266h-1108z" />
    <glyph glyph-name="bracketleft" unicode="[" 
d="M207 403q-13 0 -19 -2v-200q4 -2 19 -2q37 0 50 25t13 77q0 54 -13 78t-50 24zM518 330v-49h-82v-78h96v-49h-155v297h155v-52h-96v-69h82zM203 150q-47 0 -74 4v292q61 9 76 9q67 0 96 -37.5t29 -116.5t-29.5 -115t-97.5 -36zM586 451h80l39 -164l38 164h82
q3 -45 13 -297h-60q0 108 -6 213l-41 -168h-55l-41 168h-2q-4 -140 -4 -213h-58q3 156 15 297zM987 150q-60 0 -84 35.5t-24 115.5q0 81 24 117.5t84 36.5t85.5 -37t25.5 -117q0 -79 -25.5 -115t-85.5 -36zM987 403q-29 0 -39 -23.5t-10 -78.5q0 -54 10 -78t39 -24
q30 0 40.5 24t10.5 78q0 55 -10 78.5t-41 23.5zM967 1016q49 0 79.5 -24.5t39 -51t8.5 -53.5q0 -43 -34.5 -72.5t-72.5 -34.5q-213 -23 -340 -147q3 8 9 22t25 53.5t39 75.5t50 80.5t59.5 76t66 53.5t71.5 22zM285 909q39 0 78 -21t69.5 -55t58.5 -74.5t48 -81.5t35 -75
t22 -55l8 -21q-117 148 -319 148q-49 0 -88 30t-39 76q0 53 33.5 91t93.5 38zM643 1214q38 -37 48.5 -102t-2.5 -131t-31.5 -126.5t-35.5 -98.5l-18 -39q20 191 -125 330q-35 35 -42 81.5t24 83.5q23 23 53 34t65 3.5t64 -35.5z" />
    <glyph glyph-name="backslash" unicode="\" 
d="M207 403q-13 0 -19 -2v-200q4 -2 19 -2q37 0 50 25t13 77q0 54 -13 78t-50 24zM518 330v-49h-82v-78h96v-49h-155v297h155v-52h-96v-69h82zM203 150q-47 0 -74 4v292q61 9 76 9q67 0 96 -37.5t29 -116.5t-29.5 -115t-97.5 -36zM586 451h80l39 -164l38 164h82
q3 -45 13 -297h-60q0 108 -6 213l-41 -168h-55l-41 168h-2q-4 -140 -4 -213h-58q3 156 15 297zM987 150q-60 0 -84 35.5t-24 115.5q0 81 24 117.5t84 36.5t85.5 -37t25.5 -117q0 -79 -25.5 -115t-85.5 -36zM987 403q-29 0 -39 -23.5t-10 -78.5q0 -54 10 -78t39 -24
q30 0 40.5 24t10.5 78q0 55 -10 78.5t-41 23.5zM967 1016q49 0 79.5 -24.5t39 -51t8.5 -53.5q0 -43 -34.5 -72.5t-72.5 -34.5q-213 -23 -340 -147q3 8 9 22t25 53.5t39 75.5t50 80.5t59.5 76t66 53.5t71.5 22zM285 909q39 0 78 -21t69.5 -55t58.5 -74.5t48 -81.5t35 -75
t22 -55l8 -21q-117 148 -319 148q-49 0 -88 30t-39 76q0 53 33.5 91t93.5 38zM643 1214q38 -37 48.5 -102t-2.5 -131t-31.5 -126.5t-35.5 -98.5l-18 -39q20 191 -125 330q-35 35 -42 81.5t24 83.5q23 23 53 34t65 3.5t64 -35.5z" />
    <glyph glyph-name="bracketright" unicode="]" 
d="M207 403q-13 0 -19 -2v-200q4 -2 19 -2q37 0 50 25t13 77q0 54 -13 78t-50 24zM518 330v-49h-82v-78h96v-49h-155v297h155v-52h-96v-69h82zM203 150q-47 0 -74 4v292q61 9 76 9q67 0 96 -37.5t29 -116.5t-29.5 -115t-97.5 -36zM586 451h80l39 -164l38 164h82
q3 -45 13 -297h-60q0 108 -6 213l-41 -168h-55l-41 168h-2q-4 -140 -4 -213h-58q3 156 15 297zM987 150q-60 0 -84 35.5t-24 115.5q0 81 24 117.5t84 36.5t85.5 -37t25.5 -117q0 -79 -25.5 -115t-85.5 -36zM987 403q-29 0 -39 -23.5t-10 -78.5q0 -54 10 -78t39 -24
q30 0 40.5 24t10.5 78q0 55 -10 78.5t-41 23.5zM967 1016q49 0 79.5 -24.5t39 -51t8.5 -53.5q0 -43 -34.5 -72.5t-72.5 -34.5q-213 -23 -340 -147q3 8 9 22t25 53.5t39 75.5t50 80.5t59.5 76t66 53.5t71.5 22zM285 909q39 0 78 -21t69.5 -55t58.5 -74.5t48 -81.5t35 -75
t22 -55l8 -21q-117 148 -319 148q-49 0 -88 30t-39 76q0 53 33.5 91t93.5 38zM643 1214q38 -37 48.5 -102t-2.5 -131t-31.5 -126.5t-35.5 -98.5l-18 -39q20 191 -125 330q-35 35 -42 81.5t24 83.5q23 23 53 34t65 3.5t64 -35.5z" />
    <glyph glyph-name="asciicircum" unicode="^" 
d="M207 403q-13 0 -19 -2v-200q4 -2 19 -2q37 0 50 25t13 77q0 54 -13 78t-50 24zM518 330v-49h-82v-78h96v-49h-155v297h155v-52h-96v-69h82zM203 150q-47 0 -74 4v292q61 9 76 9q67 0 96 -37.5t29 -116.5t-29.5 -115t-97.5 -36zM586 451h80l39 -164l38 164h82
q3 -45 13 -297h-60q0 108 -6 213l-41 -168h-55l-41 168h-2q-4 -140 -4 -213h-58q3 156 15 297zM987 150q-60 0 -84 35.5t-24 115.5q0 81 24 117.5t84 36.5t85.5 -37t25.5 -117q0 -79 -25.5 -115t-85.5 -36zM987 403q-29 0 -39 -23.5t-10 -78.5q0 -54 10 -78t39 -24
q30 0 40.5 24t10.5 78q0 55 -10 78.5t-41 23.5zM967 1016q49 0 79.5 -24.5t39 -51t8.5 -53.5q0 -43 -34.5 -72.5t-72.5 -34.5q-213 -23 -340 -147q3 8 9 22t25 53.5t39 75.5t50 80.5t59.5 76t66 53.5t71.5 22zM285 909q39 0 78 -21t69.5 -55t58.5 -74.5t48 -81.5t35 -75
t22 -55l8 -21q-117 148 -319 148q-49 0 -88 30t-39 76q0 53 33.5 91t93.5 38zM643 1214q38 -37 48.5 -102t-2.5 -131t-31.5 -126.5t-35.5 -98.5l-18 -39q20 191 -125 330q-35 35 -42 81.5t24 83.5q23 23 53 34t65 3.5t64 -35.5z" />
    <glyph glyph-name="underscore" unicode="_" 
d="M207 403q-13 0 -19 -2v-200q4 -2 19 -2q37 0 50 25t13 77q0 54 -13 78t-50 24zM518 330v-49h-82v-78h96v-49h-155v297h155v-52h-96v-69h82zM203 150q-47 0 -74 4v292q61 9 76 9q67 0 96 -37.5t29 -116.5t-29.5 -115t-97.5 -36zM586 451h80l39 -164l38 164h82
q3 -45 13 -297h-60q0 108 -6 213l-41 -168h-55l-41 168h-2q-4 -140 -4 -213h-58q3 156 15 297zM987 150q-60 0 -84 35.5t-24 115.5q0 81 24 117.5t84 36.5t85.5 -37t25.5 -117q0 -79 -25.5 -115t-85.5 -36zM987 403q-29 0 -39 -23.5t-10 -78.5q0 -54 10 -78t39 -24
q30 0 40.5 24t10.5 78q0 55 -10 78.5t-41 23.5zM967 1016q49 0 79.5 -24.5t39 -51t8.5 -53.5q0 -43 -34.5 -72.5t-72.5 -34.5q-213 -23 -340 -147q3 8 9 22t25 53.5t39 75.5t50 80.5t59.5 76t66 53.5t71.5 22zM285 909q39 0 78 -21t69.5 -55t58.5 -74.5t48 -81.5t35 -75
t22 -55l8 -21q-117 148 -319 148q-49 0 -88 30t-39 76q0 53 33.5 91t93.5 38zM643 1214q38 -37 48.5 -102t-2.5 -131t-31.5 -126.5t-35.5 -98.5l-18 -39q20 191 -125 330q-35 35 -42 81.5t24 83.5q23 23 53 34t65 3.5t64 -35.5z" />
    <glyph glyph-name="grave" unicode="`" 
d="M207 403q-13 0 -19 -2v-200q4 -2 19 -2q37 0 50 25t13 77q0 54 -13 78t-50 24zM518 330v-49h-82v-78h96v-49h-155v297h155v-52h-96v-69h82zM203 150q-47 0 -74 4v292q61 9 76 9q67 0 96 -37.5t29 -116.5t-29.5 -115t-97.5 -36zM586 451h80l39 -164l38 164h82
q3 -45 13 -297h-60q0 108 -6 213l-41 -168h-55l-41 168h-2q-4 -140 -4 -213h-58q3 156 15 297zM987 150q-60 0 -84 35.5t-24 115.5q0 81 24 117.5t84 36.5t85.5 -37t25.5 -117q0 -79 -25.5 -115t-85.5 -36zM987 403q-29 0 -39 -23.5t-10 -78.5q0 -54 10 -78t39 -24
q30 0 40.5 24t10.5 78q0 55 -10 78.5t-41 23.5zM967 1016q49 0 79.5 -24.5t39 -51t8.5 -53.5q0 -43 -34.5 -72.5t-72.5 -34.5q-213 -23 -340 -147q3 8 9 22t25 53.5t39 75.5t50 80.5t59.5 76t66 53.5t71.5 22zM285 909q39 0 78 -21t69.5 -55t58.5 -74.5t48 -81.5t35 -75
t22 -55l8 -21q-117 148 -319 148q-49 0 -88 30t-39 76q0 53 33.5 91t93.5 38zM643 1214q38 -37 48.5 -102t-2.5 -131t-31.5 -126.5t-35.5 -98.5l-18 -39q20 191 -125 330q-35 35 -42 81.5t24 83.5q23 23 53 34t65 3.5t64 -35.5z" />
    <glyph glyph-name="a" unicode="a" horiz-adv-x="1138" 
d="M317 -20q-132 0 -217.5 62.5t-85.5 195.5q0 79 31.5 139t90 99t130.5 62.5t164 36.5l209 29q73 9 95 24t26 64l6 45q7 72 -36.5 100.5t-113.5 28.5q-167 0 -186 -143v-8l-283 -4l7 43q30 163 154.5 247t355.5 84q239 0 334 -90.5t67 -277.5l-117 -717h-243l20 195h-12
q-7 -27 -37 -62t-77.5 -70t-122.5 -59t-159 -24zM457 197q104 0 172.5 55t79.5 117l18 112q-4 -4 -9 -7t-12.5 -5.5t-14 -4.5t-18 -4t-19 -3.5t-22.5 -3.5t-24 -4l-104 -17q-185 -29 -185 -135q0 -100 138 -100z" />
    <glyph glyph-name="b" unicode="b" horiz-adv-x="1241" 
d="M809 1085q76 0 143 -25t122 -74.5t87.5 -133t32.5 -190.5q0 -180 -69.5 -335.5t-199 -251t-290.5 -95.5q-115 0 -191.5 48.5t-99.5 121.5l-22 -150h-299l227 1434h299l-84 -521q42 72 136 122t208 50zM602 227q135 0 219 110.5t84 262.5q0 118 -59 178t-156 60
q-89 0 -159.5 -53.5t-107 -136.5t-36.5 -177q0 -121 60.5 -182.5t154.5 -61.5z" />
    <glyph glyph-name="c" unicode="c" horiz-adv-x="1140" 
d="M508 -20q-72 0 -137 15t-124.5 49t-103 84.5t-69 127.5t-25.5 172q0 134 46 254.5t127 209.5t200 141t258 52q62 0 118 -10.5t115 -40t100.5 -76t65.5 -126t19 -183.5h-267q-3 95 -54.5 142t-139.5 47q-60 0 -110.5 -21.5t-85.5 -58t-59.5 -84.5t-36 -100t-11.5 -107
q0 -114 52 -177t157 -63q90 0 155.5 48t98.5 141h264q-25 -102 -73.5 -181.5t-104.5 -126.5t-124.5 -77t-128.5 -40.5t-122 -10.5z" />
    <glyph glyph-name="d" unicode="d" horiz-adv-x="1236" 
d="M975 1434h299l-227 -1434h-299l24 152q-42 -72 -136 -122t-208 -50q-76 0 -143 25t-121 75t-85.5 134t-31.5 194q0 136 41 259.5t112.5 216t175 147t222.5 54.5q116 0 194 -48.5t101 -121.5zM547 227q133 0 218 111t85 258q0 120 -60.5 181t-158.5 61q-131 0 -214 -110.5
t-83 -260.5q0 -120 58 -180t155 -60z" />
    <glyph glyph-name="e" unicode="e" horiz-adv-x="1150" 
d="M1075 457h-741v-4q0 -141 55 -198.5t166 -57.5q92 0 145 36t86 107h265q-68 -179 -213.5 -273t-339.5 -94q-95 0 -173.5 24.5t-141 76t-97.5 140.5t-35 210q0 187 73 336.5t214 237t328 87.5q96 0 173.5 -23t138.5 -72t94.5 -132t33.5 -196q0 -137 -31 -205zM631 858
q-220 0 -279 -240h477q16 106 -33 173t-165 67z" />
    <glyph glyph-name="f" unicode="f" horiz-adv-x="747" 
d="M721 1239q-126 0 -146 -135l-6 -39h205l-35 -229h-207l-131 -836h-299l136 836h-154l35 229h155l11 70q54 331 399 331h160l-35 -227h-88z" />
    <glyph glyph-name="g" unicode="g" 
d="M903 1065h299l-149 -944l-11 -82q-11 -83 -40.5 -152t-69 -116.5t-91.5 -83.5t-103.5 -57.5t-109.5 -35t-106.5 -18t-97.5 -4.5q-64 0 -123 7.5t-125.5 32t-111.5 63t-68.5 106.5t-9.5 158h264q-5 -48 26.5 -80t76.5 -44t100 -12q112 0 194 60t96 176l11 82l10 51
q-54 -64 -143 -104.5t-193 -40.5q-58 0 -111.5 13.5t-103 44.5t-85.5 77t-57.5 115t-21.5 155q0 178 67 326.5t192 237.5t284 89q104 0 181.5 -41.5t111.5 -103.5zM549 276q130 0 211.5 99t81.5 239q0 110 -60 167t-153 57q-129 0 -211 -99.5t-82 -238.5q0 -112 58 -168
t155 -56z" />
    <glyph glyph-name="h" unicode="h" horiz-adv-x="1230" 
d="M840 1085q166 0 252 -105t55 -304l-107 -676h-299l95 604q21 118 -24 176t-142 58q-98 0 -165.5 -59.5t-88.5 -182.5v2l-94 -598h-299l167 1065l60 369h299l-60 -369l-34 -223h14q13 40 42 80.5t73.5 78t111.5 61t144 23.5z" />
    <glyph glyph-name="i" unicode="i" horiz-adv-x="509" 
d="M383 1190q-65 0 -114.5 47.5t-49.5 114.5q0 66 49 112.5t115 46.5q67 0 115.5 -46t48.5 -113t-48.5 -114.5t-115.5 -47.5zM23 0l167 1065h299l-167 -1065h-299z" />
    <glyph glyph-name="j" unicode="j" horiz-adv-x="534" 
d="M408 1190q-65 0 -114.5 47.5t-49.5 114.5q0 66 49 112.5t115 46.5q67 0 115 -46t48 -113t-48.5 -114.5t-114.5 -47.5zM-66 -399q-117 0 -176 6l39 233h105q64 0 97 36t44 104l172 1085h299l-180 -1131q-25 -171 -130 -252t-270 -81z" />
    <glyph glyph-name="k" unicode="k" horiz-adv-x="1196" 
d="M1210 1065l-501 -453l389 -612h-320l-274 428l-133 -121l-49 -307h-299l227 1434h299l-129 -809l471 440h319z" />
    <glyph glyph-name="l" unicode="l" horiz-adv-x="512" 
d="M23 0l227 1434h299l-227 -1434h-299z" />
    <glyph glyph-name="m" unicode="m" horiz-adv-x="1847" 
d="M1477 1085q156 0 236.5 -105t49.5 -304l-106 -676h-299l94 604q21 116 -19 175t-122 59q-85 0 -144.5 -55.5t-81.5 -170.5l-96 -612h-299l94 604q21 117 -19 175.5t-126 58.5t-144 -59t-79 -183v2l-94 -598h-299l167 1065h299l-34 -223h14q12 40 39.5 80.5t69 78t104 61
t133.5 23.5q112 0 188.5 -62t94.5 -181h2q15 39 46.5 79.5t77.5 78t112.5 61.5t140.5 24z" />
    <glyph glyph-name="n" unicode="n" horiz-adv-x="1230" 
d="M840 1085q166 0 252 -105t55 -304l-107 -676h-299l95 604q21 118 -24 176t-142 58q-98 0 -165.5 -59.5t-88.5 -182.5v2l-94 -598h-299l167 1065h299l-34 -223h14q13 40 42 80.5t73.5 78t111.5 61t144 23.5z" />
    <glyph glyph-name="o" unicode="o" horiz-adv-x="1179" 
d="M506 -20q-94 0 -174.5 26.5t-144 80t-100 143t-36.5 206.5q0 176 77.5 323.5t221 236.5t324.5 89q94 0 174 -26.5t144 -80t100 -143t36 -206.5q0 -176 -77 -323.5t-220.5 -236.5t-324.5 -89zM543 227q72 0 130.5 32.5t95 86t56 118.5t19.5 134q0 121 -56.5 180.5
t-150.5 59.5q-72 0 -130.5 -32.5t-95 -86t-56 -118.5t-19.5 -134q0 -121 56.5 -180.5t150.5 -59.5z" />
    <glyph glyph-name="p" unicode="p" horiz-adv-x="1241" 
d="M811 1085q76 0 143 -25.5t122 -75.5t86.5 -135.5t31.5 -195.5q0 -131 -42 -253.5t-115 -215t-181 -148.5t-231 -56q-110 0 -184 48.5t-97 121.5l-84 -539h-299l229 1454h299l-24 -152q42 72 137 122t209 50zM594 227q137 0 224 110t87 259q0 120 -59 181t-152 61
q-92 0 -163 -53.5t-107.5 -137.5t-36.5 -180q0 -118 58 -179t149 -61z" />
    <glyph glyph-name="q" unicode="q" horiz-adv-x="1241" 
d="M920 1065h299l-230 -1454h-299l82 541q-40 -72 -135 -122t-209 -50q-76 0 -143 25t-121 75t-85.5 134t-31.5 194q0 136 41 259.5t112.5 216t175 147t222.5 54.5q116 0 194 -49t101 -121zM547 227q133 0 218 111t85 258q0 120 -60.5 181t-158.5 61q-131 0 -214 -110.5
t-83 -260.5q0 -120 58 -180t155 -60z" />
    <glyph glyph-name="r" unicode="r" horiz-adv-x="837" 
d="M805 1073q43 0 82 -10l-41 -252q-50 6 -84 6q-60 0 -115 -17t-105 -52.5t-87 -98.5t-54 -147l-79 -502h-299l167 1065h299l-40 -258h12q48 123 135 194.5t209 71.5z" />
    <glyph glyph-name="s" unicode="s" horiz-adv-x="1028" 
d="M424 -20q-219 0 -327 94t-81 276h269q-3 -74 42 -111.5t132 -37.5q84 0 131 33.5t47 89.5q0 34 -25 54.5t-86 33.5l-164 37q-135 31 -194 99.5t-59 172.5q0 171 136 267.5t345 96.5q210 0 308.5 -97.5t70.5 -270.5h-248q6 76 -40 111.5t-128 35.5q-71 0 -115.5 -27
t-44.5 -77q0 -37 30.5 -60t98.5 -41l166 -36q60 -15 103 -34t81.5 -49t58 -76.5t19.5 -107.5q0 -118 -71 -204.5t-188.5 -129t-266.5 -42.5z" />
    <glyph glyph-name="t" unicode="t" horiz-adv-x="778" 
d="M561 836l-76 -474q-20 -137 105 -137h94l-37 -233q-57 -6 -168 -6q-166 0 -245 80.5t-52 252.5l82 517h-180l35 229h182l43 274h299l-45 -274h211l-35 -229h-213z" />
    <glyph glyph-name="u" unicode="u" horiz-adv-x="1230" 
d="M909 1065h299l-168 -1065h-299l35 223h-14q-13 -40 -42 -80.5t-73.5 -78t-111.5 -61t-144 -23.5q-166 0 -252 105t-55 304l106 676h299l-94 -604q-21 -118 24 -176t142 -58q98 0 165.5 59.5t88.5 182.5v-2z" />
    <glyph glyph-name="v" unicode="v" horiz-adv-x="1220" 
d="M338 0l-219 1065h303l143 -778h10l388 778h307l-549 -1065h-383z" />
    <glyph glyph-name="w" unicode="w" horiz-adv-x="1695" 
d="M236 0l-117 1065h280l62 -776h8l330 776h260l90 -776h8l305 776h283l-447 -1065h-340l-90 668l-288 -668h-344z" />
    <glyph glyph-name="x" unicode="x" horiz-adv-x="1187" 
d="M-29 0l453 539l-262 526h317l148 -313l239 313h328l-430 -526l285 -539h-318l-168 326l-264 -326h-328z" />
    <glyph glyph-name="y" unicode="y" horiz-adv-x="1185" 
d="M-4 -410l37 254q52 -4 90 -5t70.5 9t53 18.5t39 25t28.5 29t20 28.5q25 39 30 71t-6 74l-239 971h305l139 -688l363 688h309l-602 -1071q-95 -169 -183.5 -259.5t-196 -125.5t-257.5 -19z" />
    <glyph glyph-name="z" unicode="z" horiz-adv-x="1044" 
d="M-2 0l41 250l614 565h-508l41 250h861l-41 -250l-617 -565h529l-39 -250h-881z" />
    <glyph glyph-name="braceleft" unicode="{" 
d="M207 403q-13 0 -19 -2v-200q4 -2 19 -2q37 0 50 25t13 77q0 54 -13 78t-50 24zM518 330v-49h-82v-78h96v-49h-155v297h155v-52h-96v-69h82zM203 150q-47 0 -74 4v292q61 9 76 9q67 0 96 -37.5t29 -116.5t-29.5 -115t-97.5 -36zM586 451h80l39 -164l38 164h82
q3 -45 13 -297h-60q0 108 -6 213l-41 -168h-55l-41 168h-2q-4 -140 -4 -213h-58q3 156 15 297zM987 150q-60 0 -84 35.5t-24 115.5q0 81 24 117.5t84 36.5t85.5 -37t25.5 -117q0 -79 -25.5 -115t-85.5 -36zM987 403q-29 0 -39 -23.5t-10 -78.5q0 -54 10 -78t39 -24
q30 0 40.5 24t10.5 78q0 55 -10 78.5t-41 23.5zM967 1016q49 0 79.5 -24.5t39 -51t8.5 -53.5q0 -43 -34.5 -72.5t-72.5 -34.5q-213 -23 -340 -147q3 8 9 22t25 53.5t39 75.5t50 80.5t59.5 76t66 53.5t71.5 22zM285 909q39 0 78 -21t69.5 -55t58.5 -74.5t48 -81.5t35 -75
t22 -55l8 -21q-117 148 -319 148q-49 0 -88 30t-39 76q0 53 33.5 91t93.5 38zM643 1214q38 -37 48.5 -102t-2.5 -131t-31.5 -126.5t-35.5 -98.5l-18 -39q20 191 -125 330q-35 35 -42 81.5t24 83.5q23 23 53 34t65 3.5t64 -35.5z" />
    <glyph glyph-name="bar" unicode="|" 
d="M207 403q-13 0 -19 -2v-200q4 -2 19 -2q37 0 50 25t13 77q0 54 -13 78t-50 24zM518 330v-49h-82v-78h96v-49h-155v297h155v-52h-96v-69h82zM203 150q-47 0 -74 4v292q61 9 76 9q67 0 96 -37.5t29 -116.5t-29.5 -115t-97.5 -36zM586 451h80l39 -164l38 164h82
q3 -45 13 -297h-60q0 108 -6 213l-41 -168h-55l-41 168h-2q-4 -140 -4 -213h-58q3 156 15 297zM987 150q-60 0 -84 35.5t-24 115.5q0 81 24 117.5t84 36.5t85.5 -37t25.5 -117q0 -79 -25.5 -115t-85.5 -36zM987 403q-29 0 -39 -23.5t-10 -78.5q0 -54 10 -78t39 -24
q30 0 40.5 24t10.5 78q0 55 -10 78.5t-41 23.5zM967 1016q49 0 79.5 -24.5t39 -51t8.5 -53.5q0 -43 -34.5 -72.5t-72.5 -34.5q-213 -23 -340 -147q3 8 9 22t25 53.5t39 75.5t50 80.5t59.5 76t66 53.5t71.5 22zM285 909q39 0 78 -21t69.5 -55t58.5 -74.5t48 -81.5t35 -75
t22 -55l8 -21q-117 148 -319 148q-49 0 -88 30t-39 76q0 53 33.5 91t93.5 38zM643 1214q38 -37 48.5 -102t-2.5 -131t-31.5 -126.5t-35.5 -98.5l-18 -39q20 191 -125 330q-35 35 -42 81.5t24 83.5q23 23 53 34t65 3.5t64 -35.5z" />
    <glyph glyph-name="braceright" unicode="}" 
d="M207 403q-13 0 -19 -2v-200q4 -2 19 -2q37 0 50 25t13 77q0 54 -13 78t-50 24zM518 330v-49h-82v-78h96v-49h-155v297h155v-52h-96v-69h82zM203 150q-47 0 -74 4v292q61 9 76 9q67 0 96 -37.5t29 -116.5t-29.5 -115t-97.5 -36zM586 451h80l39 -164l38 164h82
q3 -45 13 -297h-60q0 108 -6 213l-41 -168h-55l-41 168h-2q-4 -140 -4 -213h-58q3 156 15 297zM987 150q-60 0 -84 35.5t-24 115.5q0 81 24 117.5t84 36.5t85.5 -37t25.5 -117q0 -79 -25.5 -115t-85.5 -36zM987 403q-29 0 -39 -23.5t-10 -78.5q0 -54 10 -78t39 -24
q30 0 40.5 24t10.5 78q0 55 -10 78.5t-41 23.5zM967 1016q49 0 79.5 -24.5t39 -51t8.5 -53.5q0 -43 -34.5 -72.5t-72.5 -34.5q-213 -23 -340 -147q3 8 9 22t25 53.5t39 75.5t50 80.5t59.5 76t66 53.5t71.5 22zM285 909q39 0 78 -21t69.5 -55t58.5 -74.5t48 -81.5t35 -75
t22 -55l8 -21q-117 148 -319 148q-49 0 -88 30t-39 76q0 53 33.5 91t93.5 38zM643 1214q38 -37 48.5 -102t-2.5 -131t-31.5 -126.5t-35.5 -98.5l-18 -39q20 191 -125 330q-35 35 -42 81.5t24 83.5q23 23 53 34t65 3.5t64 -35.5z" />
    <glyph glyph-name="asciitilde" unicode="~" 
d="M207 403q-13 0 -19 -2v-200q4 -2 19 -2q37 0 50 25t13 77q0 54 -13 78t-50 24zM518 330v-49h-82v-78h96v-49h-155v297h155v-52h-96v-69h82zM203 150q-47 0 -74 4v292q61 9 76 9q67 0 96 -37.5t29 -116.5t-29.5 -115t-97.5 -36zM586 451h80l39 -164l38 164h82
q3 -45 13 -297h-60q0 108 -6 213l-41 -168h-55l-41 168h-2q-4 -140 -4 -213h-58q3 156 15 297zM987 150q-60 0 -84 35.5t-24 115.5q0 81 24 117.5t84 36.5t85.5 -37t25.5 -117q0 -79 -25.5 -115t-85.5 -36zM987 403q-29 0 -39 -23.5t-10 -78.5q0 -54 10 -78t39 -24
q30 0 40.5 24t10.5 78q0 55 -10 78.5t-41 23.5zM967 1016q49 0 79.5 -24.5t39 -51t8.5 -53.5q0 -43 -34.5 -72.5t-72.5 -34.5q-213 -23 -340 -147q3 8 9 22t25 53.5t39 75.5t50 80.5t59.5 76t66 53.5t71.5 22zM285 909q39 0 78 -21t69.5 -55t58.5 -74.5t48 -81.5t35 -75
t22 -55l8 -21q-117 148 -319 148q-49 0 -88 30t-39 76q0 53 33.5 91t93.5 38zM643 1214q38 -37 48.5 -102t-2.5 -131t-31.5 -126.5t-35.5 -98.5l-18 -39q20 191 -125 330q-35 35 -42 81.5t24 83.5q23 23 53 34t65 3.5t64 -35.5z" />
    </font>
</defs>
</svg>
