<svg width="189" height="27" viewBox="0 0 189 27" fill="none" xmlns="http://www.w3.org/2000/svg">
<path d="M24.6041 7.44719C24.6041 10.1145 23.0471 11.6715 20.5307 11.6715C20.5105 11.6715 20.4904 11.6713 20.4706 11.6713C18.3442 11.6517 16.6676 9.83986 16.6676 7.71345V0.000185013H0V8.78076C0 9.02401 0.00637724 9.26681 0.0129824 9.51006C0.387428 19.0956 8.09386 26.4995 20.5307 26.4995C33.2038 26.4995 41.0613 18.7145 41.0613 7.22375V3.27021H24.6041V7.44719Z" fill="white"/>
<path d="M87.4555 25.3867H94.1268L103.956 3.2705H77.6719L87.4555 25.3867Z" fill="white"/>
<path d="M161.519 10.9323H157.591V3.2705H141.135V25.3867H161.519C176.119 25.3867 186.649 16.1406 188.392 3.2705H171.603C170.138 7.84516 166.111 10.9323 161.519 10.9323Z" fill="white"/>
<path d="M60.8438 25.3867H76.9285V3.2706H60.8438V25.3867Z" fill="white"/>
<path d="M104.801 25.3867H120.886V3.2706H104.801V25.3867Z" fill="white"/>
</svg>
